<svg width="106" height="58" viewBox="0 0 106 58" fill="none" xmlns="http://www.w3.org/2000/svg">
<path d="M52.14 31.9302H53.516V34.9402H54.462L56.182 31.9302H57.644L55.58 35.4562L57.816 39.3262H56.268L54.462 36.0582H53.516V39.3262H52.14V31.9302ZM60.826 33.9082C62.46 33.9082 63.75 35.1122 63.75 36.7462C63.75 38.3802 62.46 39.5842 60.826 39.5842C59.192 39.5842 57.902 38.4662 57.902 36.7462C57.902 35.0262 59.192 33.9082 60.826 33.9082ZM64.868 33.9942H66.158V38.2082H67.792V33.9942H69.082V38.2082H70.716V33.9942H72.006V39.3262H64.868V33.9942ZM75.79 33.9082C77.338 33.9082 78.198 35.0262 78.198 36.4022C78.198 36.5742 78.198 36.7462 78.112 36.9182H74.414C74.5 37.8642 75.188 38.3802 76.048 38.3802C76.564 38.3802 77.166 38.1222 77.596 37.7782L78.112 38.7242C77.596 39.2402 76.736 39.4982 75.962 39.4982C74.156 39.4982 73.124 38.2082 73.124 36.6602C73.038 35.0262 74.156 33.9082 75.79 33.9082ZM78.8 38.2082C79.488 38.1222 79.918 37.5202 79.918 35.6282V33.9942H83.788V39.3262H82.498V35.0262H81.208V35.7142C81.208 38.0362 80.606 39.4122 78.8 39.4122V38.2082ZM87.572 33.9082C89.12 33.9082 89.98 35.0262 89.98 36.4022C89.98 36.5742 89.98 36.7462 89.894 36.9182H86.196C86.282 37.8642 86.97 38.3802 87.83 38.3802C88.346 38.3802 88.948 38.1222 89.378 37.7782L89.894 38.7242C89.378 39.2402 88.518 39.4982 87.744 39.4982C85.938 39.4982 84.906 38.2082 84.906 36.6602C84.82 35.0262 86.024 33.9082 87.572 33.9082ZM91.012 33.9942H92.302V36.0582H92.99L94.28 33.9942H95.742L94.022 36.5742L95.914 39.3262H94.366L92.99 37.1762H92.302V39.3262H91.012V33.9942ZM60.826 38.2942C61.686 38.2942 62.46 37.6062 62.46 36.6602C62.46 35.7142 61.772 35.0262 60.826 35.0262C59.966 35.0262 59.278 35.7142 59.278 36.6602C59.278 37.6062 59.966 38.2942 60.826 38.2942ZM76.822 35.9722C76.822 35.2842 76.306 34.8542 75.79 34.8542C75.102 34.8542 74.586 35.2842 74.5 35.9722C74.414 35.9722 76.822 35.9722 76.822 35.9722ZM88.604 35.9722C88.604 35.2842 88.088 34.8542 87.572 34.8542C86.884 34.8542 86.368 35.2842 86.282 35.9722C86.196 35.9722 88.604 35.9722 88.604 35.9722Z" fill="#2D3540"/>
<path d="M70.802 15.676V28.318C70.802 28.49 70.63 28.662 70.458 28.662H67.878C67.706 28.662 67.534 28.49 67.534 28.318V15.676C67.534 15.504 67.706 15.332 67.878 15.332H70.458C70.63 15.332 70.802 15.504 70.802 15.676ZM90.84 15.332C90.926 15.332 91.098 15.418 91.184 15.504C91.27 15.59 91.27 15.676 91.27 15.762L87.056 28.404C86.97 28.576 86.884 28.662 86.712 28.662H84.39C84.218 28.662 84.132 28.576 84.046 28.404L81.638 21.094L79.144 28.49C79.058 28.662 78.972 28.748 78.8 28.748H76.478C76.306 28.748 76.22 28.662 76.134 28.49L71.92 15.762C71.92 15.676 71.92 15.59 72.006 15.504C72.092 15.418 72.178 15.332 72.264 15.332H75.102C75.274 15.332 75.36 15.418 75.446 15.59L77.682 23.072L80.176 15.59C80.262 15.418 80.348 15.332 80.52 15.332H82.584C82.756 15.332 82.842 15.418 82.928 15.59L85.422 23.072L87.658 15.59C87.658 15.418 87.83 15.332 88.002 15.332H90.84ZM95.226 15.332C95.398 15.332 95.57 15.504 95.57 15.676V28.318C95.57 28.49 95.398 28.662 95.226 28.662H92.646C92.474 28.662 92.302 28.49 92.302 28.318V15.676C92.302 15.504 92.474 15.332 92.646 15.332H95.226ZM65.986 28.232C66.158 28.404 65.986 28.662 65.814 28.662H62.632C62.546 28.662 62.374 28.576 62.288 28.49L61.772 27.802C60.654 28.49 59.364 28.92 57.988 28.92C54.118 28.92 51.022 25.824 51.022 21.954C51.022 18.084 54.118 14.988 57.988 14.988C61.858 14.988 64.954 18.084 64.954 21.954C64.954 23.33 64.524 24.62 63.836 25.738L65.986 28.232ZM39.756 34.338C40.444 34.596 40.616 35.542 40.702 35.972C40.788 36.746 40.616 37.004 40.358 37.004C40.1 37.004 39.756 36.746 39.412 36.144C39.068 35.542 38.896 34.854 39.068 34.51C39.154 34.338 39.412 34.166 39.756 34.338ZM35.886 37.176C36.316 37.176 36.746 37.348 37.176 37.692C37.95 38.38 38.208 39.068 37.778 39.67C37.52 39.928 37.176 40.1 36.746 40.1C36.316 40.1 35.886 39.928 35.542 39.67C34.854 39.068 34.682 38.036 35.112 37.52C35.284 37.262 35.542 37.176 35.886 37.176ZM27.2 44.4C17.74 44.4 10 36.746 10 27.2C10 17.654 17.654 10 27.2 10C36.66 10 44.4 17.654 44.4 27.2C44.4 30.382 43.54 33.478 41.992 36.058C41.906 36.144 41.82 36.144 41.82 35.972C41.218 31.758 38.638 29.436 34.94 28.748C34.596 28.662 34.596 28.49 35.026 28.49C36.144 28.404 37.778 28.404 38.638 28.576C38.724 28.146 38.724 27.716 38.724 27.286C38.724 21.008 33.65 15.934 27.372 15.934C21.094 15.934 16.02 21.008 16.02 27.286C16.02 33.564 20.922 38.552 27.2 38.552H27.716C27.544 37.52 27.458 36.488 27.458 35.456C27.458 34.768 27.63 34.682 27.974 35.198C29.522 37.95 31.758 40.358 36.23 41.304C39.842 42.078 43.454 43.024 47.324 47.926C47.668 48.356 47.152 48.786 46.722 48.442C42.766 44.916 39.154 43.798 35.886 43.798C32.188 43.884 29.694 44.4 27.2 44.4ZM59.794 25.394L58.418 23.76C58.246 23.588 58.418 23.33 58.59 23.33H61.514C61.686 22.9 61.772 22.47 61.772 22.04C61.772 19.976 60.224 18.17 58.074 18.17C55.924 18.17 54.376 19.976 54.376 22.04C54.376 24.104 55.924 25.91 58.074 25.91C58.676 25.824 59.278 25.652 59.794 25.394Z" fill="#FF8C00"/>
</svg>
