<svg width="116" height="58" viewBox="0 0 116 58" fill="none" xmlns="http://www.w3.org/2000/svg">
<path d="M26.9473 12.3468C27.4984 11.7957 28.0361 11.2302 28.6007 10.6943C29.1913 11.2421 29.771 11.8025 30.3633 12.3477C29.7685 12.8895 29.1921 13.4516 28.6023 13.9993C28.0353 13.4651 27.5001 12.8971 26.9473 12.3468Z" fill="#F8BD15"/>
<path fill-rule="evenodd" clip-rule="evenodd" d="M28.1646 14.5479C27.1816 14.6079 26.1961 14.7101 25.2417 14.9629C23.1531 15.4641 21.2208 16.5292 19.6152 17.956C19.7732 18.3419 19.9342 18.727 20.0953 19.1122C20.7666 20.7181 21.4388 22.3263 21.8996 24.0081C22.2661 24.0283 22.6334 24.0258 23.0007 24.0233C23.1873 24.022 23.374 24.0208 23.5606 24.0225C23.2453 23.2244 22.917 22.4312 22.5886 21.638C22.1424 20.5602 21.6962 19.4823 21.2829 18.3921C21.4946 18.2569 21.7013 18.1132 21.9055 17.9678C22.37 19.0435 22.8195 20.1257 23.2689 21.2079C23.5771 21.9498 23.8852 22.6918 24.1982 23.4316C24.3268 23.7494 24.6267 24.0292 24.9846 24.0199C26.0449 24.0267 27.1051 24.025 28.1654 24.0191C28.1654 23.0721 28.1656 22.1251 28.1658 21.1781C28.1664 18.968 28.1669 16.7579 28.1646 14.5479ZM26.6244 16.3126C25.4994 16.5265 24.3921 16.8477 23.3445 17.3117C23.6695 18.098 23.9857 18.8884 24.3019 19.6788C24.6746 20.6107 25.0474 21.5426 25.4348 22.4679C25.6097 22.8524 26.0229 22.827 26.3919 22.8043C26.4746 22.7992 26.5552 22.7943 26.6303 22.7941C26.6228 21.5155 26.6239 20.2368 26.625 18.9582C26.6257 18.0763 26.6265 17.1945 26.6244 16.3126Z" fill="#F8BD15"/>
<path fill-rule="evenodd" clip-rule="evenodd" d="M33.0757 15.294C31.7768 14.8299 30.404 14.622 29.0321 14.5459C29.0321 15.5433 29.0326 16.5408 29.0331 17.5382C29.0342 19.6995 29.0353 21.8609 29.0312 24.0222C29.4171 24.0216 29.803 24.0223 30.1888 24.023C30.8641 24.0243 31.5393 24.0256 32.2146 24.0197C32.5951 24.0298 32.8968 23.7196 33.0245 23.3823C33.3242 22.6584 33.627 21.9356 33.9299 21.2128C34.3809 20.1365 34.8319 19.06 35.2727 17.9794C35.4937 18.107 35.707 18.2473 35.9171 18.3927C35.8351 18.6631 35.7257 18.9244 35.6164 19.1854C35.5959 19.2345 35.5753 19.2835 35.555 19.3326C35.2594 20.0565 34.963 20.7798 34.6665 21.5031C34.3225 22.3423 33.9786 23.1815 33.6361 24.0213C34.1125 24.0239 34.588 24.0239 35.0643 24.0213C35.1964 23.7186 35.3292 23.416 35.4621 23.1134C36.2108 21.4082 36.9601 19.7017 37.573 17.9422C36.2498 16.796 34.7384 15.8493 33.0757 15.294ZM33.7953 17.2922C32.7687 16.8282 31.6748 16.5222 30.5691 16.3151C30.575 18.4773 30.5784 20.6403 30.57 22.8034C30.6545 22.8026 30.7393 22.8047 30.8242 22.8068C31.0253 22.8117 31.2267 22.8166 31.4253 22.7839C31.7109 22.6719 31.821 22.3793 31.9225 22.1095C31.9374 22.0699 31.9521 22.0308 31.9672 21.9928C32.113 21.6294 32.2587 21.266 32.4044 20.9027C32.8159 19.8763 33.2273 18.85 33.6424 17.8256C33.6586 17.7667 33.686 17.707 33.7135 17.6469C33.7674 17.5293 33.822 17.4102 33.7953 17.2922Z" fill="#F8BD15"/>
<path d="M38.122 18.4112C39.3041 17.3842 40.9508 17.1154 42.4647 17.2159C43.5393 17.3284 44.7004 17.5448 45.4994 18.3401C46.1757 18.9792 46.3345 20.0019 46.1589 20.8844C46.0093 21.6536 45.4985 22.3324 44.8088 22.6941C45.4473 23.0593 46.0782 23.5411 46.3227 24.2697C46.5848 25.126 46.3941 26.0744 45.9757 26.8486C45.4288 27.8452 44.3895 28.4724 43.3116 28.7302C42.1909 28.9905 41.0121 28.8612 39.9258 28.5113C39.1495 28.2526 38.4068 27.8689 37.791 27.3228C38.0321 26.9754 38.2439 26.6094 38.4741 26.2552C38.5942 26.0642 38.7723 25.885 39.0101 25.8698C39.41 25.8073 39.7486 26.0651 40.0846 26.2375C40.9231 26.6973 41.9237 26.9053 42.8647 26.6906C43.3125 26.5942 43.7115 26.2629 43.8308 25.8098C43.956 25.3449 43.9938 24.7912 43.6972 24.3821C43.3713 23.9282 42.7932 23.7642 42.2665 23.711C41.6145 23.6721 40.9617 23.7101 40.3106 23.689C40.3241 23.028 40.3056 22.3662 40.319 21.706C41.0348 21.6925 41.7557 21.7508 42.4673 21.6477C42.8789 21.5944 43.3032 21.3797 43.4914 20.9901C43.6855 20.4947 43.6334 19.8101 43.1503 19.5007C42.5883 19.1355 41.8775 19.1406 41.2398 19.2454C40.661 19.346 40.1602 19.6672 39.6259 19.8904C39.3402 20.0163 38.9807 19.9191 38.8143 19.6486C38.5623 19.2488 38.364 18.8177 38.122 18.4112Z" fill="#DD0B34"/>
<path d="M57.1583 25.0928C57.4272 23.6136 57.3104 22.1031 57.3994 20.6095C59.4805 20.6087 61.5615 20.6087 63.6426 20.6095C63.6392 23.3642 63.6468 26.1181 63.6384 28.8729C62.8369 28.8729 62.0354 28.872 61.2347 28.8737C61.2297 26.7428 61.2339 24.6119 61.2322 22.4818C60.6483 22.4801 60.0635 22.4809 59.4796 22.4818C59.4099 23.715 59.3788 24.9584 59.1201 26.1705C58.9504 26.9499 58.6689 27.7461 58.0951 28.3192C57.4919 28.9422 56.5753 29.1256 55.7418 29.0884C55.5494 29.0926 55.3268 28.9701 55.331 28.7537C55.305 28.2465 55.3285 27.7368 55.3209 27.2288C55.6948 27.1975 56.0771 27.0792 56.3728 26.8417C56.8214 26.37 57.0516 25.7276 57.1583 25.0928Z" fill="#DD0B34"/>
<path d="M72.7305 20.6103C75.2862 20.6077 77.8428 20.6094 80.3985 20.6094C80.3993 21.1944 80.3993 21.7793 80.3985 22.3634C79.5583 22.3642 78.719 22.3634 77.8789 22.3642C77.8772 24.4951 77.8797 26.6252 77.878 28.7561C77.0379 28.757 76.1977 28.757 75.3576 28.7561C75.3559 26.6252 75.3584 24.4951 75.3568 22.3642C74.4813 22.3625 73.6059 22.3659 72.7305 22.3625C72.7313 21.7784 72.7305 21.1944 72.7305 20.6103Z" fill="#DD0B34"/>
<path fill-rule="evenodd" clip-rule="evenodd" d="M92.2065 20.6116C91.3084 20.6167 90.3868 20.8255 89.6449 21.3538C88.9493 21.9319 88.6023 22.9843 88.9997 23.8321C89.34 24.5751 90.1373 24.963 90.8967 25.1203C90.5027 25.2099 90.1524 25.4465 89.9449 25.7982C89.5334 26.4695 89.1307 27.1468 88.728 27.8241C88.5435 28.1343 88.3591 28.4445 88.1738 28.7541C88.3836 28.7535 88.5934 28.7546 88.8032 28.7557C89.2344 28.7579 89.6657 28.7601 90.0969 28.7482C90.5094 28.7355 90.9614 28.6053 91.195 28.2342C91.4053 27.9031 91.5534 27.5379 91.7013 27.1729C91.886 26.717 92.0706 26.2616 92.3762 25.8734C92.5619 25.6046 92.9055 25.5725 93.2029 25.5497C93.213 26.2224 93.2117 26.8955 93.2104 27.5685C93.2097 27.9643 93.209 28.3601 93.2105 28.7558C93.4658 28.7558 93.7213 28.7559 93.9768 28.7559C94.488 28.7561 94.9994 28.7563 95.5108 28.7558C95.5114 26.9452 95.5112 25.1351 95.511 23.3248C95.5109 22.4196 95.5108 21.5144 95.5108 20.6091C95.1029 20.6097 94.6949 20.6092 94.287 20.6086C93.5935 20.6077 92.9 20.6068 92.2065 20.6116ZM92.8089 22.1521C92.4914 22.1449 92.1722 22.1376 91.8725 22.2462C91.213 22.488 91.0903 23.4905 91.6037 23.9401C91.9141 24.2721 92.3586 24.2578 92.7872 24.2441C92.9316 24.2394 93.0741 24.2349 93.2092 24.2436C93.2102 23.845 93.21 23.4467 93.2099 23.0484C93.2098 22.7498 93.2097 22.4512 93.21 22.1524C93.0777 22.1582 92.9435 22.1551 92.8089 22.1521Z" fill="#DD0B34"/>
<path fill-rule="evenodd" clip-rule="evenodd" d="M54.0093 21.1919C53.0397 20.4582 51.7526 20.2816 50.5756 20.4489C49.2994 20.6129 48.0879 21.4151 47.5385 22.601C47.089 23.513 47.0252 24.5764 47.1974 25.5679C47.3889 26.6447 48.0165 27.6506 48.9491 28.2279C49.9925 28.8636 51.2872 29.0064 52.4684 28.7495C53.4371 28.5348 54.3193 27.9414 54.8545 27.0961C55.4862 26.119 55.64 24.8933 55.4787 23.7556C55.335 22.7548 54.825 21.7971 54.0093 21.1919ZM52.2779 22.5111C51.8234 22.2212 51.2302 22.2152 50.7303 22.3792C50.4119 22.4959 50.1506 22.7486 50.012 23.058C49.7604 23.5794 49.7431 24.1659 49.7262 24.7367C49.7242 24.8063 49.7221 24.8757 49.7197 24.9446C49.6995 25.5321 49.8104 26.1627 50.2011 26.6216C50.8412 27.3181 52.1804 27.2708 52.6652 26.4129C53.0382 25.7383 53.0374 24.9336 53.0021 24.1839C52.9584 23.5753 52.8156 22.8754 52.2779 22.5111Z" fill="#DD0B34"/>
<path fill-rule="evenodd" clip-rule="evenodd" d="M71.4502 21.3041C70.474 20.4816 69.1171 20.272 67.8863 20.4478C66.753 20.5949 65.6835 21.2534 65.0987 22.2499C64.5022 23.2888 64.3997 24.5567 64.64 25.7155C64.8442 26.6927 65.4062 27.5996 66.2338 28.1626C67.257 28.8633 68.582 29.0121 69.7741 28.7484C70.684 28.5438 71.5199 28.0104 72.0568 27.2396C72.7533 26.2675 72.9373 25.0089 72.7911 23.8407C72.6684 22.8687 72.2122 21.9279 71.4502 21.3041ZM69.8811 22.7918C69.4594 22.239 68.657 22.1748 68.0395 22.376C67.7177 22.4909 67.4556 22.7454 67.3136 23.0564C67.0619 23.5727 67.0464 24.1547 67.0313 24.7213C67.0292 24.7975 67.0272 24.8735 67.0246 24.949C67.0011 25.5381 67.1162 26.1687 67.5094 26.6268C68.0068 27.1669 68.8906 27.2363 69.5131 26.8846C70.129 26.4916 70.2743 25.7004 70.3121 25.0208C70.3247 24.2668 70.3356 23.4334 69.8811 22.7918Z" fill="#DD0B34"/>
<path d="M22.2168 24.7723C26.5015 24.7723 30.7863 24.7715 35.071 24.7723C35.071 25.2795 35.071 25.7875 35.071 26.2947C30.7863 26.2947 26.5015 26.2947 22.2168 26.2947C22.2168 25.7875 22.2168 25.2795 22.2168 24.7723Z" fill="#F8BD15"/>
<path fill-rule="evenodd" clip-rule="evenodd" d="M82.0211 20.6128C81.7702 20.6482 81.5195 20.6835 81.2686 20.715C81.2681 20.7296 81.2677 20.7441 81.2672 20.7587C81.2522 21.2056 81.2365 21.676 81.4375 22.0877C81.5761 22.3692 81.8828 22.5569 82.1987 22.5112C82.4343 22.4898 82.6711 22.4501 82.9084 22.4104C83.4758 22.3153 84.0459 22.2198 84.6099 22.3718C85.082 22.5062 85.3425 22.9998 85.3223 23.4731C84.6594 23.485 83.9882 23.5154 83.3471 23.6988C82.7691 23.8865 82.1877 24.0876 81.6736 24.4181C80.9704 24.905 80.5671 25.7807 80.6175 26.6353C80.6528 27.358 80.9258 28.1289 81.5433 28.5498C82.2944 29.0494 83.2682 29.1246 84.1268 28.9074C84.5395 28.813 84.8812 28.5739 85.223 28.3346C85.3987 28.2116 85.5745 28.0885 85.76 27.9852C85.8241 28.0782 85.8694 28.195 85.9151 28.3128C86.0143 28.5685 86.1151 28.8286 86.4137 28.8575C86.7077 28.8805 87.003 28.8766 87.2983 28.8728C87.4799 28.8704 87.6614 28.868 87.8427 28.8719C87.8427 28.3035 87.8428 27.7352 87.8429 27.1669C87.8431 26.0304 87.8433 24.894 87.8427 23.758C87.7965 22.8612 87.4126 21.9812 86.7791 21.3473C86.1902 20.7717 85.3862 20.4209 84.5645 20.3972C83.7103 20.3751 82.865 20.494 82.0211 20.6128ZM84.9204 25.1294C84.2911 25.1504 83.6407 25.1721 83.0809 25.4837C82.5247 25.7668 82.476 26.7626 83.1044 26.9891C83.8664 27.2714 84.7595 26.9544 85.288 26.3611C85.3193 26.1061 85.2876 25.8476 85.2559 25.5891C85.2367 25.432 85.2174 25.2748 85.2123 25.1185C85.1158 25.1228 85.0184 25.1261 84.9204 25.1294Z" fill="#DD0B34"/>
<path d="M22.2482 27.3289C23.5261 27.328 24.804 27.3297 26.0818 27.3289C26.0827 29.4944 26.081 31.6609 26.0827 33.8273C26.5263 33.8391 26.9774 33.8239 27.4067 33.6971C27.589 33.6219 27.7251 33.4664 27.8444 33.3142C28.7896 32.0362 29.3063 30.4978 30.254 29.2206C30.6245 28.6999 31.0798 28.2198 31.6587 27.9366C32.7257 27.4616 33.9128 27.4041 35.0621 27.4354C35.0605 28.2122 35.0672 28.989 35.0605 29.7658C35.0714 30.0464 34.9487 30.3389 34.7034 30.4851C34.3337 30.6989 33.8935 30.7277 33.5095 30.9069C33.1743 31.0472 32.9038 31.3075 32.6996 31.6042C32.0746 32.4664 31.8393 33.5475 31.2017 34.4021C30.9874 34.6886 30.6875 34.8923 30.3691 35.0453C30.8656 35.1679 31.3369 35.4054 31.7116 35.7579C32.125 36.1729 32.4417 36.6725 32.7383 37.1754C33.9078 39.2556 35.0924 41.3282 36.2585 43.4109C35.1067 43.4126 33.9548 43.4109 32.803 43.4126C32.4148 43.4228 31.9998 43.3087 31.7427 42.9993C31.489 42.7449 31.3915 42.3899 31.2109 42.0881C30.3052 40.4939 29.4063 38.8947 28.4998 37.3013C28.3208 36.9835 28.0284 36.7282 27.6689 36.6496C27.1471 36.5414 26.6103 36.6015 26.0818 36.5871C26.0818 38.8262 26.0818 41.0662 26.0818 43.3061C24.9064 43.3078 23.7319 43.3027 22.5566 43.3087C22.4633 43.2782 22.2163 43.3746 22.2491 43.1988C22.2457 37.9091 22.2482 32.6194 22.2482 27.3289Z" fill="#DD0B34"/>
<path d="M73.3867 31.5127C74.5554 31.5144 75.724 31.5118 76.8926 31.5135C76.8901 32.9446 76.8968 34.3756 76.8884 35.8058C78.1277 35.8244 79.3669 35.8058 80.6061 35.816C80.6204 34.3815 80.6078 32.9471 80.612 31.5127C81.7823 31.5144 82.9526 31.511 84.1229 31.5144C84.1229 35.4795 84.1229 39.4438 84.1229 43.409C82.9526 43.4149 81.7823 43.4082 80.612 43.4124C80.6111 41.7607 80.6128 40.1091 80.6111 38.4566C79.3719 38.4566 78.1319 38.4566 76.8926 38.4574C76.8943 40.1065 76.8876 41.7565 76.896 43.4065C75.7265 43.4183 74.557 43.4065 73.3867 43.4124C73.3867 39.4455 73.3867 35.4795 73.3867 31.5127Z" fill="#DD0B34"/>
<path fill-rule="evenodd" clip-rule="evenodd" d="M44.5897 32.2007C43.3278 31.4112 41.7845 31.1931 40.326 31.3487C38.5239 31.5084 36.7495 32.494 35.8749 34.1237C35.1196 35.4626 34.9457 37.0601 35.1305 38.5689C35.2708 39.7303 35.7967 40.8267 36.5571 41.7049C37.4544 42.7015 38.7129 43.3346 40.0286 43.5307C41.5114 43.7648 43.0959 43.5712 44.4074 42.808C45.366 42.2374 46.1381 41.3617 46.6052 40.3465C46.9001 39.7912 47.1017 39.1851 47.1589 38.5563C47.2782 37.4008 47.2227 36.2056 46.8421 35.1C46.449 33.9132 45.6517 32.8575 44.5897 32.2007ZM42.4417 34.2571C41.8342 33.9004 41.0789 33.8708 40.4093 34.0433C39.9347 34.1709 39.5247 34.4955 39.2852 34.9266C38.85 35.6899 38.7954 36.5968 38.7837 37.4565C38.7509 38.2831 38.7803 39.1622 39.1911 39.9027C39.4432 40.3828 39.8843 40.7547 40.411 40.8883C41.1604 41.0776 42.0367 41.0243 42.6567 40.5163C43.2793 39.9593 43.4893 39.098 43.5624 38.2941C43.6305 37.4167 43.6145 36.5199 43.3935 35.6637C43.2331 35.1151 42.9373 34.5656 42.4417 34.2571Z" fill="#DD0B34"/>
<path fill-rule="evenodd" clip-rule="evenodd" d="M70.0542 32.3572C68.7259 31.4282 67.0338 31.1747 65.4518 31.3522C64.1194 31.5069 62.792 32.0478 61.8611 33.0436C60.7815 34.1306 60.2925 35.6884 60.2514 37.1989C60.1942 38.7415 60.6 40.3475 61.5947 41.5486C62.4668 42.6399 63.7833 43.3102 65.1452 43.5291C66.5037 43.7421 67.9378 43.6297 69.2006 43.0591C70.4457 42.5038 71.4463 41.4269 71.9252 40.1455C72.4444 38.8108 72.5057 37.3248 72.2545 35.9234C71.9974 34.5169 71.2388 33.1746 70.0542 32.3572ZM67.7439 34.3367C67.128 33.9048 66.3122 33.8608 65.6023 34.0417C65.2108 34.1474 64.8512 34.3798 64.6135 34.712C64.1388 35.346 64.0245 36.165 63.98 36.9359C63.954 37.8522 63.9565 38.804 64.3035 39.667C64.516 40.2139 64.947 40.694 65.5192 40.8622C66.2358 41.0735 67.0684 41.0431 67.7052 40.6179C68.3009 40.1911 68.5731 39.4557 68.689 38.7558C68.8167 37.9232 68.815 37.0686 68.6991 36.2352C68.5907 35.5277 68.3278 34.7856 67.7439 34.3367Z" fill="#DD0B34"/>
<path fill-rule="evenodd" clip-rule="evenodd" d="M56.4801 31.5528C55.5761 31.1936 54.557 31.251 53.6312 31.4962C52.7515 31.7345 51.9861 32.278 51.377 32.9483C51.3474 32.8386 51.321 32.728 51.2947 32.6173C51.2471 32.4175 51.1996 32.2178 51.1326 32.0236C50.999 31.6804 50.6209 31.5131 50.2731 31.5173C49.8246 31.5095 49.3762 31.511 48.9279 31.5125C48.6498 31.5134 48.3717 31.5144 48.0938 31.5131V47.2697C49.2616 47.2385 50.4285 47.2021 51.5955 47.1582C51.5993 45.8039 51.5969 44.4503 51.5946 43.0968C51.5943 42.9465 51.5941 42.7963 51.5938 42.6461C51.6615 42.6907 51.7287 42.7364 51.7959 42.7821C52.0115 42.9286 52.2275 43.0754 52.4625 43.1888C53.3388 43.6402 54.3713 43.7221 55.3291 43.5353C56.47 43.3113 57.4824 42.5979 58.1478 41.6462C59.1173 40.265 59.5323 38.5398 59.4567 36.8619C59.408 35.9507 59.2937 35.0193 58.8989 34.1867C58.4208 33.0726 57.6286 32.0202 56.4801 31.5528ZM53.2982 34.1007C52.6127 34.2047 52.033 34.6392 51.5894 35.1548C51.5997 35.9798 51.5977 36.805 51.5956 37.6302C51.5934 38.4824 51.5913 39.3347 51.6028 40.1867C52.0027 40.6913 52.6639 40.9618 53.3008 40.9812C53.9578 41.0328 54.6643 40.7894 55.0516 40.2315C55.7044 39.3127 55.7615 38.1251 55.7473 37.0355C55.7187 36.1522 55.6423 35.1582 55.0029 34.4845C54.5769 34.0145 53.8779 34.0035 53.2982 34.1007Z" fill="#DD0B34"/>
<path fill-rule="evenodd" clip-rule="evenodd" d="M91.1978 31.3082C89.5595 31.2566 87.9271 31.4637 86.3149 31.7317C86.2754 32.3082 86.272 32.8965 86.4157 33.4603C86.5174 33.8389 86.7568 34.2092 87.1382 34.347C87.529 34.4937 87.937 34.4109 88.3367 34.3297C88.4457 34.3076 88.5541 34.2855 88.6614 34.2683C88.7067 34.2606 88.7521 34.2527 88.7976 34.2449C89.5289 34.1184 90.2825 33.9881 91.0188 34.1297C91.7254 34.2717 92.185 34.9987 92.1194 35.7036C91.4725 35.7095 90.8239 35.7239 90.1821 35.8067C89.5248 35.8857 88.8917 36.0801 88.2609 36.2737C88.1756 36.2999 88.0904 36.3261 88.0052 36.3519C86.8937 36.712 85.9057 37.5345 85.4764 38.6418C85.1227 39.706 85.2151 40.9029 85.6587 41.9256C85.9326 42.5672 86.4585 43.0896 87.1004 43.3558C88.9386 44.1436 91.2348 43.6136 92.5504 42.1006C92.5868 42.2014 92.6197 42.3038 92.6527 42.4064C92.7331 42.6566 92.8136 42.9074 92.9453 43.1352C93.1192 43.4243 93.4796 43.5097 93.793 43.5198C94.1883 43.5325 94.5839 43.5304 94.9797 43.5284C95.1921 43.5273 95.4045 43.5262 95.617 43.5274C95.617 42.73 95.6168 41.9326 95.6166 41.1354C95.6162 39.541 95.6158 37.9469 95.617 36.3528C95.6564 35.2852 95.4363 34.1804 94.823 33.2929C94.0316 32.085 92.6185 31.3674 91.1978 31.3082ZM91.4699 38.0955C90.6903 38.1829 89.9082 38.2705 89.1634 38.5234C88.4535 38.7694 88.1359 39.7051 88.4644 40.361C88.698 40.7904 89.2323 40.9028 89.6801 40.9087C90.2144 40.891 90.7672 40.8099 91.2394 40.5419C91.4064 40.4504 91.5437 40.3209 91.6812 40.1913C91.8128 40.0673 91.9444 39.9431 92.1022 39.8522C92.1138 39.4523 92.1117 39.0521 92.1095 38.652C92.1084 38.4414 92.1073 38.2309 92.1081 38.0205C91.8961 38.0477 91.6831 38.0716 91.4699 38.0955Z" fill="#DD0B34"/>
</svg>
