<svg width="151" height="45" viewBox="0 0 151 45" fill="none" xmlns="http://www.w3.org/2000/svg">
<path d="M145.407 45H5.59259C2.46074 45 0 42.525 0 39.375V5.625C0 2.475 2.46074 0 5.59259 0H145.407C148.539 0 151 2.475 151 5.625V39.375C151 42.525 148.539 45 145.407 45Z" fill="white"/>
<path d="M145.407 0.9C147.98 0.9 150.105 3.0375 150.105 5.625V39.375C150.105 41.9625 147.98 44.1 145.407 44.1H5.59259C3.02 44.1 0.894815 41.9625 0.894815 39.375V5.625C0.894815 3.0375 3.02 0.9 5.59259 0.9H145.407ZM145.407 0H5.59259C2.46074 0 0 2.5875 0 5.625V39.375C0 42.525 2.46074 45 5.59259 45H145.407C148.539 45 151 42.525 151 39.375V5.625C151 2.5875 148.539 0 145.407 0Z" fill="#A6A6A6"/>
<path d="M76.1707 24.525C73.4862 24.525 71.3611 26.55 71.3611 29.3625C71.3611 32.0625 73.4862 34.2 76.1707 34.2C78.8551 34.2 80.9803 32.175 80.9803 29.3625C80.9803 26.4375 78.8551 24.525 76.1707 24.525ZM76.1707 32.175C74.7166 32.175 73.4862 30.9375 73.4862 29.25C73.4862 27.5625 74.7166 26.325 76.1707 26.325C77.6248 26.325 78.8551 27.45 78.8551 29.25C78.8551 30.9375 77.6248 32.175 76.1707 32.175ZM65.7685 24.525C63.084 24.525 60.9588 26.55 60.9588 29.3625C60.9588 32.0625 63.084 34.2 65.7685 34.2C68.4529 34.2 70.5781 32.175 70.5781 29.3625C70.5781 26.4375 68.4529 24.525 65.7685 24.525ZM65.7685 32.175C64.3144 32.175 63.084 30.9375 63.084 29.25C63.084 27.5625 64.3144 26.325 65.7685 26.325C67.2225 26.325 68.4529 27.45 68.4529 29.25C68.4529 30.9375 67.2225 32.175 65.7685 32.175ZM53.3529 25.9875V28.0125H58.1626C58.0507 29.1375 57.6033 30.0375 57.044 30.6C56.3729 31.275 55.2544 32.0625 53.3529 32.0625C50.3329 32.0625 48.0959 29.7 48.0959 26.6625C48.0959 23.625 50.4448 21.2625 53.3529 21.2625C54.9189 21.2625 56.1492 21.9375 57.044 22.725L58.4981 21.2625C57.2677 20.1375 55.7018 19.2375 53.4648 19.2375C49.4381 19.2375 45.9707 22.6125 45.9707 26.6625C45.9707 30.7125 49.4381 34.0875 53.4648 34.0875C55.7018 34.0875 57.2677 33.4125 58.61 31.95C59.9522 30.6 60.3996 28.6875 60.3996 27.225C60.3996 26.775 60.3996 26.325 60.2877 25.9875H53.3529ZM104.134 27.5625C103.686 26.4375 102.568 24.525 100.107 24.525C97.6462 24.525 95.6329 26.4375 95.6329 29.3625C95.6329 32.0625 97.6462 34.2 100.331 34.2C102.456 34.2 103.798 32.85 104.245 32.0625L102.68 30.9375C102.12 31.725 101.449 32.2875 100.331 32.2875C99.2122 32.2875 98.5411 31.8375 97.9818 30.825L104.357 28.125L104.134 27.5625ZM97.6462 29.1375C97.6462 27.3375 99.1003 26.325 100.107 26.325C100.89 26.325 101.673 26.775 101.897 27.3375L97.6462 29.1375ZM92.3892 33.75H94.5144V19.6875H92.3892V33.75ZM89.0336 25.5375C88.4744 24.975 87.5796 24.4125 86.4611 24.4125C84.1122 24.4125 81.8751 26.55 81.8751 29.25C81.8751 31.95 84.0003 33.975 86.4611 33.975C87.5796 33.975 88.4744 33.4125 88.9218 32.85H89.0336V33.525C89.0336 35.325 88.027 36.3375 86.4611 36.3375C85.2307 36.3375 84.3359 35.4375 84.1122 34.65L82.3225 35.4375C82.8818 36.675 84.224 38.25 86.5729 38.25C89.0337 38.25 91.047 36.7875 91.047 33.3V24.75H89.0336V25.5375ZM86.5729 32.175C85.1188 32.175 83.8885 30.9375 83.8885 29.25C83.8885 27.5625 85.1188 26.325 86.5729 26.325C88.027 26.325 89.1455 27.5625 89.1455 29.25C89.1455 30.9375 88.027 32.175 86.5729 32.175ZM113.865 19.6875H108.831V33.75H110.957V28.4625H113.865C116.214 28.4625 118.451 26.775 118.451 24.075C118.451 21.375 116.214 19.6875 113.865 19.6875ZM113.977 26.4375H110.957V21.6H113.977C115.543 21.6 116.437 22.95 116.437 23.9625C116.325 25.2 115.431 26.4375 113.977 26.4375ZM126.84 24.4125C125.274 24.4125 123.708 25.0875 123.148 26.55L125.05 27.3375C125.497 26.55 126.168 26.325 126.951 26.325C128.07 26.325 129.077 27 129.188 28.125V28.2375C128.853 28.0125 127.958 27.675 127.063 27.675C125.05 27.675 123.037 28.8 123.037 30.825C123.037 32.7375 124.714 33.975 126.504 33.975C127.958 33.975 128.629 33.3 129.188 32.625H129.3V33.75H131.314V28.35C131.09 25.875 129.188 24.4125 126.84 24.4125ZM126.616 32.175C125.945 32.175 124.938 31.8375 124.938 30.9375C124.938 29.8125 126.168 29.475 127.175 29.475C128.07 29.475 128.517 29.7 129.077 29.925C128.853 31.275 127.734 32.175 126.616 32.175ZM138.36 24.75L136.011 30.825H135.9L133.439 24.75H131.202L134.893 33.3L132.768 38.025H134.893L140.597 24.75H138.36ZM119.569 33.75H121.694V19.6875H119.569V33.75Z" fill="#333333"/>
<path d="M11.633 8.4375C11.2974 8.775 11.1855 9.3375 11.1855 10.0125V34.875C11.1855 35.55 11.4093 36.1125 11.7448 36.45L11.8567 36.5625L25.7263 22.6125V22.5V22.3875L11.633 8.4375Z" fill="url(#paint0_linear)"/>
<path d="M30.2002 27.3374L25.6143 22.7249V22.4999V22.3874L30.2002 17.7749L30.312 17.8874L35.7928 21.0374C37.3587 21.9374 37.3587 23.3999 35.7928 24.2999L30.2002 27.3374Z" fill="url(#paint1_linear)"/>
<path d="M30.3121 27.225L25.6143 22.5L11.6328 36.5625C12.1921 37.125 12.975 37.125 13.9817 36.675L30.3121 27.225Z" fill="url(#paint2_linear)"/>
<path d="M30.3121 17.7749L13.9817 8.43744C12.975 7.87494 12.1921 7.98744 11.6328 8.54994L25.6143 22.4999L30.3121 17.7749Z" fill="url(#paint3_linear)"/>
<path opacity="0.2" d="M30.2002 27.1123L13.9817 36.3373C13.0869 36.8998 12.3039 36.7873 11.7447 36.3373L11.6328 36.4498L11.7447 36.5623C12.3039 37.0123 13.0869 37.1248 13.9817 36.5623L30.2002 27.1123Z" fill="black"/>
<path opacity="0.12" d="M11.633 36.3372C11.2974 35.9997 11.1855 35.4372 11.1855 34.7622V34.8747C11.1855 35.5497 11.4093 36.1122 11.7448 36.4497V36.3372H11.633Z" fill="black"/>
<path opacity="0.12" d="M35.7928 23.9625L30.2002 27.1125L30.312 27.225L35.7928 24.075C36.5757 23.625 36.9113 23.0625 36.9113 22.5C36.9113 23.0625 36.4639 23.5125 35.7928 23.9625Z" fill="black"/>
<path opacity="0.25" d="M13.9818 8.54994L35.793 21.0374C36.4641 21.4874 36.9115 21.9374 36.9115 22.4999C36.9115 21.9374 36.5759 21.3749 35.793 20.9249L13.9818 8.43744C12.4159 7.53744 11.1855 8.21244 11.1855 10.0124V10.1249C11.1855 8.43744 12.4159 7.64994 13.9818 8.54994Z" fill="white"/>
<path d="M47.0896 16.0875H46.3066V13.8375H46.9777C47.537 13.3875 47.8726 12.4875 47.8726 11.25V7.875H52.3466V13.8375H53.1296V16.0875H52.3466V14.625H47.2015V16.0875H47.0896ZM48.6555 11.25C48.6555 12.2625 48.4318 13.1625 47.9844 13.8375H51.34V8.6625H48.5437L48.6555 11.2049V11.25Z" fill="#7E7E7E"/>
<path d="M59.7289 13.725C59.0578 14.4 58.2749 14.7375 57.2682 14.7375C56.2615 14.7375 55.4786 14.4 54.8074 13.725C54.1363 13.05 53.8008 12.2625 53.8008 11.25C53.8008 10.2375 54.1363 9.44995 54.8074 8.77495C55.4786 8.09995 56.2615 7.76245 57.2682 7.76245C58.2749 7.76245 59.0578 8.09995 59.7289 8.77495C60.4 9.44995 60.7356 10.2375 60.7356 11.25C60.7356 12.2625 60.4 13.05 59.7289 13.725ZM55.4786 13.1625C55.926 13.6125 56.5971 13.95 57.2682 13.95C57.9393 13.95 58.6104 13.725 59.0578 13.1625C59.5052 12.7125 59.8408 12.0375 59.8408 11.25C59.8408 10.4625 59.6171 9.78745 59.0578 9.33745C58.6104 8.88745 57.9393 8.54995 57.2682 8.54995C56.5971 8.54995 55.926 8.77495 55.4786 9.33745C55.0311 9.78745 54.6956 10.4625 54.6956 11.25C54.6956 12.0375 54.9193 12.7125 55.4786 13.1625Z" fill="#7E7E7E"/>
<path d="M65.0973 14.7375C64.0906 14.7375 63.3077 14.4 62.6366 13.725C61.9654 13.05 61.6299 12.2625 61.6299 11.25C61.6299 10.2375 61.9654 9.44995 62.6366 8.77495C63.3077 8.09995 64.0906 7.76245 65.0973 7.76245C66.104 7.76245 66.8869 8.09995 67.558 8.88745L66.9988 9.44995C66.5514 8.88745 65.8803 8.54995 65.0973 8.54995C64.3143 8.54995 63.7551 8.77495 63.1958 9.33745C62.6366 9.78745 62.4128 10.4625 62.4128 11.25C62.4128 12.0375 62.6366 12.7125 63.1958 13.1625C63.6432 13.6125 64.3143 13.95 65.0973 13.95C65.8803 13.95 66.5514 13.6125 67.1106 12.9375L67.6699 13.5C67.3343 13.8375 66.9988 14.175 66.5514 14.4C66.104 14.625 65.6565 14.7375 65.0973 14.7375Z" fill="#7E7E7E"/>
<path d="M71.2494 14.625H70.3546V8.6625H68.4531V7.875H73.0391V8.6625H71.1376V14.625H71.2494Z" fill="#7E7E7E"/>
<path d="M78.9675 7.875L76.3949 13.6125C76.0594 14.4 75.5001 14.85 74.829 14.85C74.6053 14.85 74.3816 14.85 74.1579 14.7375L74.3816 13.95C74.4934 14.0625 74.7171 14.0625 74.829 14.0625C75.0527 14.0625 75.1646 14.0625 75.2764 13.95C75.3883 13.8375 75.5001 13.725 75.612 13.5L75.8357 12.9375L73.5986 7.9875H74.6053L76.2831 11.8125L77.9608 7.875H78.9675Z" fill="#7E7E7E"/>
<path d="M79.9736 14.625V7.875H84.7833V14.625H83.8884V8.6625H80.7566V14.625H79.9736Z" fill="#7E7E7E"/>
<path d="M86.3496 14.625V7.875H87.2444V10.8H90.6V7.875H91.4948V14.625H90.6V11.5875H87.2444V14.625H86.3496Z" fill="#7E7E7E"/>
<path d="M98.5414 13.725C97.8703 14.4 97.0873 14.7375 96.0807 14.7375C95.074 14.7375 94.291 14.4 93.6199 13.725C92.9488 13.05 92.6133 12.2625 92.6133 11.25C92.6133 10.2375 92.9488 9.44995 93.6199 8.77495C94.291 8.09995 95.074 7.76245 96.0807 7.76245C97.0873 7.76245 97.8703 8.09995 98.5414 8.77495C99.2125 9.44995 99.5481 10.2375 99.5481 11.25C99.4362 12.2625 99.1007 13.05 98.5414 13.725ZM94.1792 13.1625C94.6266 13.6125 95.2977 13.95 95.9688 13.95C96.6399 13.95 97.311 13.725 97.7585 13.1625C98.2059 12.7125 98.5414 12.0375 98.5414 11.25C98.5414 10.4625 98.3177 9.78745 97.7585 9.33745C97.311 8.88745 96.6399 8.54995 95.9688 8.54995C95.2977 8.54995 94.6266 8.77495 94.1792 9.33745C93.7318 9.78745 93.3962 10.4625 93.3962 11.25C93.3962 12.0375 93.7318 12.7125 94.1792 13.1625Z" fill="#7E7E7E"/>
<path d="M103.016 14.625V7.875H105.476C106.036 7.875 106.483 8.1 106.819 8.4375C107.154 8.775 107.378 9.225 107.378 9.675C107.378 10.0125 107.266 10.2375 107.154 10.575C107.042 10.8 106.819 11.025 106.483 11.1375C106.819 11.25 107.042 11.475 107.266 11.7C107.49 11.925 107.602 12.2625 107.602 12.7125C107.602 13.275 107.378 13.725 107.042 14.0625C106.595 14.4 106.147 14.625 105.588 14.625H103.016ZM103.91 10.8H105.476C105.812 10.8 106.036 10.6875 106.259 10.4625C106.483 10.2375 106.595 10.0125 106.595 9.7875C106.595 9.5625 106.371 9.225 106.259 9C106.036 8.775 105.812 8.6625 105.476 8.6625H103.91V10.8ZM103.91 13.8375H105.7C106.036 13.8375 106.259 13.725 106.483 13.5C106.707 13.275 106.819 13.05 106.819 12.7125C106.819 12.4875 106.707 12.15 106.483 11.925C106.259 11.7 106.036 11.5875 105.7 11.5875H104.022V13.8375H103.91Z" fill="#7E7E7E"/>
<defs>
<linearGradient id="paint0_linear" x1="24.3836" y1="9.79852" x2="5.50373" y2="28.5696" gradientUnits="userSpaceOnUse">
<stop stop-color="#00A0FF"/>
<stop offset="0.00657445" stop-color="#00A1FF"/>
<stop offset="0.2601" stop-color="#00BEFF"/>
<stop offset="0.5122" stop-color="#00D2FF"/>
<stop offset="0.7604" stop-color="#00DFFF"/>
<stop offset="1" stop-color="#00E3FF"/>
</linearGradient>
<linearGradient id="paint1_linear" x1="37.8445" y1="22.5016" x2="10.7798" y2="22.5016" gradientUnits="userSpaceOnUse">
<stop stop-color="#FFE000"/>
<stop offset="0.4087" stop-color="#FFBD00"/>
<stop offset="0.7754" stop-color="#FFA500"/>
<stop offset="1" stop-color="#FF9C00"/>
</linearGradient>
<linearGradient id="paint2_linear" x1="27.7696" y1="25.0832" x2="2.16691" y2="50.5384" gradientUnits="userSpaceOnUse">
<stop stop-color="#FF3A44"/>
<stop offset="1" stop-color="#C31162"/>
</linearGradient>
<linearGradient id="paint3_linear" x1="8.16227" y1="0.198279" x2="19.595" y2="11.565" gradientUnits="userSpaceOnUse">
<stop stop-color="#32A071"/>
<stop offset="0.0685" stop-color="#2DA771"/>
<stop offset="0.4762" stop-color="#15CF74"/>
<stop offset="0.8009" stop-color="#06E775"/>
<stop offset="1" stop-color="#00F076"/>
</linearGradient>
</defs>
</svg>
