<svg width="70" height="15" viewBox="0 0 70 15" fill="none" xmlns="http://www.w3.org/2000/svg">
<path d="M69.6152 6.58087L60.4486 0.100724C60.3286 0.0339404 60.1955 0 60.0638 0C59.9307 0 59.7979 0.0339404 59.679 0.100724C59.4412 0.234276 59.2942 0.481583 59.2942 0.74871V3.01276C59.266 3.01173 59.2379 3.01067 59.2094 3.01067H54.7788C53.5541 3.01067 52.5613 3.97658 52.5613 5.16808V9.47844C52.5613 10.6699 53.5541 11.6358 54.7788 11.6358H59.2094C59.2379 11.6358 59.266 11.6348 59.2942 11.6338V13.709C59.2942 13.9753 59.4412 14.2234 59.679 14.357C59.9165 14.4905 60.2097 14.4905 60.4486 14.357L69.6152 7.87575C69.8541 7.74328 70 7.49597 70 7.22886C70 6.96172 69.8529 6.71469 69.6152 6.58087Z" fill="#C2C2C2"/>
<path d="M6.64816 3.01069H2.21758C0.992846 3.01069 0 3.9766 0 5.1681V9.47846C0 10.67 0.992846 11.6359 2.21758 11.6359H6.64816C7.87289 11.6359 8.86574 10.67 8.86574 9.47846V5.1681C8.86574 3.9766 7.87289 3.01069 6.64816 3.01069Z" fill="#C2C2C2"/>
<path d="M24.1686 3.01066H19.738C18.5133 3.01066 17.5204 3.97657 17.5204 5.16807V9.47843C17.5204 10.6699 18.5133 11.6358 19.738 11.6358H24.1686C25.3933 11.6358 26.3862 10.6699 26.3862 9.47843V5.16807C26.3862 3.97657 25.3933 3.01066 24.1686 3.01066Z" fill="#C2C2C2"/>
<path d="M41.689 3.01066H37.2584C36.0337 3.01066 35.0408 3.97657 35.0408 5.16807V9.47843C35.0408 10.6699 36.0337 11.6358 37.2584 11.6358H41.689C42.9137 11.6358 43.9066 10.6699 43.9066 9.47843V5.16807C43.9066 3.97657 42.9137 3.01066 41.689 3.01066Z" fill="#C2C2C2"/>
</svg>
