<svg width="152" height="45" viewBox="0 0 152 45" fill="none" xmlns="http://www.w3.org/2000/svg">
<path d="M146.592 45H5.3245C2.38921 45 0 42.606 0 39.6754V5.31675C0 2.385 2.38921 0 5.3245 0H146.592C149.526 0 152 2.385 152 5.31675V39.6754C152 42.606 149.526 45 146.592 45Z" fill="#A6A6A6"/>
<path d="M150.91 39.6765C150.91 42.057 148.98 43.9852 146.593 43.9852H5.32438C2.93855 43.9852 1.00195 42.057 1.00195 39.6765V5.3156C1.00195 2.93622 2.93855 1.00122 5.32438 1.00122H146.592C148.98 1.00122 150.909 2.93622 150.909 5.3156L150.91 39.6765Z" fill="white"/>
<path d="M33.9215 22.257C33.8888 18.6311 36.8928 16.8671 37.0302 16.785C35.3289 14.3066 32.692 13.968 31.7654 13.941C29.5507 13.7081 27.4024 15.2651 26.2742 15.2651C25.1235 15.2651 23.3862 13.9635 21.5138 14.0017C19.1043 14.0389 16.8502 15.4327 15.6139 17.5972C13.0626 22.0106 14.9654 28.4962 17.4098 32.0636C18.6326 33.8107 20.0614 35.7615 21.9315 35.6929C23.7611 35.6175 24.4446 34.5274 26.6525 34.5274C28.8402 34.5274 29.482 35.6929 31.3893 35.649C33.3529 35.6175 34.5892 33.894 35.7691 32.1311C37.1822 30.1286 37.7496 28.1565 37.7722 28.0552C37.726 28.0395 33.9587 26.6029 33.9215 22.257Z" fill="black"/>
<path d="M30.3185 11.5943C31.3025 10.3646 31.9758 8.69177 31.7889 6.99414C30.3646 7.05714 28.5834 7.97852 27.5577 9.18114C26.6502 10.2409 25.8395 11.9779 26.0489 13.6114C27.6489 13.7306 29.2916 12.8048 30.3185 11.5943Z" fill="black"/>
<path d="M60.4008 35.442H57.8438L56.4431 31.0443H51.5746L50.2404 35.442H47.751L52.5744 20.4705H55.5536L60.4008 35.442ZM56.0209 29.1993L54.7542 25.29C54.6203 24.8906 54.3692 23.9501 53.9987 22.4696H53.9537C53.8062 23.1063 53.5686 24.0468 53.2421 25.29L51.998 29.1993H56.0209Z" fill="#333333"/>
<path d="M72.8051 29.9117C72.8051 31.7477 72.3085 33.1989 71.3155 34.2643C70.426 35.2127 69.3215 35.6863 68.003 35.6863C66.5798 35.6863 65.5575 35.1755 64.9348 34.154H64.8898V39.8409H62.4893V28.2005C62.4893 27.0463 62.4589 25.8617 62.4004 24.6467H64.5115L64.6455 26.3578H64.6905C65.4911 25.0685 66.7059 24.425 68.3363 24.425C69.6108 24.425 70.6748 24.9279 71.526 25.9348C72.3795 26.9428 72.8051 28.268 72.8051 29.9117ZM70.3596 29.9994C70.3596 28.9487 70.1231 28.0824 69.648 27.4007C69.1289 26.6897 68.432 26.3342 67.5583 26.3342C66.966 26.3342 66.4278 26.5322 65.9471 26.9225C65.4652 27.3163 65.1499 27.8304 65.0024 28.4672C64.9281 28.7642 64.8909 29.0072 64.8909 29.1984V30.9984C64.8909 31.7837 65.1319 32.4463 65.6138 32.9874C66.0957 33.5285 66.7217 33.7985 67.4918 33.7985C68.3959 33.7985 69.0996 33.4498 69.6029 32.7545C70.1073 32.0582 70.3596 31.1402 70.3596 29.9994Z" fill="#333333"/>
<path d="M85.2317 29.9117C85.2317 31.7477 84.7351 33.1989 83.741 34.2643C82.8526 35.2127 81.7481 35.6863 80.4296 35.6863C79.0064 35.6863 77.9841 35.1755 77.3626 34.154H77.3175V39.8409H74.9171V28.2005C74.9171 27.0463 74.8867 25.8617 74.8281 24.6467H76.9392L77.0732 26.3578H77.1183C77.9177 25.0685 79.1325 24.425 80.764 24.425C82.0374 24.425 83.1014 24.9279 83.9549 25.9348C84.805 26.9428 85.2317 28.268 85.2317 29.9117ZM82.7862 29.9994C82.7862 28.9487 82.5486 28.0824 82.0735 27.4007C81.5544 26.6897 80.8597 26.3342 79.9849 26.3342C79.3915 26.3342 78.8544 26.5322 78.3725 26.9225C77.8906 27.3163 77.5765 27.8304 77.429 28.4672C77.3558 28.7642 77.3175 29.0072 77.3175 29.1984V30.9984C77.3175 31.7837 77.5585 32.4463 78.0381 32.9874C78.52 33.5274 79.1461 33.7985 79.9184 33.7985C80.8226 33.7985 81.5263 33.4498 82.0295 32.7545C82.534 32.0582 82.7862 31.1402 82.7862 29.9994Z" fill="#333333"/>
<path d="M99.1257 31.2436C99.1257 32.5171 98.6832 33.5532 97.7949 34.3531C96.8187 35.2272 95.4597 35.6637 93.7134 35.6637C92.1011 35.6637 90.8085 35.3532 89.8301 34.7311L90.3863 32.732C91.4402 33.3687 92.5965 33.6882 93.8564 33.6882C94.7605 33.6882 95.4642 33.4835 95.9698 33.0762C96.473 32.669 96.7241 32.1222 96.7241 31.4405C96.7241 30.833 96.517 30.3211 96.1015 29.906C95.6883 29.4908 94.9981 29.105 94.0343 28.7483C91.4109 27.7707 90.1003 26.3386 90.1003 24.4553C90.1003 23.2246 90.5597 22.2155 91.4796 21.4302C92.3961 20.6438 93.6188 20.2512 95.1478 20.2512C96.5113 20.2512 97.644 20.4886 98.5481 20.9622L97.948 22.9175C97.1036 22.4585 96.1488 22.229 95.0803 22.229C94.2358 22.229 93.576 22.4371 93.1031 22.8511C92.7034 23.2212 92.503 23.6723 92.503 24.2067C92.503 24.7985 92.7316 25.2878 93.191 25.6726C93.5907 26.0281 94.3169 26.4128 95.3708 26.828C96.6599 27.3466 97.6069 27.953 98.216 28.6482C98.8229 29.3412 99.1257 30.2086 99.1257 31.2436Z" fill="#333333"/>
<path d="M107.062 26.4467H104.416V31.688C104.416 33.0212 104.883 33.6872 105.817 33.6872C106.246 33.6872 106.602 33.65 106.883 33.5758L106.95 35.3972C106.477 35.5738 105.854 35.6627 105.083 35.6627C104.135 35.6627 103.394 35.3735 102.859 34.7964C102.327 34.2182 102.059 33.2484 102.059 31.886V26.4444H100.482V24.6444H102.059V22.6678L104.416 21.9568V24.6444H107.062V26.4467Z" fill="#333333"/>
<path d="M119.001 29.9554C119.001 31.6148 118.525 32.9772 117.577 34.0425C116.583 35.1394 115.264 35.6862 113.619 35.6862C112.033 35.6862 110.771 35.1608 109.83 34.11C108.889 33.0593 108.418 31.7329 108.418 30.1343C108.418 28.4614 108.902 27.0912 109.874 26.0258C110.843 24.9593 112.152 24.426 113.797 24.426C115.382 24.426 116.657 24.9514 117.62 26.0033C118.541 27.0237 119.001 28.341 119.001 29.9554ZM116.51 30.033C116.51 29.0374 116.297 28.1835 115.866 27.4714C115.363 26.6097 114.643 26.1799 113.711 26.1799C112.746 26.1799 112.013 26.6108 111.51 27.4714C111.079 28.1847 110.866 29.052 110.866 30.078C110.866 31.0737 111.079 31.9275 111.51 32.6385C112.029 33.5003 112.754 33.93 113.69 33.93C114.606 33.93 115.326 33.4913 115.845 32.616C116.287 31.8904 116.51 31.0275 116.51 30.033Z" fill="#333333"/>
<path d="M126.803 26.756C126.565 26.7122 126.312 26.6897 126.046 26.6897C125.202 26.6897 124.549 27.008 124.089 27.6459C123.69 28.2084 123.489 28.9194 123.489 29.7778V35.4422H121.09L121.113 28.0464C121.113 26.8022 121.082 25.6693 121.022 24.6478H123.113L123.201 26.7133H123.268C123.521 26.0034 123.921 25.4319 124.468 25.0033C125.003 24.6174 125.58 24.425 126.203 24.425C126.425 24.425 126.625 24.4408 126.803 24.4689V26.756Z" fill="#333333"/>
<path d="M137.539 29.5337C137.539 29.9634 137.511 30.3257 137.452 30.6215H130.25C130.278 31.688 130.626 32.5037 131.295 33.0662C131.902 33.569 132.687 33.821 133.65 33.821C134.717 33.821 135.69 33.6512 136.564 33.3103L136.94 34.9753C135.918 35.4208 134.711 35.6424 133.318 35.6424C131.643 35.6424 130.328 35.1497 129.371 34.1653C128.416 33.1809 127.938 31.859 127.938 30.2008C127.938 28.5729 128.382 27.2173 129.273 26.1362C130.205 24.9819 131.465 24.4048 133.05 24.4048C134.607 24.4048 135.786 24.9819 136.587 26.1362C137.221 27.053 137.539 28.187 137.539 29.5337ZM135.25 28.9115C135.266 28.2005 135.11 27.5863 134.784 27.0677C134.369 26.4005 133.73 26.0675 132.871 26.0675C132.087 26.0675 131.448 26.3927 130.961 27.0452C130.561 27.5638 130.323 28.1859 130.25 28.9104H135.25V28.9115Z" fill="#333333"/>
<path d="M48.8925 8.1821C49.1481 8.0291 49.4363 7.90085 49.7606 7.7951C50.0837 7.68935 50.4643 7.63647 50.9023 7.63647C51.6082 7.63647 52.1644 7.8041 52.572 8.13822C52.9796 8.47235 53.1834 8.92347 53.1834 9.4916C53.1834 9.94272 53.0472 10.3207 52.7747 10.6267C52.5022 10.9327 52.1532 11.1363 51.731 11.2376V11.2702C51.964 11.3073 52.1847 11.3703 52.3919 11.4615C52.6002 11.5526 52.7826 11.6741 52.9379 11.8271C53.0944 11.9801 53.2183 12.1578 53.3095 12.3626C53.3996 12.5662 53.4457 12.7912 53.4457 13.0398C53.4457 13.4471 53.3635 13.7891 53.1992 14.0658C53.0348 14.3426 52.8208 14.5676 52.5551 14.7431C52.2905 14.9175 51.9933 15.0435 51.6657 15.1188C51.338 15.1942 51.0104 15.2336 50.6827 15.2336C50.3326 15.2336 49.9869 15.1965 49.6446 15.1245C49.3023 15.0525 48.986 14.9321 48.6943 14.7645L48.9893 13.8588C49.1785 13.9533 49.4228 14.0445 49.7212 14.1322C50.0195 14.22 50.3213 14.2627 50.6275 14.2627C51.1297 14.2627 51.5182 14.1502 51.7906 13.9252C52.0631 13.6991 52.2005 13.3976 52.2005 13.0196C52.2005 12.7642 52.1453 12.5561 52.0361 12.3918C51.9257 12.2276 51.7839 12.0993 51.6094 12.0037C51.4348 11.9092 51.2401 11.844 51.025 11.808C50.8099 11.772 50.5971 11.7528 50.3866 11.7528H49.8946V10.8562H50.3866C50.6118 10.8562 50.8212 10.8281 51.0149 10.7685C51.2074 10.7111 51.3752 10.629 51.517 10.5232C51.6589 10.4175 51.7704 10.2915 51.8503 10.1463C51.9291 10.0012 51.9697 9.83697 51.9697 9.65472C51.9697 9.32735 51.8526 9.07085 51.6195 8.88522C51.3864 8.6996 51.0734 8.60622 50.6805 8.60622C50.4114 8.60622 50.1411 8.6501 49.8721 8.73672C49.603 8.82447 49.362 8.91897 49.1503 9.02022L48.8925 8.1821Z" fill="#7E7E7E"/>
<path d="M58.2723 15.1122L58.1856 14.5013H58.1529C57.7972 14.9884 57.2804 15.2326 56.6025 15.2326C56.3616 15.2326 56.1443 15.1921 55.9473 15.1122C55.7502 15.0323 55.5791 14.9232 55.4338 14.7848C55.2875 14.6464 55.176 14.4833 55.0949 14.2932C55.015 14.1042 54.9756 13.8961 54.9756 13.6711C54.9756 13.0096 55.2447 12.5123 55.784 12.1816C56.3233 11.8508 57.0867 11.6854 58.0775 11.6854V11.5876C58.0775 10.8889 57.7105 10.5402 56.9764 10.5402C56.4528 10.5402 55.9912 10.6718 55.5926 10.9328L55.3528 10.1588C55.8403 9.85393 56.4472 9.70093 57.1734 9.70093C58.5617 9.70093 59.2564 10.4322 59.2564 11.8947V13.8477C59.2564 14.3933 59.2823 14.8152 59.3329 15.1133H58.2723V15.1122ZM58.109 12.4718C57.4504 12.4718 56.9595 12.5551 56.6375 12.7227C56.3154 12.8903 56.1544 13.1637 56.1544 13.5417C56.1544 13.8184 56.2299 14.0254 56.3819 14.1638C56.5339 14.3022 56.7264 14.3708 56.9583 14.3708C57.1103 14.3708 57.2545 14.3438 57.3929 14.2887C57.5303 14.2347 57.6508 14.1593 57.7555 14.0648C57.8613 13.9703 57.9458 13.8556 58.0122 13.7206C58.0775 13.5856 58.109 13.4427 58.109 13.2897V12.4718Z" fill="#7E7E7E"/>
<path d="M64.9472 9.80884V10.7797H62.7404V15.1121H61.5615V9.80884H64.9472Z" fill="#7E7E7E"/>
<path d="M71.6957 12.3954C71.6957 12.8172 71.6371 13.2031 71.5212 13.5519C71.4041 13.9017 71.2431 14.1999 71.0348 14.4462C70.8276 14.6937 70.5799 14.8872 70.2928 15.0245C70.0045 15.1629 69.687 15.2326 69.3369 15.2326C68.6377 15.2326 68.1355 14.9817 67.8293 14.48H67.8067V17.2734H66.6268V11.555C66.6268 11.2715 66.6234 10.9857 66.6155 10.6977C66.6088 10.4109 66.5975 10.1139 66.584 9.80786H67.621L67.6874 10.6482H67.7099C68.1029 10.016 68.6996 9.69873 69.5013 9.69873C69.8131 9.69873 70.1036 9.76398 70.3693 9.89448C70.6351 10.0261 70.8659 10.2095 71.0629 10.4457C71.26 10.682 71.4142 10.9655 71.5268 11.2974C71.6394 11.6292 71.6957 11.9949 71.6957 12.3954ZM70.4955 12.4392C70.4955 12.1771 70.4639 11.9352 70.402 11.7136C70.3401 11.492 70.2489 11.303 70.1295 11.1466C70.0102 10.9902 69.8638 10.8665 69.6927 10.7754C69.5215 10.6842 69.3301 10.6392 69.1184 10.6392C68.9518 10.6392 68.7874 10.6764 68.6264 10.7484C68.4654 10.8204 68.3258 10.9194 68.2064 11.0431C68.086 11.1669 67.9903 11.3165 67.9171 11.4909C67.8439 11.6652 67.8067 11.8509 67.8067 12.0477V12.932C67.8067 13.1277 67.8371 13.31 67.9002 13.4776C67.9621 13.6452 68.0488 13.7904 68.1614 13.9141C68.274 14.0379 68.4091 14.1346 68.5656 14.2032C68.7221 14.273 68.8944 14.3067 69.0835 14.3067C69.5283 14.3067 69.8739 14.138 70.1216 13.7994C70.3693 13.4607 70.4955 13.0062 70.4955 12.4392Z" fill="#7E7E7E"/>
<path d="M78.0328 9.80884L76.6885 13.4865C76.3687 14.3595 76.0568 15.0738 75.7551 15.6307C75.4522 16.1876 75.164 16.5926 74.887 16.848C74.4794 17.2113 74.0459 17.4341 73.5866 17.5128L73.3028 16.5206C73.608 16.4407 73.8996 16.2843 74.1765 16.0515C74.4524 15.8186 74.6742 15.5283 74.8431 15.1785C74.9016 15.0626 74.9298 14.9827 74.9298 14.9388C74.9298 14.895 74.9073 14.8117 74.8645 14.688L72.9414 9.80996H74.2407L75.2462 12.7676C75.298 12.906 75.3486 13.0623 75.3993 13.2367C75.4511 13.4111 75.5051 13.6046 75.5637 13.815H75.5862C75.6222 13.698 75.6628 13.5517 75.7056 13.3728C75.7495 13.1951 75.808 12.9892 75.8801 12.7563L76.7763 9.80996H78.0328V9.80884Z" fill="#7E7E7E"/>
<path d="M80.0754 12.0127H80.6204C81.0201 12.0127 81.3308 11.9407 81.5481 11.7945C81.7654 11.6482 81.8758 11.4705 81.8758 11.259C81.8758 11.0407 81.7835 10.8663 81.5966 10.7358C81.4119 10.6053 81.1541 10.539 80.8264 10.539C80.6147 10.539 80.4019 10.5738 80.1891 10.6425C79.9741 10.7122 79.7759 10.7977 79.5935 10.899L79.2884 10.1362C79.5935 9.96971 79.8975 9.85496 80.2015 9.79308C80.5033 9.73121 80.8062 9.69971 81.1124 9.69971C81.3545 9.69971 81.5965 9.72333 81.8397 9.77058C82.0818 9.81783 82.2991 9.89771 82.4883 10.0102C82.6774 10.1227 82.8339 10.2701 82.9522 10.4523C83.0726 10.6346 83.1323 10.8596 83.1323 11.1296C83.1323 11.2972 83.0997 11.4446 83.0332 11.5717C82.9691 11.6988 82.8812 11.8113 82.772 11.9092C82.6639 12.0071 82.5412 12.0881 82.4072 12.1488C82.2732 12.2107 82.1347 12.2568 81.9985 12.2861V12.3187C82.1719 12.3412 82.3419 12.3851 82.5063 12.4503C82.6696 12.5156 82.8159 12.6011 82.9488 12.7068C83.0783 12.8126 83.1841 12.9397 83.2652 13.0882C83.344 13.2378 83.3834 13.4066 83.3834 13.5956C83.3834 13.9083 83.3091 14.1705 83.1548 14.3808C83.0028 14.5923 82.8069 14.7588 82.5693 14.8826C82.334 15.0063 82.0728 15.0952 81.7891 15.1503C81.5054 15.2043 81.2284 15.2325 80.9604 15.2325C80.6328 15.2325 80.3074 15.1976 79.9887 15.129C79.6678 15.0592 79.3796 14.9523 79.124 14.8072L79.4314 14.0321C79.6206 14.1345 79.8356 14.22 80.0799 14.2886C80.3243 14.3572 80.5731 14.3921 80.8275 14.3921C81.2273 14.3921 81.5358 14.3145 81.7508 14.1581C81.9636 14.0017 82.0717 13.8071 82.0717 13.5742C82.0717 13.4212 82.0368 13.293 81.9636 13.1872C81.8904 13.0815 81.788 12.996 81.6585 12.9307C81.5267 12.8655 81.3747 12.8193 81.1991 12.7946C81.0257 12.7687 80.8343 12.7563 80.6316 12.7563H80.0754V12.0127Z" fill="#7E7E7E"/>
<path d="M86.3758 9.80889V11.6854C86.3758 12.1151 86.369 12.501 86.3533 12.8419C86.3375 13.1839 86.3206 13.5439 86.2981 13.9219L86.3206 13.9433C86.4591 13.6665 86.5953 13.3965 86.7293 13.1299C86.8655 12.8644 87.0018 12.5933 87.1403 12.3165L88.4509 9.80664H89.9787V15.1099H88.8641V13.2334C88.8641 12.8408 88.8753 12.4481 88.8922 12.0555C88.9102 11.6618 88.9294 11.2658 88.9519 10.8653H88.8967C88.774 11.1926 88.6501 11.4761 88.5252 11.7169C88.4024 11.9565 88.2786 12.204 88.1559 12.4594C87.9295 12.8959 87.7055 13.3324 87.4826 13.7689C87.2607 14.2054 87.0254 14.6531 86.7789 15.111H85.251V9.80889H86.3758Z" fill="#7E7E7E"/>
<path d="M96.2052 9.80884V10.7797H94.5895V15.1121H93.4298V10.7797H91.8242V9.80884H96.2052Z" fill="#7E7E7E"/>
<path d="M102.222 12.2097C102.222 12.3109 102.217 12.4077 102.21 12.4988C102.204 12.5899 102.192 12.6721 102.178 12.7441H98.6388C98.6546 13.2458 98.8122 13.6339 99.114 13.9062C99.4157 14.1784 99.8154 14.3157 100.31 14.3157C100.827 14.3157 101.304 14.2324 101.741 14.0648L101.925 14.8838C101.422 15.1021 100.83 15.2112 100.144 15.2112C99.731 15.2112 99.3594 15.1471 99.0318 15.0199C98.7041 14.8928 98.4272 14.7128 98.2009 14.4799C97.9768 14.2471 97.8023 13.9669 97.6818 13.6396C97.5636 13.3122 97.5039 12.9454 97.5039 12.5382C97.5039 12.1309 97.5636 11.7541 97.6818 11.4087C97.8023 11.0633 97.9723 10.7629 98.1896 10.5087C98.4092 10.2533 98.6737 10.0542 98.9811 9.90795C99.2908 9.76282 99.6364 9.6897 100.015 9.6897C100.349 9.6897 100.652 9.74932 100.928 9.8697C101.2 9.98895 101.433 10.1599 101.625 10.3827C101.818 10.6043 101.966 10.8709 102.067 11.1792C102.171 11.4874 102.222 11.8317 102.222 12.2097ZM101.096 11.9048C101.096 11.4897 100.997 11.1533 100.796 10.8957C100.596 10.6381 100.306 10.5076 99.928 10.5076C99.5846 10.5076 99.2953 10.6381 99.0554 10.9002C98.8156 11.1623 98.6771 11.4964 98.64 11.9048H101.096Z" fill="#7E7E7E"/>
<path d="M106.975 9.8528C107.186 9.8168 107.454 9.78755 107.782 9.76505C108.11 9.74255 108.444 9.73242 108.787 9.73242C109.005 9.73242 109.251 9.74592 109.524 9.77067C109.796 9.79542 110.059 9.85392 110.304 9.94505C110.553 10.0362 110.759 10.1723 110.927 10.3545C111.094 10.5368 111.18 10.7832 111.18 11.0959C111.18 11.2568 111.15 11.4008 111.092 11.5268C111.032 11.6539 110.956 11.7653 110.857 11.8598C110.758 11.9543 110.645 12.033 110.518 12.0938C110.391 12.1557 110.259 12.2018 110.119 12.2299L110.131 12.2625C110.516 12.3278 110.83 12.4662 111.07 12.6777C111.309 12.8892 111.43 13.1794 111.43 13.5507C111.43 13.9219 111.326 14.2167 111.125 14.4349C110.92 14.6532 110.67 14.8174 110.37 14.9265C110.071 15.0357 109.757 15.1054 109.425 15.1347C109.095 15.1628 108.797 15.1785 108.536 15.1785C108.244 15.1785 107.958 15.1718 107.678 15.156C107.397 15.1414 107.164 15.1268 106.975 15.1122V9.8528ZM108.11 11.97H108.71C108.892 11.97 109.065 11.9577 109.229 11.9318C109.393 11.907 109.536 11.8665 109.66 11.8125C109.785 11.7574 109.879 11.6854 109.95 11.5943C110.019 11.5032 110.054 11.3929 110.054 11.2613C110.054 11.0217 109.955 10.845 109.752 10.7325C109.552 10.62 109.238 10.5638 108.809 10.5638C108.686 10.5638 108.578 10.5672 108.486 10.575C108.396 10.5818 108.271 10.593 108.11 10.6077V11.97ZM108.11 14.3157C108.255 14.3303 108.378 14.3404 108.474 14.3483C108.573 14.3562 108.687 14.3595 108.82 14.3595C108.981 14.3595 109.143 14.3494 109.311 14.3269C109.478 14.3055 109.632 14.2639 109.77 14.202C109.909 14.1413 110.019 14.058 110.102 13.9523C110.186 13.8477 110.23 13.7082 110.23 13.5349C110.23 13.2312 110.093 13.0219 109.825 12.906C109.555 12.7902 109.193 12.7328 108.732 12.7328H108.11V14.3157Z" fill="#7E7E7E"/>
</svg>
