<svg width="152" height="45" viewBox="0 0 152 45" fill="none" xmlns="http://www.w3.org/2000/svg">
<path d="M146.592 45H5.3245C2.38921 45 0 42.606 0 39.6754V5.31675C0 2.385 2.38921 0 5.3245 0H146.592C149.526 0 152 2.385 152 5.31675V39.6754C152 42.606 149.526 45 146.592 45Z" fill="#A6A6A6"/>
<path d="M150.91 39.6767C150.91 42.0572 148.98 43.9855 146.593 43.9855H5.32438C2.93855 43.9855 1.00195 42.0572 1.00195 39.6767V5.31584C1.00195 2.93646 2.93855 1.00146 5.32438 1.00146H146.592C148.98 1.00146 150.909 2.93646 150.909 5.31584L150.91 39.6767Z" fill="black"/>
<path d="M33.9215 22.2572C33.8888 18.6313 36.8928 16.8673 37.0302 16.7852C35.3289 14.3068 32.692 13.9682 31.7654 13.9412C29.5507 13.7083 27.4024 15.2653 26.2742 15.2653C25.1235 15.2653 23.3862 13.9637 21.5138 14.002C19.1043 14.0391 16.8502 15.433 15.6139 17.5975C13.0626 22.0108 14.9654 28.4965 17.4098 32.0638C18.6326 33.811 20.0614 35.7617 21.9315 35.6931C23.7611 35.6177 24.4446 34.5276 26.6525 34.5276C28.8402 34.5276 29.482 35.6931 31.3893 35.6492C33.3529 35.6177 34.5892 33.8942 35.7691 32.1313C37.1822 30.1288 37.7496 28.1567 37.7722 28.0555C37.726 28.0397 33.9587 26.6031 33.9215 22.2572Z" fill="white"/>
<path d="M30.3185 11.5943C31.3025 10.3646 31.9758 8.69177 31.7889 6.99414C30.3646 7.05714 28.5834 7.97852 27.5577 9.18114C26.6502 10.2409 25.8395 11.9779 26.0489 13.6114C27.6489 13.7306 29.2916 12.8048 30.3185 11.5943Z" fill="white"/>
<path d="M60.4008 35.4417H57.8438L56.4431 31.0441H51.5746L50.2404 35.4417H47.751L52.5744 20.4702H55.5536L60.4008 35.4417ZM56.0209 29.1991L54.7542 25.2897C54.6203 24.8903 54.3692 23.9498 53.9987 22.4693H53.9537C53.8062 23.1061 53.5686 24.0466 53.2421 25.2897L51.998 29.1991H56.0209Z" fill="white"/>
<path d="M72.8051 29.9114C72.8051 31.7474 72.3085 33.1987 71.3155 34.2641C70.426 35.2124 69.3215 35.6861 68.003 35.6861C66.5798 35.6861 65.5575 35.1753 64.9348 34.1538H64.8898V39.8407H62.4893V28.2003C62.4893 27.0461 62.4589 25.8614 62.4004 24.6464H64.5115L64.6455 26.3576H64.6905C65.4911 25.0683 66.7059 24.4248 68.3363 24.4248C69.6108 24.4248 70.6748 24.9277 71.526 25.9346C72.3795 26.9426 72.8051 28.2678 72.8051 29.9114ZM70.3596 29.9992C70.3596 28.9484 70.1231 28.0822 69.648 27.4004C69.1289 26.6894 68.432 26.3339 67.5583 26.3339C66.966 26.3339 66.4278 26.5319 65.9471 26.9223C65.4652 27.3161 65.1499 27.8302 65.0024 28.4669C64.9281 28.7639 64.8909 29.0069 64.8909 29.1982V30.9982C64.8909 31.7834 65.1319 32.4461 65.6138 32.9872C66.0957 33.5283 66.7217 33.7983 67.4918 33.7983C68.3959 33.7983 69.0996 33.4496 69.6029 32.7543C70.1073 32.0579 70.3596 31.1399 70.3596 29.9992Z" fill="white"/>
<path d="M85.2317 29.9114C85.2317 31.7474 84.7351 33.1987 83.741 34.2641C82.8526 35.2124 81.7481 35.6861 80.4296 35.6861C79.0064 35.6861 77.9841 35.1753 77.3626 34.1538H77.3175V39.8407H74.9171V28.2003C74.9171 27.0461 74.8867 25.8614 74.8281 24.6464H76.9392L77.0732 26.3576H77.1183C77.9177 25.0683 79.1325 24.4248 80.764 24.4248C82.0374 24.4248 83.1014 24.9277 83.9549 25.9346C84.805 26.9426 85.2317 28.2678 85.2317 29.9114ZM82.7862 29.9992C82.7862 28.9484 82.5486 28.0822 82.0735 27.4004C81.5544 26.6894 80.8597 26.3339 79.9849 26.3339C79.3915 26.3339 78.8544 26.5319 78.3725 26.9223C77.8906 27.3161 77.5765 27.8302 77.429 28.4669C77.3558 28.7639 77.3175 29.0069 77.3175 29.1982V30.9982C77.3175 31.7834 77.5585 32.4461 78.0381 32.9872C78.52 33.5272 79.1461 33.7983 79.9184 33.7983C80.8226 33.7983 81.5263 33.4496 82.0295 32.7543C82.534 32.0579 82.7862 31.1399 82.7862 29.9992Z" fill="white"/>
<path d="M99.1257 31.2434C99.1257 32.5169 98.6832 33.553 97.7949 34.3529C96.8187 35.227 95.4597 35.6635 93.7134 35.6635C92.1011 35.6635 90.8085 35.353 89.8301 34.7309L90.3863 32.7317C91.4402 33.3685 92.5965 33.688 93.8564 33.688C94.7605 33.688 95.4642 33.4832 95.9698 33.076C96.473 32.6687 96.7241 32.122 96.7241 31.4402C96.7241 30.8327 96.517 30.3209 96.1015 29.9057C95.6883 29.4906 94.9981 29.1047 94.0343 28.7481C91.4109 27.7705 90.1003 26.3384 90.1003 24.4551C90.1003 23.2244 90.5597 22.2152 91.4796 21.43C92.3961 20.6436 93.6188 20.251 95.1478 20.251C96.5113 20.251 97.644 20.4884 98.5481 20.962L97.948 22.9172C97.1036 22.4582 96.1488 22.2287 95.0803 22.2287C94.2358 22.2287 93.576 22.4369 93.1031 22.8509C92.7034 23.221 92.503 23.6721 92.503 24.2065C92.503 24.7982 92.7316 25.2876 93.191 25.6724C93.5907 26.0279 94.3169 26.4126 95.3708 26.8277C96.6599 27.3464 97.6069 27.9527 98.216 28.648C98.8229 29.341 99.1257 30.2084 99.1257 31.2434Z" fill="white"/>
<path d="M107.062 26.4464H104.416V31.6878C104.416 33.0209 104.883 33.6869 105.817 33.6869C106.246 33.6869 106.602 33.6498 106.883 33.5755L106.95 35.3969C106.477 35.5735 105.854 35.6624 105.083 35.6624C104.135 35.6624 103.394 35.3733 102.859 34.7962C102.327 34.2179 102.059 33.2482 102.059 31.8858V26.4442H100.482V24.6442H102.059V22.6675L104.416 21.9565V24.6442H107.062V26.4464Z" fill="white"/>
<path d="M119.001 29.9552C119.001 31.6145 118.525 32.9769 117.577 34.0423C116.583 35.1392 115.264 35.6859 113.619 35.6859C112.033 35.6859 110.771 35.1605 109.83 34.1098C108.889 33.059 108.418 31.7327 108.418 30.134C108.418 28.4612 108.902 27.0909 109.874 26.0255C110.843 24.959 112.152 24.4258 113.797 24.4258C115.382 24.4258 116.657 24.9512 117.62 26.003C118.541 27.0234 119.001 28.3408 119.001 29.9552ZM116.51 30.0328C116.51 29.0372 116.297 28.1833 115.866 27.4712C115.363 26.6094 114.643 26.1797 113.711 26.1797C112.746 26.1797 112.013 26.6105 111.51 27.4712C111.079 28.1844 110.866 29.0518 110.866 30.0778C110.866 31.0734 111.079 31.9273 111.51 32.6383C112.029 33.5 112.754 33.9298 113.69 33.9298C114.606 33.9298 115.326 33.491 115.845 32.6158C116.287 31.8902 116.51 31.0273 116.51 30.0328Z" fill="white"/>
<path d="M126.803 26.7558C126.565 26.7119 126.312 26.6894 126.046 26.6894C125.202 26.6894 124.549 27.0078 124.089 27.6457C123.69 28.2082 123.489 28.9192 123.489 29.7776V35.4419H121.09L121.113 28.0462C121.113 26.8019 121.082 25.6691 121.022 24.6476H123.113L123.201 26.7131H123.268C123.521 26.0032 123.921 25.4317 124.468 25.0031C125.003 24.6172 125.58 24.4248 126.203 24.4248C126.425 24.4248 126.625 24.4406 126.803 24.4687V26.7558Z" fill="white"/>
<path d="M137.539 29.5332C137.539 29.9629 137.511 30.3252 137.452 30.621H130.25C130.278 31.6875 130.626 32.5032 131.295 33.0657C131.902 33.5685 132.687 33.8205 133.65 33.8205C134.717 33.8205 135.69 33.6507 136.564 33.3098L136.94 34.9748C135.918 35.4203 134.711 35.6419 133.318 35.6419C131.643 35.6419 130.328 35.1492 129.371 34.1648C128.416 33.1804 127.938 31.8585 127.938 30.2003C127.938 28.5724 128.382 27.2168 129.273 26.1357C130.205 24.9814 131.465 24.4043 133.05 24.4043C134.607 24.4043 135.786 24.9814 136.587 26.1357C137.221 27.0525 137.539 28.1865 137.539 29.5332ZM135.25 28.911C135.266 28.2 135.11 27.5858 134.784 27.0672C134.369 26.4 133.73 26.067 132.871 26.067C132.087 26.067 131.448 26.3922 130.961 27.0447C130.561 27.5633 130.323 28.1854 130.25 28.9099H135.25V28.911Z" fill="white"/>
<path d="M48.8925 8.18234C49.1481 8.02934 49.4363 7.90109 49.7606 7.79534C50.0837 7.68959 50.4643 7.63672 50.9023 7.63672C51.6082 7.63672 52.1644 7.80434 52.572 8.13847C52.9796 8.47259 53.1834 8.92372 53.1834 9.49184C53.1834 9.94297 53.0472 10.321 52.7747 10.627C52.5022 10.933 52.1532 11.1366 51.731 11.2378V11.2705C51.964 11.3076 52.1847 11.3706 52.3919 11.4617C52.6002 11.5528 52.7826 11.6743 52.9379 11.8273C53.0944 11.9803 53.2183 12.1581 53.3095 12.3628C53.3996 12.5665 53.4457 12.7915 53.4457 13.0401C53.4457 13.4473 53.3635 13.7893 53.1992 14.0661C53.0348 14.3428 52.8208 14.5678 52.5551 14.7433C52.2905 14.9177 51.9933 15.0437 51.6657 15.1191C51.338 15.1945 51.0104 15.2338 50.6827 15.2338C50.3326 15.2338 49.9869 15.1967 49.6446 15.1247C49.3023 15.0527 48.986 14.9323 48.6943 14.7647L48.9893 13.8591C49.1785 13.9536 49.4228 14.0447 49.7212 14.1325C50.0195 14.2202 50.3213 14.263 50.6275 14.263C51.1297 14.263 51.5182 14.1505 51.7906 13.9255C52.0631 13.6993 52.2005 13.3978 52.2005 13.0198C52.2005 12.7645 52.1453 12.5563 52.0361 12.3921C51.9257 12.2278 51.7839 12.0996 51.6094 12.004C51.4348 11.9095 51.2401 11.8442 51.025 11.8082C50.8099 11.7722 50.5971 11.7531 50.3866 11.7531H49.8946V10.8565H50.3866C50.6118 10.8565 50.8212 10.8283 51.0149 10.7687C51.2074 10.7113 51.3752 10.6292 51.517 10.5235C51.6589 10.4177 51.7704 10.2917 51.8503 10.1466C51.9291 10.0015 51.9697 9.83722 51.9697 9.65497C51.9697 9.32759 51.8526 9.07109 51.6195 8.88547C51.3864 8.69984 51.0734 8.60647 50.6805 8.60647C50.4114 8.60647 50.1411 8.65034 49.8721 8.73697C49.603 8.82472 49.362 8.91922 49.1503 9.02047L48.8925 8.18234Z" fill="white"/>
<path d="M58.2723 15.1124L58.1856 14.5015H58.1529C57.7972 14.9887 57.2804 15.2328 56.6025 15.2328C56.3616 15.2328 56.1443 15.1923 55.9473 15.1124C55.7502 15.0325 55.5791 14.9234 55.4338 14.785C55.2875 14.6467 55.176 14.4835 55.0949 14.2934C55.015 14.1044 54.9756 13.8963 54.9756 13.6713C54.9756 13.0098 55.2447 12.5125 55.784 12.1818C56.3233 11.851 57.0867 11.6857 58.0775 11.6857V11.5878C58.0775 10.8892 57.7105 10.5404 56.9764 10.5404C56.4528 10.5404 55.9912 10.672 55.5926 10.933L55.3528 10.159C55.8403 9.85417 56.4472 9.70117 57.1734 9.70117C58.5617 9.70117 59.2564 10.4324 59.2564 11.8949V13.8479C59.2564 14.3935 59.2823 14.8154 59.3329 15.1135H58.2723V15.1124ZM58.109 12.472C57.4504 12.472 56.9595 12.5553 56.6375 12.7229C56.3154 12.8905 56.1544 13.1639 56.1544 13.5419C56.1544 13.8187 56.2299 14.0257 56.3819 14.164C56.5339 14.3024 56.7264 14.371 56.9583 14.371C57.1103 14.371 57.2545 14.344 57.3929 14.2889C57.5303 14.2349 57.6508 14.1595 57.7555 14.065C57.8613 13.9705 57.9458 13.8558 58.0122 13.7208C58.0775 13.5858 58.109 13.4429 58.109 13.2899V12.472Z" fill="white"/>
<path d="M64.9472 9.80908V10.78H62.7404V15.1123H61.5615V9.80908H64.9472Z" fill="white"/>
<path d="M71.6957 12.3954C71.6957 12.8172 71.6371 13.2031 71.5212 13.5519C71.4041 13.9017 71.2431 14.1999 71.0348 14.4462C70.8276 14.6937 70.5799 14.8872 70.2928 15.0245C70.0045 15.1629 69.687 15.2326 69.3369 15.2326C68.6377 15.2326 68.1355 14.9817 67.8293 14.48H67.8067V17.2734H66.6268V11.555C66.6268 11.2715 66.6234 10.9857 66.6155 10.6977C66.6088 10.4109 66.5975 10.1139 66.584 9.80786H67.621L67.6874 10.6482H67.7099C68.1029 10.016 68.6996 9.69873 69.5013 9.69873C69.8131 9.69873 70.1036 9.76398 70.3693 9.89448C70.6351 10.0261 70.8659 10.2095 71.0629 10.4457C71.26 10.682 71.4142 10.9655 71.5268 11.2974C71.6394 11.6292 71.6957 11.9949 71.6957 12.3954ZM70.4955 12.4392C70.4955 12.1771 70.4639 11.9352 70.402 11.7136C70.3401 11.492 70.2489 11.303 70.1295 11.1466C70.0102 10.9902 69.8638 10.8665 69.6927 10.7754C69.5215 10.6842 69.3301 10.6392 69.1184 10.6392C68.9518 10.6392 68.7874 10.6764 68.6264 10.7484C68.4654 10.8204 68.3258 10.9194 68.2064 11.0431C68.086 11.1669 67.9903 11.3165 67.9171 11.4909C67.8439 11.6652 67.8067 11.8509 67.8067 12.0477V12.932C67.8067 13.1277 67.8371 13.31 67.9002 13.4776C67.9621 13.6452 68.0488 13.7904 68.1614 13.9141C68.274 14.0379 68.4091 14.1346 68.5656 14.2032C68.7221 14.273 68.8944 14.3067 69.0835 14.3067C69.5283 14.3067 69.8739 14.138 70.1216 13.7994C70.3693 13.4607 70.4955 13.0062 70.4955 12.4392Z" fill="white"/>
<path d="M78.0328 9.80908L76.6885 13.4867C76.3687 14.3597 76.0568 15.0741 75.7551 15.631C75.4522 16.1878 75.164 16.5928 74.887 16.8482C74.4794 17.2116 74.0459 17.4343 73.5866 17.5131L73.3028 16.5208C73.608 16.441 73.8996 16.2846 74.1765 16.0517C74.4524 15.8188 74.6742 15.5286 74.8431 15.1787C74.9016 15.0628 74.9298 14.983 74.9298 14.9391C74.9298 14.8952 74.9073 14.812 74.8645 14.6882L72.9414 9.81021H74.2407L75.2462 12.7678C75.298 12.9062 75.3486 13.0626 75.3993 13.237C75.4511 13.4113 75.5051 13.6048 75.5637 13.8152H75.5862C75.6222 13.6982 75.6628 13.552 75.7056 13.3731C75.7495 13.1953 75.808 12.9895 75.8801 12.7566L76.7763 9.81021H78.0328V9.80908Z" fill="white"/>
<path d="M80.0754 12.0132H80.6204C81.0201 12.0132 81.3308 11.9412 81.5481 11.7949C81.7654 11.6487 81.8758 11.4709 81.8758 11.2594C81.8758 11.0412 81.7835 10.8668 81.5966 10.7363C81.4119 10.6058 81.1541 10.5394 80.8264 10.5394C80.6147 10.5394 80.4019 10.5743 80.1891 10.6429C79.9741 10.7127 79.7759 10.7982 79.5935 10.8994L79.2884 10.1367C79.5935 9.9702 79.8975 9.85545 80.2015 9.79357C80.5033 9.7317 80.8062 9.7002 81.1124 9.7002C81.3545 9.7002 81.5965 9.72382 81.8397 9.77107C82.0818 9.81832 82.2991 9.8982 82.4883 10.0107C82.6774 10.1232 82.8339 10.2706 82.9522 10.4528C83.0726 10.6351 83.1323 10.8601 83.1323 11.1301C83.1323 11.2977 83.0997 11.4451 83.0332 11.5722C82.9691 11.6993 82.8812 11.8118 82.772 11.9097C82.6639 12.0076 82.5412 12.0886 82.4072 12.1493C82.2732 12.2112 82.1347 12.2573 81.9985 12.2866V12.3192C82.1719 12.3417 82.3419 12.3856 82.5063 12.4508C82.6696 12.5161 82.8159 12.6016 82.9488 12.7073C83.0783 12.8131 83.1841 12.9402 83.2652 13.0887C83.344 13.2383 83.3834 13.4071 83.3834 13.5961C83.3834 13.9088 83.3091 14.1709 83.1548 14.3813C83.0028 14.5928 82.8069 14.7593 82.5693 14.8831C82.334 15.0068 82.0728 15.0957 81.7891 15.1508C81.5054 15.2048 81.2284 15.2329 80.9604 15.2329C80.6328 15.2329 80.3074 15.1981 79.9887 15.1294C79.6678 15.0597 79.3796 14.9528 79.124 14.8077L79.4314 14.0326C79.6206 14.1349 79.8356 14.2204 80.0799 14.2891C80.3243 14.3577 80.5731 14.3926 80.8275 14.3926C81.2273 14.3926 81.5358 14.3149 81.7508 14.1586C81.9636 14.0022 82.0717 13.8076 82.0717 13.5747C82.0717 13.4217 82.0368 13.2934 81.9636 13.1877C81.8904 13.0819 81.788 12.9964 81.6585 12.9312C81.5267 12.8659 81.3747 12.8198 81.1991 12.7951C81.0257 12.7692 80.8343 12.7568 80.6316 12.7568H80.0754V12.0132Z" fill="white"/>
<path d="M86.3758 9.80889V11.6854C86.3758 12.1151 86.369 12.501 86.3533 12.8419C86.3375 13.1839 86.3206 13.5439 86.2981 13.9219L86.3206 13.9433C86.4591 13.6665 86.5953 13.3965 86.7293 13.1299C86.8655 12.8644 87.0018 12.5933 87.1403 12.3165L88.4509 9.80664H89.9787V15.1099H88.8641V13.2334C88.8641 12.8408 88.8753 12.4481 88.8922 12.0555C88.9102 11.6618 88.9294 11.2658 88.9519 10.8653H88.8967C88.774 11.1926 88.6501 11.4761 88.5252 11.7169C88.4024 11.9565 88.2786 12.204 88.1559 12.4594C87.9295 12.8959 87.7055 13.3324 87.4826 13.7689C87.2607 14.2054 87.0254 14.6531 86.7789 15.111H85.251V9.80889H86.3758Z" fill="white"/>
<path d="M96.2052 9.80908V10.78H94.5895V15.1123H93.4298V10.78H91.8242V9.80908H96.2052Z" fill="white"/>
<path d="M102.222 12.2099C102.222 12.3112 102.217 12.4079 102.21 12.4991C102.204 12.5902 102.192 12.6723 102.178 12.7443H98.6388C98.6546 13.2461 98.8122 13.6342 99.114 13.9064C99.4157 14.1787 99.8154 14.3159 100.31 14.3159C100.827 14.3159 101.304 14.2327 101.741 14.0651L101.925 14.8841C101.422 15.1023 100.83 15.2114 100.144 15.2114C99.731 15.2114 99.3594 15.1473 99.0318 15.0202C98.7041 14.8931 98.4272 14.7131 98.2009 14.4802C97.9768 14.2473 97.8023 13.9672 97.6818 13.6398C97.5636 13.3124 97.5039 12.9457 97.5039 12.5384C97.5039 12.1312 97.5636 11.7543 97.6818 11.4089C97.8023 11.0636 97.9723 10.7632 98.1896 10.5089C98.4092 10.2536 98.6737 10.0544 98.9811 9.90819C99.2908 9.76307 99.6364 9.68994 100.015 9.68994C100.349 9.68994 100.652 9.74957 100.928 9.86994C101.2 9.98919 101.433 10.1602 101.625 10.3829C101.818 10.6046 101.966 10.8712 102.067 11.1794C102.171 11.4877 102.222 11.8319 102.222 12.2099ZM101.096 11.9051C101.096 11.4899 100.997 11.1536 100.796 10.8959C100.596 10.6383 100.306 10.5078 99.928 10.5078C99.5846 10.5078 99.2953 10.6383 99.0554 10.9004C98.8156 11.1626 98.6771 11.4967 98.64 11.9051H101.096Z" fill="white"/>
<path d="M106.975 9.8528C107.186 9.8168 107.454 9.78755 107.782 9.76505C108.11 9.74255 108.444 9.73242 108.787 9.73242C109.005 9.73242 109.251 9.74592 109.524 9.77067C109.796 9.79542 110.059 9.85392 110.304 9.94505C110.553 10.0362 110.759 10.1723 110.927 10.3545C111.094 10.5368 111.18 10.7832 111.18 11.0959C111.18 11.2568 111.15 11.4008 111.092 11.5268C111.032 11.6539 110.956 11.7653 110.857 11.8598C110.758 11.9543 110.645 12.033 110.518 12.0938C110.391 12.1557 110.259 12.2018 110.119 12.2299L110.131 12.2625C110.516 12.3278 110.83 12.4662 111.07 12.6777C111.309 12.8892 111.43 13.1794 111.43 13.5507C111.43 13.9219 111.326 14.2167 111.125 14.4349C110.92 14.6532 110.67 14.8174 110.37 14.9265C110.071 15.0357 109.757 15.1054 109.425 15.1347C109.095 15.1628 108.797 15.1785 108.536 15.1785C108.244 15.1785 107.958 15.1718 107.678 15.156C107.397 15.1414 107.164 15.1268 106.975 15.1122V9.8528ZM108.11 11.97H108.71C108.892 11.97 109.065 11.9577 109.229 11.9318C109.393 11.907 109.536 11.8665 109.66 11.8125C109.785 11.7574 109.879 11.6854 109.95 11.5943C110.019 11.5032 110.054 11.3929 110.054 11.2613C110.054 11.0217 109.955 10.845 109.752 10.7325C109.552 10.62 109.238 10.5638 108.809 10.5638C108.686 10.5638 108.578 10.5672 108.486 10.575C108.396 10.5818 108.271 10.593 108.11 10.6077V11.97ZM108.11 14.3157C108.255 14.3303 108.378 14.3404 108.474 14.3483C108.573 14.3562 108.687 14.3595 108.82 14.3595C108.981 14.3595 109.143 14.3494 109.311 14.3269C109.478 14.3055 109.632 14.2639 109.77 14.202C109.909 14.1413 110.019 14.058 110.102 13.9523C110.186 13.8477 110.23 13.7082 110.23 13.5349C110.23 13.2312 110.093 13.0219 109.825 12.906C109.555 12.7902 109.193 12.7328 108.732 12.7328H108.11V14.3157Z" fill="white"/>
</svg>
