<svg width="100" height="21" viewBox="0 0 100 21" fill="none" xmlns="http://www.w3.org/2000/svg">
<path d="M75.3435 0.726562H69.5562V1.14158C69.5562 1.97162 69.8967 3.05068 71.3435 3.05068H73.0456H75.1733C77.386 3.05068 78.5775 3.79771 78.2371 6.20483L77.9818 8.19692C77.6413 10.77 75.769 11.1021 74.152 11.1021H71.9392L72.535 6.20483C72.6201 5.5408 72.2796 4.37874 70.9179 4.37874H69.0456L68.535 8.36292L68.0243 11.9321C67.8541 12.8451 68.6201 13.4262 70.152 13.4262H74.5775C79.0881 13.4262 80.2796 11.8491 80.9605 10.853C81.3009 10.272 81.5562 9.60798 81.6413 8.77794C81.6413 8.61194 81.9818 6.12182 81.9818 6.12182C82.152 4.62775 81.8967 3.46569 81.1307 2.55265C80.1094 1.30759 78.152 0.726562 75.3435 0.726562Z" fill="#C61B31"/>
<path d="M25.3861 5.95579L25.1308 8.03089C25.0457 8.94394 24.7053 9.69098 24.3648 10.189C23.7691 10.853 22.918 11.3511 21.7265 11.3511H21.0457C19.8542 11.3511 19.0031 10.936 18.6627 10.272C18.4074 9.77397 18.3223 9.10995 18.4925 8.1139L18.7478 6.0388C18.918 4.95975 19.2585 4.12971 19.8542 3.54868C20.4499 2.96766 21.301 2.71864 22.2372 2.71864H22.8329C23.5138 2.71864 24.4499 2.80164 24.9606 3.46568C25.3861 4.0467 25.4712 4.79374 25.3861 5.95579ZM23.0031 0.394531H22.4074C17.8967 0.477535 15.5138 2.30362 15.0031 5.78979L14.6627 8.03089C14.4925 9.60797 14.7478 10.77 15.5138 11.6001C16.4499 12.6791 18.1521 13.4261 20.7053 13.4261H21.301C25.7265 13.3431 28.1095 11.6001 28.6202 8.3629V8.1139L28.9606 5.87278C29.1308 4.21271 28.8755 3.05065 28.0244 2.13761C27.1733 1.14156 25.5563 0.477535 23.0031 0.394531Z" fill="#C61B31"/>
<path d="M95.7689 5.95579L95.5136 8.03089C95.4285 8.94394 95.1732 9.69098 94.7477 10.189C94.1519 10.853 93.3008 11.3511 92.1093 11.3511H91.4285C90.237 11.3511 89.3859 10.936 89.0455 10.272C88.7902 9.77397 88.7051 9.10995 88.8753 8.1139L89.1306 6.0388C89.3008 4.95975 89.6413 4.12971 90.237 3.54868C90.8328 2.96766 91.6838 2.71864 92.62 2.71864H93.2157C93.8966 2.71864 94.8328 2.80164 95.3434 3.46568C95.7689 4.0467 95.9391 4.79374 95.7689 5.95579ZM98.5774 2.22062C97.6413 1.14156 95.9391 0.477535 93.3859 0.394531H92.7902C88.2796 0.477535 85.8966 2.30362 85.3859 5.78979L85.0455 8.03089C84.8753 9.60797 85.1306 10.77 85.8966 11.6001C86.8328 12.6791 88.5349 13.4261 91.0881 13.4261H91.6838C96.1094 13.3431 98.4923 11.6001 99.003 8.3629V8.1139L99.2583 5.87278C99.6838 4.29571 99.4285 3.05066 98.5774 2.22062Z" fill="#C61B31"/>
<path d="M61.896 5.95579L61.6407 8.03089C61.5556 8.94394 61.2152 9.69098 60.8747 10.189C60.279 10.853 59.4279 11.3511 58.2364 11.3511H57.5556C56.3641 11.3511 55.513 10.936 55.1726 10.272C54.9173 9.77397 54.8322 9.10995 55.0024 8.1139L55.2577 6.0388C55.4279 4.95975 55.7684 4.12971 56.3641 3.54868C56.9599 2.96766 57.8109 2.71864 58.7471 2.71864H59.3428C60.0237 2.71864 60.9599 2.80164 61.4705 3.46568C61.896 4.0467 62.0662 4.79374 61.896 5.95579ZM59.513 0.394531H58.8322C54.3216 0.477535 51.9386 2.30362 51.4279 5.78979L51.0875 8.03089C50.9173 9.60797 51.1726 10.77 51.9386 11.6001C52.8747 12.6791 54.5769 13.4261 57.1301 13.4261H57.7258C62.1513 13.3431 64.5343 11.6001 65.045 8.3629V8.1139L65.3854 5.87278C65.5556 4.21271 65.3003 3.05065 64.4492 2.13761C63.7684 1.14156 62.0662 0.477535 59.513 0.394531Z" fill="#C61B31"/>
<path d="M45.131 1.39059L40.1097 6.86885L36.6203 1.39059C36.2799 0.892561 35.5991 0.643555 34.5778 0.643555H32.9608L31.3438 13.2602H33.3012C33.982 13.2602 34.4076 13.0111 34.6629 12.7621C35.0884 12.4301 35.3437 11.9321 35.4289 11.4341L36.1097 5.87279L38.6629 10.687C38.748 10.853 39.0884 11.2681 39.514 11.2681C39.9395 11.2681 40.2799 10.853 40.4501 10.77L44.365 5.9558L43.4289 13.3431H45.3012C45.982 13.3431 46.4076 13.0941 46.6629 12.8451C47.0884 12.5131 47.3437 12.0151 47.4289 11.5171L48.7906 0.726551H47.2586C46.3225 0.726551 45.6416 0.892561 45.131 1.39059Z" fill="#C61B31"/>
<path d="M7.93903 0.726562C7.25818 0.726562 6.74755 0.809564 6.1518 0.892568C2.91776 1.39059 1.21563 3.05068 0.790099 5.95581L0.534778 8.19692C0.364565 9.69099 0.619884 10.853 1.38584 11.6831C2.23691 12.6791 3.76882 13.4262 5.98159 13.4262H9.89648C12.1944 13.4262 12.4497 11.1021 12.4497 11.1021H7.25818C6.57733 11.1021 5.89648 11.019 5.38584 10.853C4.70499 10.604 4.36457 10.189 4.19435 9.44198C4.10925 9.10996 4.19435 8.52894 4.19435 8.11392L4.44967 6.20483C4.53478 5.7068 4.70499 5.12578 4.7901 4.95977C4.96031 4.46175 5.30074 4.04673 5.81137 3.71471C6.06669 3.5487 6.83265 3.13368 8.53478 3.13368H11.4284C13.3858 3.13368 13.8114 0.809572 13.8114 0.809572L7.93903 0.726562Z" fill="#C61B31"/>
<path d="M20.8506 18.9252L21.5314 18.8422C21.6165 19.0912 21.7017 19.2572 21.7868 19.3402C21.8719 19.4232 22.1272 19.5062 22.2974 19.5062C22.5527 19.5062 22.7229 19.4232 22.808 19.3402C22.8931 19.2572 22.9782 19.0912 22.9782 19.0082C22.9782 18.9252 22.9782 18.8422 22.8931 18.7592C22.808 18.6762 22.7229 18.6762 22.6378 18.5932C22.5527 18.5932 22.3825 18.5102 22.0421 18.4272C21.6165 18.3442 21.3612 18.1781 21.191 18.0951C20.9357 17.9291 20.8506 17.6801 20.8506 17.3481C20.8506 17.1821 20.9357 17.0161 21.0208 16.8501C21.1059 16.6841 21.2761 16.6011 21.4463 16.5181C21.6165 16.4351 21.8719 16.4351 22.1272 16.4351C22.5527 16.4351 22.8931 16.5181 23.1485 16.7671C23.4038 17.0161 23.4889 17.2651 23.4889 17.5141H22.7229C22.7229 17.3481 22.6378 17.1821 22.5527 17.0991C22.4676 17.0161 22.2974 17.0161 22.1272 17.0161C21.8719 17.0161 21.7868 17.0991 21.6165 17.1821C21.5314 17.2651 21.5314 17.3481 21.5314 17.4311C21.5314 17.5141 21.5314 17.5971 21.6165 17.6801C21.7017 17.7631 21.957 17.8461 22.2974 17.9291C22.6378 18.0121 22.8931 18.0951 23.0634 18.1781C23.2336 18.2611 23.4038 18.4272 23.4889 18.5102C23.8293 18.6762 23.8293 18.8422 23.8293 19.0912C23.8293 19.2572 23.7442 19.5062 23.6591 19.6722C23.574 19.8382 23.4038 20.0042 23.1485 20.0872C22.9782 20.1702 22.6378 20.2532 22.3825 20.2532C21.957 20.2532 21.5314 20.1702 21.2761 19.9212C21.1059 19.6722 20.9357 19.3402 20.8506 18.9252Z" fill="black"/>
<path d="M25.2764 18.9252L25.9572 18.8422C26.0423 19.0912 26.1274 19.2572 26.2125 19.3402C26.2976 19.4232 26.553 19.5062 26.7232 19.5062C26.9785 19.5062 27.1487 19.4232 27.2338 19.3402C27.3189 19.2572 27.404 19.0912 27.404 19.0082C27.404 18.9252 27.404 18.8422 27.3189 18.7592C27.2338 18.6762 27.1487 18.6762 27.0636 18.5932C26.9785 18.5932 26.8083 18.5102 26.4679 18.4272C26.0423 18.3442 25.787 18.1781 25.6168 18.0951C25.3615 17.9291 25.2764 17.6801 25.2764 17.3481C25.2764 17.1821 25.3615 17.0161 25.4466 16.8501C25.5317 16.6841 25.7019 16.6011 25.8721 16.5181C26.0423 16.4351 26.2976 16.4351 26.553 16.4351C26.9785 16.4351 27.3189 16.5181 27.5742 16.7671C27.8296 17.0161 27.9147 17.2651 27.9147 17.5141H27.1487C27.1487 17.3481 27.0636 17.1821 26.9785 17.0991C26.8934 17.0161 26.7232 17.0161 26.553 17.0161C26.2976 17.0161 26.2125 17.0991 26.0423 17.1821C25.9572 17.2651 25.9572 17.3481 25.9572 17.4311C25.9572 17.5141 25.9572 17.5971 26.0423 17.6801C26.1274 17.7631 26.3827 17.8461 26.7232 17.9291C27.0636 18.0121 27.3189 18.0951 27.4891 18.1781C27.6593 18.2611 27.8296 18.4272 27.9147 18.5102C27.9998 18.6762 28.0849 18.8422 28.0849 19.0912C28.0849 19.2572 27.9998 19.5062 27.9147 19.6722C27.8296 19.8382 27.6593 20.0042 27.404 20.0872C27.2338 20.1702 26.8934 20.2532 26.6381 20.2532C26.2125 20.2532 25.787 20.1702 25.5317 19.9212C25.5317 19.6722 25.3615 19.3402 25.2764 18.9252Z" fill="black"/>
<path d="M29.957 20.0872V16.6011H30.6379V19.5062H32.5102V20.0872H29.957Z" fill="black"/>
<path d="M36.2549 18.9252L36.9357 18.8422C37.0208 19.0912 37.1059 19.2572 37.1911 19.3402C37.2762 19.4232 37.5315 19.5062 37.7017 19.5062C37.957 19.5062 38.1272 19.4232 38.2123 19.3402C38.2974 19.2572 38.3825 19.0912 38.3825 19.0082C38.3825 18.9252 38.3825 18.8422 38.2974 18.7592C38.2123 18.6762 38.1272 18.6762 38.0421 18.5932C37.957 18.5932 37.7868 18.5102 37.4464 18.4272C37.0208 18.3442 36.7655 18.1781 36.5953 18.0951C36.34 17.9291 36.2549 17.6801 36.2549 17.3481C36.2549 17.1821 36.34 17.0161 36.4251 16.8501C36.5102 16.6841 36.6804 16.6011 36.8506 16.5181C37.0208 16.4351 37.2762 16.4351 37.5315 16.4351C37.957 16.4351 38.2974 16.5181 38.5528 16.7671C38.8081 17.0161 38.8932 17.2651 38.8932 17.5141H38.1272C38.1272 17.3481 38.0421 17.1821 37.957 17.0991C37.8719 17.0161 37.7017 17.0161 37.5315 17.0161C37.2762 17.0161 37.1911 17.0991 37.0208 17.1821C36.9357 17.2651 36.9357 17.3481 36.9357 17.4311C36.9357 17.5141 36.9357 17.5971 37.0208 17.6801C37.1059 17.7631 37.3613 17.8461 37.7017 17.9291C38.0421 18.0121 38.2974 18.0951 38.4677 18.1781C38.6379 18.2611 38.8081 18.4272 38.8932 18.5102C39.1485 18.6762 39.1485 18.8422 39.1485 19.0912C39.1485 19.2572 39.0634 19.5062 38.9783 19.6722C38.8932 19.8382 38.723 20.0042 38.4677 20.0872C38.2974 20.1702 37.957 20.2532 37.7017 20.2532C37.2762 20.2532 36.8506 20.1702 36.5953 19.9212C36.4251 19.6722 36.2549 19.3402 36.2549 18.9252Z" fill="black"/>
<path d="M40.8506 20.0872V16.5181H43.574V17.0991H41.6165V17.9291H43.4038V18.5102H41.5314V19.5062H43.574V20.0872H40.8506Z" fill="black"/>
<path d="M45.2764 20.0872V16.5181H46.8083C47.2338 16.5181 47.4891 16.5181 47.6593 16.6011C47.8296 16.6841 47.9998 16.7671 48.0849 16.9331C48.17 17.0991 48.2551 17.2651 48.2551 17.5141C48.2551 17.7631 48.17 18.0121 47.9998 18.1781C47.8296 18.3442 47.5742 18.4272 47.3189 18.5102C47.4891 18.5932 47.5742 18.6762 47.7444 18.8422C47.9147 19.0082 47.9998 19.1742 48.17 19.4232L48.5955 20.0872H47.7444L47.2338 19.3402C47.0636 19.0912 46.8934 18.9252 46.8083 18.8422C46.7232 18.7592 46.6381 18.7592 46.553 18.6762C46.4679 18.6762 46.3827 18.6762 46.2125 18.6762H45.9572V20.1702H45.2764V20.0872ZM45.9572 18.0951H46.4679C46.8083 18.0951 47.0636 18.0951 47.1487 18.0121C47.2338 17.9291 47.3189 17.9291 47.3189 17.8461C47.3189 17.7631 47.404 17.6801 47.404 17.5971C47.404 17.5141 47.404 17.3481 47.3189 17.3481C47.2338 17.3481 47.1487 17.2651 47.0636 17.1821C46.9785 17.1821 46.8083 17.1821 46.553 17.1821H45.9572V18.0951Z" fill="black"/>
<path d="M50.8076 20.0872V17.0991H49.7012V16.5181H52.5948V17.0991H51.4884V20.0872H50.8076Z" fill="black"/>
<path d="M54.042 20.0872V16.5181H54.8079V20.0872H54.042Z" fill="black"/>
<path d="M56.5098 20.0872V16.5181H58.9779V17.0991H57.1906V17.9291H58.7225V18.5102H57.1906V20.0042H56.5098V20.0872Z" fill="black"/>
<path d="M60.6807 20.0872V16.5181H61.4466V20.0872H60.6807Z" fill="black"/>
<path d="M65.4466 18.8422L66.1275 19.0912C66.0423 19.5062 65.8721 19.7552 65.6168 19.9212C65.3615 20.0872 65.0211 20.1702 64.6806 20.1702C64.17 20.1702 63.8296 20.0042 63.4892 19.6722C63.1487 19.3402 62.9785 18.9252 62.9785 18.3442C62.9785 17.7631 63.1487 17.2651 63.4892 16.9331C63.8296 16.6011 64.2551 16.4351 64.7657 16.4351C65.1913 16.4351 65.6168 16.6011 65.8721 16.8501C66.0423 17.0161 66.1275 17.1821 66.2126 17.5141L65.4466 17.6801C65.3615 17.5141 65.2764 17.3481 65.1913 17.2651C65.0211 17.1821 64.8509 17.0991 64.6806 17.0991C64.4253 17.0991 64.17 17.1821 63.9998 17.3481C63.8296 17.5141 63.7445 17.8461 63.7445 18.2611C63.7445 18.6762 63.8296 19.0082 63.9998 19.2572C64.17 19.5062 64.3402 19.5062 64.6806 19.5062C64.8509 19.5062 65.0211 19.4232 65.1913 19.3402C65.3615 19.2572 65.4466 19.0912 65.4466 18.8422Z" fill="black"/>
<path d="M71.1488 20.0872H70.3829L70.0424 19.2572H68.5956L68.2552 20.0872H67.4893L68.9361 16.5181H69.702L71.1488 20.0872ZM69.7871 18.6762L69.2765 17.3481L68.7659 18.6762H69.7871Z" fill="black"/>
<path d="M73.0204 20.0872V17.0991H71.9141V16.5181H74.8077V17.0991H73.7013V20.0872H73.0204Z" fill="black"/>
<path d="M76.3398 20.0872V16.5181H79.0632V17.0991H77.1058V17.9291H78.9781V18.5102H77.1058V19.5062H79.1484V20.0872H76.3398Z" fill="black"/>
</svg>
