<svg width="15" height="19" viewBox="0 0 15 19" fill="none" xmlns="http://www.w3.org/2000/svg">
<path d="M12.4378 9.73702C12.4458 9.03587 12.6312 8.34817 12.9768 7.73801C13.3223 7.12785 13.8166 6.61509 14.4137 6.2475C14.0365 5.70053 13.535 5.25075 12.9504 4.93504C12.3658 4.61933 11.7146 4.44669 11.0504 4.43127C9.63772 4.27991 8.27555 5.27212 7.55242 5.27212C6.82929 5.27212 5.71096 4.43127 4.51696 4.43127C3.74238 4.46037 2.98885 4.69138 2.33104 5.1014C1.67324 5.51142 1.134 6.08622 0.766769 6.76883C-0.84766 9.57726 0.354753 13.7142 1.91032 15.9761C2.69231 17.0945 3.59202 18.3389 4.79444 18.2885C5.99685 18.238 6.39205 17.5485 7.80467 17.5485C9.2173 17.5485 9.60409 18.2885 10.8233 18.2632C12.0426 18.238 12.8582 17.1449 13.6149 16.0182C14.1702 15.234 14.6013 14.369 14.893 13.4536C14.1629 13.1452 13.5403 12.6278 13.1035 11.9665C12.6666 11.3053 12.435 10.5296 12.4378 9.73702Z" fill="#282828"/>
<path d="M10.1424 2.93456C10.8243 2.1155 11.1592 1.06247 11.0757 0C10.0425 0.118521 9.08981 0.615822 8.40184 1.39581C7.71496 2.16475 7.36115 3.17476 7.41805 4.20424C7.93845 4.21141 8.45375 4.10094 8.92549 3.88109C9.39722 3.66124 9.81321 3.33768 10.1424 2.93456Z" fill="#282828"/>
</svg>
