<svg width="15" height="17" viewBox="0 0 15 17" fill="none" xmlns="http://www.w3.org/2000/svg">
<path d="M0.30018 0.559736C0.0891297 0.812988 -0.0173952 1.13719 0.00231956 1.46627V15.7895C-0.0173952 16.1186 0.0891297 16.4428 0.30018 16.696L0.351982 16.7478L8.37479 8.71853V8.52427L0.351982 0.507935L0.30018 0.559736Z" fill="url(#paint0_linear)"/>
<path d="M11.0493 11.3992L8.375 8.7185V8.52425L11.0493 5.84998L11.1075 5.88883L14.248 7.69542C15.1546 8.20696 15.1546 9.04874 14.248 9.56028L11.0816 11.3604L11.0493 11.3992Z" fill="url(#paint1_linear)"/>
<path d="M11.1079 11.3605L8.37539 8.62793L0.300781 16.6961C0.484978 16.8597 0.720882 16.9532 0.967143 16.9603C1.2134 16.9674 1.45431 16.8876 1.64763 16.7349L11.1079 11.3605Z" fill="url(#paint2_linear)"/>
<path d="M11.1079 5.8953L1.64763 0.520859C1.45431 0.368145 1.2134 0.288346 0.967143 0.29545C0.720882 0.302554 0.484978 0.396107 0.300781 0.559711L8.37539 8.62785L11.1079 5.8953Z" fill="url(#paint3_linear)"/>
<path opacity="0.2" d="M11.0497 11.3087L1.64763 16.6442C1.46111 16.785 1.23379 16.8612 1.00011 16.8612C0.766423 16.8612 0.539106 16.785 0.352583 16.6442L0.300781 16.6896L0.352583 16.7414C0.538672 16.8832 0.766155 16.96 1.00011 16.96C1.23406 16.96 1.46154 16.8832 1.64763 16.7414L11.1079 11.3669L11.0497 11.3087Z" fill="black"/>
<path opacity="0.12" d="M0.300555 16.6054C0.0879246 16.3504 -0.0187011 16.0236 0.0026949 15.6924V15.7895C-0.0170198 16.1186 0.0895051 16.4428 0.300555 16.696L0.352357 16.6507L0.300555 16.6054Z" fill="black"/>
<path opacity="0.12" d="M14.2484 9.46971L11.0107 11.3022L11.069 11.3605L14.2484 9.56036C14.4348 9.48009 14.5963 9.35121 14.7159 9.18718C14.8355 9.02315 14.9088 8.83 14.9283 8.62793C14.8884 8.81155 14.8062 8.98331 14.6882 9.12947C14.5701 9.27564 14.4195 9.39216 14.2484 9.46971Z" fill="black"/>
<path opacity="0.25" d="M1.64764 0.611592L14.2484 7.78615C14.4196 7.8637 14.5702 7.98022 14.6882 8.12638C14.8063 8.27255 14.8885 8.44431 14.9283 8.62793C14.9089 8.42585 14.8356 8.23271 14.716 8.06868C14.5964 7.90465 14.4349 7.77577 14.2484 7.69549L1.64764 0.520939C0.741106 0.00292048 0.00292969 0.430286 0.00292969 1.46632V1.59583C0.00292969 0.527414 0.741106 0.100049 1.64764 0.611592Z" fill="white"/>
<defs>
<linearGradient id="paint0_linear" x1="7.66252" y1="1.31734" x2="-3.20939" y2="12.1828" gradientUnits="userSpaceOnUse">
<stop stop-color="#00A0FF"/>
<stop offset="0.01" stop-color="#00A1FF"/>
<stop offset="0.26" stop-color="#00BEFF"/>
<stop offset="0.51" stop-color="#00D2FF"/>
<stop offset="0.76" stop-color="#00DFFF"/>
<stop offset="1" stop-color="#00E3FF"/>
</linearGradient>
<linearGradient id="paint1_linear" x1="15.4524" y1="8.62785" x2="-0.217632" y2="8.62785" gradientUnits="userSpaceOnUse">
<stop stop-color="#FFE000"/>
<stop offset="0.41" stop-color="#FFBD00"/>
<stop offset="0.78" stop-color="#FFA500"/>
<stop offset="1" stop-color="#FF9C00"/>
</linearGradient>
<linearGradient id="paint2_linear" x1="9.61864" y1="10.1172" x2="-5.11251" y2="24.8484" gradientUnits="userSpaceOnUse">
<stop stop-color="#FF3A44"/>
<stop offset="1" stop-color="#C31162"/>
</linearGradient>
<linearGradient id="paint3_linear" x1="-1.73244" y1="-4.20606" x2="4.85287" y2="2.37278" gradientUnits="userSpaceOnUse">
<stop stop-color="#32A071"/>
<stop offset="0.07" stop-color="#2DA771"/>
<stop offset="0.48" stop-color="#15CF74"/>
<stop offset="0.8" stop-color="#06E775"/>
<stop offset="1" stop-color="#00F076"/>
</linearGradient>
</defs>
</svg>
