<?xml version="1.0" encoding="utf-8"?>
<!-- Generator: Adobe Illustrator 23.0.3, SVG Export Plug-In . SVG Version: 6.00 Build 0)  -->
<svg version="1.1" id="Слой_1" xmlns="http://www.w3.org/2000/svg" xmlns:xlink="http://www.w3.org/1999/xlink" x="0px" y="0px"
	 viewBox="0 0 300 300" style="enable-background:new 0 0 300 300;" xml:space="preserve">
<style type="text/css">
	.st0{fill:#FFFFFF;}
	.st1{fill:#FFFFFF;}
</style>
<path class="st0" d="M35.8280182,84.6053543l18.9311829-0.103653l9.0244331,39.4765015l21.8533974-39.6450653l19.1251221-0.1062393
	l-0.0792313,73.9373169l-19.2346497,0.1087341l1.1521225-42.5689926l-0.1972122,0.0050964l-24.2808037,42.691124
	l-7.6530838,0.0388336l-10.4328041-42.5007248h-0.187973L31.1274338,158.573822l-19.1158848,0.0986481L35.8280182,84.6053543z"/>
<path class="st0" d="M172.4531097,83.8552551l16.2956085-0.0894165l-11.2739716,74.0014343l-19.2211761,0.1061707
	l6.5346375-42.5967941l-37.2236176,42.7653427l-16.277916,0.085968l11.2705917-73.9979858l19.2102203-0.106163
	l-6.1410522,40.8310165L172.4531097,83.8552551z"/>
<path class="st0" d="M207.8089294,157.6012268l-19.2236786,0.103653l11.2672272-74.0004883l47.3664093-0.2588425
	l-2.4644318,16.2906036l-28.1377258,0.15345L207.8089294,157.6012268z"/>
<path class="st1" d="M95.1797409,175.2420197l12.7625046-0.0724945l-18.5907898,18.8613586l13.9795456,20.7779236
	l-13.3423233,0.0749969l-10.6528091-17.1267548l-0.1095276,0.002594l-2.6381683,17.1974335l-10.2911682,0.0539398
	l6.0305862-39.6441956l10.2945328-0.0573883l-2.4880753,16.3547211h0.1138382L95.1797409,175.2420197z"/>
<path class="st1" d="M110.1260147,175.1619263l15.752037-0.0884705c8.5119324-0.0463409,13.8437805,3.8602905,12.4168396,12.9529114
	c-1.4159698,9.3700104-7.08078,13.4873199-16.0571365,13.5395355l-5.8341522,0.0303802l-2.0161438,13.1559906l-10.297905,0.0539398
	L110.1260147,175.1619263z M117.6788101,193.2900238l1.737114-0.0109711
	c3.7347107-0.0202789,7.4086609-0.0413361,8.1115494-4.8691406c0.7695236-5.0006714-2.6448135-5.026825-6.6483688-5.0031738
	l-1.7353973,0.0101013L117.6788101,193.2900238z"/>
<path class="st1" d="M153.0354919,183.6502991l-1.016449,6.6189423l11.5976105-0.0648956l-1.3140411,8.731842l-11.5967407,0.059906
	l-1.0788574,6.8270264l12.2381897-0.0648956l-1.3072968,8.7370148l-22.5318604,0.1247253l6.0399017-39.6450653l22.5276337-0.1273041
	l-1.3282776,8.7378082L153.0354919,183.6502991z"/>
<path class="st1" d="M170.000412,223.8214111l-9.2452087,0.0488434l2.6760559-17.5961761l0.9945374,0.0514374
	c4.5294342,0.2384796,8.895401-7.3497162,10.0079803-14.6664581l2.5302124-16.8654022l29.6767578-0.163559l-4.7603912,31.436676
	l4.9980927-0.0261536l-2.6954803,17.5936737l-9.2561646,0.0497131l1.4311523-9.3859711l-24.9516754,0.1374054
	L170.000412,223.8214111z M195.134201,182.8360748l-9.085968,0.0514374l-1.1243439,7.1456757
	c-1.2575073,7.9910736-3.9074097,13.6760864-7.2602844,16.2173309l13.9289551-0.0750885L195.134201,182.8360748z"/>
<path class="st1" d="M241.8668518,174.437973l8.7133789-0.0514374l-6.0331726,39.6501617l-10.3046417,0.0565338
	l3.5096283-22.8260956l-19.9351196,22.9145508l-8.723465,0.0463562l6.0398102-39.6442871l10.2827911-0.0548096
	l-3.2853851,21.8669434L241.8668518,174.437973z"/>
<path class="st1" d="M265.5829468,213.9220734l-10.2928925,0.057312l4.7081757-30.914856l-8.4976196,0.0463409l1.3097229-8.737793
	l27.3134155-0.1500092l-1.3181763,8.7369385l-8.4993591,0.0472107L265.5829468,213.9220734z"/>
<path class="st1" d="M114.9800415,273.4736938c-37.7714844-10.7127075-68.8996048-32.2610016-89.5907822-59.058548
	c2.5994186-1.2449036,5.4566383-2.2866364,8.6300049-2.9095154c0,0-24.5758038-23.209549-33.4375458-48.3559418
	c0,0-0.0042291-0.0126801-0.0042291-0.028656v0.015976l-0.0042291-0.0311584c0,0,1.9461547,35.7688904,10.234725,62.9136505
	c0,0,2.2698097-3.0434723,6.4056797-6.3988647c18.4322433,35.1518707,50.678051,62.9718323,91.8739777,74.6495361
	c61.5971069,17.4688721,125.0923767-6.2076111,161.1983948-54.6697998
	C234.8206024,275.5141907,174.8619537,290.4511108,114.9800415,273.4736938z"/>
<path class="st0" d="M289.1860657,73.9744797c0,0-2.260498,3.0359573-6.3988647,6.398941
	C264.3422546,45.2249146,232.1100159,17.404108,190.8996735,5.724762
	C129.3345947-11.7357397,65.8207626,11.9466057,29.7139702,60.4004173
	c35.479763-35.9130249,95.4308014-50.8516998,155.3026123-33.8758163
	c37.7647552,10.717617,68.8928833,32.2541809,89.5730133,59.049221c-2.5774231,1.2448196-5.4498291,2.2916489-8.6290588,2.9035645
	c0,0,24.6230164,23.2399368,33.4661865,48.4082336C299.4267273,136.8856201,297.4881897,101.1083603,289.1860657,73.9744797z"/>
</svg>
