<svg width="30" height="30" viewBox="0 0 30 30" fill="none" xmlns="http://www.w3.org/2000/svg">
<g clip-path="url(#clip0)">
<path d="M21.7218 0.000488281H8.27966C3.7148 0.000488281 0.000976562 3.71449 0.000976562 8.27935V21.7214C0.000976562 26.2865 3.7148 30.0003 8.27966 30.0003H21.7218C26.287 30.0003 30.0008 26.2863 30.0008 21.7214V8.27935C30.001 3.71449 26.287 0.000488281 21.7218 0.000488281ZM21.7219 27.3386H8.27966C5.18248 27.3388 2.66271 24.8188 2.66271 21.7214V8.27935C2.66271 5.18216 5.18248 2.66222 8.27966 2.66222H21.7218C24.8191 2.66222 27.3391 5.18216 27.3391 8.27935V21.7214H27.3392C27.3392 24.8188 24.8193 27.3386 21.7219 27.3386Z" fill="white"/>
<path d="M19.2908 15.1117C19.0259 15.1799 18.7973 15.3136 18.5835 15.4775C16.4251 16.9294 13.471 16.8886 11.3207 15.4111C11.2153 15.338 11.1052 15.27 10.9897 15.2154C10.3932 14.9342 9.81933 15.0652 9.47746 15.5551C9.07784 16.1276 9.12872 16.6831 9.63375 17.1681C9.76439 17.2935 9.91221 17.4017 10.0554 17.514C11.2092 18.4164 12.5569 18.7846 14.0516 18.9404C13.946 19.0533 13.8783 19.1309 13.8058 19.204C12.7097 20.3029 11.6141 21.4028 10.5154 22.4999C10.2882 22.7266 10.1254 22.9794 10.1093 23.3104C10.0859 23.7997 10.3894 24.2865 10.8663 24.5177C11.315 24.7356 11.7754 24.667 12.1623 24.2855C13.0239 23.436 13.8805 22.5816 14.7234 21.7139C14.9342 21.4971 15.0491 21.4498 15.288 21.6996C16.1088 22.5586 16.9624 23.3861 17.8002 24.2292C18.0189 24.4495 18.265 24.6066 18.5806 24.6284C19.0788 24.6625 19.5869 24.3437 19.8138 23.859C20.0214 23.4156 19.9427 22.9429 19.5657 22.5616C18.4591 21.4428 17.344 20.3319 16.2338 19.2165C16.1567 19.1389 16.0985 19.0729 15.9751 18.9386C16.7928 18.8409 17.6189 18.6937 18.3731 18.4013C19.1707 18.0919 19.8885 17.6487 20.4855 17.0361C20.8746 16.6364 20.8786 16.134 20.5628 15.6193C20.2863 15.1686 19.806 14.9794 19.2908 15.1117Z" fill="white"/>
<path d="M14.9615 15.1189C17.6551 15.1282 19.8567 12.968 19.8705 10.3027C19.884 7.57445 17.7183 5.36716 15.0201 5.35988C12.3274 5.35242 10.1395 7.52841 10.1241 10.2286C10.1086 12.8993 12.2951 15.1099 14.9615 15.1189ZM15.0007 7.8521C16.3242 7.85331 17.3803 8.90901 17.3849 10.2351C17.3893 11.5609 16.3361 12.6235 15.013 12.6281C13.6859 12.633 12.6208 11.5848 12.6109 10.2638C12.6006 8.92557 13.6662 7.85069 15.0007 7.8521Z" fill="white"/>
</g>
<defs>
<clipPath id="clip0">
<rect width="30" height="30" fill="white"/>
</clipPath>
</defs>
</svg>
