<svg width="30" height="30" viewBox="0 0 30 30" fill="none" xmlns="http://www.w3.org/2000/svg">
<g clip-path="url(#clip0)">
<path d="M21.7208 0.000488281H8.27869C3.71383 0.000488281 0 3.71449 0 8.27935V21.7214C0 26.2865 3.71383 30.0003 8.27869 30.0003H21.7208C26.286 30.0003 29.9998 26.2863 29.9998 21.7214V8.27935C30 3.71449 26.286 0.000488281 21.7208 0.000488281ZM21.721 27.3386H8.27869C5.1815 27.3388 2.66173 24.8188 2.66173 21.7214V8.27935C2.66173 5.18216 5.1815 2.66222 8.27869 2.66222H21.7208C24.8181 2.66222 27.3381 5.18216 27.3381 8.27935V21.7214H27.3383C27.3383 24.8188 24.8183 27.3386 21.721 27.3386Z" fill="white"/>
<path d="M21.5808 14.2046C21.8229 13.8918 22.015 13.6407 22.157 13.4513C23.179 12.0925 23.622 11.2244 23.4862 10.846L23.433 10.7574C23.3976 10.7041 23.3058 10.6552 23.1582 10.611C23.0105 10.5668 22.8215 10.5597 22.5912 10.5889L20.0389 10.6069C19.9798 10.601 19.9207 10.6024 19.8616 10.611C19.8026 10.62 19.7642 10.629 19.7464 10.6376C19.7286 10.6466 19.7139 10.6538 19.7022 10.6597L19.6668 10.6863C19.6372 10.7039 19.6048 10.735 19.5693 10.7795C19.5339 10.8239 19.5041 10.8754 19.4807 10.9347C19.203 11.6495 18.887 12.3142 18.5325 12.9286C18.3138 13.295 18.1129 13.6128 17.9299 13.8812C17.7468 14.1503 17.5932 14.3481 17.4691 14.4749C17.345 14.6019 17.2327 14.704 17.1324 14.7806C17.0318 14.8577 16.9551 14.8899 16.9021 14.8782C16.8488 14.8665 16.7985 14.8547 16.7514 14.8426C16.6686 14.7896 16.602 14.7173 16.552 14.6256C16.5017 14.5342 16.4678 14.4189 16.45 14.28C16.4324 14.1413 16.4218 14.0215 16.4191 13.921C16.416 13.8206 16.4175 13.6789 16.4236 13.4955C16.4295 13.3124 16.4324 13.1885 16.4324 13.1234C16.4324 12.8991 16.4369 12.6553 16.4457 12.3923C16.4545 12.1295 16.462 11.9211 16.4678 11.7675C16.4737 11.6141 16.4766 11.4515 16.4766 11.28C16.4766 11.109 16.4663 10.9744 16.4455 10.8768C16.4247 10.7795 16.3936 10.685 16.3525 10.5932C16.3111 10.5018 16.2506 10.4308 16.1707 10.3807C16.0909 10.3304 15.9921 10.2907 15.8739 10.2609C15.5606 10.1899 15.1618 10.1519 14.6775 10.1457C13.5786 10.1344 12.8726 10.2052 12.5595 10.3586C12.4354 10.4238 12.3231 10.5122 12.2227 10.6245C12.1163 10.7546 12.1016 10.8257 12.1785 10.837C12.5331 10.8902 12.784 11.0174 12.9317 11.2182L12.9849 11.3244C13.0262 11.4015 13.0675 11.5374 13.109 11.7322C13.1503 11.9272 13.1769 12.1428 13.1888 12.3792C13.2184 12.8104 13.2184 13.1795 13.1888 13.4869C13.1593 13.7943 13.1313 14.0335 13.1047 14.2045C13.0781 14.3759 13.0382 14.5146 12.9851 14.6209C12.9319 14.7275 12.8965 14.7925 12.8787 14.8162C12.8609 14.8396 12.8462 14.8545 12.8345 14.8604C12.7576 14.8897 12.6779 14.9046 12.5952 14.9046C12.5124 14.9046 12.412 14.8631 12.2938 14.7803C12.1756 14.698 12.0529 14.5841 11.9261 14.4393C11.7989 14.2947 11.6559 14.0922 11.4962 13.8321C11.3367 13.5724 11.1712 13.265 10.9999 12.9106L10.8583 12.6535C10.7696 12.4884 10.6485 12.2475 10.4949 11.9314C10.3413 11.6154 10.2053 11.3098 10.0873 11.0141C10.0399 10.8902 9.96907 10.7957 9.87458 10.7306L9.83036 10.704C9.80082 10.6805 9.75346 10.6552 9.6885 10.6288C9.62333 10.6022 9.55564 10.583 9.4846 10.5711L7.05641 10.5887C6.80829 10.5887 6.64002 10.6451 6.55138 10.7574L6.51596 10.8104C6.49805 10.8401 6.48926 10.8875 6.48926 10.9523C6.48926 11.0174 6.50707 11.0971 6.5425 11.1914C6.89705 12.0246 7.28257 12.8281 7.69896 13.6018C8.11558 14.3759 8.47739 14.9993 8.7846 15.4719C9.0918 15.9449 9.40489 16.3906 9.72406 16.8101C10.0432 17.2297 10.2543 17.4983 10.3576 17.6163C10.4609 17.7347 10.5422 17.8234 10.6013 17.8822L10.8228 18.0951C10.9645 18.2368 11.1729 18.4066 11.4476 18.6047C11.7224 18.8027 12.0265 18.9976 12.3605 19.1894C12.6941 19.3816 13.0827 19.5379 13.5257 19.6592C13.9688 19.7805 14.4 19.8292 14.8196 19.8054H15.8387C16.0455 19.7878 16.202 19.723 16.3083 19.6105L16.3437 19.5662C16.3672 19.531 16.3895 19.4762 16.4102 19.4024C16.4308 19.3287 16.4414 19.2473 16.4414 19.1588C16.4353 18.9049 16.4547 18.6755 16.4989 18.472C16.5431 18.2681 16.5934 18.1147 16.6496 18.011C16.7058 17.9079 16.7691 17.8206 16.8402 17.7496C16.911 17.6785 16.9611 17.6361 16.9908 17.6212C17.0204 17.6067 17.0441 17.5963 17.0617 17.5901C17.2034 17.5429 17.3703 17.5887 17.5624 17.7274C17.7544 17.8666 17.9346 18.0376 18.1031 18.2415C18.2714 18.4454 18.4737 18.6741 18.7101 18.9283C18.9463 19.1823 19.1531 19.3713 19.3304 19.4954L19.5077 19.602C19.6258 19.6726 19.7793 19.7376 19.9685 19.7969C20.1575 19.8558 20.3231 19.8707 20.4647 19.8412L22.7334 19.8055C22.9579 19.8055 23.1322 19.7688 23.2563 19.6948C23.3804 19.6214 23.4542 19.5396 23.4779 19.4512C23.5013 19.3625 23.5029 19.2626 23.4824 19.15C23.4616 19.0379 23.4409 18.9596 23.4204 18.9154C23.3996 18.8712 23.3804 18.834 23.3626 18.8046C23.0671 18.273 22.503 17.62 21.67 16.8461L21.6521 16.8285L21.6434 16.8195L21.6346 16.8108H21.6257C21.2474 16.4504 21.0083 16.2081 20.9079 16.0839C20.7248 15.8479 20.6833 15.6086 20.7839 15.3664C20.8543 15.1827 21.12 14.7956 21.5808 14.2046Z" fill="white"/>
</g>
<defs>
<clipPath id="clip0">
<rect width="30" height="30" fill="white"/>
</clipPath>
</defs>
</svg>
