<svg width="6" height="29" viewBox="0 0 6 29" fill="none" xmlns="http://www.w3.org/2000/svg">
<path d="M3.26881 28.8406L5.9582 25.043C5.98591 24.9933 6 24.9381 6 24.8836C6 24.8284 5.98591 24.7734 5.9582 24.7242C5.90277 24.6257 5.80013 24.5647 5.68927 24.5647L4.74965 24.5647C4.75007 24.5531 4.75051 24.5414 4.75051 24.5296L4.75051 22.6941C4.75051 22.1867 4.34964 21.7754 3.85515 21.7754L2.06626 21.7754C1.57177 21.7754 1.1709 22.1867 1.1709 22.6941L1.1709 24.5296C1.1709 24.5414 1.17133 24.5531 1.17176 24.5647L0.310499 24.5647C0.199979 24.5647 0.0970029 24.6257 0.0415729 24.7242C-0.0138575 24.8225 -0.0138575 24.944 0.0415729 25.043L2.73141 28.8406C2.78639 28.9395 2.88903 29 2.99988 29C3.11075 29 3.21327 28.9391 3.26881 28.8406Z" fill="#C2C2C2"/>
<path d="M4.7505 2.75424L4.7505 0.918711C4.7505 0.411322 4.34964 -7.21397e-08 3.85514 -9.37548e-08L2.06626 -1.71949e-07C1.57176 -1.93565e-07 1.17089 0.411322 1.17089 0.91871L1.17089 2.75424C1.17089 3.26163 1.57176 3.67295 2.06626 3.67295L3.85514 3.67295C4.34963 3.67295 4.7505 3.26163 4.7505 2.75424Z" fill="#C2C2C2"/>
<path d="M4.75052 10.0127L4.75052 8.17717C4.75052 7.66978 4.34965 7.25846 3.85515 7.25846L2.06627 7.25846C1.57177 7.25846 1.1709 7.66978 1.1709 8.17717L1.1709 10.0127C1.1709 10.5201 1.57177 10.9314 2.06627 10.9314L3.85515 10.9314C4.34965 10.9314 4.75052 10.5201 4.75052 10.0127Z" fill="#C2C2C2"/>
<path d="M4.75052 17.2712L4.75052 15.4356C4.75052 14.9282 4.34965 14.5169 3.85515 14.5169L2.06627 14.5169C1.57177 14.5169 1.1709 14.9282 1.1709 15.4356L1.1709 17.2712C1.1709 17.7785 1.57177 18.1899 2.06627 18.1899L3.85515 18.1899C4.34965 18.1899 4.75052 17.7785 4.75052 17.2712Z" fill="#C2C2C2"/>
</svg>
