<svg width="153" height="46" viewBox="0 0 153 46" fill="none" xmlns="http://www.w3.org/2000/svg">
<path d="M147.333 46H5.66667C2.49333 46 0 43.47 0 40.25V5.75C0 2.53 2.49333 0 5.66667 0H147.333C150.507 0 153 2.53 153 5.75V40.25C153 43.47 150.507 46 147.333 46Z" fill="black"/>
<path d="M147.333 0.92C149.94 0.92 152.093 3.105 152.093 5.75V40.25C152.093 42.895 149.94 45.08 147.333 45.08H5.66667C3.06 45.08 0.906667 42.895 0.906667 40.25V5.75C0.906667 3.105 3.06 0.92 5.66667 0.92H147.333ZM147.333 0H5.66667C2.49333 0 0 2.645 0 5.75V40.25C0 43.47 2.49333 46 5.66667 46H147.333C150.507 46 153 43.47 153 40.25V5.75C153 2.645 150.507 0 147.333 0Z" fill="#A6A6A6"/>
<path d="M77.1801 25.07C74.4601 25.07 72.3067 27.14 72.3067 30.015C72.3067 32.775 74.4601 34.96 77.1801 34.96C79.9001 34.96 82.0534 32.89 82.0534 30.015C82.0534 27.025 79.9001 25.07 77.1801 25.07ZM77.1801 32.89C75.7067 32.89 74.4601 31.625 74.4601 29.9C74.4601 28.175 75.7067 26.91 77.1801 26.91C78.6534 26.91 79.9001 28.06 79.9001 29.9C79.9001 31.625 78.6534 32.89 77.1801 32.89ZM66.6401 25.07C63.9201 25.07 61.7667 27.14 61.7667 30.015C61.7667 32.775 63.9201 34.96 66.6401 34.96C69.3601 34.96 71.5134 32.89 71.5134 30.015C71.5134 27.025 69.3601 25.07 66.6401 25.07ZM66.6401 32.89C65.1667 32.89 63.9201 31.625 63.9201 29.9C63.9201 28.175 65.1667 26.91 66.6401 26.91C68.1134 26.91 69.3601 28.06 69.3601 29.9C69.3601 31.625 68.1134 32.89 66.6401 32.89ZM54.0601 26.565V28.635H58.9334C58.8201 29.785 58.3667 30.705 57.8001 31.28C57.1201 31.97 55.9867 32.775 54.0601 32.775C51.0001 32.775 48.7334 30.36 48.7334 27.255C48.7334 24.15 51.1134 21.735 54.0601 21.735C55.6467 21.735 56.8934 22.425 57.8001 23.23L59.2734 21.735C58.0267 20.585 56.4401 19.665 54.1734 19.665C50.0934 19.665 46.5801 23.115 46.5801 27.255C46.5801 31.395 50.0934 34.845 54.1734 34.845C56.4401 34.845 58.0267 34.155 59.3867 32.66C60.7467 31.28 61.2001 29.325 61.2001 27.83C61.2001 27.37 61.2001 26.91 61.0867 26.565H54.0601ZM105.513 28.175C105.06 27.025 103.927 25.07 101.433 25.07C98.9401 25.07 96.9001 27.025 96.9001 30.015C96.9001 32.775 98.9401 34.96 101.66 34.96C103.813 34.96 105.173 33.58 105.627 32.775L104.04 31.625C103.473 32.43 102.793 33.005 101.66 33.005C100.527 33.005 99.8467 32.545 99.2801 31.51L105.74 28.75L105.513 28.175ZM98.9401 29.785C98.9401 27.945 100.413 26.91 101.433 26.91C102.227 26.91 103.02 27.37 103.247 27.945L98.9401 29.785ZM93.6134 34.5H95.7667V20.125H93.6134V34.5ZM90.2134 26.105C89.6467 25.53 88.7401 24.955 87.6067 24.955C85.2267 24.955 82.9601 27.14 82.9601 29.9C82.9601 32.66 85.1134 34.73 87.6067 34.73C88.7401 34.73 89.6467 34.155 90.1001 33.58H90.2134V34.27C90.2134 36.11 89.1934 37.145 87.6067 37.145C86.3601 37.145 85.4534 36.225 85.2267 35.42L83.4134 36.225C83.9801 37.49 85.3401 39.1 87.7201 39.1C90.2134 39.1 92.2534 37.605 92.2534 34.04V25.3H90.2134V26.105ZM87.7201 32.89C86.2467 32.89 85.0001 31.625 85.0001 29.9C85.0001 28.175 86.2467 26.91 87.7201 26.91C89.1934 26.91 90.3267 28.175 90.3267 29.9C90.3267 31.625 89.1934 32.89 87.7201 32.89ZM115.373 20.125H110.273V34.5H112.427V29.095H115.373C117.753 29.095 120.02 27.37 120.02 24.61C120.02 21.85 117.753 20.125 115.373 20.125ZM115.487 27.025H112.427V22.08H115.487C117.073 22.08 117.98 23.46 117.98 24.495C117.867 25.76 116.96 27.025 115.487 27.025ZM128.52 24.955C126.933 24.955 125.347 25.645 124.78 27.14L126.707 27.945C127.16 27.14 127.84 26.91 128.633 26.91C129.767 26.91 130.787 27.6 130.9 28.75V28.865C130.56 28.635 129.653 28.29 128.747 28.29C126.707 28.29 124.667 29.44 124.667 31.51C124.667 33.465 126.367 34.73 128.18 34.73C129.653 34.73 130.333 34.04 130.9 33.35H131.013V34.5H133.053V28.98C132.827 26.45 130.9 24.955 128.52 24.955ZM128.293 32.89C127.613 32.89 126.593 32.545 126.593 31.625C126.593 30.475 127.84 30.13 128.86 30.13C129.767 30.13 130.22 30.36 130.787 30.59C130.56 31.97 129.427 32.89 128.293 32.89ZM140.193 25.3L137.813 31.51H137.7L135.207 25.3H132.94L136.68 34.04L134.527 38.87H136.68L142.46 25.3H140.193ZM121.153 34.5H123.307V20.125H121.153V34.5Z" fill="white"/>
<path d="M11.7863 8.625C11.4463 8.97 11.333 9.545 11.333 10.235V35.65C11.333 36.34 11.5597 36.915 11.8997 37.26L12.013 37.375L26.0663 23.115V23V22.885L11.7863 8.625Z" fill="url(#paint0_linear)"/>
<path d="M30.5998 27.9449L25.9531 23.2299V22.9999V22.8849L30.5998 18.1699L30.7131 18.2849L36.2665 21.5049C37.8531 22.4249 37.8531 23.9199 36.2665 24.8399L30.5998 27.9449Z" fill="url(#paint1_linear)"/>
<path d="M30.7128 27.83L25.9528 23L11.7861 37.375C12.3528 37.95 13.1461 37.95 14.1661 37.49L30.7128 27.83Z" fill="url(#paint2_linear)"/>
<path d="M30.7128 18.1701L14.1661 8.6251C13.1461 8.0501 12.3528 8.1651 11.7861 8.7401L25.9528 23.0001L30.7128 18.1701Z" fill="url(#paint3_linear)"/>
<path opacity="0.2" d="M30.5995 27.7148L14.1661 37.1448C13.2595 37.7198 12.4661 37.6048 11.8995 37.1448L11.7861 37.2598L11.8995 37.3748C12.4661 37.8348 13.2595 37.9498 14.1661 37.3748L30.5995 27.7148Z" fill="black"/>
<path opacity="0.12" d="M11.7863 37.1447C11.4463 36.7997 11.333 36.2247 11.333 35.5347V35.6497C11.333 36.3397 11.5597 36.9147 11.8997 37.2597V37.1447H11.7863Z" fill="black"/>
<path opacity="0.12" d="M36.2663 24.495L30.5996 27.715L30.7129 27.83L36.2663 24.61C37.0596 24.15 37.3996 23.575 37.3996 23C37.3996 23.575 36.9463 24.035 36.2663 24.495Z" fill="black"/>
<path opacity="0.25" d="M14.1663 8.73997L36.2663 21.505C36.9463 21.965 37.3997 22.425 37.3997 23C37.3997 22.425 37.0597 21.85 36.2663 21.39L14.1663 8.62497C12.5797 7.70497 11.333 8.39497 11.333 10.235V10.35C11.333 8.62497 12.5797 7.81997 14.1663 8.73997Z" fill="white"/>
<path d="M47.7133 16.4453H46.9199V14.1453H47.5999C48.1666 13.6853 48.5066 12.7653 48.5066 11.5003V8.05029H53.0399V14.1453H53.8333V16.4453H53.0399V14.9503H47.8266V16.4453H47.7133ZM49.2999 11.5003C49.2999 12.5353 49.0733 13.4553 48.6199 14.1453H52.0199V8.85529H49.1866V11.5003H49.2999Z" fill="white" stroke="white" stroke-width="0.2" stroke-miterlimit="10"/>
<path d="M60.5203 14.0301C59.8403 14.7201 59.047 15.0651 58.027 15.0651C57.007 15.0651 56.2137 14.7201 55.5337 14.0301C54.8537 13.3401 54.5137 12.5351 54.5137 11.5001C54.5137 10.4651 54.8537 9.66006 55.5337 8.97006C56.2137 8.28006 57.007 7.93506 58.027 7.93506C59.047 7.93506 59.8403 8.28006 60.5203 8.97006C61.2003 9.66006 61.5403 10.4651 61.5403 11.5001C61.5403 12.5351 61.2003 13.3401 60.5203 14.0301ZM56.2137 13.4551C56.667 13.9151 57.347 14.2601 58.027 14.2601C58.707 14.2601 59.387 14.0301 59.8403 13.4551C60.2937 12.9951 60.6337 12.3051 60.6337 11.5001C60.6337 10.6951 60.407 10.0051 59.8403 9.54506C59.387 9.08506 58.707 8.74006 58.027 8.74006C57.347 8.74006 56.667 8.97006 56.2137 9.54506C55.7603 10.0051 55.4203 10.6951 55.4203 11.5001C55.4203 12.3051 55.647 12.9951 56.2137 13.4551Z" fill="white" stroke="white" stroke-width="0.2" stroke-miterlimit="10"/>
<path d="M65.9596 15.0651C64.9396 15.0651 64.1463 14.7201 63.4663 14.0301C62.7863 13.3401 62.4463 12.5351 62.4463 11.5001C62.4463 10.4651 62.7863 9.66006 63.4663 8.97006C64.1463 8.28006 64.9396 7.93506 65.9596 7.93506C66.9796 7.93506 67.773 8.28006 68.453 9.08506L67.8863 9.66006C67.433 9.08506 66.753 8.74006 65.9596 8.74006C65.1663 8.74006 64.5996 8.97006 64.033 9.54506C63.4663 10.0051 63.2396 10.6951 63.2396 11.5001C63.2396 12.3051 63.4663 12.9951 64.033 13.4551C64.4863 13.9151 65.1663 14.2601 65.9596 14.2601C66.753 14.2601 67.433 13.9151 67.9996 13.2251L68.5663 13.8001C68.2263 14.1451 67.8863 14.4901 67.433 14.7201C66.9796 14.9501 66.5263 15.0651 65.9596 15.0651Z" fill="white" stroke="white" stroke-width="0.2" stroke-miterlimit="10"/>
<path d="M72.1937 14.9503H71.287V8.85529H69.3604V8.05029H74.007V8.85529H72.0804V14.9503H72.1937Z" fill="white" stroke="white" stroke-width="0.2" stroke-miterlimit="10"/>
<path d="M80.0132 8.05029L77.4066 13.9153C77.0666 14.7203 76.4999 15.1803 75.8199 15.1803C75.5932 15.1803 75.3666 15.1803 75.1399 15.0653L75.3666 14.2603C75.4799 14.3753 75.7066 14.3753 75.8199 14.3753C76.0466 14.3753 76.1599 14.3753 76.2732 14.2603C76.3866 14.1453 76.4999 14.0303 76.6132 13.8003L76.8399 13.2253L74.5732 8.16529H75.5932L77.2932 12.0753L78.9932 8.05029H80.0132Z" fill="white" stroke="white" stroke-width="0.2" stroke-miterlimit="10"/>
<path d="M81.0332 14.9503V8.05029H85.9065V14.9503H84.9999V8.85529H81.8265V14.9503H81.0332Z" fill="white" stroke="white" stroke-width="0.2" stroke-miterlimit="10"/>
<path d="M87.4932 14.9503V8.05029H88.3998V11.0403H91.7998V8.05029H92.7065V14.9503H91.7998V11.8453H88.3998V14.9503H87.4932Z" fill="white" stroke="white" stroke-width="0.2" stroke-miterlimit="10"/>
<path d="M99.8465 14.0301C99.1665 14.7201 98.3732 15.0651 97.3532 15.0651C96.3332 15.0651 95.5398 14.7201 94.8598 14.0301C94.1798 13.3401 93.8398 12.5351 93.8398 11.5001C93.8398 10.4651 94.1798 9.66006 94.8598 8.97006C95.5398 8.28006 96.3332 7.93506 97.3532 7.93506C98.3732 7.93506 99.1665 8.28006 99.8465 8.97006C100.526 9.66006 100.867 10.4651 100.867 11.5001C100.753 12.5351 100.413 13.3401 99.8465 14.0301ZM95.4265 13.4551C95.8798 13.9151 96.5598 14.2601 97.2398 14.2601C97.9198 14.2601 98.5998 14.0301 99.0532 13.4551C99.5065 12.9951 99.8465 12.3051 99.8465 11.5001C99.8465 10.6951 99.6198 10.0051 99.0532 9.54506C98.5998 9.08506 97.9198 8.74006 97.2398 8.74006C96.5598 8.74006 95.8798 8.97006 95.4265 9.54506C94.9732 10.0051 94.6332 10.6951 94.6332 11.5001C94.6332 12.3051 94.9732 12.9951 95.4265 13.4551Z" fill="white" stroke="white" stroke-width="0.2" stroke-miterlimit="10"/>
<path d="M104.38 14.9503V8.05029H106.873C107.44 8.05029 107.893 8.28029 108.233 8.62529C108.573 8.97029 108.8 9.43029 108.8 9.89029C108.8 10.2353 108.687 10.4653 108.573 10.8103C108.46 11.0403 108.233 11.2703 107.893 11.3853C108.233 11.5003 108.46 11.7303 108.687 11.9603C108.913 12.1903 109.027 12.5353 109.027 12.9953C109.027 13.5703 108.8 14.0303 108.46 14.3753C108.007 14.7203 107.553 14.9503 106.987 14.9503H104.38ZM105.287 11.0403H106.873C107.213 11.0403 107.44 10.9253 107.667 10.6953C107.893 10.4653 108.007 10.2353 108.007 10.0053C108.007 9.77529 107.78 9.43029 107.667 9.20029C107.44 8.97029 107.213 8.85529 106.873 8.85529H105.287V11.0403ZM105.287 14.1453H107.1C107.44 14.1453 107.667 14.0303 107.893 13.8003C108.12 13.5703 108.233 13.3403 108.233 12.9953C108.233 12.7653 108.12 12.4203 107.893 12.1903C107.667 11.9603 107.44 11.8453 107.1 11.8453H105.4V14.1453H105.287Z" fill="white" stroke="white" stroke-width="0.2" stroke-miterlimit="10"/>
<defs>
<linearGradient id="paint0_linear" x1="24.7059" y1="10.0163" x2="5.40818" y2="29.0343" gradientUnits="userSpaceOnUse">
<stop stop-color="#00A0FF"/>
<stop offset="0.00657445" stop-color="#00A1FF"/>
<stop offset="0.2601" stop-color="#00BEFF"/>
<stop offset="0.5122" stop-color="#00D2FF"/>
<stop offset="0.7604" stop-color="#00DFFF"/>
<stop offset="1" stop-color="#00E3FF"/>
</linearGradient>
<linearGradient id="paint1_linear" x1="38.3453" y1="23.0016" x2="10.9222" y2="23.0016" gradientUnits="userSpaceOnUse">
<stop stop-color="#FFE000"/>
<stop offset="0.4087" stop-color="#FFBD00"/>
<stop offset="0.7754" stop-color="#FFA500"/>
<stop offset="1" stop-color="#FF9C00"/>
</linearGradient>
<linearGradient id="paint2_linear" x1="28.1366" y1="25.6406" x2="1.96737" y2="51.4306" gradientUnits="userSpaceOnUse">
<stop stop-color="#FF3A44"/>
<stop offset="1" stop-color="#C31162"/>
</linearGradient>
<linearGradient id="paint3_linear" x1="8.26962" y1="0.202848" x2="19.9554" y2="11.7191" gradientUnits="userSpaceOnUse">
<stop stop-color="#32A071"/>
<stop offset="0.0685" stop-color="#2DA771"/>
<stop offset="0.4762" stop-color="#15CF74"/>
<stop offset="0.8009" stop-color="#06E775"/>
<stop offset="1" stop-color="#00F076"/>
</linearGradient>
</defs>
</svg>
