<svg width="30" height="30" viewBox="0 0 30 30" fill="none" xmlns="http://www.w3.org/2000/svg">
<path d="M21.7208 0H8.27869C3.71383 0 0 3.714 0 8.27886V21.721C0 26.286 3.71383 29.9998 8.27869 29.9998H21.7208C26.286 29.9998 29.9998 26.2858 29.9998 21.721V8.27886C30 3.714 26.286 0 21.7208 0ZM21.721 27.3381H19.0963V17.369H22.003C22.003 17.369 22.2752 15.6814 22.4072 13.8363C22.0289 13.8363 19.1127 13.8363 19.1127 13.8363C19.1127 13.8363 19.1127 11.7888 19.1127 11.4299C19.1127 11.0702 19.585 10.5864 20.0517 10.5864C20.5177 10.5864 21.501 10.5864 22.4118 10.5864C22.4118 10.1072 22.4118 8.45158 22.4118 6.92247C21.1959 6.92247 19.8127 6.92247 19.2029 6.92247C14.6576 6.92222 14.7647 10.4452 14.7647 10.9711C14.7647 11.4979 14.7647 13.8493 14.7647 13.8493H12.656V17.3687H14.7647V27.3381H8.27869C5.1815 27.3383 2.66173 24.8183 2.66173 21.721V8.27886C2.66173 5.18168 5.1815 2.66173 8.27869 2.66173H21.7208C24.8181 2.66173 27.3381 5.18168 27.3381 8.27886V21.721H27.3383C27.3383 24.8183 24.8183 27.3381 21.721 27.3381Z" fill="white"/>
</svg>
