<svg width="30" height="30" viewBox="0 0 30 30" fill="none" xmlns="http://www.w3.org/2000/svg">
<path d="M21.7208 0H8.27869C3.71382 0 0 3.714 0 8.27887V21.721C0 26.286 3.71382 29.9998 8.27869 29.9998H21.7208C26.286 29.9998 29.9998 26.2858 29.9998 21.721V8.27887C30 3.714 26.286 0 21.7208 0ZM27.3383 21.721C27.3383 24.8183 24.8183 27.3381 21.721 27.3381H8.27869C5.1815 27.3383 2.66173 24.8183 2.66173 21.721V8.27887C2.66173 5.18168 5.1815 2.66173 8.27869 2.66173H21.7208C24.8181 2.66173 27.3381 5.18168 27.3381 8.27887V21.721H27.3383Z" fill="white"/>
<path d="M14.9997 7.27002C10.7372 7.27002 7.26953 10.7377 7.26953 15.0002C7.26953 19.2625 10.7372 22.7301 14.9997 22.7301C19.2622 22.7301 22.7299 19.2625 22.7299 15.0002C22.7299 10.7377 19.2622 7.27002 14.9997 7.27002ZM14.9997 20.0681C12.2051 20.0681 9.93126 17.7947 9.93126 15C9.93126 12.2052 12.2049 9.93157 14.9997 9.93157C17.7945 9.93157 20.0682 12.2052 20.0682 15C20.0682 17.7947 17.7944 20.0681 14.9997 20.0681Z" fill="white"/>
<path d="M23.0545 5.01318C22.5417 5.01318 22.0379 5.2208 21.6757 5.58457C21.3118 5.94656 21.1025 6.45052 21.1025 6.96512C21.1025 7.47812 21.3119 7.9819 21.6757 8.34567C22.0377 8.70766 22.5417 8.91705 23.0545 8.91705C23.5691 8.91705 24.0713 8.70766 24.435 8.34567C24.7988 7.9819 25.0064 7.47794 25.0064 6.96512C25.0064 6.45052 24.7988 5.94656 24.435 5.58457C24.073 5.2208 23.5691 5.01318 23.0545 5.01318Z" fill="white"/>
</svg>
