<svg width="110" height="25" viewBox="0 0 110 25" fill="none" xmlns="http://www.w3.org/2000/svg">
<rect x="0.134766" y="0.459473" width="24.2973" height="24.2973" rx="9" fill="#E30613"/>
<path d="M12.2833 4.50903C11.0202 4.50903 9.50451 5.66761 8.27586 7.61314C6.96684 9.64611 6.20898 12.1381 6.20898 14.3132C6.20898 17.5048 8.08066 20.7072 12.2833 20.7072C16.486 20.7072 18.3576 17.5048 18.3576 14.3132C18.3576 12.1381 17.5998 9.63518 16.2908 7.62407C15.0621 5.66761 13.5464 4.50903 12.2833 4.50903Z" fill="white"/>
<rect x="28.9824" y="0.959473" width="23.2973" height="23.2973" rx="8.5" fill="white" stroke="#C2C2C2"/>
<path d="M41.6247 4.53882V12.8511C41.6247 13.2398 41.3247 13.5089 40.9647 13.5089H39.9748C39.9148 13.5089 39.8848 13.5687 39.8848 13.5986V20.5654C40.1248 20.5654 40.3647 20.6252 40.6347 20.6252C45.1045 20.6252 48.7344 17.0072 48.7344 12.5521C48.7344 8.45575 45.6445 5.01722 41.6247 4.53882ZM41.4447 16.9773C40.8747 16.9773 40.4547 16.4989 40.4547 15.9906C40.4547 15.4225 40.9347 15.0039 41.4447 15.0039C42.0147 15.0039 42.4346 15.4823 42.4346 15.9906C42.4946 16.5288 42.0147 16.9773 41.4447 16.9773ZM43.8146 16.9773C43.2446 16.9773 42.8246 16.4989 42.8246 15.9906C42.8246 15.4225 43.3046 15.0039 43.8146 15.0039C44.3846 15.0039 44.8045 15.4823 44.8045 15.9906C44.8045 16.4989 44.4146 16.9773 43.8146 16.9773ZM46.2145 16.9773C45.6445 16.9773 45.2245 16.4989 45.2245 15.9906C45.2245 15.4225 45.7045 15.0039 46.2145 15.0039C46.7844 15.0039 47.2044 15.4823 47.2044 15.9906C47.2044 16.4989 46.7844 16.9773 46.2145 16.9773Z" fill="#00B956"/>
<path d="M40.6328 4.50903C36.163 4.50903 32.5332 8.12696 32.5332 12.5821C32.5332 16.499 35.2631 19.6984 38.9229 20.4459V13.1801C38.9229 12.8512 39.2229 12.5821 39.5229 12.5223H39.8529H40.5128C40.5728 12.5223 40.6028 12.4625 40.6028 12.4326L40.6328 4.50903ZM39.0729 11.1469C38.5029 11.1469 38.0829 10.6685 38.0829 10.1602C38.0829 9.59208 38.5629 9.17347 39.0729 9.17347C39.6429 9.17347 40.0629 9.65188 40.0629 10.1602C40.0629 10.6685 39.6129 11.1469 39.0729 11.1469Z" fill="#00B956"/>
<rect x="57.3281" y="0.959473" width="23.2973" height="23.2973" rx="8.5" fill="white" stroke="#C2C2C2"/>
<path d="M60.8789 12.6076C60.8789 17.0805 64.5045 20.7058 68.9786 20.7058C73.4507 20.7058 77.0771 17.0805 77.0771 12.6076C77.0771 8.13434 73.4507 4.50905 68.9786 4.50905C64.5045 4.50905 60.8789 8.13434 60.8789 12.6076Z" fill="url(#paint0_linear)"/>
<path fill-rule="evenodd" clip-rule="evenodd" d="M61.0661 14.3469C60.9435 13.7866 60.8789 13.2046 60.8789 12.6075C60.8789 12.0148 60.9426 11.437 61.0634 10.8805H76.8926C77.0032 11.3898 77.0659 11.9171 77.0757 12.4573V12.7578C77.0658 13.3023 77.0022 13.8337 76.8898 14.3469H61.0661ZM68.7949 20.7037C66.3775 20.65 64.2217 19.5377 62.7726 17.8123H75.1832C73.7341 19.5377 71.5786 20.65 69.1622 20.7037H68.7949ZM69.1154 4.51013C71.5564 4.55057 73.735 5.67116 75.1935 7.41485H62.7623C64.2208 5.67116 66.3996 4.55057 68.8417 4.51013H69.1154Z" fill="black"/>
<rect x="85.6758" y="0.959473" width="23.2973" height="23.2973" rx="8.5" fill="white" stroke="#C2C2C2"/>
<path fill-rule="evenodd" clip-rule="evenodd" d="M104.819 8.58923C105.583 8.48293 106.283 8.65537 106.754 9.07369C107.19 9.45207 107.411 9.98958 107.354 10.5604C107.254 11.6158 106.704 12.4656 105.161 13.8661L102.64 13.9458C102.64 13.9458 104.39 12.4589 105.054 11.7355C105.483 11.2643 105.669 10.7597 105.49 10.4212C105.376 10.2086 105.126 10.1025 104.819 10.1158V8.58901L104.819 8.58923ZM99.655 9.42544V10.7996L101.84 10.5806V9.14005L99.655 9.42566V9.42544ZM97.8696 15.6451V9.65801L99.3693 9.45851V15.6453H97.8696V15.6451ZM91.9345 10.4343V11.5961L93.5914 11.4234V10.2219L91.9345 10.4345V10.4343ZM90.5704 15.6451V10.6136L91.7202 10.4612V15.6451H90.5704ZM87.1992 11.0517V12.0805L90.1704 11.7754V10.6667L87.1992 11.0517ZM88.149 12.1402V15.6451H89.2347V12.0342L88.149 12.1402ZM91.9345 13.634V12.4523L93.0199 12.3659V13.5808L91.9345 13.634ZM91.9345 14.4835V15.6451H93.5914V14.4367L91.9345 14.4833V14.4835ZM99.655 13.2423V11.8417L101.091 11.7224V13.1693L99.655 13.2423ZM99.655 14.2714V15.6451H101.84V14.2046L99.655 14.2712V14.2714ZM94.027 15.6451V10.1622L95.334 9.98958V15.6451H94.027ZM95.5768 14.3839V15.6451H97.4696V14.3309L95.5768 14.3839ZM102.326 14.1915L102.333 15.6453H107.447V14.0519L102.326 14.1915ZM102.398 11.5826C102.312 9.92322 103.04 8.90769 104.526 8.61564L104.533 10.1689C104.219 10.2883 103.912 10.5142 103.983 11.4498L102.397 11.5826H102.398Z" fill="#1F2229"/>
<defs>
<linearGradient id="paint0_linear" x1="60.8792" y1="12.6131" x2="77.076" y2="12.6131" gradientUnits="userSpaceOnUse">
<stop stop-color="#FAA61A"/>
<stop offset="1" stop-color="#FFE100"/>
</linearGradient>
</defs>
</svg>
