<svg width="147" height="74" viewBox="0 0 147 74" fill="none" xmlns="http://www.w3.org/2000/svg">
<path d="M75.276 31.6669C75.276 35.8165 78.9647 38.122 81.7311 39.5052C84.4976 40.8884 85.4196 41.8105 85.4196 43.1937C85.4196 45.038 83.1143 45.9602 80.8089 45.9602C77.1203 45.9602 74.8149 45.038 72.9706 44.1159L71.5875 50.5709C73.4318 51.493 76.6592 51.9541 79.8867 51.9541C87.7249 51.9541 92.7968 48.2655 92.7968 42.2716C92.7968 34.4333 82.1921 34.4333 82.1921 30.7448C82.1921 29.8226 83.1143 28.4394 85.4196 28.4394C86.3418 28.4394 89.5693 27.9783 92.7968 29.8226L94.18 23.8287C92.3357 23.3676 90.0303 22.4455 87.2639 22.4455C80.3478 21.9844 75.276 25.673 75.276 31.6669ZM107.551 22.4455C106.168 22.4455 104.785 23.3676 104.324 24.7508L93.2579 51.493H101.096L102.479 47.3434H112.162L113.084 51.493H120L114.006 22.4455H107.551ZM108.473 30.2837L110.779 41.3494H104.785L108.473 30.2837ZM65.5936 22.4455L59.5996 51.493H66.9768L72.9706 22.4455H65.5936ZM54.5278 22.4455L46.6896 42.2716L43.4621 25.673C43.001 23.8287 41.6179 22.9066 40.2346 22.9066H27.7856V23.8287C30.5521 24.2898 33.3185 25.2119 35.1628 26.134C36.085 26.5951 36.546 27.0562 37.0071 28.9005L43.001 51.9541H50.8392L62.8271 22.9066H54.5278" fill="#191F71"/>
</svg>
