<svg width="147" height="74" viewBox="0 0 147 74" fill="none" xmlns="http://www.w3.org/2000/svg">
<g clip-path="url(#clip0)">
<path d="M25.1597 26.2803V37.4003C25.1597 37.9203 24.7583 38.2803 24.2768 38.2803H22.9524C22.8722 38.2803 22.832 38.3603 22.832 38.4003V47.7203C23.1531 47.7203 23.4741 47.8003 23.8353 47.8003C29.8149 47.8003 34.6708 42.9603 34.6708 37.0003C34.6708 31.5203 30.5373 26.9203 25.1597 26.2803ZM24.9189 42.9203C24.1564 42.9203 23.5945 42.2803 23.5945 41.6003C23.5945 40.8403 24.2366 40.2803 24.9189 40.2803C25.6814 40.2803 26.2432 40.9203 26.2432 41.6003C26.3235 42.3203 25.6814 42.9203 24.9189 42.9203ZM28.0893 42.9203C27.3268 42.9203 26.7649 42.2803 26.7649 41.6003C26.7649 40.8403 27.407 40.2803 28.0893 40.2803C28.8518 40.2803 29.4136 40.9203 29.4136 41.6003C29.4136 42.2803 28.8919 42.9203 28.0893 42.9203ZM31.2998 42.9203C30.5373 42.9203 29.9755 42.2803 29.9755 41.6003C29.9755 40.8403 30.6176 40.2803 31.2998 40.2803C32.0623 40.2803 32.6241 40.9203 32.6241 41.6003C32.6241 42.2803 32.0623 42.9203 31.2998 42.9203Z" fill="#00B956"/>
<path d="M23.8355 26.2402C17.8559 26.2402 13 31.0802 13 37.0402C13 42.2802 16.652 46.5602 21.548 47.5602V37.8402C21.548 37.4002 21.9493 37.0402 22.3507 36.9602H22.7921H23.675C23.7553 36.9602 23.7954 36.8802 23.7954 36.8402L23.8355 26.2402ZM21.7487 35.1202C20.9862 35.1202 20.4243 34.4802 20.4243 33.8002C20.4243 33.0402 21.0664 32.4802 21.7487 32.4802C22.5112 32.4802 23.073 33.1202 23.073 33.8002C23.073 34.4802 22.4711 35.1202 21.7487 35.1202Z" fill="#00B956"/>
<path d="M132.312 32.1201V36.2001H126.854V32.1201H124.085V42.9201H126.854V38.5601H132.312V42.9201H135.001V32.1201H132.312Z" fill="#00B956"/>
<path d="M87.2034 33.3599C86.7619 32.3999 85.879 31.8799 84.9961 31.8799C84.1132 31.8799 83.1902 32.3999 82.7889 33.3599L78.4146 42.9599H81.304L82.2672 40.6799H87.8856L88.8488 42.9599H91.7382L87.2034 33.3599ZM83.0297 38.5199L84.6751 34.5599C84.7553 34.4399 84.7955 34.4399 84.8757 34.4399C84.956 34.4399 85.0764 34.4399 85.0764 34.5599L86.7218 38.5199H83.0297Z" fill="#00B956"/>
<path d="M54.9379 30.2002C53.6537 30.2002 52.8511 30.8802 52.2491 32.2402L48.7577 40.3602L45.2261 32.2002C44.6643 30.8802 43.8215 30.1602 42.5373 30.1602C41.3333 30.1602 40.1294 30.9602 40.1294 32.8402V42.8802H42.8182V33.2002L46.3899 41.2402C46.8314 42.4002 47.6741 43.0802 48.7577 43.0802C49.9215 43.0802 50.684 42.4002 51.1254 41.2402L54.6972 33.2002V43.0002H57.386V32.9602C57.3458 31.0802 56.1419 30.2002 54.9379 30.2002Z" fill="#00B956"/>
<path d="M62.1215 40.64C62.0011 40.64 61.8406 40.52 61.8406 40.36V38.44H68.5827V36.24H61.8406V34.6C61.8406 34.48 61.961 34.32 62.1215 34.32H68.8235V32.04H60.7972C59.834 32.04 59.1919 32.8 59.1919 33.64V41.2C59.1919 42 59.8741 42.8 60.7972 42.8H68.8235V40.52H62.1215V40.64Z" fill="#00B956"/>
<path d="M73.3586 42.9201V34.6801C73.3586 34.5601 73.479 34.4001 73.6396 34.4001H80.3415V32.1201H72.3152C71.3521 32.1201 70.71 32.8801 70.71 33.7201V42.8801L73.3586 42.9201Z" fill="#00B956"/>
<path d="M122.318 37.56C122.318 33.8 120.673 32.04 116.579 32.04H115.616C111.523 32.04 109.877 33.84 109.877 37.56C109.877 41.24 111.523 43.08 115.616 43.08H116.499C120.673 43 122.318 41.24 122.318 37.56ZM116.499 40.8H115.616C113.409 40.8 112.486 39.8 112.486 37.56C112.486 35.4 113.248 34.32 115.616 34.32H116.499C118.787 34.32 119.629 35.4 119.629 37.56C119.629 39.76 118.787 40.8 116.499 40.8Z" fill="#00B956"/>
<path d="M102.374 30.4404H96.9964C92.9832 30.4404 91.3779 32.4804 91.3779 35.9604C91.3779 36.5204 91.4582 37.0404 91.4983 37.4804C91.9398 39.9604 93.4246 41.4804 97.1569 41.4804H98.3608V42.8804H101.05V41.4804H102.213C105.986 41.4804 107.471 39.9604 107.872 37.4804C107.952 37.0404 107.992 36.5204 107.992 35.9604C107.952 32.4804 106.307 30.4404 102.374 30.4404ZM98.2806 39.2404H97.0766C95.2306 39.2404 94.5885 38.5604 94.1871 37.4404C94.0667 37.0404 94.0667 36.4804 94.0667 35.9204C94.0667 33.6404 95.1503 32.6804 96.6753 32.6804H98.3207V39.2404H98.2806ZM105.183 37.5604C104.782 38.6404 104.1 39.3604 102.294 39.3604H101.09V32.7604H102.735C104.26 32.7604 105.344 33.7204 105.344 36.0004C105.304 36.6004 105.304 37.0804 105.183 37.5604Z" fill="#00B956"/>
</g>
<defs>
<clipPath id="clip0">
<rect width="122" height="22" fill="white" transform="translate(13 26)"/>
</clipPath>
</defs>
</svg>
