<svg width="147" height="74" viewBox="0 0 147 74" fill="none" xmlns="http://www.w3.org/2000/svg">
<path d="M53.0191 63.3348V59.8788C53.1238 58.7268 52.286 57.7842 51.134 57.6795C51.0292 57.6795 50.9245 57.6795 50.8198 57.6795C50.0867 57.6795 49.2489 57.9937 48.83 58.6221C48.411 57.9937 47.7827 57.5748 47.0496 57.6795C46.4212 57.6795 45.7928 57.9937 45.4787 58.5173V57.7842H44.3267V63.3348H45.5834V60.2977C45.4787 59.5646 46.0023 58.9362 46.7354 58.8315C46.8401 58.8315 46.9449 58.8315 46.9449 58.8315C47.7827 58.8315 48.0969 59.3552 48.0969 60.2977V63.3348H49.3536V60.2977C49.2489 59.5646 49.7725 58.9362 50.5056 58.8315C50.6103 58.8315 50.6103 58.8315 50.7151 58.8315C51.5529 58.8315 51.9718 59.3552 51.9718 60.2977V63.3348H53.0191ZM70.9275 57.7842H68.9377V56.1086H67.6809V57.7842H66.6337V58.8315H67.7857V61.345C67.7857 62.6017 68.3093 63.4395 69.6708 63.4395C70.1944 63.4395 70.7181 63.3348 71.137 63.0206L70.8228 61.9734C70.5086 62.1828 70.0897 62.2875 69.7755 62.2875C69.1471 62.2875 68.9377 61.8686 68.9377 61.345V58.8315H70.9275V57.7842ZM81.1908 57.6795C80.5625 57.6795 80.0388 57.9937 79.7246 58.5173V57.889H78.5726V63.4395H79.7246V60.2977C79.7246 59.3552 80.1435 58.8315 80.8766 58.8315C81.0861 58.8315 81.4003 58.8315 81.6097 58.9362L82.0286 57.7842C81.7145 57.6795 81.4003 57.6795 81.1908 57.6795ZM65.6911 58.3079C65.0628 57.889 64.2249 57.6795 63.3871 57.6795C62.0256 57.6795 61.0831 58.3079 61.0831 59.4599C61.0831 60.4024 61.7115 60.9261 62.9682 61.1355L63.5966 61.2403C64.2249 61.345 64.5391 61.5544 64.5391 61.8686C64.5391 62.2875 64.1202 62.497 63.2824 62.497C62.654 62.497 62.0256 62.2875 61.3973 61.8686L60.7689 62.8112C61.502 63.3348 62.3398 63.5443 63.1777 63.5443C64.7486 63.5443 65.6911 62.8112 65.6911 61.7639C65.6911 60.7166 64.958 60.2977 63.806 60.0883L63.1777 59.9835C62.654 59.8788 62.2351 59.7741 62.2351 59.4599C62.2351 59.041 62.654 58.8315 63.2824 58.8315C63.9107 58.8315 64.5391 59.041 65.0628 59.3552L65.6911 58.3079ZM97.8425 57.6795C97.2142 57.6795 96.6905 57.9937 96.3763 58.5173V57.889H95.2243V63.4395H96.3763V60.2977C96.3763 59.3552 96.7953 58.8315 97.5284 58.8315C97.7378 58.8315 98.052 58.8315 98.2614 58.9362L98.6804 57.7842C98.4709 57.6795 98.1567 57.6795 97.8425 57.6795ZM82.3428 60.6119C82.2381 62.1828 83.4948 63.4395 85.0658 63.5443C85.1705 63.5443 85.2752 63.5443 85.2752 63.5443C86.0083 63.5443 86.7414 63.3348 87.265 62.9159L86.6367 61.9734C86.2178 62.2875 85.6941 62.497 85.1705 62.497C84.2279 62.3923 83.4948 61.5544 83.4948 60.6119C83.5996 59.7741 84.2279 59.041 85.1705 58.9362C85.6941 58.9362 86.2178 59.1457 86.6367 59.4599L87.265 58.5173C86.7414 58.0984 86.0083 57.7842 85.2752 57.889C83.7043 57.7842 82.4476 58.9362 82.3428 60.5072C82.3428 60.4024 82.3428 60.5072 82.3428 60.6119ZM93.6534 60.6119V57.889H92.5014V58.5173C92.0825 57.9937 91.4541 57.6795 90.7211 57.6795C89.1501 57.6795 87.7887 58.9362 87.7887 60.6119C87.7887 62.1828 89.0454 63.5443 90.7211 63.5443C91.3494 63.5443 92.0825 63.2301 92.5014 62.7064V63.3348H93.6534V60.6119ZM89.1501 60.6119C89.2549 59.6693 89.988 59.041 90.9305 59.041C91.8731 59.1457 92.5014 59.8788 92.5014 60.8213C92.5014 61.6592 91.7683 62.3923 90.8258 62.3923C89.8832 62.3923 89.1501 61.6592 89.1501 60.7166V60.6119ZM74.6977 57.6795C73.1268 57.6795 71.8701 59.041 71.8701 60.6119C71.8701 62.1828 73.2315 63.4395 74.8024 63.4395C75.6403 63.4395 76.4781 63.2301 77.1064 62.7064L76.4781 61.8686C76.0592 62.1828 75.4308 62.3923 74.9072 62.497C74.0693 62.6017 73.3362 61.9734 73.2315 61.1355H77.3159C77.3159 61.0308 77.3159 60.8213 77.3159 60.7166C77.3159 58.8315 76.2686 57.6795 74.6977 57.6795ZM74.6977 58.7268C75.4308 58.7268 76.0592 59.3552 76.0592 60.0883H73.1268C73.2315 59.3552 73.8599 58.7268 74.6977 58.7268ZM104.755 60.6119V55.585H103.603V58.5173C103.184 57.9937 102.555 57.6795 101.822 57.6795C100.251 57.6795 98.8898 58.9362 98.8898 60.6119C98.8898 62.1828 100.147 63.5443 101.822 63.5443C102.451 63.5443 103.184 63.2301 103.603 62.7064V63.3348H104.755V60.6119ZM106.744 62.6017C106.849 62.6017 106.849 62.6017 106.954 62.6017C107.059 62.6017 107.059 62.7064 107.163 62.7064C107.163 62.7064 107.268 62.8112 107.268 62.9159C107.373 63.0206 107.373 63.2301 107.268 63.3348C107.268 63.4395 107.163 63.4395 107.163 63.5443C107.163 63.5443 107.059 63.649 106.954 63.649C106.849 63.649 106.849 63.649 106.744 63.649C106.535 63.649 106.325 63.5443 106.221 63.3348C106.116 63.2301 106.116 63.0206 106.221 62.9159C106.221 62.8112 106.325 62.8112 106.325 62.7064C106.325 62.7064 106.43 62.6017 106.535 62.6017C106.64 62.6017 106.744 62.6017 106.744 62.6017ZM106.744 63.5443C106.849 63.5443 106.849 63.5443 106.954 63.5443L107.059 63.4395C107.163 63.2301 107.163 63.0206 107.059 62.8112L106.954 62.7064C106.849 62.7064 106.849 62.7064 106.744 62.7064C106.64 62.7064 106.64 62.7064 106.535 62.7064L106.43 62.8112C106.325 63.0206 106.325 63.2301 106.43 63.4395L106.535 63.5443C106.64 63.5443 106.744 63.5443 106.744 63.5443ZM106.849 62.8112C106.954 62.8112 106.954 62.8112 106.954 62.8112C106.954 62.8112 107.059 62.9159 106.954 62.9159V63.0206H106.849L107.059 63.2301H106.954L106.849 63.0206V63.2301H106.535V62.7064L106.849 62.8112ZM106.64 62.9159V63.0206H106.744C106.744 63.0206 106.744 63.0206 106.849 63.0206C106.849 63.0206 106.849 63.0206 106.744 63.0206L106.64 62.9159ZM100.356 60.6119C100.461 59.6693 101.194 59.041 102.136 59.041C103.079 59.1457 103.707 59.8788 103.707 60.8213C103.707 61.6592 102.974 62.3923 102.032 62.3923C101.089 62.3923 100.356 61.6592 100.356 60.7166V60.6119ZM59.7216 60.6119V57.889H58.5696V58.5173C58.1507 57.9937 57.5224 57.6795 56.7893 57.6795C55.2183 57.6795 53.8569 58.9362 53.8569 60.6119C53.8569 62.1828 55.1136 63.5443 56.7893 63.5443C57.4176 63.5443 58.1507 63.2301 58.5696 62.7064V63.3348H59.7216V60.6119ZM55.3231 60.6119C55.4278 59.6693 56.1609 59.041 57.1034 59.041C58.046 59.1457 58.6744 59.8788 58.6744 60.8213C58.6744 61.6592 57.9413 62.3923 56.9987 62.3923C56.0562 62.3923 55.3231 61.6592 55.3231 60.7166C55.2183 60.7166 55.2183 60.6119 55.3231 60.6119Z" fill="#231F20"/>
<path d="M83.4926 15.6841H65.27V48.3591H83.4926V15.6841Z" fill="#FF5F00"/>
<path d="M66.4233 32.1261C66.4233 25.7377 69.3557 19.6635 74.3826 15.7886C65.376 8.6671 52.2851 10.238 45.1636 19.2446C38.0421 28.2512 39.613 41.3422 48.6196 48.4636C56.16 54.4331 66.7375 54.4331 74.2779 48.4636C69.3557 44.484 66.4233 38.5145 66.4233 32.1261Z" fill="#EB001B"/>
<path d="M108 32.1261C108 43.6461 98.6789 52.9669 87.1589 52.9669C82.4461 52.9669 77.9428 51.396 74.2773 48.5683C83.2839 41.4468 84.8548 28.3559 77.7334 19.3493C76.6861 18.0926 75.5341 16.8358 74.2773 15.8933C83.3887 8.66707 96.4796 10.238 103.601 19.2446C106.429 22.91 108 27.4133 108 32.1261Z" fill="#F79E1B"/>
<path d="M106.01 45.0077V44.3794H106.324V44.2746H105.591V44.3794H105.905V45.0077H106.01ZM107.371 45.0077V44.1699H107.162L106.952 44.7983L106.743 44.1699H106.533V45.0077H106.638V44.3794L106.848 44.903H106.952L107.162 44.3794V45.0077H107.371Z" fill="#F79E1B"/>
</svg>
