<svg width="147" height="74" viewBox="0 0 147 74" fill="none" xmlns="http://www.w3.org/2000/svg">
<rect x="4" y="21" width="31" height="31" rx="9" fill="#E30613"/>
<path d="M19.5 26.1665C17.8885 26.1665 15.9546 27.6447 14.3871 30.1269C12.7169 32.7207 11.75 35.9002 11.75 38.6753C11.75 42.7473 14.138 46.8332 19.5 46.8332C24.862 46.8332 27.25 42.7473 27.25 38.6753C27.25 35.9002 26.2831 32.7068 24.6129 30.1409C23.0454 27.6447 21.1115 26.1665 19.5 26.1665Z" fill="white"/>
<rect x="40.668" y="21.5" width="30" height="30" rx="8.5" fill="white" stroke="#C2C2C2"/>
<path d="M56.9347 26.2046V36.8099C56.9347 37.3058 56.552 37.6492 56.0927 37.6492H54.8297C54.7531 37.6492 54.7148 37.7255 54.7148 37.7636V46.6522C55.021 46.6522 55.3272 46.7285 55.6717 46.7285C61.3745 46.7285 66.0057 42.1126 66.0057 36.4284C66.0057 31.2021 62.0635 26.815 56.9347 26.2046ZM56.7051 42.0744C55.9779 42.0744 55.4421 41.464 55.4421 40.8155C55.4421 40.0907 56.0544 39.5566 56.7051 39.5566C57.4323 39.5566 57.9681 40.167 57.9681 40.8155C58.0447 41.5022 57.4323 42.0744 56.7051 42.0744ZM59.7287 42.0744C59.0015 42.0744 58.4657 41.464 58.4657 40.8155C58.4657 40.0907 59.0781 39.5566 59.7287 39.5566C60.456 39.5566 60.9918 40.167 60.9918 40.8155C60.9918 41.464 60.4942 42.0744 59.7287 42.0744ZM62.7907 42.0744C62.0635 42.0744 61.5276 41.464 61.5276 40.8155C61.5276 40.0907 62.14 39.5566 62.7907 39.5566C63.5179 39.5566 64.0537 40.167 64.0537 40.8155C64.0537 41.464 63.5179 42.0744 62.7907 42.0744Z" fill="#00B956"/>
<path d="M55.6695 26.1665C49.9666 26.1665 45.3354 30.7825 45.3354 36.4666C45.3354 41.4641 48.8184 45.546 53.4878 46.4997V37.2296C53.4878 36.81 53.8706 36.4666 54.2533 36.3903H54.6743H55.5164C55.5929 36.3903 55.6312 36.314 55.6312 36.2759L55.6695 26.1665ZM53.6792 34.6355C52.952 34.6355 52.4162 34.0251 52.4162 33.3766C52.4162 32.6518 53.0285 32.1177 53.6792 32.1177C54.4064 32.1177 54.9422 32.7281 54.9422 33.3766C54.9422 34.0251 54.3681 34.6355 53.6792 34.6355Z" fill="#00B956"/>
<rect x="76.832" y="21.5" width="30" height="30" rx="8.5" fill="white" stroke="#C2C2C2"/>
<path d="M81.4995 36.4993C81.4995 42.2062 86.1252 46.8315 91.8336 46.8315C97.5393 46.8315 102.166 42.2062 102.166 36.4993C102.166 30.7921 97.5393 26.1667 91.8336 26.1667C86.1252 26.1667 81.4995 30.7921 81.4995 36.4993Z" fill="url(#paint0_linear)"/>
<path fill-rule="evenodd" clip-rule="evenodd" d="M81.7389 38.7184C81.5824 38.0035 81.5 37.2609 81.5 36.4991C81.5 35.7429 81.5812 35.0056 81.7354 34.2956H101.931C102.073 34.9464 102.153 35.6201 102.165 36.3103V36.6879C102.153 37.3837 102.071 38.0627 101.928 38.7184H81.7389ZM91.6003 46.8288C88.5158 46.7603 85.7651 45.3413 83.9161 43.1396H99.7503C97.9014 45.3413 95.1509 46.7603 92.0677 46.8288H91.6003ZM92.0092 26.168C95.1234 26.2197 97.9028 27.6494 99.7635 29.874H83.903C85.7636 27.6494 88.5433 26.2197 91.6589 26.168H92.0092Z" fill="black"/>
<rect x="113" y="21.5" width="30" height="30" rx="8.5" fill="white" stroke="#C2C2C2"/>
<path fill-rule="evenodd" clip-rule="evenodd" d="M137.562 31.3726C138.538 31.237 139.431 31.457 140.032 31.9907C140.588 32.4735 140.87 33.1592 140.797 33.8875C140.67 35.2341 139.968 36.3183 138 38.1052L134.783 38.2068C134.783 38.2068 137.016 36.3098 137.863 35.3867C138.41 34.7856 138.647 34.1417 138.419 33.7099C138.273 33.4387 137.955 33.3034 137.563 33.3203V31.3723L137.562 31.3726ZM130.974 32.4395V34.1927L133.763 33.9132V32.0754L130.974 32.4398V32.4395ZM128.696 40.3749V32.7362L130.61 32.4817V40.3752H128.696V40.3749ZM121.124 33.7267V35.2089L123.238 34.9886V33.4557L121.124 33.7269V33.7267ZM119.384 40.3749V33.9554L120.851 33.7609V40.3749H119.384ZM115.083 34.5144V35.827L118.873 35.4377V34.0231L115.083 34.5144ZM116.294 35.9032V40.3749H117.679V35.7678L116.294 35.9032ZM121.124 37.809V36.3013L122.509 36.1911V37.7411L121.124 37.809ZM121.124 38.8929V40.3749H123.238V38.8332L121.124 38.8926V38.8929ZM130.974 37.3093V35.5224L132.806 35.37V37.2161L130.974 37.3093ZM130.974 38.6222V40.3749H133.763V38.537L130.974 38.6219V38.6222ZM123.794 40.3749V33.3795L125.461 33.1592V40.3749H123.794ZM125.771 38.7658V40.3749H128.186V38.6981L125.771 38.7658ZM134.382 38.5203L134.391 40.3752H140.916V38.3422L134.382 38.5203ZM134.473 35.1917C134.364 33.0746 135.293 31.7789 137.189 31.4063L137.198 33.388C136.797 33.5403 136.405 33.8286 136.496 35.0223L134.473 35.1917H134.473Z" fill="#1F2229"/>
<defs>
<linearGradient id="paint0_linear" x1="81.4999" y1="36.5063" x2="102.165" y2="36.5063" gradientUnits="userSpaceOnUse">
<stop stop-color="#FAA61A"/>
<stop offset="1" stop-color="#FFE100"/>
</linearGradient>
</defs>
</svg>
