<svg width="147" height="74" viewBox="0 0 147 74" fill="none" xmlns="http://www.w3.org/2000/svg">
<path d="M73.515 8.85547C48.9877 8.85547 29.0298 21.4867 29.0298 36.9935C29.0298 52.5003 48.9877 65.1447 73.515 65.1447C98.0422 65.1447 118 52.5135 118 36.9935C118 21.4736 98.0554 8.85547 73.515 8.85547Z" fill="#0057A3"/>
<path fill-rule="evenodd" clip-rule="evenodd" d="M44.8646 36.8752L43.9587 41.1031C43.9009 41.2625 43.7983 41.4019 43.6632 41.5044C43.5281 41.6069 43.3662 41.6682 43.1971 41.6808C43.124 41.6847 43.051 41.6716 42.9839 41.6425C42.9168 41.6133 42.8573 41.569 42.8102 41.513C42.7631 41.457 42.7297 41.3908 42.7125 41.3197C42.6953 41.2486 42.6949 41.1744 42.7113 41.1031L45.6918 27.0931C45.7466 26.9367 45.8426 26.798 45.9697 26.6917C46.0968 26.5853 46.2504 26.5154 46.414 26.4892C46.4895 26.4904 46.5638 26.5076 46.6322 26.5394C46.7007 26.5713 46.7616 26.6172 46.8111 26.6742C46.8607 26.7311 46.8977 26.7979 46.9197 26.87C46.9418 26.9422 46.9484 27.0182 46.9392 27.0931L46.1645 30.7433H48.7906L49.4733 27.5002C49.5849 27.0439 49.6509 26.5777 49.6703 26.1084C49.6703 24.7954 48.4361 24.7954 47.7008 24.7954H45.9019C43.5385 24.7954 43.2759 26.371 42.9739 27.5396L40.1903 40.6698C40.0874 41.1444 40.0346 41.6285 40.0327 42.1141C40.0327 43.5453 40.965 43.4271 41.9497 43.4271H43.7486C44.1258 43.4448 44.5027 43.3865 44.8571 43.2558C45.2114 43.1252 45.5359 42.9247 45.8114 42.6664C46.0868 42.4081 46.3077 42.0971 46.4608 41.7519C46.6139 41.4067 46.6963 41.0343 46.7029 40.6567L47.4907 36.9146L44.8646 36.8752ZM56.5111 28.5506H54.279L51.561 41.2869C51.5477 41.4344 51.4769 41.5708 51.3639 41.6666C51.2509 41.7624 51.1048 41.8099 50.9571 41.799C50.8907 41.8042 50.8241 41.794 50.7623 41.7693C50.7005 41.7446 50.6453 41.7059 50.6009 41.6564C50.5564 41.6069 50.524 41.5478 50.506 41.4837C50.4881 41.4197 50.4852 41.3523 50.4975 41.2869L53.2155 28.5506H50.9833L48.3573 41.1162C48.2844 41.5103 48.2492 41.9104 48.2522 42.3111C48.2429 42.4578 48.2645 42.6049 48.3157 42.7427C48.3668 42.8806 48.4463 43.0062 48.549 43.1114C48.6517 43.2166 48.7754 43.2991 48.912 43.3535C49.0486 43.4078 49.1951 43.4329 49.342 43.4271C49.725 43.4087 50.1004 43.3131 50.4456 43.1462C50.7908 42.9792 51.0987 42.7443 51.351 42.4555L50.5238 46.3946C50.5238 46.5259 50.445 46.841 49.946 46.841C49.4471 46.841 49.4077 46.6047 49.4602 46.3946L49.6966 45.1997H47.4119L47.2806 45.8956C47.2172 46.2994 47.1908 46.7081 47.2018 47.1167C47.2018 48.1146 48.2391 48.1803 48.8562 48.1803H50.1692C52.2701 48.1803 52.664 46.2895 52.7953 45.4361L56.5111 28.5506ZM61.3956 24.8216H59.2291L55.29 43.4271H57.5353L57.6666 42.81C57.8465 43.0351 58.0714 43.2203 58.3269 43.3536C58.5823 43.487 58.8628 43.5657 59.1503 43.5847C60.634 43.5847 61.0936 42.1272 61.2512 41.3788L63.5621 30.5595C63.6637 30.1514 63.7166 29.7327 63.7196 29.3122C63.7196 28.5112 63.0763 28.393 62.4066 28.393C61.7273 28.4537 61.08 28.709 60.5421 29.1283L61.4744 24.8216H61.3956ZM60.0826 30.7565C60.1299 30.6212 60.2139 30.5016 60.3252 30.4112C60.4365 30.3208 60.5707 30.2631 60.7128 30.2444C61.2774 30.2444 61.1724 30.612 61.1461 30.7565L58.9402 41.2607C58.9174 41.4105 58.8379 41.5458 58.7182 41.6386C58.5985 41.7315 58.4476 41.7748 58.2969 41.7596C58.2336 41.7633 58.1704 41.7522 58.1122 41.7272C58.054 41.7022 58.0025 41.6639 57.9617 41.6154C57.9209 41.567 57.892 41.5097 57.8772 41.4481C57.8625 41.3865 57.8623 41.3223 57.8767 41.2607L60.0826 30.7565ZM66.9628 38.2144L66.2669 41.3788C66.2256 41.5184 66.1382 41.6398 66.0189 41.7233C65.8997 41.8068 65.7557 41.8473 65.6104 41.8384C65.5509 41.8439 65.4909 41.8352 65.4353 41.8132C65.3797 41.7912 65.3301 41.7564 65.2905 41.7117C65.2509 41.6669 65.2223 41.6135 65.2072 41.5557C65.192 41.4978 65.1907 41.4373 65.2033 41.3788L66.2144 36.7307H69.5101L70.8231 30.7171C70.9214 30.4609 70.9522 30.1837 70.9126 29.9121C70.873 29.6405 70.7643 29.3837 70.5969 29.1662C70.4295 28.9487 70.2091 28.7779 69.9567 28.6701C69.7043 28.5623 69.4284 28.5211 69.1555 28.5506H67.8425C67.2266 28.5461 66.6305 28.7685 66.168 29.1753C65.7054 29.5821 65.4088 30.145 65.3347 30.7565L63.1025 41.2607C63.039 41.6114 63.0126 41.9679 63.0237 42.3242C63.0237 43.4403 63.9297 43.4403 64.6781 43.4403H65.9912C66.3093 43.4727 66.6308 43.441 66.9365 43.3469C67.2421 43.2529 67.5258 43.0984 67.7707 42.8927C68.0156 42.687 68.2167 42.4342 68.3621 42.1494C68.5075 41.8645 68.5943 41.5534 68.6172 41.2344L69.2475 38.2276L66.9628 38.2144ZM66.5164 35.247L67.5274 30.5858C67.5566 30.4606 67.6266 30.3488 67.7265 30.2679C67.8264 30.1871 67.9504 30.1418 68.0789 30.1394C68.394 30.1394 68.6435 30.2969 68.5778 30.5858L67.5799 35.247H66.5164ZM72.1755 43.4271L74.8015 30.7827C74.846 30.636 74.9337 30.5062 75.0532 30.4101C75.1727 30.3141 75.3183 30.2563 75.4712 30.2444C75.5357 30.2458 75.599 30.2621 75.6562 30.2919C75.7133 30.3217 75.7629 30.3643 75.801 30.4164C75.8391 30.4684 75.8647 30.5285 75.8758 30.5921C75.8869 30.6556 75.8832 30.7208 75.8651 30.7827L75.2874 33.5926H77.6114L78.2942 30.3232C78.3635 30.0477 78.4074 29.7664 78.4255 29.4828C78.4255 28.8132 78.1366 28.393 77.3882 28.393C76.6109 28.4286 75.8617 28.6936 75.2348 29.1546L75.3793 28.5506H73.1471L69.9827 43.3877L72.1755 43.4271ZM77.0337 43.4271H79.6597L81.0647 36.7832H82.5221C84.8593 36.7832 85.2926 35.0501 85.5289 33.934L86.8419 27.5396C86.9419 27.0822 86.9947 26.6159 86.9995 26.1478C86.9995 24.7428 85.6865 24.8347 85.03 24.8347H81.0384L77.0993 43.4403L77.0337 43.4271ZM81.5505 35.0369L83.3624 26.4892H83.7038C84.019 26.4892 84.5835 26.6205 84.3997 27.4477L82.8635 34.1441C82.822 34.4002 82.6884 34.6324 82.4876 34.7968C82.2869 34.9613 82.033 35.0467 81.7737 35.0369H81.5505ZM85.0956 43.3877H87.3278L91.2668 24.7822H89.0347L85.0956 43.3877ZM91.3981 32.9755H93.6303L94.1292 30.5727C94.1809 30.4412 94.2688 30.327 94.3826 30.2434C94.4965 30.1597 94.6317 30.11 94.7726 30.1C94.9564 30.1 95.2847 30.205 95.1928 30.5727L94.6413 33.1987C94.405 34.341 93.3283 34.6824 92.4354 35.1157C91.9521 35.291 91.5195 35.5828 91.1759 35.9653C90.8323 36.3478 90.5885 36.8091 90.4659 37.3085L89.5862 41.4576C89.5131 41.7629 89.4778 42.076 89.4811 42.3899C89.4811 43.2433 89.8356 43.5322 90.5447 43.5322C91.3361 43.5146 92.0895 43.1897 92.6455 42.6262L92.4879 43.3746H94.6807L97.438 30.4282C97.499 30.2068 97.5078 29.9743 97.4636 29.749C97.4195 29.5236 97.3236 29.3116 97.1836 29.1296C97.0436 28.9476 96.8633 28.8006 96.6568 28.7001C96.4503 28.5996 96.2233 28.5485 95.9937 28.5506H94.4575C93.8714 28.4798 93.281 28.6426 92.8141 29.0038C92.3472 29.3651 92.0413 29.8957 91.9627 30.4807L91.3981 33.0149V32.9755ZM92.9606 41.1031C92.9361 41.261 92.857 41.4053 92.737 41.5109C92.617 41.6164 92.4639 41.6766 92.3041 41.6808C92.2369 41.6754 92.1716 41.6553 92.1131 41.6219C92.0545 41.5885 92.004 41.5426 91.9651 41.4874C91.9263 41.4323 91.9 41.3693 91.8883 41.3028C91.8765 41.2364 91.8795 41.1682 91.8971 41.1031L92.7768 37.059C92.9081 36.4025 92.8819 36.1267 94.1686 35.4702L92.9606 41.1031ZM98.7905 30.1H99.9328L97.5956 41.1294C97.1098 43.4403 98.7904 43.3877 99.4995 43.3877H100.97L101.311 41.799H100.511C99.7096 41.799 99.854 41.0768 99.9065 40.8142L102.165 30.1H103.872L104.174 28.5506H102.559L103.36 24.8216H101.128L100.327 28.5506H99.1318L98.7905 30.1394V30.1Z" fill="white"/>
<path fill-rule="evenodd" clip-rule="evenodd" d="M39.9956 45.4888H46.7183L46.4294 47.4452H39.9956V45.4888ZM53.546 45.4888H104.334V47.4452H53.1258L53.5723 45.4888H53.546Z" fill="white"/>
<path fill-rule="evenodd" clip-rule="evenodd" d="M110.439 39.6454C110.439 38.832 110.197 38.0369 109.745 37.3608C109.293 36.6846 108.65 36.1579 107.899 35.8472C107.147 35.5366 106.32 35.4559 105.522 35.6156C104.725 35.7752 103.993 36.1679 103.418 36.744C102.844 37.3201 102.454 38.0536 102.297 38.8517C102.14 39.6498 102.223 40.4765 102.536 41.2272C102.849 41.978 103.378 42.6189 104.055 43.0689C104.733 43.5189 105.529 43.7577 106.342 43.7551C106.881 43.7551 107.415 43.6488 107.913 43.4421C108.411 43.2354 108.863 42.9324 109.244 42.5506C109.624 42.1688 109.926 41.7157 110.131 41.2171C110.336 40.7186 110.44 40.1845 110.439 39.6454ZM109.966 39.6454C109.966 40.3616 109.754 41.0617 109.356 41.6574C108.959 42.253 108.393 42.7175 107.732 42.9922C107.071 43.2669 106.343 43.3394 105.64 43.2006C104.937 43.0619 104.292 42.718 103.784 42.2125C103.277 41.707 102.931 41.0625 102.789 40.3604C102.648 39.6583 102.718 38.9301 102.99 38.2676C103.263 37.6052 103.725 37.0383 104.319 36.6386C104.913 36.2388 105.613 36.024 106.329 36.0214C106.806 36.0197 107.279 36.1122 107.72 36.2935C108.161 36.4749 108.562 36.7415 108.9 37.0782C109.238 37.4149 109.506 37.815 109.689 38.2555C109.872 38.6961 109.966 39.1684 109.966 39.6454ZM104.806 41.7856H105.384V39.8423H106.88C107.813 39.8423 107.55 40.6827 107.642 41.1554L107.747 41.72H108.43C108.18 41.3261 108.259 41.2341 108.22 40.6433C108.141 39.8555 108.128 39.7767 107.668 39.4878C107.869 39.381 108.033 39.216 108.138 39.0145C108.244 38.8131 108.286 38.5844 108.259 38.3586C108.259 37.3345 107.524 37.2032 106.828 37.2032H104.78V41.72L104.806 41.7856ZM106.841 37.8465C107.196 37.8465 107.76 37.9385 107.668 38.7131C107.668 39.2909 107.235 39.3959 106.841 39.3959H105.357V37.7415L106.841 37.8465Z" fill="white"/>
</svg>
