<svg width="147" height="74" viewBox="0 0 147 74" fill="none" xmlns="http://www.w3.org/2000/svg">
<path fill-rule="evenodd" clip-rule="evenodd" d="M113.935 48.33C113.675 48.33 113.285 48.461 113.024 48.7229C105.089 55.665 90 60.3804 72.8293 60.3804C53.3171 60.3804 36.6667 54.3552 29.7724 45.8413C29.6423 45.7103 29.7724 45.5793 29.9024 45.5793C30.1626 45.5793 30.2927 45.5793 30.4228 45.8413C37.0569 52.9144 51.3659 57.7607 67.8862 57.7607C81.1545 57.7607 92.8618 54.7481 100.407 49.9018C101.187 49.3778 100.797 48.33 100.016 48.33H97.6748C97.4146 48.33 97.0244 48.461 96.7642 48.5919C89.7398 53.4383 78.4228 56.4509 65.6748 56.4509C44.2114 56.4509 27.1707 47.806 27.1707 37.0655C27.1707 26.194 44.2114 17.5491 65.6748 17.5491C78.4228 17.5491 89.7398 20.5617 96.7642 25.4081C97.0244 25.539 97.4146 25.67 97.6748 25.67H100.016C100.797 25.67 101.187 24.6222 100.407 24.2292C92.8618 19.3829 81.1545 16.2393 67.8862 16.2393C51.3659 16.2393 37.0569 21.0856 30.4228 28.2897C30.2927 28.4207 30.0325 28.5516 29.9024 28.5516C29.6423 28.5516 29.6423 28.2897 29.7724 28.1587C36.6667 19.6448 53.3171 13.6196 72.8293 13.6196C90 13.6196 105.089 18.335 113.024 25.2771C113.285 25.539 113.675 25.67 113.935 25.67H120.049C121.48 25.67 122.26 23.8363 121.089 22.9194C111.854 15.7154 95.8537 11 77.6423 11C49.1545 11 26 22.6574 26 37.0655C26 51.3426 49.1545 63 77.6423 63C95.8537 63 111.854 58.2846 121.089 51.0806C122.26 50.1637 121.48 48.33 120.049 48.33H113.935Z" fill="#153F6E"/>
<path fill-rule="evenodd" clip-rule="evenodd" d="M42.5203 45.7103V40.733H41.6098L40.0488 43.0907L38.6179 40.733H37.5772V45.7103H38.4878V42.1738L40.0488 44.5315L41.6098 42.1738V45.7103H42.5203ZM46.813 45.0554C45.7724 45.0554 45.122 44.1385 45.122 43.2217C45.122 42.1738 45.7724 41.3879 46.813 41.3879C47.8537 41.3879 48.5041 42.1738 48.5041 43.2217C48.5041 44.1385 47.8537 45.0554 46.813 45.0554ZM46.813 40.602C45.252 40.602 44.2114 41.7809 44.2114 43.2217C44.2114 44.6625 45.252 45.8413 46.813 45.8413C48.374 45.8413 49.4146 44.6625 49.4146 43.2217C49.4146 41.7809 48.374 40.602 46.813 40.602ZM51.8862 40.733H51.1057V45.7103H52.0163V42.1738L54.748 45.7103H55.3984V40.733H54.6179V44.1385L51.8862 40.733ZM61.3821 44.9244H58.5203V43.6146H60.9919V42.8287H58.5203V41.5189H61.3821V40.733H57.6098V45.7103H61.3821V44.9244ZM65.6748 45.7103V43.7456L67.626 40.733H66.5854L65.1545 42.9597L63.8537 40.733H62.813L64.7642 43.7456V45.7103H65.6748ZM73.6098 45.7103V41.5189H75.1707V40.733H71.1382V41.5189H72.6992V45.7103H73.6098ZM77.9024 43.2217V41.5189H79.2033C79.8537 41.5189 80.2439 41.7809 80.2439 42.3048C80.2439 42.8287 79.7236 43.2217 79.2033 43.2217H77.9024ZM79.8537 43.8766C80.6341 43.6146 81.0244 43.0907 81.0244 42.3048C81.0244 41.3879 80.374 40.733 79.2033 40.733H76.9919V45.7103H77.9024V44.0076H78.9431L80.2439 45.7103H81.2845L79.8537 43.8766ZM84.4065 43.7456L85.187 41.6499L86.0976 43.7456H84.4065ZM85.5772 40.602H84.7967L82.5854 45.7103H83.4959L84.0163 44.5315H86.3577L86.878 45.7103H87.7886L85.5772 40.602ZM90.3902 40.733H89.6098V45.7103H90.3902V42.1738L93.252 45.7103H93.9024V40.733H93.122V44.1385L90.3902 40.733ZM97.8049 45.0554C97.2846 45.0554 96.7642 44.7935 96.2439 44.4005L95.7236 45.0554C96.374 45.5793 97.0244 45.8413 97.8049 45.8413C98.8455 45.8413 99.626 45.1864 99.626 44.2695C99.626 43.4836 99.1057 43.0907 98.065 42.8287C97.0244 42.5667 96.8943 42.4358 96.8943 42.0428C96.8943 41.6499 97.1545 41.3879 97.6748 41.3879C98.065 41.3879 98.5854 41.5189 98.9756 41.9118L99.4959 41.2569C98.9756 40.864 98.4553 40.602 97.6748 40.602C96.6341 40.602 95.9837 41.2569 95.9837 42.0428C95.9837 42.9597 96.5041 43.3526 97.6748 43.6146C98.5854 43.8766 98.7154 44.0076 98.7154 44.4005C98.7154 44.7935 98.4553 45.0554 97.8049 45.0554ZM120.309 45.0554C119.659 45.0554 119.138 44.7935 118.748 44.4005L118.228 45.0554C118.748 45.5793 119.528 45.8413 120.309 45.8413C121.35 45.8413 122 45.1864 122 44.2695C122 43.4836 121.48 43.0907 120.439 42.8287C119.528 42.5667 119.268 42.4358 119.268 42.0428C119.268 41.6499 119.528 41.3879 120.049 41.3879C120.569 41.3879 120.959 41.5189 121.48 41.9118L121.87 41.2569C121.35 40.864 120.829 40.602 120.049 40.602C119.138 40.602 118.358 41.2569 118.358 42.0428C118.358 42.9597 119.008 43.3526 120.049 43.6146C120.959 43.8766 121.22 44.0076 121.22 44.4005C121.22 44.7935 120.829 45.0554 120.309 45.0554ZM105.22 41.5189V40.733H101.577V45.7103H102.358V43.6146H104.959V42.8287H102.358V41.5189H105.22ZM110.683 41.5189V40.733H106.911V45.7103H110.683V44.9244H107.821V43.6146H110.293V42.8287H107.821V41.5189H110.683ZM113.545 43.2217V41.5189H114.846C115.496 41.5189 115.886 41.7809 115.886 42.3048C115.886 42.8287 115.366 43.2217 114.846 43.2217H113.545ZM115.496 43.8766C116.276 43.6146 116.667 43.0907 116.667 42.3048C116.667 41.3879 116.016 40.733 114.846 40.733H112.634V45.7103H113.545V44.0076H114.585L115.886 45.7103H116.927L115.496 43.8766ZM91.1707 38.2443H98.5854C98.4553 37.7204 98.065 36.6725 96.8943 36.6725H93.6423C93.5122 36.6725 93.252 36.4106 93.252 36.2796V34.5768C93.252 34.3149 93.5122 34.1839 93.6423 34.1839H97.935V32.6121H93.6423C93.5122 32.6121 93.252 32.4811 93.252 32.2191V30.5164C93.252 30.3854 93.3821 30.1234 93.6423 30.1234H96.8943C97.935 30.1234 98.4553 29.0756 98.4553 28.5516H91.1707V38.2443ZM45.122 28.4207H44.7317C43.561 28.4207 43.0406 29.2065 42.9106 30.5164V35.6247C42.9106 36.2796 42.3902 36.6725 41.7398 36.6725H40.3089C39.5285 36.6725 39.0081 36.1486 39.0081 35.4937V30.5164C39.0081 29.0756 38.4878 28.4207 37.3171 28.4207H36.9268V35.2317C36.9268 36.8035 38.3577 38.2443 40.0488 38.2443H42C43.6911 38.2443 45.122 36.8035 45.122 35.2317V28.4207ZM83.4959 33.136C83.2358 33.005 83.1057 32.8741 83.1057 32.6121V30.5164C83.1057 30.3854 83.2358 30.1234 83.4959 30.1234H85.9675C86.748 30.2544 87.0081 30.5164 87.0081 31.3023V31.8262C87.0081 32.6121 86.4878 33.136 85.7073 33.136H83.4959ZM85.5772 34.9698L87.1382 37.5894C87.3984 38.1134 87.7886 38.3753 88.3089 38.3753H89.7398L87.9187 35.1008C87.9187 34.8388 87.7886 34.7078 87.6585 34.5768L87.3984 34.4458L87.6585 34.1839C88.5691 33.66 89.0894 32.6121 89.0894 31.5642V30.7783C89.0894 29.4685 88.1789 28.5516 87.0081 28.5516H81.0244V38.2443H83.1057V35.1008C83.1057 34.8388 83.2358 34.7078 83.4959 34.7078H85.187C85.4472 34.7078 85.5772 34.7078 85.5772 34.9698ZM105.61 34.0529H103.528C103.268 34.0529 103.138 33.9219 103.138 33.66C103.138 33.66 103.659 30.5164 103.789 30.3854C103.919 30.1234 104.049 30.1234 104.179 30.1234H104.829C104.959 30.1234 105.089 30.1234 105.22 30.3854C105.35 30.5164 106 33.66 106 33.66C106 33.9219 105.87 34.0529 105.61 34.0529ZM106.65 28.8136C106.65 28.6826 106.52 28.5516 106.39 28.5516H102.618C102.488 28.5516 102.358 28.6826 102.358 28.8136L99.8862 38.2443H100.146C101.447 38.2443 102.228 37.5894 102.488 36.2796L102.618 36.0176C102.618 35.8867 102.748 35.7557 103.008 35.7557H106C106.39 35.7557 106.52 36.1486 106.52 36.1486L106.65 36.4106C106.911 37.7204 107.041 38.1133 107.041 38.2443H109.122L106.65 28.8136ZM57.8699 38.2443H60.0813V28.4207H59.6911C58.5203 28.4207 57.8699 29.0756 57.8699 30.5164V38.2443ZM55.9187 38.2443V28.4207H55.5285C54.3577 28.4207 53.8374 29.0756 53.8374 30.5164V32.0882L53.9675 34.3149C53.9675 34.5768 53.7073 34.7078 53.4472 34.7078H53.187V34.5768L49.2846 28.5516H47.0732V38.2443H47.3333C48.5041 38.2443 49.1545 37.5894 49.1545 36.2796V34.7078L49.0244 32.4811C49.1545 32.2191 49.4146 32.0882 49.5447 32.2191L49.6748 32.0882L49.8049 32.3501L53.7073 38.2443H55.9187ZM72.3089 28.5516C71.2683 28.5516 70.748 29.4685 70.748 30.1234H73.7398C74 30.1234 74.1301 30.2544 74.1301 30.5164V38.2443H76.2114V30.5164C76.2114 30.2544 76.4715 30.1234 76.6016 30.1234H78.1626C79.2033 30.1234 79.7236 29.0756 79.7236 28.5516H72.3089ZM69.9675 34.8388C69.9675 33.529 68.9268 32.6121 67.7561 32.6121H64.374C64.1138 32.6121 63.8537 32.3501 63.8537 32.2191V31.3023C63.9837 30.6474 64.374 30.1234 65.1545 30.1234H67.8862C69.0569 30.1234 69.4472 29.0756 69.5772 28.5516H64.8943C63.2033 28.5516 61.9024 29.8615 61.7724 31.4332V31.9572C61.7724 33.267 62.813 34.1839 63.9837 34.1839H67.3659C67.626 34.1839 67.8862 34.4458 67.8862 34.5768L67.7561 35.6247C67.7561 36.2796 67.2358 36.6725 66.5854 36.6725H63.3333C62.2927 36.6725 61.9024 37.7204 61.9024 38.2443H66.8455C68.5366 38.2443 69.8374 36.9345 69.9675 35.2317V34.8388Z" fill="#153F6E"/>
<path fill-rule="evenodd" clip-rule="evenodd" d="M49.6748 32.3501C49.5447 32.0882 49.1545 32.2191 49.1545 32.4811V36.2796C49.1545 37.5894 48.6341 38.2443 47.4634 38.2443H47.0732V28.5516H49.2846L53.187 34.4458C53.4472 34.7078 53.7073 34.5768 53.8374 34.3149V30.3854C53.8374 29.0756 54.3577 28.4207 55.5285 28.4207H55.7886V38.1134H53.7073L49.6748 32.3501ZM118.618 28.5516C118.488 28.6826 118.358 28.8136 118.098 29.4685C118.098 29.4685 116.537 33.9219 116.276 34.4458C116.146 34.5768 116.146 34.5768 116.016 34.5768C115.886 34.5768 115.756 34.5768 115.626 34.4458C115.496 33.9219 113.805 29.4685 113.805 29.4685C113.545 28.8136 113.545 28.6826 113.285 28.5516H110.553L110.683 38.2443H110.943C112.114 38.2443 112.634 37.5894 112.634 36.2796V32.6121C112.634 32.3501 112.894 32.2191 113.024 32.2191C113.154 32.2191 113.285 32.3501 113.415 32.4811L115.106 36.9345H116.927L118.618 32.4811C118.618 32.3501 118.878 32.2191 119.008 32.2191C119.138 32.2191 119.268 32.3501 119.268 32.6121V36.2796C119.268 37.5894 119.919 38.2443 121.089 38.2443H121.35V28.5516H118.618Z" fill="#153F6E"/>
</svg>
