<svg width="103" height="16" viewBox="0 0 103 16" fill="none" xmlns="http://www.w3.org/2000/svg">
<path fill-rule="evenodd" clip-rule="evenodd" d="M77.3318 2.97607V2.98037C77.3275 2.98037 75.9743 2.97607 75.6134 4.26913C75.2827 5.45479 74.3505 8.72824 74.3247 8.81845H74.0669C74.0669 8.81845 73.1132 5.47197 72.7782 4.26483C72.4173 2.97178 71.0598 2.97607 71.0598 2.97607H67.9668V12.8136H71.0598V6.97123H71.1887H71.3176L73.1218 12.8136H75.2698L77.074 6.97553H77.3318V12.8136H80.4248V2.97607H77.3318Z" fill="#4DB45E"/>
<path fill-rule="evenodd" clip-rule="evenodd" d="M88.6234 2.97266C88.6234 2.97266 87.717 3.05428 87.2917 4.00366L85.1008 8.81504H84.843V2.97266H81.75V12.8102H84.6712C84.6712 12.8102 85.6206 12.7243 86.0459 11.7792L88.1938 6.96781H88.4516V12.8102H91.5446V2.97266H88.6234Z" fill="#4DB45E"/>
<path fill-rule="evenodd" clip-rule="evenodd" d="M92.9199 7.44141V12.8112H96.0129V9.67526H99.3637C100.824 9.67526 102.062 8.74305 102.521 7.44141H92.9199Z" fill="#4DB45E"/>
<path fill-rule="evenodd" clip-rule="evenodd" d="M99.3581 2.97266H92.4805C92.8241 4.84565 94.2289 6.34921 96.046 6.83894C96.4584 6.95063 96.8923 7.01077 97.3391 7.01077H102.64C102.687 6.78739 102.709 6.55971 102.709 6.32343C102.709 4.47191 101.21 2.97266 99.3581 2.97266Z" fill="url(#paint0_linear)"/>
<path d="M43.156 15.2953V14.2898C43.1864 13.9546 42.9427 13.6804 42.6075 13.6499C42.577 13.6499 42.5466 13.6499 42.5161 13.6499C42.3028 13.6499 42.059 13.7413 41.9372 13.9242C41.8153 13.7413 41.6325 13.6195 41.4192 13.6499C41.2364 13.6499 41.0535 13.7413 40.9621 13.8937V13.6804H40.627V15.2953H40.9926V14.4117C40.9621 14.1984 41.1145 14.0156 41.3278 13.9851C41.3582 13.9851 41.3887 13.9851 41.3887 13.9851C41.6325 13.9851 41.7239 14.1375 41.7239 14.4117V15.2953H42.0895V14.4117C42.059 14.1984 42.2114 14.0156 42.4247 13.9851C42.4552 13.9851 42.4552 13.9851 42.4856 13.9851C42.7294 13.9851 42.8513 14.1375 42.8513 14.4117V15.2953H43.156ZM48.3664 13.6804H47.7874V13.1929H47.4218V13.6804H47.1171V13.9851H47.4523V14.7164C47.4523 15.082 47.6046 15.3258 48.0007 15.3258C48.1531 15.3258 48.3054 15.2953 48.4273 15.2039L48.3359 14.8992C48.2445 14.9601 48.1226 14.9906 48.0312 14.9906C47.8484 14.9906 47.7874 14.8687 47.7874 14.7164V13.9851H48.3664V13.6804ZM51.3524 13.6499C51.1696 13.6499 51.0173 13.7413 50.9258 13.8937V13.7109H50.5907V15.3258H50.9258V14.4117C50.9258 14.1375 51.0477 13.9851 51.261 13.9851C51.322 13.9851 51.4134 13.9851 51.4743 14.0156L51.5962 13.6804C51.5048 13.6499 51.4134 13.6499 51.3524 13.6499ZM46.8429 13.8328C46.66 13.7109 46.4163 13.6499 46.1725 13.6499C45.7764 13.6499 45.5022 13.8328 45.5022 14.1679C45.5022 14.4422 45.685 14.5945 46.0506 14.6554L46.2334 14.6859C46.4163 14.7164 46.5077 14.7773 46.5077 14.8687C46.5077 14.9906 46.3858 15.0516 46.142 15.0516C45.9592 15.0516 45.7764 14.9906 45.5936 14.8687L45.4108 15.143C45.624 15.2953 45.8678 15.3563 46.1116 15.3563C46.5686 15.3563 46.8429 15.143 46.8429 14.8383C46.8429 14.5336 46.6296 14.4117 46.2944 14.3507L46.1116 14.3203C45.9592 14.2898 45.8373 14.2593 45.8373 14.1679C45.8373 14.046 45.9592 13.9851 46.142 13.9851C46.3249 13.9851 46.5077 14.046 46.66 14.1375L46.8429 13.8328ZM56.1972 13.6499C56.0143 13.6499 55.862 13.7413 55.7706 13.8937V13.7109H55.4354V15.3258H55.7706V14.4117C55.7706 14.1375 55.8925 13.9851 56.1058 13.9851C56.1667 13.9851 56.2581 13.9851 56.319 14.0156L56.4409 13.6804C56.38 13.6499 56.2886 13.6499 56.1972 13.6499ZM51.6876 14.5031C51.6571 14.9601 52.0228 15.3258 52.4798 15.3563C52.5103 15.3563 52.5408 15.3563 52.5408 15.3563C52.754 15.3563 52.9673 15.2953 53.1197 15.1734L52.9369 14.8992C52.815 14.9906 52.6626 15.0516 52.5103 15.0516C52.2361 15.0211 52.0228 14.7773 52.0228 14.5031C52.0532 14.2593 52.2361 14.046 52.5103 14.0156C52.6626 14.0156 52.815 14.0765 52.9369 14.1679L53.1197 13.8937C52.9673 13.7718 52.754 13.6804 52.5408 13.7109C52.0837 13.6804 51.7181 14.0156 51.6876 14.4726C51.6876 14.4422 51.6876 14.4726 51.6876 14.5031ZM54.9784 14.5031V13.7109H54.6432V13.8937C54.5213 13.7413 54.3385 13.6499 54.1252 13.6499C53.6682 13.6499 53.272 14.0156 53.272 14.5031C53.272 14.9601 53.6377 15.3563 54.1252 15.3563C54.308 15.3563 54.5213 15.2648 54.6432 15.1125V15.2953H54.9784V14.5031ZM53.6682 14.5031C53.6986 14.2289 53.9119 14.046 54.1861 14.046C54.4604 14.0765 54.6432 14.2898 54.6432 14.564C54.6432 14.8078 54.4299 15.0211 54.1557 15.0211C53.8814 15.0211 53.6682 14.8078 53.6682 14.5336V14.5031ZM49.4633 13.6499C49.0062 13.6499 48.6406 14.046 48.6406 14.5031C48.6406 14.9601 49.0367 15.3258 49.4937 15.3258C49.7375 15.3258 49.9813 15.2648 50.1641 15.1125L49.9813 14.8687C49.8594 14.9601 49.6766 15.0211 49.5242 15.0516C49.2805 15.082 49.0672 14.8992 49.0367 14.6554H50.225C50.225 14.625 50.225 14.564 50.225 14.5336C50.225 13.9851 49.9203 13.6499 49.4633 13.6499ZM49.4633 13.9546C49.6766 13.9546 49.8594 14.1375 49.8594 14.3507H49.0062C49.0367 14.1375 49.2195 13.9546 49.4633 13.9546ZM58.2082 14.5031V13.0405H57.873V13.8937C57.7511 13.7413 57.5683 13.6499 57.355 13.6499C56.898 13.6499 56.5019 14.0156 56.5019 14.5031C56.5019 14.9601 56.8675 15.3563 57.355 15.3563C57.5379 15.3563 57.7511 15.2648 57.873 15.1125V15.2953H58.2082V14.5031ZM58.7871 15.082C58.8176 15.082 58.8176 15.082 58.8481 15.082C58.8785 15.082 58.8785 15.1125 58.909 15.1125C58.909 15.1125 58.9395 15.143 58.9395 15.1734C58.9699 15.2039 58.9699 15.2648 58.9395 15.2953C58.9395 15.3258 58.909 15.3258 58.909 15.3563C58.909 15.3563 58.8785 15.3867 58.8481 15.3867C58.8176 15.3867 58.8176 15.3867 58.7871 15.3867C58.7262 15.3867 58.6652 15.3563 58.6348 15.2953C58.6043 15.2648 58.6043 15.2039 58.6348 15.1734C58.6348 15.143 58.6652 15.143 58.6652 15.1125C58.6652 15.1125 58.6957 15.082 58.7262 15.082C58.7567 15.082 58.7871 15.082 58.7871 15.082ZM58.7871 15.3563C58.8176 15.3563 58.8176 15.3563 58.8481 15.3563L58.8785 15.3258C58.909 15.2648 58.909 15.2039 58.8785 15.143L58.8481 15.1125C58.8176 15.1125 58.8176 15.1125 58.7871 15.1125C58.7567 15.1125 58.7567 15.1125 58.7262 15.1125L58.6957 15.143C58.6652 15.2039 58.6652 15.2648 58.6957 15.3258L58.7262 15.3563C58.7567 15.3563 58.7871 15.3563 58.7871 15.3563ZM58.8176 15.143C58.8481 15.143 58.8481 15.143 58.8481 15.143C58.8481 15.143 58.8785 15.1734 58.8481 15.1734V15.2039H58.8176L58.8785 15.2648H58.8481L58.8176 15.2039V15.2648H58.7262V15.1125L58.8176 15.143ZM58.7567 15.1734V15.2039H58.7871C58.7871 15.2039 58.7871 15.2039 58.8176 15.2039C58.8176 15.2039 58.8176 15.2039 58.7871 15.2039L58.7567 15.1734ZM56.9285 14.5031C56.9589 14.2289 57.1722 14.046 57.4464 14.046C57.7207 14.0765 57.9035 14.2898 57.9035 14.564C57.9035 14.8078 57.6902 15.0211 57.416 15.0211C57.1417 15.0211 56.9285 14.8078 56.9285 14.5336V14.5031ZM45.1061 14.5031V13.7109H44.7709V13.8937C44.649 13.7413 44.4662 13.6499 44.2529 13.6499C43.7958 13.6499 43.3997 14.0156 43.3997 14.5031C43.3997 14.9601 43.7654 15.3563 44.2529 15.3563C44.4357 15.3563 44.649 15.2648 44.7709 15.1125V15.2953H45.1061V14.5031ZM43.8263 14.5031C43.8568 14.2289 44.0701 14.046 44.3443 14.046C44.6185 14.0765 44.8014 14.2898 44.8014 14.564C44.8014 14.8078 44.5881 15.0211 44.3138 15.0211C44.0396 15.0211 43.8263 14.8078 43.8263 14.5336C43.7958 14.5336 43.7958 14.5031 43.8263 14.5031Z" fill="#231F20"/>
<path d="M52.0245 1.43115H46.7227V10.9378H52.0245V1.43115Z" fill="#FF5F00"/>
<path d="M47.0591 6.2149C47.0591 4.35623 47.9123 2.58896 49.3748 1.46157C46.7544 -0.6104 42.9456 -0.153348 40.8737 2.46708C38.8017 5.08751 39.2588 8.89627 41.8792 10.9682C44.073 12.705 47.1505 12.705 49.3444 10.9682C47.9123 9.81037 47.0591 8.07358 47.0591 6.2149Z" fill="#EB001B"/>
<path d="M59.1512 6.21444C59.1512 9.56615 56.4394 12.278 53.0877 12.278C51.7165 12.278 50.4063 11.8209 49.3398 10.9982C51.9603 8.92628 52.4173 5.11751 50.3454 2.49709C50.0407 2.13144 49.7055 1.7658 49.3398 1.49157C51.9907 -0.610863 55.7995 -0.153812 57.8715 2.46662C58.6942 3.53307 59.1512 4.84328 59.1512 6.21444Z" fill="#F79E1B"/>
<path d="M58.5809 9.96251V9.77969H58.6723V9.74922H58.459V9.77969H58.5504V9.96251H58.5809ZM58.977 9.96251V9.71875H58.916L58.8551 9.90157L58.7942 9.71875H58.7332V9.96251H58.7637V9.77969L58.8246 9.93204H58.8551L58.916 9.77969V9.96251H58.977Z" fill="#F79E1B"/>
<path d="M15.8702 6.05732C15.8702 7.43926 17.0986 8.20702 18.0199 8.66767C18.9412 9.12831 19.2483 9.43539 19.2483 9.89604C19.2483 10.5102 18.4805 10.8173 17.7128 10.8173C16.4844 10.8173 15.7166 10.5103 15.1024 10.2032L14.6418 12.3528C15.256 12.6599 16.3308 12.8135 17.4057 12.8135C20.016 12.8135 21.7051 11.5851 21.7051 9.58894C21.7051 6.97862 18.1734 6.97862 18.1734 5.75023C18.1734 5.44313 18.4805 4.98248 19.2483 4.98248C19.5554 4.98248 20.6302 4.82894 21.7051 5.44313L22.1657 3.447C21.5515 3.29345 20.7838 2.98635 19.8625 2.98635C17.5592 2.8328 15.8702 4.06119 15.8702 6.05732ZM26.6186 2.98635C26.1579 2.98635 25.6973 3.29344 25.5438 3.75409L21.8586 12.6599H24.4689L24.9296 11.278H28.1541L28.4612 12.6599H30.7644L28.7683 2.98635H26.6186ZM26.9257 5.59669L27.6935 9.28185H25.6973L26.9257 5.59669ZM12.6457 2.98635L10.6495 12.6599H13.1063L15.1024 2.98635H12.6457ZM8.96049 2.98635L6.35019 9.58894L5.27533 4.0612C5.12179 3.44701 4.66117 3.1399 4.20052 3.1399H0.0546875V3.447C0.97598 3.60054 1.89728 3.90764 2.51148 4.21474C2.81857 4.36829 2.97211 4.52185 3.12566 5.13604L5.12178 12.8135H7.73212L11.7244 3.1399H8.96049" fill="#191F71"/>
<defs>
<linearGradient id="paint0_linear" x1="92.4813" y1="4.99171" x2="102.709" y2="4.99171" gradientUnits="userSpaceOnUse">
<stop offset="0.3" stop-color="#00B4E6"/>
<stop offset="1" stop-color="#088CCB"/>
</linearGradient>
</defs>
</svg>
