<svg width="106" height="58" viewBox="0 0 106 58" fill="none" xmlns="http://www.w3.org/2000/svg">
<path d="M41.2999 20.5435C42.5999 20.5435 44 20.9435 45 21.9435L43.9 23.7435C43.3 23.2435 42.3 22.7435 41.4 22.7435C39.4 22.7435 38.5999 24.1435 38.5999 25.5435C38.5999 27.0435 39.5 28.4435 41.4 28.4435C42.4 28.4435 43.3 27.9435 44 27.2435L45.2 29.0435C45.1 29.1435 44.9 29.3435 44.7999 29.4435C43.9999 30.1435 42.7999 30.6435 41.2999 30.6435C38.0999 30.6435 36.2 28.4435 36.2 25.5435C36.2 22.7435 38.2999 20.5435 41.2999 20.5435Z" fill="#2D353F"/>
<path d="M50.6 20.5435C53.6 20.5435 55.7 22.7435 55.7 25.5435C55.7 28.4435 53.6 30.6435 50.6 30.6435C47.6 30.6435 45.5 28.4435 45.5 25.5435C45.5 22.7435 47.6 20.5435 50.6 20.5435ZM50.6 28.5435C52.1 28.5435 53.2 27.2435 53.2 25.6435C53.2 24.0435 52.1 22.8435 50.6 22.8435C49.1 22.8435 48 23.9435 48 25.5435C48 27.2435 49.1 28.5435 50.6 28.5435Z" fill="#2D353F"/>
<path d="M57.1 20.7437H59.5L62.2 25.3437C62.6 25.9437 63 27.0437 63 27.0437C63 27.0437 62.9 25.9437 62.9 25.3437V20.7437H65.3V30.5437H62.9L60.2 25.9437C59.8 25.3437 59.4 24.2437 59.4 24.2437C59.4 24.2437 59.5 25.3437 59.5 25.9437V30.5437H57.1V20.7437Z" fill="#2D353F"/>
<path d="M69.7999 22.8437H66.7999V20.7437H75.1999V22.8437H72.1999V30.5437H69.7999V22.8437Z" fill="#2D353F"/>
<path d="M78.1999 20.7437H80.6999L83.9999 30.5437H81.4999L80.9999 28.4437H77.9999L77.3999 30.5437H74.8999L78.1999 20.7437ZM80.4999 26.5437L79.8999 24.6437C79.6999 24.0437 79.4999 22.9437 79.4999 22.9437C79.4999 22.9437 79.2999 24.0437 79.0999 24.6437L78.4999 26.5437H80.4999Z" fill="#2D353F"/>
<path d="M89.5999 20.5435C90.8999 20.5435 92.2999 20.9435 93.2999 21.9435L92.1999 23.7435C91.5999 23.2435 90.5999 22.7435 89.6999 22.7435C87.6999 22.7435 86.8999 24.1435 86.8999 25.5435C86.8999 27.0435 87.7999 28.4435 89.6999 28.4435C90.6999 28.4435 91.5999 27.9435 92.2999 27.2435L93.4999 29.0435C92.5999 29.9435 91.2999 30.6435 89.4999 30.6435C86.2999 30.6435 84.3999 28.4435 84.3999 25.5435C84.4999 22.7435 86.5999 20.5435 89.5999 20.5435Z" fill="#2D353F"/>
<path d="M97.6 22.8437H94.6V20.7437H103V22.8437H100V30.5437H97.6V22.8437Z" fill="#2D353F"/>
<path d="M27.5 25.8435C27.2 24.8435 26.2 24.3435 25.3 24.5435C24.3 24.8435 23.8 25.8435 24 26.7435C24.2 27.4435 24.3 28.2435 24.3 29.0435C24.3 33.9435 20.3 37.8435 15.5 37.8435C15 37.8435 14.6 37.8435 14.1 37.7435C16.1 37.2435 17.7 35.4435 17.7 33.2435C17.7 30.7435 15.6 28.6435 13.1 28.6435C10.6 28.6435 8.5 30.7435 8.5 33.2435C8.5 33.7435 8.6 34.2435 8.7 34.6435C7.4 33.1435 6.7 31.1435 6.7 29.0435C6.7 25.0435 9.4 21.5435 13.3 20.5435C14.3 20.2435 14.8 19.3435 14.6 18.3435C14.3 17.3435 13.4 16.8435 12.4 17.0435C6.8 18.5435 3 23.4435 3 29.1435C3 36.0435 8.6 41.5435 15.4 41.5435C22.3 41.5435 27.8 35.9435 27.8 29.1435C27.9 28.0435 27.7 26.9435 27.5 25.8435Z" fill="#F58A1F"/>
<path d="M20.2 23.9434C21.8568 23.9434 23.2 22.6002 23.2 20.9434C23.2 19.2865 21.8568 17.9434 20.2 17.9434C18.5431 17.9434 17.2 19.2865 17.2 20.9434C17.2 22.6002 18.5431 23.9434 20.2 23.9434Z" fill="#F58A1F"/>
<path d="M36.8 38.9436V34.6436H39.5V35.3436H37.6V36.3436H38.5C38.9 36.3436 39.2 36.4436 39.5 36.7436C39.7 36.9436 39.9001 37.3436 39.9001 37.7436C39.9001 38.1436 39.8 38.4436 39.5 38.7436C39.3 38.9436 38.9 39.1436 38.5 39.1436L36.8 38.9436ZM37.6 38.3436H38.3C38.5 38.3436 38.7 38.2436 38.8 38.1436C39 38.0436 39 37.8436 39 37.6436C39 37.4436 38.9 37.2436 38.8 37.1436C38.7 37.0436 38.5 36.9436 38.3 36.9436H37.6V38.3436Z" fill="#2D353F"/>
<path d="M40.4 38.9433V35.8433H41.2V36.9433H41.8C42.2 36.9433 42.5 37.0433 42.7 37.2433C42.9 37.4433 43 37.6433 43 38.0433C43 38.3433 42.9 38.6433 42.7 38.7433C42.5 38.9433 42.2 39.0433 41.8 39.0433H40.4V38.9433ZM41.2 38.4433H41.6C41.8 38.4433 41.9 38.4433 42 38.3433C42.1 38.2433 42.1 38.1433 42.1 37.9433C42.1 37.7433 42.1 37.6433 42 37.5433C41.9 37.4433 41.8 37.4433 41.6 37.4433H41.2V38.4433ZM43.4 38.9433V35.8433H44.2V38.9433H43.4Z" fill="#2D353F"/>
<path d="M45.7001 38.9433V36.5433H44.7001V35.8433H47.5001V36.5433H46.5001V38.9433H45.7001Z" fill="#2D353F"/>
<path d="M48 38.9433V35.8433H48.8V36.9433H49.4C49.8 36.9433 50.1 37.0433 50.3 37.2433C50.5 37.4433 50.6 37.6433 50.6 38.0433C50.6 38.3433 50.5 38.6433 50.3 38.7433C50.1 38.9433 49.8 39.0433 49.4 39.0433H48V38.9433ZM48.8 38.4433H49.3C49.5 38.4433 49.6 38.4433 49.7 38.3433C49.8 38.2433 49.8 38.1433 49.8 37.9433C49.8 37.7433 49.8 37.6433 49.7 37.5433C49.6 37.4433 49.5 37.4433 49.3 37.4433H48.9L48.8 38.4433Z" fill="#2D353F"/>
<path d="M52.5 37.1434C52.5 36.5434 52.6 36.0434 52.8 35.7434C53 35.3434 53.4 35.1434 54 34.8434L55.1 34.4434L55.3 35.0434L54.1 35.5434C53.8 35.6434 53.6 35.8434 53.4 35.9434C53.2 36.1434 53.2 36.3434 53.1 36.5434C53.3 36.2434 53.7 36.0434 54.1 36.0434C54.5 36.0434 54.8 36.1434 55.1 36.4434C55.3 36.7434 55.5 37.0434 55.5 37.4434C55.5 37.8434 55.4 38.2434 55.1 38.5434C54.8 38.8434 54.5 38.9434 54 38.9434C53.5 38.9434 53.1 38.7434 52.8 38.4434C52.6 38.2434 52.5 37.7434 52.5 37.1434ZM53.3 37.5434C53.3 37.8434 53.4 38.0434 53.5 38.1434C53.6 38.3434 53.8 38.3434 54 38.3434C54.2 38.3434 54.4 38.2434 54.6 38.1434C54.7 37.9434 54.8 37.7434 54.8 37.5434C54.8 37.2434 54.7 37.0434 54.6 36.9434C54.5 36.7434 54.3 36.7434 54.1 36.7434C53.9 36.7434 53.7 36.8434 53.5 36.9434C53.4 37.1434 53.3 37.3434 53.3 37.5434Z" fill="#2D353F"/>
<path d="M55.9 39.0433V38.3433C56.1 38.3433 56.3 38.1433 56.4 37.9433C56.5 37.7433 56.6 37.3433 56.6 36.8433V35.8433H58.9V38.9433H58.1V36.4433H57.3V36.7433C57.3 37.4433 57.2 37.9433 57 38.3433C56.8 38.8433 56.4 39.0433 55.9 39.0433Z" fill="#2D353F"/>
<path d="M59.7001 38.9433V35.8433H60.4001V37.5433C60.4001 37.7433 60.4001 37.8433 60.4001 37.9433C60.4001 37.9433 60.5001 37.7433 60.6001 37.5433L61.8001 35.8433H62.6001V38.9433H61.9001V37.2433C61.9001 37.1433 61.9001 37.0433 61.9001 36.8433C61.9001 36.8433 61.8001 37.0433 61.7001 37.2433L60.5001 38.9433H59.7001Z" fill="#2D353F"/>
<path d="M63 38.9433L64 37.3433L63.1 35.8433H63.9L64.6 37.0433H65V35.8433H65.7V37.0433H66.1L66.8 35.8433H67.6L66.7 37.3433L67.7 38.9433H66.8L66.1 37.7433H65.7V38.9433H65V37.7433H64.6L63.9 38.9433H63Z" fill="#2D353F"/>
<path d="M67.8 37.4432C67.8 36.9432 67.9 36.5432 68.2 36.2432C68.5 35.9432 68.9 35.7432 69.3 35.7432C69.7 35.7432 70.1 35.8432 70.3 36.1432C70.5 36.4432 70.7 36.7432 70.7 37.2432C70.7 37.3432 70.7 37.4432 70.7 37.5432H68.6C68.6 37.8432 68.7 38.0432 68.9 38.1432C69.1 38.2432 69.3 38.3432 69.5 38.3432C69.8 38.3432 70.1 38.2432 70.4 38.0432L70.7 38.6432C70.5 38.7432 70.4 38.8432 70.1 38.9432C69.8 39.0432 69.6 39.0432 69.4 39.0432C68.9 39.0432 68.5 38.8432 68.2 38.5432C68 38.2432 67.8 37.8432 67.8 37.4432ZM68.7 37.0432H70C70 36.8432 69.9 36.6432 69.8 36.5432C69.7 36.4432 69.5 36.3432 69.4 36.3432C69.2 36.3432 69 36.4432 68.9 36.5432C68.8 36.6432 68.7 36.8432 68.7 37.0432Z" fill="#2D353F"/>
</svg>
