<svg width="106" height="58" viewBox="0 0 106 58" fill="none" xmlns="http://www.w3.org/2000/svg">
<g clip-path="url(#clip0)">
<path d="M52.88 8C34.2 8 19 17.62 19 29.43C19 41.24 34.2 50.87 52.88 50.87C71.56 50.87 86.76 41.25 86.76 29.43C86.76 17.61 71.57 8 52.88 8Z" fill="#0057A3"/>
<path fill-rule="evenodd" clip-rule="evenodd" d="M31.06 29.3399L30.37 32.5599C30.326 32.6813 30.2479 32.7875 30.145 32.8655C30.0421 32.9436 29.9188 32.9903 29.79 32.9999C29.7344 33.0028 29.6788 32.9928 29.6276 32.9707C29.5765 32.9485 29.5312 32.9147 29.4954 32.8721C29.4595 32.8294 29.434 32.779 29.4209 32.7249C29.4079 32.6707 29.4075 32.6142 29.42 32.5599L31.69 21.8899C31.7317 21.7707 31.8048 21.6651 31.9016 21.5841C31.9985 21.5031 32.1154 21.4498 32.24 21.4299C32.2975 21.4309 32.3541 21.4439 32.4062 21.4682C32.4583 21.4925 32.5047 21.5274 32.5425 21.5708C32.5802 21.6142 32.6084 21.665 32.6252 21.72C32.642 21.7749 32.647 21.8328 32.64 21.8899L32.05 24.6699H34.05L34.57 22.1999C34.655 21.8524 34.7052 21.4973 34.72 21.1399C34.72 20.1399 33.78 20.1399 33.22 20.1399H31.85C30.05 20.1399 29.85 21.3399 29.62 22.2299L27.5 32.2299C27.4217 32.5913 27.3814 32.96 27.38 33.3299C27.38 34.4199 28.09 34.3299 28.84 34.3299H30.21C30.4973 34.3433 30.7844 34.2989 31.0542 34.1994C31.3241 34.0999 31.5712 33.9473 31.781 33.7505C31.9908 33.5538 32.159 33.3169 32.2757 33.054C32.3923 32.7911 32.455 32.5075 32.46 32.2199L33.06 29.3699L31.06 29.3399ZM39.93 22.9999H38.23L36.16 32.6999C36.1498 32.8122 36.0959 32.9161 36.0098 32.989C35.9238 33.062 35.8125 33.0982 35.7 33.0899C35.6495 33.0938 35.5987 33.0861 35.5517 33.0673C35.5046 33.0484 35.4626 33.019 35.4287 32.9813C35.3949 32.9436 35.3702 32.8986 35.3565 32.8498C35.3429 32.801 35.3406 32.7497 35.35 32.6999L37.42 22.9999H35.72L33.72 32.5699C33.6645 32.87 33.6377 33.1747 33.64 33.4799C33.6329 33.5916 33.6494 33.7036 33.6883 33.8086C33.7272 33.9136 33.7878 34.0093 33.866 34.0894C33.9443 34.1695 34.0384 34.2323 34.1425 34.2738C34.2465 34.3152 34.3581 34.3343 34.47 34.3299C34.7617 34.3158 35.0476 34.2431 35.3105 34.1159C35.5734 33.9887 35.8079 33.8098 36 33.5899L35.37 36.5899C35.37 36.6899 35.31 36.9299 34.93 36.9299C34.55 36.9299 34.52 36.7499 34.56 36.5899L34.74 35.6799H33L32.9 36.2099C32.8517 36.5174 32.8316 36.8287 32.84 37.1399C32.84 37.8999 33.63 37.9499 34.1 37.9499H35.1C36.7 37.9499 37 36.5099 37.1 35.8599L39.93 22.9999ZM43.65 20.1599H42L39 34.3299H40.71L40.81 33.8599C40.947 34.0313 41.1183 34.1723 41.3129 34.2739C41.5074 34.3755 41.721 34.4354 41.94 34.4499C43.07 34.4499 43.42 33.3399 43.54 32.7699L45.3 24.5299C45.3774 24.2191 45.4177 23.9002 45.42 23.5799C45.42 22.9699 44.93 22.8799 44.42 22.8799C43.9027 22.9261 43.4096 23.1205 43 23.4399L43.71 20.1599H43.65ZM42.65 24.6799C42.6861 24.5768 42.7501 24.4858 42.8348 24.4169C42.9196 24.3481 43.0217 24.3041 43.13 24.2899C43.56 24.2899 43.48 24.5699 43.46 24.6799L41.78 32.6799C41.7626 32.794 41.7021 32.897 41.6109 32.9677C41.5197 33.0385 41.4048 33.0715 41.29 33.0599C41.2419 33.0627 41.1937 33.0542 41.1494 33.0352C41.1051 33.0161 41.0658 32.987 41.0348 32.9501C41.0037 32.9132 40.9816 32.8696 40.9704 32.8226C40.9592 32.7757 40.959 32.7269 40.97 32.6799L42.65 24.6799ZM47.89 30.3599L47.36 32.7699C47.3285 32.8762 47.262 32.9687 47.1712 33.0322C47.0803 33.0958 46.9706 33.1267 46.86 33.1199C46.8147 33.124 46.769 33.1175 46.7267 33.1007C46.6843 33.084 46.6466 33.0575 46.6164 33.0234C46.5862 32.9893 46.5645 32.9486 46.5529 32.9046C46.5414 32.8605 46.5404 32.8144 46.55 32.7699L47.32 29.2299H49.83L50.83 24.6499C50.9049 24.4547 50.9284 24.2436 50.8982 24.0368C50.868 23.83 50.7853 23.6343 50.6578 23.4687C50.5303 23.3031 50.3624 23.173 50.1701 23.0909C49.9779 23.0088 49.7678 22.9774 49.56 22.9999H48.56C48.0909 22.9965 47.6369 23.1658 47.2847 23.4757C46.9324 23.7855 46.7065 24.2142 46.65 24.6799L44.95 32.6799C44.9016 32.947 44.8815 33.2185 44.89 33.4899C44.89 34.3399 45.58 34.3399 46.15 34.3399H47.15C47.3923 34.3646 47.6371 34.3404 47.8699 34.2688C48.1027 34.1972 48.3188 34.0795 48.5053 33.9229C48.6918 33.7662 48.845 33.5737 48.9557 33.3567C49.0665 33.1398 49.1325 32.9028 49.15 32.6599L49.63 30.3699L47.89 30.3599ZM47.55 28.0999L48.32 24.5499C48.3422 24.4546 48.3956 24.3694 48.4717 24.3078C48.5477 24.2462 48.6422 24.2118 48.74 24.2099C48.98 24.2099 49.17 24.3299 49.12 24.5499L48.36 28.0999H47.55ZM51.86 34.3299L53.86 24.6999C53.8939 24.5882 53.9607 24.4892 54.0517 24.4161C54.1427 24.3429 54.2536 24.299 54.37 24.2899C54.4191 24.291 54.4673 24.3033 54.5109 24.3261C54.5544 24.3488 54.5922 24.3812 54.6212 24.4208C54.6502 24.4605 54.6697 24.5063 54.6782 24.5547C54.6866 24.6031 54.6838 24.6527 54.67 24.6999L54.23 26.8399H56L56.52 24.3499C56.5728 24.14 56.6062 23.9258 56.62 23.7099C56.62 23.1999 56.4 22.8799 55.83 22.8799C55.2381 22.907 54.6674 23.1088 54.19 23.4599L54.3 22.9999H52.6L50.19 34.2999L51.86 34.3299ZM55.56 34.3299H57.56L58.63 29.2699H59.74C61.52 29.2699 61.85 27.9499 62.03 27.0999L63.03 22.2299C63.1061 21.8816 63.1463 21.5264 63.15 21.1699C63.15 20.0999 62.15 20.1699 61.65 20.1699H58.61L55.61 34.3399L55.56 34.3299ZM59 27.9399L60.38 21.4299H60.64C60.88 21.4299 61.31 21.5299 61.17 22.1599L60 27.2599C59.9684 27.455 59.8666 27.6318 59.7137 27.757C59.5609 27.8823 59.3675 27.9473 59.17 27.9399H59ZM61.7 34.2999H63.4L66.4 20.1299H64.7L61.7 34.2999ZM66.5 26.3699H68.2L68.58 24.5399C68.6194 24.4397 68.6863 24.3528 68.773 24.2891C68.8597 24.2254 68.9627 24.1875 69.07 24.1799C69.21 24.1799 69.46 24.2599 69.39 24.5399L68.97 26.5399C68.79 27.4099 67.97 27.6699 67.29 27.9999C66.9219 28.1334 66.5924 28.3556 66.3308 28.6469C66.0691 28.9382 65.8834 29.2896 65.79 29.6699L65.12 32.8299C65.0644 33.0624 65.0375 33.3008 65.04 33.5399C65.04 34.1899 65.31 34.4099 65.85 34.4099C66.4527 34.3965 67.0266 34.149 67.45 33.7199L67.33 34.2899H69L71.1 24.4299C71.1464 24.2613 71.1531 24.0842 71.1195 23.9126C71.0859 23.741 71.0129 23.5795 70.9062 23.4409C70.7996 23.3022 70.6623 23.1903 70.505 23.1137C70.3478 23.0372 70.1749 22.9982 70 22.9999H68.83C68.3837 22.9459 67.934 23.0699 67.5784 23.3451C67.2228 23.6202 66.9899 24.0243 66.93 24.4699L66.5 26.3999V26.3699ZM67.69 32.5599C67.6713 32.6801 67.6111 32.79 67.5197 32.8704C67.4283 32.9508 67.3117 32.9966 67.19 32.9999C67.1388 32.9958 67.0891 32.9805 67.0445 32.955C66.9999 32.9295 66.9614 32.8946 66.9318 32.8526C66.9022 32.8106 66.8822 32.7626 66.8733 32.712C66.8643 32.6614 66.8666 32.6095 66.88 32.5599L67.55 29.4799C67.65 28.9799 67.63 28.7699 68.61 28.2699L67.69 32.5599ZM72.13 24.1799H73L71.22 32.5799C70.85 34.3399 72.13 34.2999 72.67 34.2999H73.79L74.05 33.0899H73.44C72.83 33.0899 72.94 32.5399 72.98 32.3399L74.7 24.1799H76L76.23 22.9999H75L75.61 20.1599H73.91L73.3 22.9999H72.39L72.13 24.2099V24.1799Z" fill="white"/>
<path fill-rule="evenodd" clip-rule="evenodd" d="M27.35 35.8999H32.47L32.25 37.3899H27.35V35.8999ZM37.67 35.8999H76.35V37.3899H37.35L37.69 35.8999H37.67Z" fill="white"/>
<path fill-rule="evenodd" clip-rule="evenodd" d="M81 31.4498C81 30.8303 80.8162 30.2248 80.4718 29.7098C80.1274 29.1949 79.638 28.7937 79.0655 28.5571C78.493 28.3205 77.8631 28.2591 77.2557 28.3807C76.6482 28.5023 76.0905 28.8014 75.6532 29.2401C75.2159 29.6789 74.9186 30.2375 74.7989 30.8453C74.6793 31.4531 74.7427 32.0828 74.9811 32.6546C75.2196 33.2263 75.6223 33.7145 76.1383 34.0572C76.6544 34.3999 77.2605 34.5818 77.88 34.5798C78.2906 34.5798 78.6971 34.4988 79.0763 34.3414C79.4555 34.1839 79.7999 33.9532 80.0897 33.6624C80.3796 33.3717 80.6092 33.0265 80.7654 32.6469C80.9216 32.2672 81.0013 31.8604 81 31.4498ZM80.64 31.4498C80.64 31.9953 80.4784 32.5285 80.1755 32.9821C79.8727 33.4358 79.4422 33.7896 78.9385 33.9987C78.4348 34.2079 77.8803 34.2632 77.3452 34.1575C76.8101 34.0518 76.3183 33.7899 75.9319 33.4049C75.5455 33.0199 75.2819 32.5291 75.1743 31.9944C75.0666 31.4596 75.1199 30.905 75.3272 30.4005C75.5346 29.896 75.8868 29.4643 76.3394 29.1598C76.7919 28.8553 77.3245 28.6918 77.87 28.6898C78.2333 28.6885 78.5933 28.7589 78.9293 28.897C79.2653 29.0351 79.5707 29.2382 79.8281 29.4947C80.0854 29.7511 80.2896 30.0558 80.4289 30.3913C80.5683 30.7268 80.64 31.0865 80.64 31.4498ZM76.71 33.0798H77.15V31.5998H78.29C79 31.5998 78.8 32.2398 78.87 32.5998L78.95 33.0298H79.47C79.28 32.7298 79.34 32.6598 79.31 32.2098C79.25 31.6098 79.24 31.5498 78.89 31.3298C79.0429 31.2484 79.1676 31.1228 79.2479 30.9694C79.3282 30.8159 79.3603 30.6418 79.34 30.4698C79.34 29.6898 78.78 29.5898 78.25 29.5898H76.69V33.0298L76.71 33.0798ZM78.26 30.0798C78.53 30.0798 78.96 30.1498 78.89 30.7398C78.89 31.1798 78.56 31.2598 78.26 31.2598H77.13V29.9998L78.26 30.0798Z" fill="white"/>
</g>
<defs>
<clipPath id="clip0">
<rect width="67.76" height="42.87" fill="white" transform="translate(19 8)"/>
</clipPath>
</defs>
</svg>
