<svg width="106" height="58" viewBox="0 0 106 58" fill="none" xmlns="http://www.w3.org/2000/svg">
<path d="M36.736 35.2642C36.822 35.0062 36.994 34.8342 37.08 34.5762C40.09 28.5562 38.284 21.4182 32.522 17.9782C32.436 17.9782 32.436 17.8922 32.35 17.8922C32.264 17.8922 32.178 17.8062 32.178 17.8062C32.522 18.4082 32.866 19.0962 33.038 19.8702C33.554 21.7622 33.296 23.8262 32.264 25.4602C32.178 25.5462 32.178 25.6322 32.092 25.7182C31.06 27.3522 30.114 28.0402 29.34 28.5562C28.738 28.9862 28.308 29.3302 27.706 30.0182L27.62 30.1042C26.846 31.4802 26.674 33.0282 27.19 34.4042C27.62 35.6082 28.394 36.7262 29.598 37.4142C32.178 38.9622 35.274 37.7582 36.736 35.2642Z" fill="white" stroke="#1C4597" stroke-width="0.9855" stroke-miterlimit="10" stroke-linecap="square" stroke-linejoin="round"/>
<path d="M14.29 27.438C15.666 26.062 17.644 25.288 19.536 25.288C19.966 25.288 20.396 25.288 20.74 25.374C21.944 25.546 22.632 25.89 23.234 26.234C23.922 26.578 24.438 26.836 25.728 26.922H25.9C27.706 26.922 29.34 25.976 30.286 24.6C30.888 23.74 31.232 22.708 31.232 21.504C31.232 18.58 28.308 16 25.384 16C25.04 16 24.61 16 24.266 16.086C17.73 16.602 13.086 22.192 13 28.814C13 28.9 13 28.9 13 28.986C13 29.072 13 29.158 13 29.244C13.344 28.556 13.774 27.954 14.29 27.438Z" fill="#1E429A"/>
<path d="M32.092 40.2521C32.178 40.2521 32.264 40.1661 32.35 40.1661C32.436 40.1661 32.522 40.0801 32.522 40.0801C31.834 40.0801 31.06 39.9941 30.286 39.8221C28.394 39.3061 26.76 38.0161 25.814 36.3821C25.556 35.9521 25.384 35.6081 25.298 35.2641C24.868 34.1461 24.782 33.4581 24.782 32.7701C24.782 32.0821 24.696 31.3941 24.094 30.1041L24.008 30.0181C23.234 28.6421 21.858 27.7821 20.396 27.4381C19.192 27.0941 17.902 27.2661 16.698 27.9541C15.494 28.6421 14.548 29.8461 14.204 31.2221C13.86 32.5981 14.032 34.4041 14.72 35.6081C14.72 35.6081 14.72 35.6081 14.72 35.6941C18.246 41.8001 25.986 43.6061 32.092 40.2521Z" fill="#EC1C25"/>
<path d="M43.788 29.6742C43.874 28.9862 44.218 28.3842 44.906 27.9542C45.594 27.5242 46.368 27.2662 47.142 27.1802H47.228H47.314H47.4H47.486C48.174 27.1802 48.776 27.4382 49.378 27.7822C49.98 28.1262 50.41 28.6422 50.582 29.4162L51.958 33.9742L53.42 28.9862C53.592 28.4702 54.022 28.0402 54.624 27.6962C55.312 27.3522 56 27.1802 56.688 27.1802C56.688 27.1802 56.688 27.1802 56.774 27.1802C56.774 27.1802 56.774 27.1802 56.86 27.1802C56.946 27.1802 56.946 27.1802 57.032 27.1802C57.118 27.1802 57.118 27.1802 57.204 27.1802C57.978 27.2662 58.666 27.5242 59.268 27.8682C59.87 28.2982 60.3 28.9862 60.386 29.9322L61.504 41.5422H56.43L55.914 33.2862L53.85 40.6822C53.764 41.0262 53.592 41.2842 53.334 41.4562C53.076 41.6282 52.732 41.8002 52.388 41.8002C52.302 41.8002 52.216 41.8002 52.216 41.8002C52.13 41.8002 52.13 41.8002 52.044 41.8002H51.958H51.872C51.614 41.8002 51.27 41.7142 51.012 41.5422C50.754 41.3702 50.582 41.1122 50.496 40.8542L48.26 33.2862L47.658 41.6282H42.67L43.788 29.6742Z" fill="#1E429A"/>
<path d="M80.2521 32.1681C80.2521 31.9101 80.2521 31.6521 80.3381 31.3081C80.4241 30.9641 80.5101 30.7061 80.6821 30.3621C81.0261 29.5881 81.6281 28.9001 82.4881 28.2981C83.3481 27.6961 84.4661 27.3521 85.8421 27.2661H86.2721C87.8201 27.2661 89.2821 27.6961 90.5721 28.5561C91.8621 29.4161 92.4641 30.6201 92.5501 32.2541V32.6841C92.5501 32.7701 92.5501 32.7701 92.5501 32.8561C92.5501 32.9421 92.5501 32.9421 92.5501 33.0281C92.4641 34.2321 91.9481 35.2641 91.0021 36.2961C90.0561 37.2421 88.5081 37.7581 86.3581 37.7581H86.2721H86.1861H86.1001H86.0141V33.7161C86.0141 33.7161 86.0141 33.7161 86.1001 33.7161C86.1001 33.7161 86.1001 33.7161 86.1861 33.7161H86.2721C86.7021 33.7161 87.0461 33.6301 87.3041 33.3721C87.5621 33.1141 87.6481 32.9421 87.7341 32.6841C87.7341 32.6841 87.7341 32.6841 87.7341 32.5981C87.7341 32.5121 87.7341 32.5981 87.7341 32.5121C87.7341 32.4261 87.7341 32.5121 87.7341 32.4261C87.7341 32.3401 87.7341 32.4261 87.7341 32.3401C87.7341 32.0821 87.5621 31.9101 87.3901 31.7381C87.2181 31.5661 86.9601 31.4801 86.6161 31.4801C86.1001 31.4801 85.7561 31.6521 85.5841 31.9101C85.4121 32.1681 85.3261 32.6841 85.3261 33.2861V41.8861H80.3381L80.2521 32.1681Z" fill="#1E429A"/>
<path d="M77.5861 41.5422H72.4261V35.7802L69.6741 40.2522C69.4161 40.6822 69.0721 41.0262 68.5561 41.2842C68.1261 41.5422 67.6101 41.7142 67.1801 41.8002C67.0941 41.8002 67.0081 41.8002 66.9221 41.8002C66.8361 41.8002 66.7501 41.8002 66.6641 41.8002C65.9761 41.8002 65.3741 41.6282 64.7721 41.1982C64.1701 40.7682 63.9121 40.1662 63.9121 39.2202V27.1802H69.1581V33.4582L71.7381 28.8142C71.9961 28.2982 72.3401 27.9542 72.7701 27.6962C73.2001 27.4382 73.6301 27.2662 74.1461 27.1802C74.2321 27.1802 74.4041 27.0942 74.4901 27.0942C74.5761 27.0942 74.7481 27.0942 74.8341 27.0942C75.6081 27.0942 76.2101 27.2662 76.8121 27.6962C77.4141 28.1262 77.6721 28.7282 77.6721 29.4162C77.5861 29.5022 77.5861 41.5422 77.5861 41.5422Z" fill="#1E429A"/>
<path d="M44.992 20.6441C44.476 20.6441 44.132 20.4721 43.788 20.1281C43.53 19.7841 43.358 19.4401 43.358 18.9241C43.358 18.4081 43.53 18.0641 43.788 17.7201C44.046 17.3761 44.476 17.2041 44.992 17.2041C45.164 17.2041 45.336 17.2041 45.508 17.2901C45.68 17.3761 45.852 17.4621 45.938 17.5481C45.938 17.5481 45.938 17.6341 45.938 17.7201C45.938 17.8061 45.938 17.8921 45.852 17.9781C45.766 18.0641 45.68 18.0641 45.594 18.0641C45.508 18.0641 45.422 18.0641 45.336 17.9781C45.25 17.8921 45.078 17.8921 44.992 17.8921C44.734 17.8921 44.476 17.9781 44.39 18.2361C44.218 18.4081 44.218 18.6661 44.218 18.9241C44.218 19.1821 44.304 19.4401 44.39 19.6121C44.562 19.7841 44.734 19.8701 44.992 19.8701C45.078 19.8701 45.25 19.8701 45.422 19.7841C45.594 19.6981 45.68 19.6981 45.68 19.6981C45.766 19.6981 45.852 19.6981 45.852 19.7841C45.938 19.8701 45.938 19.9561 45.938 20.0421C45.938 20.1281 45.938 20.2141 45.852 20.2141C45.766 20.4721 45.422 20.6441 44.992 20.6441Z" fill="#1E429A"/>
<path d="M47.658 17.2041C47.916 17.2041 48.088 17.3761 48.174 17.6341L49.034 20.0421C49.034 20.1281 49.12 20.2141 49.12 20.3001C49.12 20.3861 49.12 20.4721 49.034 20.5581C48.948 20.6441 48.862 20.6441 48.776 20.6441C48.604 20.6441 48.432 20.5581 48.346 20.3001L48.26 19.9561H47.056L46.884 20.2141C46.798 20.4721 46.712 20.5581 46.54 20.5581C46.454 20.5581 46.368 20.5581 46.282 20.4721C46.196 20.3861 46.196 20.3001 46.196 20.2141C46.196 20.1281 46.196 20.0421 46.196 19.9561L47.056 17.6341C47.228 17.3761 47.4 17.2041 47.658 17.2041ZM47.658 18.0641L47.314 19.1821H48.088L47.658 18.0641Z" fill="#1E429A"/>
<path d="M51.184 19.526L51.614 17.72C51.614 17.548 51.7 17.462 51.786 17.376C51.872 17.29 51.958 17.29 52.13 17.29C52.302 17.29 52.388 17.376 52.56 17.462C52.646 17.548 52.732 17.72 52.732 17.806L53.076 20.042C53.076 20.128 53.076 20.214 53.076 20.3C53.076 20.558 52.99 20.644 52.732 20.644C52.56 20.644 52.474 20.558 52.474 20.472C52.474 20.386 52.388 20.3 52.388 20.128L52.13 18.322L51.7 19.956C51.614 20.128 51.614 20.214 51.528 20.3C51.442 20.386 51.356 20.472 51.184 20.472C51.012 20.472 50.926 20.386 50.84 20.3C50.754 20.214 50.754 20.128 50.668 19.956L50.238 18.322L49.98 20.128C49.98 20.3 49.894 20.386 49.894 20.472C49.808 20.558 49.722 20.644 49.636 20.644C49.378 20.644 49.292 20.558 49.292 20.3C49.292 20.3 49.292 20.214 49.292 20.042L49.636 17.806C49.636 17.634 49.722 17.548 49.808 17.462C49.894 17.376 50.066 17.29 50.152 17.29C50.324 17.29 50.41 17.29 50.496 17.376C50.582 17.462 50.668 17.548 50.668 17.72L51.184 19.526Z" fill="#1E429A"/>
<path d="M53.42 18.9241C53.42 18.4081 53.592 18.0641 53.85 17.7201C54.108 17.3761 54.538 17.2041 54.968 17.2041C55.484 17.2041 55.828 17.3761 56.172 17.7201C56.43 18.0641 56.602 18.4081 56.602 18.9241C56.602 19.4401 56.43 19.7841 56.172 20.1281C55.914 20.4721 55.484 20.6441 54.968 20.6441C54.452 20.6441 54.108 20.4721 53.85 20.1281C53.506 19.7841 53.42 19.3541 53.42 18.9241ZM54.194 18.9241C54.194 19.1821 54.28 19.4401 54.366 19.6121C54.538 19.7841 54.71 19.9561 54.968 19.9561C55.226 19.9561 55.398 19.8701 55.57 19.6121C55.656 19.4401 55.742 19.1821 55.742 18.9241C55.742 18.6661 55.656 18.4081 55.57 18.2361C55.398 18.0641 55.226 17.8921 54.968 17.8921C54.71 17.8921 54.538 17.9781 54.366 18.2361C54.28 18.4081 54.194 18.6661 54.194 18.9241Z" fill="#1E429A"/>
<path d="M57.462 20.558C57.204 20.558 57.118 20.386 57.118 20.042V17.806C57.118 17.634 57.118 17.462 57.204 17.376C57.29 17.29 57.376 17.29 57.634 17.29H58.322C58.666 17.29 59.01 17.376 59.182 17.548C59.44 17.72 59.526 18.064 59.526 18.408C59.526 18.752 59.44 19.01 59.182 19.268C59.01 19.44 58.666 19.526 58.322 19.526H57.806V20.128C57.806 20.386 57.72 20.558 57.462 20.558ZM57.806 18.838H58.15C58.494 18.838 58.666 18.666 58.666 18.408C58.666 18.15 58.494 17.978 58.15 17.978H57.806V18.838Z" fill="#1E429A"/>
<path d="M61.3321 17.29C61.6761 17.29 61.8481 17.376 61.8481 17.634C61.8481 17.892 61.6761 17.978 61.3321 17.978H60.7301V18.58H61.2461C61.5901 18.58 61.7621 18.666 61.7621 18.924C61.7621 19.182 61.5901 19.268 61.2461 19.268H60.7301V19.87H61.3321C61.6761 19.87 61.8481 19.956 61.8481 20.214C61.8481 20.472 61.6761 20.558 61.3321 20.558H60.4721C60.3001 20.558 60.1281 20.558 60.0421 20.472C59.9561 20.386 59.9561 20.3 59.9561 20.128V17.806C59.9561 17.634 59.9561 17.462 60.0421 17.376C60.1281 17.29 60.2141 17.29 60.4721 17.29H61.3321Z" fill="#1E429A"/>
<path d="M62.364 20.042V17.806C62.364 17.634 62.364 17.462 62.45 17.376C62.536 17.29 62.622 17.29 62.88 17.29H63.74C64.084 17.29 64.256 17.376 64.256 17.634C64.256 17.892 64.084 17.978 63.74 17.978H63.138V20.042C63.138 20.386 63.052 20.558 62.794 20.558C62.536 20.558 62.364 20.386 62.364 20.042Z" fill="#1E429A"/>
<path d="M65.46 21.1601C65.202 21.1601 65.116 21.0741 65.116 20.8161C65.116 20.7301 65.116 20.6441 65.116 20.5581L65.288 20.0421L64.342 17.7201C64.342 17.6341 64.342 17.5481 64.342 17.5481C64.342 17.4621 64.342 17.3761 64.428 17.2901C64.514 17.2041 64.6 17.2041 64.686 17.2041C64.858 17.2041 64.944 17.2901 65.03 17.5481L65.632 19.1821L66.234 17.6341C66.32 17.5481 66.32 17.4621 66.32 17.3761C66.406 17.2901 66.492 17.2901 66.578 17.2901C66.836 17.2901 66.922 17.3761 66.922 17.6341C66.922 17.7201 66.922 17.8061 66.836 17.8921L65.632 20.9881C65.804 20.9881 65.718 21.0741 65.718 21.0741C65.632 21.1601 65.546 21.1601 65.46 21.1601Z" fill="#1E429A"/>
<path d="M69.502 17.8922H68.728C68.642 17.8922 68.556 17.9782 68.556 18.0642V19.8702C68.556 20.3002 68.298 20.5582 67.868 20.5582C67.438 20.5582 67.266 20.4722 67.266 20.2142C67.266 20.0422 67.266 19.9562 67.352 19.9562C67.438 19.9562 67.438 19.9562 67.61 19.8702C67.696 19.8702 67.782 19.8702 67.782 19.7842C67.782 19.6982 67.868 19.6982 67.868 19.6122V17.9782C67.868 17.6342 67.954 17.4622 68.04 17.2902C68.126 17.1182 68.384 17.1182 68.728 17.1182H69.932C70.19 17.1182 70.276 17.2902 70.276 17.6342V19.9562C70.276 20.3002 70.19 20.4722 69.932 20.4722C69.76 20.4722 69.674 20.3862 69.588 20.3002C69.588 20.2142 69.502 20.1282 69.502 19.9562C69.502 20.0422 69.502 17.8922 69.502 17.8922Z" fill="#1E429A"/>
<path d="M73.028 18.58L71.6521 20.386C71.5661 20.558 71.3941 20.644 71.2221 20.644C70.9641 20.644 70.8781 20.472 70.8781 20.214V17.806C70.8781 17.462 70.9641 17.29 71.2221 17.29C71.4801 17.29 71.5661 17.462 71.5661 17.806V19.354L72.942 17.548C73.028 17.376 73.2 17.29 73.372 17.29C73.63 17.29 73.716 17.462 73.716 17.806V20.128C73.716 20.472 73.63 20.644 73.372 20.644C73.114 20.644 73.028 20.472 73.028 20.128V18.58Z" fill="#1E429A"/>
<path d="M74.834 20.558C74.576 20.558 74.49 20.386 74.49 20.042V17.806C74.49 17.634 74.49 17.462 74.576 17.376C74.662 17.29 74.748 17.29 75.006 17.29H75.694C76.038 17.29 76.382 17.376 76.554 17.548C76.812 17.72 76.898 18.064 76.898 18.408C76.898 18.752 76.812 19.01 76.554 19.268C76.382 19.44 76.038 19.526 75.694 19.526H75.178V20.128C75.178 20.386 75.092 20.558 74.834 20.558ZM75.178 18.838H75.522C75.866 18.838 76.038 18.666 76.038 18.408C76.038 18.15 75.866 17.978 75.522 17.978H75.178V18.838Z" fill="#1E429A"/>
<path d="M78.102 21.1601C77.844 21.1601 77.758 21.0741 77.758 20.8161C77.758 20.7301 77.758 20.6441 77.758 20.5581L77.93 20.0421L76.984 17.7201C76.984 17.6341 76.984 17.5481 76.984 17.5481C76.984 17.4621 76.984 17.3761 77.07 17.2901C77.156 17.2041 77.242 17.2041 77.328 17.2041C77.5 17.2041 77.586 17.2901 77.672 17.5481L78.36 19.1821L78.962 17.6341C79.048 17.5481 79.048 17.4621 79.048 17.3761C79.134 17.2901 79.22 17.2901 79.306 17.2901C79.564 17.2901 79.65 17.3761 79.65 17.6341C79.65 17.7201 79.65 17.8061 79.564 17.8921L78.36 20.9881C78.274 21.0741 78.274 21.1601 78.188 21.2461C78.274 21.1601 78.188 21.1601 78.102 21.1601Z" fill="#1E429A"/>
<path d="M81.4561 17.29C81.8001 17.29 81.9721 17.376 81.9721 17.634C81.9721 17.892 81.8001 17.978 81.4561 17.978H80.8541V18.58H81.3701C81.7141 18.58 81.8861 18.666 81.8861 18.924C81.8861 19.182 81.7141 19.268 81.3701 19.268H80.8541V19.87H81.4561C81.8001 19.87 81.9721 19.956 81.9721 20.214C81.9721 20.472 81.8001 20.558 81.4561 20.558H80.5961C80.4241 20.558 80.2521 20.558 80.1661 20.472C80.0801 20.386 80.0801 20.3 80.0801 20.128V17.806C80.0801 17.634 80.0801 17.462 80.1661 17.376C80.2521 17.29 80.3381 17.29 80.5961 17.29H81.4561Z" fill="#1E429A"/>
<path d="M84.208 19.5261L84.638 17.6341C84.638 17.4621 84.724 17.3761 84.81 17.2901C84.896 17.2041 84.982 17.2041 85.154 17.2041C85.326 17.2041 85.412 17.2901 85.498 17.3761C85.584 17.4621 85.67 17.6341 85.67 17.7201L86.014 19.9561C86.014 20.0421 86.014 20.1281 86.014 20.2141C86.014 20.4721 85.928 20.5581 85.67 20.5581C85.498 20.5581 85.412 20.4721 85.412 20.3861C85.412 20.3001 85.326 20.2141 85.326 20.0421L85.068 18.2361L84.638 19.8701C84.552 20.0421 84.552 20.1281 84.466 20.2141C84.38 20.3001 84.294 20.3861 84.122 20.3861C83.95 20.3861 83.864 20.3001 83.778 20.2141C83.692 20.1281 83.692 20.0421 83.606 19.8701L83.176 18.2361L82.918 20.0421C82.918 20.2141 82.832 20.3001 82.832 20.3861C82.746 20.4721 82.66 20.5581 82.574 20.5581C82.316 20.5581 82.23 20.4721 82.23 20.2141C82.23 20.2141 82.23 20.1281 82.23 19.9561L82.574 17.7201C82.574 17.5481 82.66 17.4621 82.746 17.3761C82.832 17.2901 83.004 17.2041 83.09 17.2041C83.262 17.2041 83.348 17.2041 83.434 17.2901C83.52 17.3761 83.606 17.4621 83.606 17.6341L84.208 19.5261Z" fill="#1E429A"/>
<path d="M87.734 17.2041C87.992 17.2041 88.164 17.3761 88.25 17.6341L89.11 20.0421C89.11 20.1281 89.196 20.2141 89.196 20.3001C89.196 20.3861 89.196 20.4721 89.11 20.5581C89.024 20.6441 88.938 20.6441 88.852 20.6441C88.68 20.6441 88.508 20.5581 88.422 20.3001L88.336 19.9561H87.132L87.046 20.2141C86.96 20.4721 86.874 20.5581 86.702 20.5581C86.616 20.5581 86.53 20.5581 86.444 20.4721C86.358 20.3861 86.358 20.3001 86.358 20.2141C86.358 20.1281 86.358 20.0421 86.358 19.9561L87.218 17.6341C87.304 17.3761 87.476 17.2041 87.734 17.2041ZM87.734 18.0641L87.39 19.1821H88.078L87.734 18.0641Z" fill="#1E429A"/>
<path d="M91.948 17.806V20.042C91.948 20.386 91.862 20.558 91.604 20.558C91.346 20.558 91.26 20.386 91.26 20.042V19.268L90.4 20.386C90.228 20.558 90.142 20.644 89.97 20.644C89.884 20.644 89.798 20.644 89.712 20.558C89.626 20.472 89.626 20.386 89.626 20.3C89.626 20.214 89.712 20.042 89.884 19.87L90.486 19.182C90.228 19.182 90.056 19.01 89.884 18.924C89.712 18.838 89.712 18.58 89.712 18.322C89.712 17.978 89.798 17.806 90.056 17.548C90.314 17.376 90.572 17.29 91.002 17.29H91.604C91.776 17.29 91.948 17.29 92.034 17.376C91.862 17.462 91.948 17.548 91.948 17.806ZM91.174 18.752V17.978H90.83C90.486 17.978 90.4 18.15 90.4 18.408C90.4 18.666 90.572 18.838 90.916 18.838H91.174V18.752Z" fill="#1E429A"/>
<path d="M43.186 23.5681C43.186 23.0521 43.358 22.7081 43.616 22.3641C43.874 22.0201 44.304 21.8481 44.734 21.8481C45.25 21.8481 45.594 22.0201 45.938 22.3641C46.196 22.7081 46.368 23.0521 46.368 23.5681C46.368 24.0841 46.196 24.4281 45.938 24.7721C45.68 25.1161 45.25 25.2881 44.734 25.2881C44.218 25.2881 43.874 25.1161 43.616 24.7721C43.358 24.4281 43.186 24.0841 43.186 23.5681ZM43.96 23.5681C43.96 23.8261 44.046 24.0841 44.132 24.2561C44.304 24.4281 44.476 24.6001 44.734 24.6001C44.992 24.6001 45.164 24.5141 45.336 24.2561C45.422 24.0841 45.508 23.8261 45.508 23.5681C45.508 23.3101 45.422 23.0521 45.336 22.8801C45.164 22.7081 44.992 22.5361 44.734 22.5361C44.476 22.5361 44.304 22.6221 44.132 22.8801C44.046 23.0521 43.96 23.3101 43.96 23.5681Z" fill="#1E429A"/>
<path d="M48.776 25.2881C48.518 25.2881 48.432 25.1161 48.432 24.7721V22.5361C48.432 22.3641 48.432 22.1921 48.518 22.1061C48.518 21.9341 48.69 21.9341 48.862 21.9341H49.55C49.894 21.9341 50.238 22.0201 50.41 22.1921C50.668 22.3641 50.754 22.7081 50.754 23.0521C50.754 23.3961 50.668 23.6541 50.41 23.9121C50.238 24.0841 49.894 24.1701 49.55 24.1701H49.034V24.7721C49.12 25.1161 48.948 25.2881 48.776 25.2881ZM49.12 23.4821H49.464C49.808 23.4821 49.98 23.3101 49.98 23.0521C49.98 22.7941 49.808 22.6221 49.464 22.6221H49.12V23.4821Z" fill="#1E429A"/>
<path d="M52.7321 24.6861V22.4501C52.7321 22.2781 52.7321 22.1061 52.8181 22.0201C52.9041 21.9341 52.9901 21.9341 53.2481 21.9341H54.1081C54.4521 21.9341 54.6241 22.0201 54.6241 22.2781C54.6241 22.5361 54.4521 22.6221 54.1081 22.6221H53.5061V24.6861C53.5061 25.0301 53.4201 25.2021 53.1621 25.2021C52.9041 25.2881 52.7321 25.1161 52.7321 24.6861Z" fill="#1E429A"/>
<path d="M57.376 21.8481C57.634 21.8481 57.806 22.0201 57.892 22.2781L58.752 24.6001C58.752 24.6861 58.838 24.7721 58.838 24.8581C58.838 24.9441 58.838 25.0301 58.752 25.1161C58.666 25.2021 58.58 25.2021 58.494 25.2021C58.322 25.2021 58.15 25.1161 58.064 24.8581L57.892 24.5141H56.688L56.516 24.9441C56.43 25.2021 56.344 25.2881 56.172 25.2881C56.086 25.2881 56 25.2881 55.914 25.2021C55.828 25.1161 55.828 25.0301 55.828 24.9441C55.828 24.8581 55.828 24.7721 55.828 24.6861L56.688 22.3641C56.946 22.0201 57.118 21.8481 57.376 21.8481ZM57.376 22.7081L57.032 23.8261H57.806L57.376 22.7081Z" fill="#1E429A"/>
<path d="M61.418 23.9121V24.7721C61.418 25.1161 61.332 25.2881 61.074 25.2881C60.816 25.2881 60.73 25.1161 60.73 24.7721V22.4501C60.73 22.1061 60.816 21.9341 61.074 21.9341C61.332 21.9341 61.418 22.1061 61.418 22.4501V23.2241H62.794V22.4501C62.794 22.1061 62.88 21.9341 63.138 21.9341C63.396 21.9341 63.482 22.1061 63.482 22.4501V24.7721C63.482 25.1161 63.396 25.2881 63.138 25.2881C62.88 25.2881 62.794 25.1161 62.794 24.7721V23.9121H61.418Z" fill="#1E429A"/>
<path d="M67.868 23.2241L66.492 25.0301C66.406 25.2021 66.234 25.2881 66.062 25.2881C65.804 25.2881 65.718 25.1161 65.718 24.8581V22.4501C65.718 22.1061 65.804 21.9341 66.062 21.9341C66.32 21.9341 66.406 22.1061 66.406 22.4501V23.9981L67.782 22.1921C67.868 22.0201 68.04 21.9341 68.212 21.9341C68.47 21.9341 68.556 22.1061 68.556 22.4501V24.7721C68.556 25.1161 68.47 25.2881 68.212 25.2881C67.954 25.2881 67.868 25.1161 67.868 24.7721V23.2241Z" fill="#1E429A"/>
<path d="M72.512 23.482C72.856 23.654 73.028 23.912 73.028 24.256C73.028 24.944 72.598 25.288 71.738 25.288C71.48 25.288 71.222 25.288 71.05 25.202C70.792 25.116 70.62 24.944 70.62 24.772C70.62 24.6 70.706 24.514 70.964 24.514C71.05 24.514 71.136 24.514 71.222 24.6C71.394 24.686 71.394 24.686 71.48 24.686C71.566 24.686 71.652 24.686 71.824 24.686C72.168 24.686 72.34 24.6 72.34 24.342C72.34 24.256 72.34 24.17 72.254 24.084C72.168 23.998 72.082 23.998 71.996 23.998C71.996 23.998 71.91 23.998 71.738 23.998C71.394 23.998 71.308 23.912 71.308 23.654C71.308 23.568 71.394 23.482 71.48 23.396C71.566 23.31 71.652 23.31 71.738 23.31C71.738 23.31 71.824 23.31 71.996 23.31C72.082 23.31 72.168 23.31 72.254 23.224C72.34 23.138 72.426 23.052 72.426 22.966C72.426 22.708 72.254 22.622 71.996 22.622C71.91 22.622 71.824 22.622 71.652 22.708C71.48 22.708 71.394 22.794 71.308 22.794C71.136 22.794 70.964 22.708 70.964 22.536C70.964 22.45 70.964 22.45 71.05 22.364C71.222 22.192 71.566 22.106 71.996 22.106C72.77 22.106 73.2 22.45 73.2 23.052C72.942 23.138 72.77 23.31 72.512 23.482Z" fill="#1E429A"/>
<path d="M76.21 21.8481C76.468 21.8481 76.64 22.0201 76.726 22.2781L77.586 24.6001C77.586 24.6861 77.672 24.7721 77.672 24.8581C77.672 24.9441 77.672 25.0301 77.586 25.1161C77.5 25.2021 77.414 25.2021 77.328 25.2021C77.156 25.2021 76.984 25.1161 76.898 24.8581L76.726 24.5141H75.522L75.35 24.9441C75.264 25.2021 75.178 25.2881 75.006 25.2881C74.92 25.2881 74.834 25.2881 74.748 25.2021C74.662 25.1161 74.662 25.0301 74.662 24.9441C74.662 24.8581 74.662 24.7721 74.662 24.6861L75.522 22.3641C75.78 22.0201 75.952 21.8481 76.21 21.8481ZM76.21 22.7081L75.866 23.8261H76.64L76.21 22.7081Z" fill="#1E429A"/>
<path d="M80.338 24.6001H81.628V22.4501C81.628 22.1061 81.714 21.9341 81.972 21.9341C82.23 21.9341 82.316 22.1061 82.316 22.4501V24.6001C82.574 24.6001 82.66 24.6861 82.66 24.9441V25.5461C82.66 25.8041 82.574 25.8901 82.316 25.8901C82.23 25.8901 82.144 25.8901 82.058 25.8041C81.972 25.7181 82.058 25.6321 82.058 25.5461V25.2881H80.08C79.736 25.2881 79.564 25.1161 79.564 24.7721V22.5361C79.564 22.1921 79.65 22.0201 79.908 22.0201C80.166 22.0201 80.252 22.1921 80.252 22.5361L80.338 24.6001Z" fill="#1E429A"/>
<path d="M86.7881 23.2241L85.4121 25.0301C85.3261 25.2021 85.1541 25.2881 84.9821 25.2881C84.7241 25.2881 84.6381 25.1161 84.6381 24.8581V22.4501C84.6381 22.1061 84.7241 21.9341 84.9821 21.9341C85.2401 21.9341 85.3261 22.1061 85.3261 22.4501V23.9981L86.7021 22.1921C86.7881 22.0201 86.9601 21.9341 87.1321 21.9341C87.3901 21.9341 87.4761 22.1061 87.4761 22.4501V24.7721C87.4761 25.1161 87.3901 25.2881 87.1321 25.2881C86.8741 25.2881 86.7881 25.1161 86.7881 24.7721V23.2241Z" fill="#1E429A"/>
<path d="M92.1201 22.4501V24.6861C92.1201 25.0301 92.0341 25.2021 91.7761 25.2021C91.5181 25.2021 91.4321 25.0301 91.4321 24.6861V23.9121L90.5721 25.0301C90.4001 25.2021 90.3141 25.2881 90.1421 25.2881C90.0561 25.2881 89.9701 25.2881 89.8841 25.2021C89.7981 25.1161 89.7981 25.0301 89.7981 24.9441C89.7981 24.8581 89.8841 24.6861 90.0561 24.5141L90.6581 23.8261C90.4001 23.8261 90.2281 23.6541 90.0561 23.5681C89.8841 23.3961 89.8841 23.2241 89.8841 22.9661C89.8841 22.6221 89.9701 22.4501 90.2281 22.1921C90.4001 22.0201 90.7441 21.9341 91.1741 21.9341H91.7761C91.9481 21.9341 92.1201 21.9341 92.2061 22.0201C92.0341 22.1061 92.1201 22.2781 92.1201 22.4501ZM91.3461 23.3961V22.6221H91.0021C90.6581 22.6221 90.5721 22.7941 90.5721 23.0521C90.5721 23.3101 90.7441 23.4821 91.0881 23.4821L91.3461 23.3961Z" fill="#1E429A"/>
</svg>
