<?xml version="1.0" standalone="no"?>
<!DOCTYPE svg PUBLIC "-//W3C//DTD SVG 20010904//EN"
 "http://www.w3.org/TR/2001/REC-SVG-20010904/DTD/svg10.dtd">
<svg version="1.0" xmlns="http://www.w3.org/2000/svg"
 width="260.000000pt" height="260.000000pt" viewBox="0 0 260.000000 260.000000"
 preserveAspectRatio="xMidYMid meet">
<metadata>
Created by potrace 1.11, written by Peter Selinger 2001-2013
</metadata>
<g transform="translate(0.000000,260.000000) scale(0.100000,-0.100000)"
fill="#000000" stroke="none">
<path d="M1149 2184 c-207 -37 -399 -145 -530 -299 -24 -28 -26 -34 -9 -20 14
11 27 23 30 27 17 22 182 110 248 132 111 37 173 48 298 51 295 9 579 -102
782 -306 40 -39 72 -76 72 -81 0 -5 -9 -12 -20 -16 -20 -8 -20 -8 5 -37 57
-65 114 -143 140 -192 15 -29 28 -53 30 -53 8 0 -20 201 -41 293 -15 66 -16
68 -35 51 -11 -9 -21 -15 -22 -13 -2 2 -24 36 -49 74 -127 193 -322 327 -557
381 -89 21 -249 25 -342 8z"/>
<path d="M1445 1690 c-17 -6 -74 -65 -199 -205 l-27 -30 6 55 c3 30 8 62 10
70 2 8 6 36 10 63 l6 47 -59 0 -59 0 -6 -47 c-6 -40 -27 -179 -42 -273 -17
-105 -17 -120 -4 -121 70 -5 83 -1 118 37 68 74 156 176 164 190 4 8 13 14 18
14 6 0 8 -3 6 -7 -3 -5 -8 -30 -11 -58 -4 -27 -11 -76 -17 -109 -6 -32 -9 -59
-7 -61 5 -5 40 -7 79 -6 l35 1 28 188 c15 103 30 202 33 220 4 26 2 32 -13 33
-11 0 -26 2 -34 3 -8 2 -24 0 -35 -4z"/>
<path d="M1600 1680 c-4 -8 -11 -40 -15 -70 -3 -30 -12 -93 -20 -140 -8 -47
-17 -107 -20 -135 -4 -27 -9 -58 -11 -67 -5 -16 2 -18 54 -18 l60 0 11 78 c6
42 14 91 17 107 11 65 13 80 19 120 l7 41 84 0 84 -1 6 43 c4 24 3 46 -1 50
-3 4 -65 7 -137 7 -106 0 -131 -3 -138 -15z"/>
<path d="M547 1481 c-36 -114 -69 -215 -72 -223 -5 -12 5 -15 54 -15 56 0 60
2 66 26 3 14 20 71 37 126 l32 100 31 -125 c29 -115 33 -125 54 -125 20 0 35
20 91 118 37 65 70 120 72 123 3 3 4 -49 3 -116 -2 -66 0 -121 3 -121 4 -1 31
-2 60 -3 l52 -2 0 223 0 223 -59 0 -59 0 -56 -102 c-31 -57 -60 -109 -65 -117
-6 -9 -17 22 -36 103 l-27 116 -57 0 -57 0 -67 -209z"/>
<path d="M406 1174 c16 -141 28 -218 41 -272 15 -60 16 -62 34 -46 11 10 21
15 22 13 2 -2 24 -35 50 -74 109 -165 260 -283 445 -349 72 -25 87 -29 187
-46 53 -9 202 -6 270 5 69 11 215 64 283 102 66 37 160 107 196 147 83 91 83
90 13 37 -373 -282 -964 -223 -1315 130 -39 40 -72 77 -72 81 0 5 9 12 20 16
19 7 17 13 -33 69 -29 34 -68 89 -87 123 -54 94 -58 98 -54 64z"/>
<path d="M836 1142 c-4 -7 -23 -121 -33 -198 -5 -40 -4 -41 26 -42 17 0 32 4
32 9 1 5 3 14 4 19 1 6 3 21 4 35 2 36 16 31 42 -15 13 -22 25 -41 28 -41 3
-1 37 -2 75 -3 45 -1 70 2 73 10 5 14 11 43 12 60 1 6 11 10 24 9 34 -3 76 15
92 38 29 41 12 114 -28 118 -51 5 -119 4 -123 -2 -6 -10 -21 -90 -29 -159 -4
-30 -9 -59 -12 -63 -3 -5 -24 19 -46 53 l-40 61 51 52 c29 29 52 55 52 58 0 4
-16 5 -36 3 -28 -2 -44 -12 -72 -43 -19 -23 -39 -41 -43 -41 -4 0 -3 16 1 35
4 20 4 38 -1 41 -15 9 -48 13 -53 6z m324 -78 c0 -13 -3 -24 -7 -25 -5 0 -16
-2 -25 -4 -14 -2 -18 4 -18 25 0 29 14 41 38 32 6 -2 12 -15 12 -28z"/>
<path d="M1266 1141 c-3 -5 -12 -57 -21 -121 -2 -14 -6 -44 -10 -66 -8 -52 -2
-54 123 -45 6 1 12 12 12 26 0 22 -4 25 -35 25 -28 0 -35 4 -35 19 0 16 8 20
38 23 32 3 37 6 40 32 2 19 0 26 -8 21 -6 -4 -22 -4 -35 -1 -36 9 -21 36 20
36 25 0 35 5 40 21 4 11 4 24 0 27 -9 9 -124 12 -129 3z"/>
<path d="M1459 1123 c-5 -14 -9 -36 -9 -51 -1 -37 -36 -112 -53 -112 -13 0
-39 -95 -29 -105 3 -3 15 -5 28 -5 17 0 24 7 29 30 6 29 7 29 80 29 l73 0 -5
-30 c-4 -26 -1 -29 21 -29 30 0 33 4 41 63 5 37 4 47 -8 47 -12 0 -12 12 -1
88 8 48 14 90 14 94 0 4 -39 6 -86 6 -81 -1 -86 -3 -95 -25z m107 -52 c-3 -14
-8 -45 -11 -67 -6 -39 -9 -42 -41 -46 -19 -2 -36 -3 -38 -1 -2 2 5 20 15 41
11 20 19 44 19 53 0 31 10 44 36 45 22 2 25 -1 20 -25z"/>
<path d="M1689 1138 c0 -7 -2 -22 -4 -33 -2 -11 -10 -59 -18 -107 l-14 -88 26
0 c19 -1 42 16 89 67 35 37 61 63 58 56 -3 -6 -9 -36 -12 -67 l-6 -56 30 0
c29 0 31 3 38 48 3 26 8 56 10 67 2 11 7 44 10 73 7 51 6 52 -19 52 -19 0 -40
-16 -79 -60 -29 -33 -55 -60 -59 -60 -4 0 -3 17 2 38 16 69 12 82 -21 82 -17
0 -30 -5 -31 -12z"/>
<path d="M1912 1126 c-2 -25 21 -41 40 -30 7 5 9 -2 5 -17 -3 -13 -8 -46 -12
-74 -3 -27 -8 -60 -11 -72 -4 -20 0 -23 31 -23 29 0 35 4 36 23 1 82 21 162
40 163 8 1 20 2 27 3 6 0 12 12 12 26 0 25 -1 25 -83 25 -80 0 -83 -1 -85 -24z"/>
</g>
</svg>
