<svg width="54" height="54" viewBox="0 0 54 54" fill="none" xmlns="http://www.w3.org/2000/svg">
<rect width="54" height="54" rx="15" fill="#EFEFEF"/>
<path d="M10.0811 35V19.3594H15.5596C17.4574 19.3594 18.8968 19.7246 19.8779 20.4551C20.859 21.1784 21.3496 22.2419 21.3496 23.6455C21.3496 24.4118 21.1527 25.0885 20.7588 25.6758C20.3649 26.2559 19.8171 26.682 19.1152 26.9541C19.9173 27.1546 20.5475 27.5592 21.0059 28.168C21.4714 28.7767 21.7041 29.5215 21.7041 30.4023C21.7041 31.9062 21.2243 33.0449 20.2646 33.8184C19.305 34.5918 17.9372 34.9857 16.1611 35H10.0811ZM13.3037 28.1895V32.4111H16.0645C16.8236 32.4111 17.4144 32.2321 17.8369 31.874C18.2666 31.5088 18.4814 31.0075 18.4814 30.3701C18.4814 28.9378 17.7402 28.2109 16.2578 28.1895H13.3037ZM13.3037 25.9121H15.6885C17.3141 25.8835 18.127 25.2354 18.127 23.9678C18.127 23.2588 17.9193 22.7503 17.5039 22.4424C17.0957 22.1273 16.4476 21.9697 15.5596 21.9697H13.3037V25.9121Z" fill="#333333"/>
<path d="M24.1318 35V19.3594H29.6104C31.5081 19.3594 32.9476 19.7246 33.9287 20.4551C34.9098 21.1784 35.4004 22.2419 35.4004 23.6455C35.4004 24.4118 35.2035 25.0885 34.8096 25.6758C34.4157 26.2559 33.8678 26.682 33.166 26.9541C33.9681 27.1546 34.5983 27.5592 35.0566 28.168C35.5221 28.7767 35.7549 29.5215 35.7549 30.4023C35.7549 31.9062 35.2751 33.0449 34.3154 33.8184C33.3558 34.5918 31.988 34.9857 30.2119 35H24.1318ZM27.3545 28.1895V32.4111H30.1152C30.8743 32.4111 31.4652 32.2321 31.8877 31.874C32.3174 31.5088 32.5322 31.0075 32.5322 30.3701C32.5322 28.9378 31.791 28.2109 30.3086 28.1895H27.3545ZM27.3545 25.9121H29.7393C31.3649 25.8835 32.1777 25.2354 32.1777 23.9678C32.1777 23.2588 31.9701 22.7503 31.5547 22.4424C31.1465 22.1273 30.4984 21.9697 29.6104 21.9697H27.3545V25.9121Z" fill="#333333"/>
<path d="M44.0156 29.5537H37.9678V27.0508H44.0156V29.5537Z" fill="#333333"/>
</svg>
