<svg width="54" height="54" viewBox="0 0 54 54" fill="none" xmlns="http://www.w3.org/2000/svg">
<rect width="54" height="54" rx="15" fill="#C1282D"/>
<path d="M22.0064 25.4338C20.2185 25.3072 18.4306 25.3904 16.6427 25.3542C16.1385 25.3542 15.6344 25.2493 15.2124 25.2023V22.341H20.9336C21.0445 23.0861 21.1303 23.6649 21.2125 24.2111C25.2531 25.0069 25.4391 24.8731 25.4391 21.0713C25.4176 20.7099 25.4176 20.3475 25.4391 19.9861C25.6 18.7236 25.0672 18.3112 23.8228 18.3293C19.5319 18.3872 15.241 18.351 10.9501 18.3547H8.26831V22.142L10.6319 22.435V31.1383C7.85352 31.5905 7.58892 32.1078 8.40419 35.045C12.8131 35.045 17.2041 35.045 21.5951 35.045C22.1319 35.0029 22.6572 34.8658 23.147 34.6399C24.2482 34.2287 25.1745 33.4443 25.7684 32.4201C26.3623 31.3959 26.5871 30.1951 26.4045 29.0222C26.1149 26.7613 24.8062 25.6291 22.0064 25.4338ZM19.7179 31.2866C18.2876 31.5037 16.7893 31.3626 15.1409 31.3626V28.4904C16.7858 28.4904 18.4163 28.4108 20.0325 28.5447C20.4152 28.5772 21.1053 29.4671 21.023 29.7131C20.787 30.3244 20.2435 31.207 19.7179 31.2866Z" fill="white"/>
<path d="M37.4715 18.0002C32.4654 17.9677 28.9326 21.5958 28.8897 26.8482C28.8539 31.8727 32.4368 35.5551 37.3964 35.5877C42.2773 35.6202 45.9782 31.9052 45.9997 26.9061C46.039 21.7297 42.5026 18.0328 37.4715 18.0002ZM40.4322 29.7312C39.5979 30.5955 38.5225 31.1811 37.3499 31.4097C36.6903 31.5435 36.005 31.4189 35.4327 31.0609C34.8604 30.703 34.444 30.1385 34.2676 29.4816C33.8745 28.056 33.7723 26.5643 33.9673 25.0974C34.3248 22.927 35.7551 22.0118 37.7897 22.1746C39.6491 22.3265 40.8291 23.5384 41.0973 25.5894C41.151 26.0054 41.151 26.4286 41.2046 27.38C41.0616 27.8683 41.0401 29.0837 40.4322 29.7312Z" fill="white"/>
<path d="M28.1638 32.5961C27.7133 33.0446 26.9624 33.4534 26.898 33.9526C26.8336 34.4518 27.4808 35.0052 28.1102 36C28.7681 35.0306 29.4332 34.4771 29.3831 33.9996C29.3331 33.5221 28.6001 33.0627 28.1638 32.5961Z" fill="white"/>
</svg>
