<svg width="54" height="54" viewBox="0 0 54 54" fill="none" xmlns="http://www.w3.org/2000/svg">
<rect width="54" height="54" rx="15" fill="#EFEFEF"/>
<path fill-rule="evenodd" clip-rule="evenodd" d="M26.9976 8.4292C16.7429 8.4292 8.42871 16.7447 8.42871 26.9994C8.42871 37.2554 16.7429 45.5709 26.9976 45.5709C37.2577 45.5709 45.5718 37.2554 45.5718 26.9994C45.5718 16.7447 37.2577 8.4292 26.9976 8.4292ZM26.9976 44.1361C17.533 44.1361 9.86358 36.464 9.86358 26.9994C9.86358 17.5348 17.533 9.86399 26.9976 9.86399C36.4648 9.86399 44.1356 17.5348 44.1356 26.9994C44.1356 36.464 36.4648 44.1361 26.9976 44.1361Z" fill="#595959"/>
<path fill-rule="evenodd" clip-rule="evenodd" d="M41.5948 32.5917C41.5633 32.0112 41.4991 28.9974 41.4991 24.7506C41.4991 23.249 41.3379 18.381 36.525 17.7022C35.7951 17.5987 35.0771 17.6538 34.4546 18.1163C33.6082 18.7479 33.1915 19.8145 33.6894 21.0201C33.7052 21.0633 33.7183 21.1065 33.7405 21.1445C33.9096 21.4315 33.8415 21.6804 33.6213 21.8993C33.219 22.2976 32.7512 22.5676 32.1878 22.6331C31.8314 22.6737 31.5379 22.5178 31.3019 22.274C30.7621 21.7184 30.3821 21.0659 30.2629 20.2968C30.0349 18.8317 30.4018 18.1059 30.4228 18.06C30.8146 17.2751 31.6466 16.6985 32.6097 16.616C33.0513 15.7905 34.3184 16.1168 34.3184 16.1168C34.6355 16.1862 34.7469 16.2779 34.8268 16.4339C34.8268 16.4339 35.3824 15.586 34.8583 15.2467C34.3354 14.9073 33.1627 14.7671 33.1627 14.7671C33.1627 14.2155 32.2506 13.7857 30.6022 14.0805C28.6092 14.4356 28.182 13.6572 28.182 13.6572C28.0995 14.6112 28.8267 15.1026 29.0613 15.2362C28.3052 16.0565 27.2491 17.6957 26.9975 20.0216C26.7459 17.6957 25.6898 16.0565 24.9337 15.2362C25.167 15.1026 25.8955 14.6112 25.813 13.6572C25.813 13.6572 25.3844 14.4356 23.3914 14.0805C21.7444 13.7857 20.8323 14.2155 20.8323 14.7671C20.8323 14.7671 19.6596 14.9073 19.1354 15.2467C18.6126 15.586 19.1669 16.4339 19.1669 16.4339C19.2481 16.2779 19.3595 16.1862 19.6766 16.1168C19.6766 16.1168 20.9437 15.7905 21.3853 16.616C22.3484 16.6985 23.1804 17.2751 23.5722 18.06C23.5932 18.1059 23.9824 18.8383 23.7321 20.2968C23.5997 21.0646 23.2329 21.7184 22.693 22.274C22.4571 22.5178 22.1636 22.6737 21.8072 22.6331C21.2438 22.5676 20.776 22.2976 20.3737 21.8993C20.1535 21.6804 20.0854 21.4315 20.2545 21.1445C20.2767 21.1065 20.2898 21.0633 20.3056 21.0201C20.8035 19.8145 20.3868 18.7479 19.5404 18.1163C18.9179 17.6538 18.1999 17.5987 17.47 17.7022C12.6571 18.381 12.4946 23.249 12.4946 24.7506C12.4946 28.9974 12.4304 32.0112 12.399 32.5917C12.3505 33.4723 12.0439 33.6557 11.8486 33.7959C12.1565 34.0082 14.6606 33.2207 15.2633 32.4711C15.304 32.4214 15.3865 32.3991 15.4494 32.3834C16.9419 32.0348 16.9445 30.4755 16.9733 30.0025C18.2221 30.0025 18.7056 28.6384 18.838 28.2833C18.948 27.978 19.0306 27.6215 19.0634 27.2979C19.0634 27.9622 20.0448 28.531 21.1009 27.4735C21.1009 28.5624 22.3969 28.3711 23.0416 27.7251C23.0979 27.9452 23.4556 28.506 23.4556 28.506C22.7153 28.641 22.3825 28.8035 22.0313 29.1101C21.2124 29.8321 21.1193 31.035 21.1193 31.6548C21.1193 31.6548 19.9897 32.7594 19.5429 33.1669C19.4106 33.2901 19.2651 33.3976 19.1197 33.5076C17.9614 32.2117 17.5748 32.7162 17.5774 32.7201C16.7204 32.3742 16.2461 32.9861 16.4335 33.298C16.6327 33.0713 16.9577 33.1381 17.1529 33.3137C15.9958 33.5076 16.2645 34.358 16.5776 34.5363C16.5776 34.2912 16.6523 34.02 17.0179 33.9964C16.9996 34.3711 17.2524 34.4366 17.4922 34.4458C18.0649 34.4707 19.0227 34.4969 19.3163 34.7826C19.4827 34.945 19.4014 35.422 19.5823 35.5845C19.7317 35.7182 19.8902 35.7024 19.9727 35.7038C20.0002 35.8793 19.9491 36.0772 19.7264 36.3105C20.5597 36.3799 21.1835 35.6448 20.7707 35.253C20.5978 35.0892 20.0147 34.5363 19.9858 34.2964C19.9478 34.0409 20.2178 33.754 20.4051 33.5876C20.8061 33.2311 21.2385 32.9101 21.6644 32.5786C21.7889 32.4803 21.9357 32.3925 22.0784 32.3139C22.1938 32.2497 22.355 32.2209 22.503 32.2681C22.8228 32.3676 22.8188 32.3598 22.9014 32.3048C23.2145 32.0977 23.7845 31.6299 24.9678 31.5002C24.8879 31.5499 24.8328 31.6024 24.7869 31.664C24.7241 31.7518 24.6795 31.8579 24.6127 32.0033C24.5353 32.1671 24.4764 32.3348 24.407 32.4986C23.6417 34.3096 22.8844 36.0877 22.1217 37.8986C21.8688 38.4974 22.0942 39.0216 22.7114 39.3099C23.1608 39.5195 23.6732 39.4068 23.9745 38.9717C23.8881 39.2718 23.8474 39.5287 23.9693 39.7777C24.0898 40.0266 24.2851 40.2048 24.5406 40.3136C24.7869 40.4224 25.0778 40.4604 25.3464 40.4066C25.6203 40.3516 25.8025 40.1708 25.9427 39.9047C25.9663 40.4957 26.3554 40.9281 26.9975 40.9281C27.6396 40.9281 28.0287 40.4957 28.0523 39.9047C28.1925 40.1708 28.3747 40.3516 28.6485 40.4066C28.9172 40.4604 29.2081 40.4224 29.4544 40.3136C29.7099 40.2048 29.9051 40.0266 30.0257 39.7777C30.1476 39.5287 30.1069 39.2705 30.0205 38.9717C30.3218 39.4068 30.8342 39.5195 31.2836 39.3099C31.9008 39.0216 32.1262 38.4974 31.8733 37.8986C31.1106 36.0877 30.3533 34.3096 29.588 32.4986C29.5186 32.3348 29.4597 32.1671 29.3823 32.0033C29.3155 31.8592 29.2696 31.7531 29.2067 31.664C29.1609 31.6024 29.1059 31.5499 29.0272 31.5002C30.2105 31.6312 30.7791 32.0977 31.0936 32.3048C31.1762 32.3598 31.1722 32.3676 31.492 32.2681C31.6387 32.2209 31.8012 32.2497 31.9166 32.3139C32.0593 32.3939 32.2061 32.4803 32.3306 32.5786C32.7565 32.9101 33.1888 33.2299 33.5898 33.5876C33.7772 33.754 34.0472 34.0409 34.0092 34.2964C33.979 34.5376 33.3972 35.0892 33.2243 35.253C32.8115 35.6448 33.4353 36.3786 34.2686 36.3105C34.0459 36.0772 33.9934 35.8793 34.0209 35.7038C34.1048 35.7024 34.2633 35.7182 34.4127 35.5845C34.5923 35.422 34.511 34.945 34.6787 34.7826C34.971 34.4969 35.9288 34.4707 36.5028 34.4458C36.7425 34.4366 36.9954 34.3711 36.9771 33.9964C37.3413 34.0213 37.4174 34.2925 37.4174 34.5363C37.7292 34.358 37.9991 33.509 36.8421 33.3137C37.0373 33.1381 37.361 33.0713 37.5615 33.298C37.7489 32.9861 37.2746 32.3742 36.4176 32.7201C36.4189 32.7162 36.0336 32.2104 34.8753 33.5076C34.7298 33.3976 34.5844 33.2901 34.4521 33.1669C34.0052 32.7582 32.8757 31.6548 32.8757 31.6548C32.8757 31.0337 32.7826 29.8308 31.9624 29.1101C31.6125 28.8035 31.2797 28.641 30.5394 28.506C30.5394 28.506 30.8971 27.9452 30.9534 27.7251C31.5981 28.3698 32.894 28.5624 32.894 27.4735C33.9502 28.5322 34.9316 27.9622 34.9316 27.2979C34.9644 27.6215 35.047 27.978 35.157 28.2833C35.2894 28.6384 35.7729 30.0025 37.0217 30.0025C37.0505 30.4755 37.0531 32.0361 38.5455 32.3834C38.6085 32.4004 38.691 32.4214 38.7317 32.4711C39.3331 33.2194 41.8384 34.0082 42.1451 33.7959C41.9499 33.657 41.6432 33.4723 41.5948 32.5917Z" fill="#595959"/>
</svg>
