<svg width="134" height="21" viewBox="0 0 134 21" fill="none" xmlns="http://www.w3.org/2000/svg">
<path fill-rule="evenodd" clip-rule="evenodd" d="M19.3301 0H10.665V4.26588H19.1968V0H19.3301Z" fill="#039BE5"/>
<path fill-rule="evenodd" clip-rule="evenodd" d="M5.33203 12.2644H19.1961V7.99854H5.33203V12.2644Z" fill="#1BAF5D"/>
<path fill-rule="evenodd" clip-rule="evenodd" d="M0 20.263H19.3298V15.9971H0V20.263Z" fill="#F57C00"/>
<path fill-rule="evenodd" clip-rule="evenodd" d="M107.58 7.06537C106.914 7.99853 106.514 9.065 106.514 10.1315V20.2629H110.78V10.2648C110.78 9.99816 110.78 9.73154 110.913 9.59823C111.046 9.33162 111.18 9.19831 111.446 9.065C111.846 8.79838 112.246 8.53176 112.779 8.53176H116.379L116.645 5.33235H113.046C111.713 5.33235 110.513 5.33235 109.846 5.59897C108.913 5.73228 108.113 6.26551 107.58 7.06537ZM93.7161 20.2629H97.982V5.33235H93.7161V20.2629ZM92.1164 5.33235H86.3841L79.9853 13.0643L86.3841 20.2629H92.2497L85.3177 12.7976L92.1164 5.33235ZM133.309 5.33235H129.043V17.0635H125.177C124.644 17.0635 124.244 16.9302 123.844 16.5303C123.444 16.1304 123.177 15.7304 123.177 15.3305V5.33235H118.911V15.5971C118.911 16.7969 119.311 17.7301 119.845 18.6632C120.378 19.4631 121.178 19.863 122.244 20.1296C122.777 20.2629 133.309 20.1296 133.309 20.1296V5.33235ZM47.1914 14.3974H52.5237V17.0635H47.1914C46.7914 17.0635 46.5248 17.0635 46.1249 16.7969C45.8583 16.5303 45.5917 16.1304 45.5917 15.7304C45.5917 15.1972 45.8583 14.9306 46.1249 14.5307C46.3915 14.3973 47.1914 14.3974 47.1914 14.3974ZM51.3239 8.53176C51.5905 8.66507 51.7239 8.79838 51.9905 9.065C52.2571 9.33162 52.3904 9.59823 52.3904 9.73154C52.5237 9.86485 52.5237 10.1315 52.5237 10.3981V11.1979H45.4583C44.2586 11.1979 43.4587 11.4646 42.6589 12.2644C41.859 13.0643 41.3258 14.264 41.3258 15.5971C41.3258 16.7969 41.7257 18.3966 42.6589 19.1965C43.4587 19.9963 44.5252 20.2629 45.8583 20.2629H56.6563V11.7312C56.6563 10.5314 56.523 9.59823 56.2564 8.79838C55.9897 7.99853 55.5898 7.33198 54.9233 6.66544C54.39 6.1322 53.8568 5.86559 53.0569 5.59897C52.3904 5.33235 51.4572 5.19904 50.1241 5.19904H42.1256L42.3922 8.39846H51.3239V8.53176ZM31.7275 8.53176C32.794 8.53176 33.7272 8.93169 34.3937 9.86485C35.0603 10.798 35.4602 11.7312 35.4602 12.931C35.4602 13.9974 35.1936 15.0639 34.527 15.8637C33.8605 16.6636 33.0606 17.1968 31.9942 17.1968H27.9949V8.53176H31.7275ZM37.9931 7.5986C36.7933 5.9989 35.3269 5.33235 33.4606 5.33235H27.8616V0H23.5957V20.3962H33.3272C35.1936 20.3962 36.7933 19.7297 37.9931 18.13C39.0595 16.6636 39.5928 14.9306 39.5928 12.7976C39.7261 10.798 39.0595 9.065 37.9931 7.5986ZM75.4528 20.2629H79.7187V0H75.4528V20.2629ZM73.3199 10.1315C73.3199 9.065 72.92 7.99853 72.2534 7.06537C71.7202 6.26551 70.9203 5.73228 69.8539 5.46566C69.1873 5.33235 68.2541 5.19904 66.7877 5.19904H58.7892V20.1296H63.0551V8.39846H67.0544C67.5876 8.39846 67.9875 8.53176 68.3875 8.93169C68.6541 9.065 68.7874 9.33162 68.9207 9.46492C69.054 9.73154 69.054 9.86485 69.054 10.1315V20.1296H73.3199V10.1315Z" fill="#465168"/>
<path fill-rule="evenodd" clip-rule="evenodd" d="M93.7158 3.73265H97.9817V0H93.7158V3.73265Z" fill="#039BE5"/>
<path fill-rule="evenodd" clip-rule="evenodd" d="M100.115 20.2629H104.381V16.5303H100.115V20.2629Z" fill="#F57C00"/>
</svg>
