<svg width="147" height="34" viewBox="0 0 147 34" fill="none" xmlns="http://www.w3.org/2000/svg">
<path d="M21.2971 33.4903V0L12.748 4.4219L14.3649 27.4426L21.2971 33.4903Z" fill="url(#paint0_linear)"/>
<path d="M6.49414 9.38867L12.2471 13.1763L12.5419 26.8976L8.11104 31.3195L6.49414 9.38867Z" fill="url(#paint1_linear)"/>
<path d="M5.55641 9.38867L7.2805 31.3195L1.6705 25.7184L0 11.8006L5.55641 9.38867Z" fill="url(#paint2_linear)"/>
<path d="M22.127 33.4903V0L30.6849 4.4219L29.0591 27.4426L22.127 33.4903Z" fill="url(#paint3_linear)"/>
<path d="M36.9384 9.38867L31.1854 13.1763L30.8906 26.8976L35.3125 31.3195L36.9384 9.38867Z" fill="url(#paint4_linear)"/>
<path d="M37.8675 9.38867L36.1523 31.3195L41.7534 25.7184L43.4328 11.8006L37.8675 9.38867Z" fill="url(#paint5_linear)"/>
<path d="M65.9532 23.5315C65.9594 24.0076 65.887 24.4815 65.7388 24.934C65.6052 25.3317 65.4092 25.7056 65.1581 26.0417C64.9068 26.3622 64.6051 26.6398 64.2648 26.8636C63.9103 27.1034 63.5259 27.2956 63.1214 27.4353C62.6867 27.5893 62.2378 27.7 61.7814 27.7658C61.2577 27.8408 60.7292 27.8766 60.2002 27.873H56.3411C56.2207 27.8857 56.099 27.8712 55.9849 27.8308C55.8707 27.7904 55.7671 27.725 55.6815 27.6394C55.5958 27.5537 55.5304 27.4501 55.49 27.336C55.4496 27.2218 55.4352 27.1001 55.4478 26.9797V14.3215C55.4359 14.1927 55.4522 14.063 55.4954 13.9411C55.5385 13.8193 55.6077 13.7083 55.6979 13.6157C55.869 13.4691 56.0892 13.3925 56.3143 13.4013H59.9501C60.7096 13.3861 61.4683 13.4611 62.2102 13.6247C62.7663 13.7469 63.2939 13.9743 63.7645 14.2947C64.1882 14.5876 64.5296 14.9844 64.7561 15.447C64.993 15.9587 65.1092 16.5181 65.0956 17.0818C65.098 17.4141 65.0529 17.745 64.9616 18.0644C64.8764 18.3664 64.7437 18.6528 64.5685 18.9131C64.393 19.1679 64.1791 19.3939 63.9343 19.5831C63.6625 19.7856 63.3612 19.9453 63.041 20.0565C63.4364 20.1263 63.819 20.2558 64.1755 20.4406C64.5137 20.627 64.8162 20.872 65.0688 21.1642C65.3309 21.471 65.5366 21.8219 65.6762 22.2005C65.8504 22.6231 65.9443 23.0745 65.9532 23.5315ZM62.1476 17.4391C62.1521 17.171 62.1067 16.9045 62.0136 16.653C61.9364 16.4324 61.8078 16.2334 61.6385 16.0723C61.4399 15.9087 61.2083 15.7898 60.9595 15.724C60.5981 15.6297 60.2251 15.5876 59.8518 15.5989H58.36V19.3597H60.0037C60.3495 19.37 60.6943 19.3186 61.0221 19.2079C61.2594 19.1158 61.4753 18.9759 61.6563 18.797C61.8188 18.6184 61.9434 18.4087 62.0226 18.1806C62.1095 17.9432 62.1519 17.6919 62.1476 17.4391ZM62.898 23.6298C62.9049 23.3234 62.8471 23.019 62.7283 22.7365C62.6232 22.4755 62.4543 22.2451 62.237 22.0665C61.9937 21.8753 61.7141 21.7355 61.4151 21.6556C60.986 21.5484 60.5441 21.5003 60.102 21.5126H58.3153V25.6219H60.4414C60.7882 25.6329 61.1347 25.5908 61.4687 25.4968C61.7358 25.4182 61.9847 25.2876 62.2012 25.1127C62.4095 24.9455 62.5748 24.7312 62.6836 24.4874C62.8179 24.221 62.8911 23.928 62.898 23.6298Z" fill="#376A7D"/>
<path d="M76.6458 27.5248C76.648 27.5718 76.6394 27.6188 76.6209 27.6621C76.6023 27.7054 76.5742 27.744 76.5386 27.7749C76.4322 27.8464 76.3091 27.8895 76.1813 27.9C75.9464 27.9186 75.7104 27.9186 75.4756 27.9C75.2318 27.9197 74.9868 27.9197 74.7431 27.9C74.626 27.8902 74.5143 27.8468 74.4215 27.7749C74.387 27.7435 74.3602 27.7047 74.3432 27.6613C74.3261 27.6179 74.3193 27.5712 74.3232 27.5248V26.7297C73.9283 27.1639 73.4517 27.5161 72.9207 27.766C72.3596 28.0189 71.7494 28.144 71.1341 28.1322C70.6426 28.1439 70.152 28.0837 69.678 27.9536C69.2592 27.8207 68.8686 27.6117 68.5256 27.3372C68.2027 27.0614 67.9462 26.7164 67.7752 26.3277C67.5891 25.8809 67.4978 25.4003 67.5072 24.9163C67.4917 24.3897 67.6084 23.8676 67.8467 23.3977C68.0803 22.9552 68.433 22.587 68.8651 22.3346C69.3909 22.0221 69.969 21.8072 70.5713 21.7004C71.3429 21.5559 72.1268 21.4871 72.9118 21.4949H73.8855V20.8875C73.888 20.6104 73.8549 20.3342 73.7872 20.0656C73.7364 19.8477 73.6285 19.6473 73.4746 19.485C73.3176 19.3165 73.1164 19.1958 72.8939 19.1366C72.604 19.0517 72.3026 19.0126 72.0006 19.0204C71.5782 19.0146 71.1571 19.0688 70.7499 19.1812C70.4124 19.2671 70.0835 19.3837 69.7673 19.5296C69.4814 19.6547 69.2492 19.7708 69.0527 19.8691C68.9138 19.9608 68.754 20.0161 68.5881 20.0299C68.5092 20.0303 68.4329 20.0017 68.3737 19.9495C68.3042 19.8879 68.2493 19.8116 68.2129 19.7261C68.1695 19.6109 68.1395 19.491 68.1236 19.3688C68.109 19.2113 68.109 19.0528 68.1236 18.8954C68.1191 18.7122 68.1371 18.5292 68.1772 18.3504C68.215 18.2115 68.289 18.0851 68.3916 17.9842C68.5552 17.8396 68.7387 17.7192 68.9365 17.6269C69.2259 17.4876 69.5243 17.3683 69.8298 17.2695C70.2064 17.1481 70.5916 17.0555 70.9822 16.9926C71.4042 16.9203 71.8316 16.8845 72.2596 16.8854C72.9369 16.8738 73.6128 16.9519 74.2696 17.1177C74.7742 17.2425 75.2424 17.4842 75.6364 17.8234C75.9923 18.1487 76.2571 18.5613 76.4046 19.0204C76.5773 19.5998 76.6586 20.2026 76.6458 20.8071V27.5248ZM73.8855 23.2547H72.8135C72.4241 23.2501 72.0352 23.283 71.6522 23.353C71.3737 23.4049 71.1071 23.5078 70.8661 23.6567C70.6774 23.7755 70.5233 23.9419 70.4194 24.1391C70.3272 24.3471 70.2815 24.5727 70.2854 24.8002C70.2775 24.9825 70.3084 25.1644 70.3762 25.3338C70.444 25.5032 70.547 25.6563 70.6785 25.7828C70.9893 26.0376 71.3851 26.1653 71.7862 26.1401C72.1709 26.1443 72.5489 26.039 72.876 25.8364C73.2581 25.5944 73.5989 25.2929 73.8855 24.9431V23.2547Z" fill="#376A7D"/>
<path d="M88.9922 27.498C88.9918 27.5671 88.9664 27.6337 88.9207 27.6856C88.8636 27.7561 88.7853 27.8062 88.6974 27.8285C88.5576 27.8717 88.414 27.9016 88.2686 27.9178C88.0899 27.9178 87.8577 27.9178 87.5897 27.9178C87.3217 27.9178 87.0894 27.9178 86.9018 27.9178C86.7567 27.8998 86.6133 27.8699 86.473 27.8285C86.3851 27.8062 86.3067 27.7561 86.2497 27.6856C86.204 27.6337 86.1786 27.5671 86.1782 27.498V21.7986C86.1906 21.4149 86.1576 21.0311 86.08 20.6552C86.0189 20.3905 85.9099 20.1392 85.7584 19.9137C85.626 19.7191 85.4482 19.5596 85.2402 19.4492C85.009 19.3385 84.7551 19.2835 84.4988 19.2884C84.1031 19.3012 83.7217 19.4388 83.409 19.6815C82.9778 20.0091 82.5931 20.3937 82.2655 20.8249V27.4622C82.2685 27.5303 82.2462 27.5971 82.203 27.6498C82.142 27.7201 82.0609 27.77 81.9707 27.7928C81.8305 27.8342 81.6871 27.8641 81.5419 27.8821C81.3633 27.8821 81.131 27.8821 80.863 27.8821C80.595 27.8821 80.3538 27.8821 80.1752 27.8821C80.03 27.8641 79.8866 27.8342 79.7464 27.7928C79.6572 27.7816 79.5732 27.7443 79.5052 27.6856C79.462 27.6329 79.4397 27.5661 79.4426 27.498V17.5107C79.4425 17.4416 79.461 17.3737 79.4962 17.3142C79.5495 17.2497 79.6212 17.2029 79.7017 17.1802C79.8207 17.1389 79.9433 17.109 80.068 17.0909C80.4572 17.0552 80.8489 17.0552 81.2382 17.0909C81.3631 17.1076 81.4859 17.1376 81.6045 17.1802C81.679 17.2051 81.7443 17.2518 81.7921 17.3142C81.8273 17.3737 81.8458 17.4416 81.8457 17.5107V18.6631C82.3278 18.1269 82.8952 17.6741 83.5251 17.3231C84.076 17.0326 84.6889 16.8793 85.3117 16.8765C85.902 16.8553 86.4891 16.9715 87.0269 17.2159C87.4732 17.415 87.8631 17.722 88.1614 18.1092C88.4567 18.5121 88.6664 18.9712 88.7778 19.4581C88.921 20.0638 88.987 20.6851 88.9743 21.3073L88.9922 27.498Z" fill="#376A7D"/>
<path d="M99.3099 25.9076C99.3099 26.0951 99.3099 26.2649 99.3099 26.3899C99.3099 26.515 99.31 26.6311 99.2653 26.7205C99.2495 26.7972 99.2255 26.8721 99.1938 26.9438C99.1501 27.022 99.0926 27.0916 99.0241 27.1493C98.8852 27.2754 98.7287 27.3807 98.5596 27.4619C98.3281 27.5984 98.0825 27.7092 97.8271 27.7924C97.5356 27.8946 97.237 27.9752 96.9337 28.0336C96.6032 28.0907 96.2686 28.1206 95.9332 28.123C95.235 28.1322 94.5413 28.011 93.8875 27.7656C93.313 27.5346 92.8016 27.1703 92.3957 26.7026C91.9824 26.2022 91.6782 25.6211 91.5024 24.9964C91.2876 24.2474 91.1853 23.4707 91.1987 22.6916C91.1825 21.8141 91.3062 20.9397 91.5649 20.101C91.7831 19.4363 92.1427 18.8268 92.619 18.3144C93.0436 17.8434 93.5687 17.4739 94.1555 17.2335C94.8018 16.9958 95.4859 16.8777 96.1744 16.8851C96.4741 16.8837 96.7732 16.9106 97.0677 16.9655C97.341 17.0157 97.6098 17.0874 97.8717 17.1799C98.1063 17.2614 98.3335 17.3631 98.5506 17.4836C98.7011 17.5624 98.842 17.6583 98.9705 17.7695C99.0338 17.8321 99.0906 17.901 99.1402 17.9749C99.1791 18.0444 99.2063 18.1199 99.2206 18.1983C99.2206 18.2876 99.2206 18.3948 99.2206 18.5288C99.2206 18.6628 99.2206 18.8146 99.2206 19.0022C99.2326 19.3044 99.1933 19.6065 99.1045 19.8956C99.033 20.0742 98.9348 20.1636 98.8097 20.1636C98.6619 20.1546 98.5209 20.0982 98.4077 20.0028C98.2471 19.878 98.0801 19.7617 97.9074 19.6544C97.6864 19.517 97.4532 19.4003 97.2107 19.306C96.9033 19.2 96.5799 19.1486 96.2548 19.1541C95.9262 19.1369 95.5987 19.2052 95.3043 19.3524C95.01 19.4996 94.7588 19.7206 94.5754 19.9938C94.1376 20.7448 93.9353 21.61 93.9947 22.4772C93.9871 22.9546 94.0351 23.4313 94.1377 23.8976C94.2174 24.2631 94.3627 24.6112 94.5665 24.9249C94.7462 25.192 94.9925 25.4076 95.2811 25.5502C95.5955 25.6913 95.9371 25.7614 96.2816 25.7557C96.6237 25.7633 96.9638 25.7025 97.2821 25.577C97.5398 25.4765 97.7855 25.3477 98.0146 25.1929C98.1978 25.0754 98.3738 24.9472 98.5417 24.8088C98.6416 24.7116 98.7699 24.649 98.908 24.6301C98.9671 24.632 99.0239 24.654 99.0688 24.6926C99.1239 24.7491 99.1612 24.8206 99.1759 24.8981C99.2055 25.0246 99.2264 25.1529 99.2385 25.2822C99.274 25.4892 99.2979 25.6979 99.3099 25.9076Z" fill="#376A7D"/>
<path d="M112.254 27.4979C112.268 27.5657 112.268 27.6356 112.254 27.7034C112.199 27.77 112.123 27.8169 112.039 27.8374C111.88 27.8854 111.715 27.9124 111.548 27.9178C111.328 27.9178 111.03 27.9178 110.655 27.9178C110.28 27.9178 110.021 27.9297 109.878 27.9535C109.726 27.9427 109.577 27.9158 109.431 27.8731C109.343 27.8415 109.266 27.7858 109.208 27.7123C109.16 27.6428 109.121 27.5679 109.091 27.489L107.796 24.2552C107.635 23.8889 107.484 23.5584 107.341 23.2815C107.207 23.0218 107.038 22.7814 106.84 22.5668C106.66 22.3822 106.444 22.2363 106.206 22.1381C105.941 22.037 105.659 21.9885 105.375 21.9951H104.482V27.5069C104.48 27.5811 104.455 27.6529 104.41 27.7123C104.342 27.7779 104.26 27.8268 104.169 27.8553C104.02 27.8962 103.868 27.926 103.714 27.9446C103.476 27.9565 103.237 27.9565 102.999 27.9446C102.722 27.9446 102.481 27.9446 102.293 27.9446C102.139 27.926 101.987 27.8962 101.838 27.8553C101.749 27.8292 101.669 27.7799 101.605 27.7123C101.561 27.6529 101.536 27.5811 101.534 27.5069V14.3216C101.522 14.1928 101.538 14.0631 101.582 13.9412C101.625 13.8194 101.694 13.7084 101.784 13.6158C101.958 13.4671 102.181 13.3903 102.409 13.4015H106.161C106.537 13.4015 106.849 13.4015 107.055 13.4015L107.725 13.4551C108.266 13.5243 108.795 13.6686 109.297 13.8838C109.739 14.0691 110.142 14.3358 110.485 14.67C110.811 14.9969 111.064 15.3898 111.226 15.8223C111.405 16.3115 111.493 16.8292 111.486 17.3499C111.491 17.7976 111.428 18.2435 111.298 18.672C111.061 19.4528 110.555 20.1241 109.869 20.5658C109.495 20.8016 109.093 20.9877 108.672 21.1197C108.89 21.2252 109.097 21.354 109.288 21.5038C109.486 21.665 109.666 21.8478 109.824 22.0487C110.004 22.2745 110.163 22.5168 110.297 22.7723C110.46 23.0617 110.606 23.36 110.735 23.6656L111.95 26.5242C112.036 26.7253 112.111 26.9311 112.173 27.1406C112.222 27.2538 112.249 27.3749 112.254 27.4979ZM108.457 17.6715C108.471 17.2466 108.36 16.8269 108.136 16.4655C107.879 16.1108 107.5 15.8628 107.073 15.7687C106.921 15.7687 106.751 15.7062 106.563 15.6794C106.299 15.6625 106.033 15.6625 105.768 15.6794H104.455V19.7886H105.956C106.325 19.7935 106.692 19.7423 107.046 19.6368C107.336 19.5526 107.604 19.4063 107.832 19.208C108.037 19.0312 108.196 18.8075 108.296 18.5559C108.412 18.2757 108.467 17.9743 108.457 17.6715Z" fill="#376A7D"/>
<path d="M122.535 14.6074C122.547 14.7948 122.547 14.9828 122.535 15.1702C122.526 15.2963 122.496 15.4201 122.446 15.5364C122.419 15.6123 122.373 15.6799 122.312 15.733C122.262 15.7767 122.199 15.802 122.133 15.8044H117.399V19.6993H121.865C121.929 19.698 121.992 19.7167 122.044 19.7529C122.107 19.8024 122.156 19.8669 122.187 19.9405C122.231 20.0554 122.261 20.1754 122.276 20.2978C122.287 20.4852 122.287 20.6731 122.276 20.8606C122.287 21.045 122.287 21.23 122.276 21.4144C122.261 21.5426 122.231 21.6685 122.187 21.7896C122.156 21.8681 122.107 21.9384 122.044 21.9951C121.994 22.0377 121.931 22.0601 121.865 22.0576H117.399V27.4175C117.4 27.4922 117.374 27.5649 117.327 27.623C117.266 27.6986 117.181 27.7519 117.086 27.7748C116.942 27.8247 116.792 27.8577 116.639 27.8731C116.452 27.8731 116.211 27.8731 115.925 27.8731C115.639 27.8731 115.398 27.8731 115.21 27.8731C115.055 27.8565 114.903 27.8236 114.755 27.7748C114.662 27.7469 114.579 27.6944 114.513 27.623C114.466 27.5649 114.441 27.4922 114.442 27.4175V14.3215C114.431 14.2015 114.446 14.0805 114.487 13.9671C114.528 13.8537 114.594 13.7508 114.679 13.6655C114.764 13.5803 114.867 13.5148 114.981 13.4738C115.094 13.4328 115.215 13.4172 115.335 13.4282H122.151C122.215 13.428 122.277 13.4467 122.33 13.4818C122.36 13.537 122.378 13.5979 122.383 13.6605C122.434 13.7796 122.464 13.9065 122.473 14.0357C122.505 14.2249 122.526 14.4158 122.535 14.6074Z" fill="#376A7D"/>
<path d="M126.269 26.2649C126.327 26.759 126.196 27.2567 125.903 27.6584C125.53 27.9388 125.063 28.0665 124.599 28.0158C124.139 28.065 123.677 27.9407 123.304 27.6674C123.017 27.2832 122.889 26.8034 122.946 26.3274C122.879 25.8323 122.997 25.3297 123.277 24.916C123.655 24.6383 124.123 24.5109 124.59 24.5586C125.048 24.5134 125.507 24.6408 125.876 24.916C126.177 25.2977 126.318 25.7813 126.269 26.2649Z" fill="#376A7D"/>
<path d="M135.489 18.4398C135.5 18.66 135.5 18.8807 135.489 19.1009C135.482 19.2367 135.461 19.3715 135.426 19.5029C135.409 19.5814 135.369 19.653 135.31 19.7083C135.254 19.7447 135.189 19.7633 135.123 19.7619C135.058 19.774 134.991 19.774 134.926 19.7619L134.667 19.6726L134.363 19.5922C134.242 19.5781 134.119 19.5781 133.997 19.5922C133.835 19.5908 133.674 19.6211 133.524 19.6815C133.348 19.7536 133.185 19.8531 133.041 19.9763C132.846 20.1346 132.669 20.3144 132.514 20.5123C132.3 20.7767 132.103 21.0541 131.924 21.3431V27.5963C131.924 27.6654 131.899 27.732 131.853 27.7839C131.796 27.8544 131.718 27.9045 131.63 27.9268C131.486 27.968 131.34 27.9979 131.192 28.0161C131.013 28.0161 130.79 28.0161 130.513 28.0161C130.236 28.0161 130.013 28.0161 129.834 28.0161C129.686 27.9969 129.54 27.9671 129.396 27.9268C129.308 27.9045 129.23 27.8544 129.173 27.7839C129.127 27.732 129.102 27.6654 129.102 27.5963V17.5108C129.1 17.4402 129.122 17.3711 129.164 17.3142C129.214 17.2499 129.283 17.203 129.361 17.1802C129.483 17.1402 129.609 17.1103 129.736 17.0909C129.929 17.08 130.123 17.08 130.317 17.0909C130.513 17.0803 130.71 17.0803 130.906 17.0909C131.031 17.109 131.153 17.139 131.272 17.1802C131.343 17.2076 131.405 17.2539 131.451 17.3142C131.489 17.373 131.511 17.4409 131.514 17.5108V18.7525C131.736 18.4375 131.981 18.139 132.246 17.8592C132.445 17.645 132.667 17.4533 132.907 17.2874C133.099 17.1543 133.309 17.0518 133.532 16.9837C133.737 16.9312 133.947 16.9042 134.158 16.9033H134.47C134.588 16.9124 134.704 16.9304 134.819 16.9569C134.925 16.9778 135.03 17.0076 135.131 17.0463C135.203 17.0702 135.269 17.1065 135.328 17.1534C135.368 17.1865 135.399 17.2297 135.417 17.2785C135.44 17.3396 135.458 17.4023 135.471 17.4661C135.48 17.5821 135.48 17.6986 135.471 17.8145C135.48 17.9574 135.489 18.1718 135.489 18.4398Z" fill="#376A7D"/>
<path d="M146.691 27.4979C146.689 27.5653 146.667 27.6306 146.628 27.6855C146.582 27.7552 146.512 27.8059 146.432 27.8284C146.313 27.8697 146.19 27.8996 146.066 27.9178C145.872 27.9286 145.678 27.9286 145.485 27.9178C145.286 27.9286 145.086 27.9286 144.887 27.9178C144.765 27.8998 144.645 27.8699 144.529 27.8284C144.452 27.8041 144.386 27.7535 144.342 27.6855C144.298 27.6328 144.276 27.566 144.279 27.4979V26.3455C143.798 26.8832 143.231 27.3362 142.6 27.6855C142.049 27.9774 141.436 28.1307 140.813 28.1322C140.22 28.15 139.631 28.0339 139.089 27.7927C138.644 27.5911 138.255 27.2845 137.954 26.8994C137.662 26.4945 137.453 26.0362 137.338 25.5505C137.209 24.9217 137.149 24.2806 137.159 23.6388V17.5107C137.158 17.4401 137.18 17.371 137.222 17.3141C137.281 17.2479 137.359 17.2011 137.445 17.1802C137.588 17.1382 137.735 17.1084 137.883 17.0908C138.062 17.0908 138.285 17.0908 138.553 17.0908C138.83 17.0908 139.062 17.0908 139.241 17.0908C139.386 17.1088 139.529 17.1387 139.67 17.1802C139.757 17.2037 139.838 17.2499 139.902 17.3141C139.944 17.371 139.966 17.4401 139.964 17.5107V23.1564C139.956 23.567 139.992 23.9773 140.072 24.3803C140.13 24.6332 140.236 24.8727 140.384 25.086C140.518 25.2808 140.699 25.4378 140.911 25.5416C141.14 25.6613 141.395 25.7197 141.653 25.7113C142.045 25.6967 142.423 25.5592 142.734 25.3182C143.164 24.9864 143.551 24.6023 143.886 24.1748V17.5107C143.889 17.4408 143.911 17.3729 143.949 17.3141C144.009 17.2495 144.086 17.2031 144.172 17.1802C144.315 17.139 144.462 17.1091 144.61 17.0908C144.788 17.0908 145.012 17.0908 145.289 17.0908C145.565 17.0908 145.789 17.0908 145.967 17.0908C146.113 17.1088 146.256 17.1387 146.396 17.1802C146.482 17.2031 146.559 17.2495 146.62 17.3141C146.664 17.3702 146.689 17.4392 146.691 17.5107V27.4979Z" fill="#376A7D"/>
<defs>
<linearGradient id="paint0_linear" x1="17.0226" y1="0" x2="17.0226" y2="33.4903" gradientUnits="userSpaceOnUse">
<stop stop-color="#336699"/>
<stop offset="1" stop-color="#44B4DB"/>
</linearGradient>
<linearGradient id="paint1_linear" x1="9.51801" y1="9.38867" x2="9.51801" y2="31.3195" gradientUnits="userSpaceOnUse">
<stop stop-color="#CDEFB3"/>
<stop offset="1" stop-color="#99D16A"/>
</linearGradient>
<linearGradient id="paint2_linear" x1="3.64025" y1="9.38867" x2="3.64025" y2="31.3195" gradientUnits="userSpaceOnUse">
<stop stop-color="#326497"/>
<stop offset="1" stop-color="#44B7DE"/>
</linearGradient>
<linearGradient id="paint3_linear" x1="26.4059" y1="0" x2="26.4059" y2="33.4903" gradientUnits="userSpaceOnUse">
<stop stop-color="#FAAC7B"/>
<stop offset="1" stop-color="#F56237"/>
</linearGradient>
<linearGradient id="paint4_linear" x1="33.9145" y1="9.38867" x2="33.9145" y2="31.3195" gradientUnits="userSpaceOnUse">
<stop stop-color="#34689B"/>
<stop offset="1" stop-color="#44B2DA"/>
</linearGradient>
<linearGradient id="paint5_linear" x1="39.7926" y1="9.38867" x2="39.7926" y2="31.3195" gradientUnits="userSpaceOnUse">
<stop stop-color="#F9EF80"/>
<stop offset="1" stop-color="#F9CA48"/>
</linearGradient>
</defs>
</svg>
