<svg width="145" height="19" viewBox="0 0 145 19" fill="none" xmlns="http://www.w3.org/2000/svg">
<path d="M0 7.67289V15.2719H5.01703V10.5219L5.59765 9.93832L6.10717 9.42615L7.8514 12.349L9.59563 15.2743H15.7028L12.795 10.4505L9.74256 5.84579L12.5011 2.92289L15.2667 0H9.15957L7.12385 2.33927L5.08813 4.60231V2.2678L5.01703 0H0V7.67289ZM17.9566 4.09253C17.2099 4.34468 16.522 4.74666 15.9346 5.27407C15.3472 5.80149 14.8724 6.44335 14.5392 7.16073C14.1766 7.89205 14.1031 8.25652 14.1031 9.71916C14.1031 11.1818 14.1742 11.6201 14.5392 12.349C15.5582 14.6145 17.9566 15.7841 21.0824 15.5649C24.2818 15.3458 26.1729 13.664 26.609 10.6696C26.9716 7.74674 25.8814 5.55278 23.4096 4.38553C22.6821 4.01868 22.246 3.94483 20.5729 3.94483C19.2647 3.94483 18.3926 3.94483 17.9566 4.09253ZM21.0113 7.08927C21.7365 7.37989 22.1015 8.47568 22.1015 9.71916C22.1015 11.6201 21.5919 12.4229 20.4283 12.4229C19.2647 12.4229 18.5395 11.3986 18.5395 9.57385C18.5395 8.2589 19.4828 6.94157 20.3549 6.87011L21.0113 7.08927ZM59.5408 4.16399C56.9244 4.89531 55.3983 7.37989 55.5428 10.2313C55.5516 11.3181 55.8904 12.3763 56.5138 13.2644C57.1372 14.1524 58.0155 14.8279 59.0313 15.2005C60.3418 15.7103 63.5388 15.7103 64.9204 15.2005C66.084 14.6883 67.1007 13.8117 67.6102 12.9351C68.1932 11.7654 68.1932 11.7654 65.866 11.7654H63.7568L63.2497 12.2776C62.7401 12.7874 62.6667 12.7874 61.9415 12.7159C61.5301 12.6754 61.1393 12.5156 60.8166 12.2559C60.4939 11.9962 60.2532 11.6479 60.1238 11.2533L60.0503 10.7411H68.3378V19H72.8453V14.3953L73.2813 14.7622C74.1535 15.6388 75.7531 15.8579 77.3528 15.3458C79.097 14.8336 80.6967 12.7159 80.7702 10.8149V10.1575L80.9147 10.8888C81.5688 14.1762 84.1141 15.8579 87.9675 15.5649C90.8018 15.4196 92.475 14.1762 93.1291 12.0584L93.4206 11.1794V12.2752C93.4206 13.4448 93.5627 13.7378 94.3638 14.6145C95.6008 15.9294 98.8713 16.0033 100.834 14.7598L101.417 14.3215L101.561 14.8336L101.635 15.2719H103.962L106.36 15.2005L106.069 14.7598C105.777 14.4692 105.706 13.8832 105.633 10.3766C105.561 5.47894 105.488 5.25978 103.888 4.457C102.943 3.94483 102.798 3.94483 100.544 3.87337C99.4007 3.78667 98.2505 3.86043 97.127 4.09253C95.2359 4.60231 94.1457 5.69809 94.1457 7.08689V7.74436H96.326C98.4352 7.74436 98.4352 7.74436 98.5063 7.30604C98.8002 6.28172 101.343 6.42941 101.125 7.5252C101.054 7.96352 100.397 8.25652 98.2906 8.47806C95.9634 8.84253 94.7998 9.207 94.1457 9.93832C93.8542 10.3028 93.6386 10.6673 93.6386 10.8149C93.6386 10.9603 92.9821 10.9603 91.2379 10.9603H88.7661L88.695 11.3271C88.5481 12.056 87.9675 12.4229 87.2399 12.4229C86.0787 12.4229 85.4222 11.5463 85.4222 9.71916C85.4222 9.207 85.4933 8.47568 85.6403 8.18267C85.9317 7.5252 86.6593 6.86773 87.0954 6.86773C87.7494 6.86773 88.4035 7.37989 88.5481 7.96352L88.8396 8.54952H93.3471L93.2025 7.8182C92.9821 6.35795 91.9654 5.11447 90.4392 4.38315C88.695 3.58037 85.1307 3.65421 83.6045 4.67615C82.3397 5.43958 81.4258 6.67409 81.0617 8.11121L80.7702 9.13553L80.6991 8.25652C80.4052 5.62663 78.5164 3.87337 76.0446 3.87337C74.7364 3.87337 74.0089 4.09253 73.1368 4.75L72.5538 5.26216V4.01868H68.3378V7.08689C68.3378 9.5 68.3378 10.0122 68.1932 9.207C67.8283 7.01542 66.5201 5.11447 64.7024 4.31169C63.6833 3.87337 60.6309 3.72568 59.4673 4.09253L59.5408 4.16399ZM63.1762 7.23458C63.4677 7.52758 63.7568 7.9659 63.7568 8.11121C63.7568 8.40421 63.6122 8.40421 61.868 8.40421C60.7044 8.40421 60.0503 8.40421 60.0503 8.2589C60.0503 7.89205 60.5598 7.08927 60.7779 6.94157C60.9959 6.79388 61.5031 6.72242 61.9391 6.72242C62.5956 6.72242 62.8136 6.79388 63.1762 7.23458ZM75.6797 7.67289C76.1892 8.18505 76.4807 9.42615 76.2626 10.3766C75.6797 12.8612 73.2079 12.5682 72.9922 10.0122C72.8453 8.84253 72.9922 8.40421 73.4994 7.74674C74.08 7.01542 74.9521 7.01542 75.6797 7.67528V7.67289ZM101.198 10.9603C101.198 12.1299 100.471 12.9351 99.4543 12.9351C98.5798 12.9351 98.1437 12.7159 98.1437 12.1299C98.1437 11.4724 98.5087 11.2533 99.8169 10.8888C101.272 10.5219 101.198 10.5219 101.198 10.9603ZM26.8981 9.64769V15.3482H30.9696V12.2037L30.825 9.0593L31.844 12.2037L32.8607 15.3458H35.1121L35.842 12.8612L36.8587 9.793C37.0033 9.28084 37.0033 9.64531 37.0033 12.2776L36.9322 15.3458H40.9301V4.01868H35.7686L35.1879 5.9911C34.7803 7.21314 34.368 8.43042 33.9509 9.64531L32.9318 6.79626L32.1332 4.09253H29.5168L26.8981 4.02106V9.64531V9.64769ZM41.4397 9.64769V15.3482H45.5111V13.3019C45.5135 11.8845 45.4163 10.4672 45.2196 9.06169L46.2387 12.2061L47.2554 15.3482H49.4356L50.3078 12.6444L51.2533 9.5V15.3482H55.2513V4.01868H50.1632L49.5091 5.9911C48.419 9.57385 48.272 9.86447 48.2009 9.57385L47.253 6.57711L46.5278 4.01868H41.4397V9.64769ZM106.578 9.64769V15.3482H111.086V11.1079H114.067V15.3482H118.646V4.01868H114.138V7.74674H111.088V4.01868H106.58V9.64769H106.578ZM118.937 5.77432V7.60143H122.428V15.2743H126.935V7.60381H130.642V4.0163H119.01V5.84341L118.939 5.77194L118.937 5.77432ZM131.151 5.77432V7.60143H133.476V15.3482L137.837 15.2767C142.565 15.2767 143.074 15.129 144.017 14.2524C144.488 13.7557 144.807 13.1335 144.936 12.4599C145.065 11.7863 144.999 11.0897 144.745 10.4529C144.017 8.77106 142.636 8.03974 139.728 8.03974H137.839V4.01868H131.149V5.84579V5.77432H131.151ZM140.384 11.0389C140.565 11.2387 140.668 11.4977 140.674 11.7678C140.674 12.3514 140.093 12.6444 138.856 12.6444H137.837V10.7435H138.929C139.73 10.7435 140.166 10.8173 140.384 11.0365V11.0389Z" fill="#333333"/>
</svg>
