<svg width="96" height="27" viewBox="0 0 96 27" fill="none" xmlns="http://www.w3.org/2000/svg">
<path d="M23.8517 0.00292969H0V23.8357L23.8517 0.00292969Z" fill="#9ACFAF"/>
<path d="M2.12793 26.0145H25.9741V2.18555L2.12793 26.0145Z" fill="#005F65"/>
<path d="M39.8306 0.0351562H31.3906V26.0154H36.6025V16.3092H39.9377C46.0271 16.3092 49.5195 13.3892 49.5195 8.29762V8.15485C49.5195 2.99458 45.988 0.0351562 39.8306 0.0351562ZM44.4144 8.29762C44.4144 10.9939 42.8293 12.4192 39.8306 12.4192H36.6025V4.17966H39.8306C42.9579 4.17966 44.4144 5.44284 44.4144 8.15485V8.29762Z" fill="#231F20"/>
<path d="M62.2259 10.24H57.9632V4.24952H69.2746V0.0351562H52.7871V26.0154H62.119C68.0724 26.0154 71.4869 23.1348 71.4869 18.1121V17.9691C71.4869 12.9849 68.1979 10.24 62.2259 10.24ZM57.9632 14.1337H61.798C64.9304 14.1337 66.4532 15.3758 66.4532 17.9309V18.0737C66.4532 20.6188 64.9469 21.9093 61.9762 21.9093H57.9632V14.1337V14.1337Z" fill="#231F20"/>
<path d="M84.355 12.4387L95.1212 0H89.4002L79.9648 11.1909V0.0347419H74.7529V26.015H79.9648V14.5152L89.4342 26.015H95.6433L84.355 12.4387Z" fill="#231F20"/>
</svg>
