<svg width="151" height="28" viewBox="0 0 151 28" fill="none" xmlns="http://www.w3.org/2000/svg">
<path d="M7.56254 21.6372L7.54557 11.8956L8.64708 11.8712C9.55354 11.8712 10.8083 12.55 10.8083 14.4622V18.9814C10.8083 21.6999 9.24137 21.6372 8.67973 21.6372H7.56254ZM1.61178 21.6416L0 21.6294V22.6769H9.59795C13.7484 22.6769 16.766 20.568 16.766 16.3391C16.766 13.4099 13.8111 11.5312 11.3216 11.5774V11.2678C14.2064 10.8899 15.6654 8.77265 15.6654 5.88652C15.6654 2.9821 13.0257 1.0969 9.5113 1.0969L0 1.09473V2.17534L1.61134 2.15836L1.61178 21.6416ZM7.56254 10.8194V2.1662H8.67973C9.24137 2.1662 10.275 1.9964 10.275 4.70185V8.12654C10.275 10.2843 9.43119 10.8198 8.64708 10.8198H7.56254V10.8194Z" fill="black"/>
<path d="M19.4553 2.15385H17.8418V1.14551H31.3586V8.67322H30.837C30.4635 0.973968 25.3639 2.17431 25.3639 2.17431L25.3926 10.8244L25.9403 10.8253C27.64 10.8253 28.4855 8.73069 28.6427 6.50111H29.183V16.2284H28.6427C28.4093 14.0602 27.6653 11.9059 25.9403 11.9059L25.3639 11.9177L25.3926 21.5927C29.7011 21.601 30.9794 18.4475 31.4165 14.6027H31.8488V22.6763H17.8418V21.621H19.4553V2.15385Z" fill="black"/>
<path d="M34.0529 1.08691V2.1697H35.7043C36.2319 2.1697 36.7483 2.70087 36.7483 4.32701C36.7483 4.32701 36.7483 7.0046 36.7483 10.5956C36.7483 15.6408 36.2036 20.6834 34.5866 21.6334H32.9648V27.5767H33.5056C33.5056 24.5569 34.6554 22.7135 37.2882 22.7135H43.2333C45.9688 22.7135 47.557 24.1263 47.557 27.5767H48.0973V21.6334H45.9357V2.17754L47.5575 2.1697V1.08691H34.0529ZM39.991 2.17754V21.6338H36.4705V21.0926C37.2599 19.2096 37.8293 13.6946 37.8293 10.2839V4.3392C37.8293 2.72612 38.3544 2.17754 38.91 2.17754H39.991Z" fill="black"/>
<path d="M48.6318 11.9346C48.6318 17.2593 50.9245 23.2471 55.9284 23.2471C60.9361 23.2471 63.2301 17.3268 63.2301 12.0034C63.2301 6.67656 60.9361 0.538574 55.9284 0.538574C50.9241 0.538574 48.6318 6.60951 48.6318 11.9346ZM54.5587 3.22487C54.5587 1.90871 55.2104 1.4803 55.9284 1.4803C56.6472 1.4803 57.2915 1.90871 57.2915 3.22487V20.502C57.2915 21.8182 56.6472 22.3006 55.9284 22.3006C55.2104 22.3006 54.5587 21.8186 54.5587 20.502V3.22487Z" fill="black"/>
<path d="M67.5594 5.41702H67.0086L66.9982 19.4341C66.9982 20.9592 67.8881 21.6319 69.1429 21.6432C69.1951 21.6993 69.1594 22.7112 69.1594 22.7112H63.7764V21.6554C64.5557 21.6554 65.9341 21.5165 65.9341 19.458L65.9389 2.14862H64.321V1.14812H71.7686L73.4984 8.47077L75.2273 1.14812L83.2191 1.14551V2.12119H81.5725L81.6008 21.6279H83.2191V22.6768H74.0287V21.6279H75.6596V5.40526H75.2273L71.877 22.6859L71.3833 22.6768L67.5594 5.41702Z" fill="black"/>
<path d="M113.445 8.64229H112.953C112.749 5.04474 111.38 1.61178 109.424 1.61178C107.632 1.61178 106.967 3.79738 106.967 6.96259V16.0655C106.967 19.4763 107.28 21.6371 109.182 21.6371C111.694 21.6371 113.064 17.4552 113.462 14.6109H114.013C113.833 18.2489 112.284 23.2697 108.056 23.2697C103.634 23.2697 100.504 19.0078 100.504 11.9272C100.504 5.77705 103.572 0.539 108.023 0.539C108.898 0.539 110.919 0.909944 111.777 1.72323L113.122 0H113.445V8.64229Z" fill="black"/>
<path d="M120.506 2.15221C117.766 2.15221 116.217 5.42191 116.217 8.65156H115.645V1.13037L131.302 1.14822V8.65199H130.73C130.73 5.69315 129.407 2.1509 126.423 2.1509V21.645H128.603V22.6769H118.371V21.645H120.506V2.15221Z" fill="black"/>
<path d="M134.029 2.14546H132.4V1.14844H141.055V2.14546H139.953V14.0544H140.386L142.677 3.26917V2.13675H141.575V1.14844H150.229V2.14546H148.566V21.6418H150.229V22.6771H141.575V21.6418H142.676L142.642 9.21428H142.209L139.92 20.5659V21.6078L141.025 21.6418V22.6771H132.41V21.6457H134.029V2.14546Z" fill="black"/>
<path d="M84.3008 11.9346C84.3008 17.2593 86.5926 23.2471 91.5969 23.2471C96.605 23.2471 98.8986 17.3268 98.8986 12.0034C98.8986 6.67656 96.605 0.538574 91.5969 0.538574C86.5922 0.538574 84.3008 6.60951 84.3008 11.9346ZM90.2267 3.22487C90.2267 1.90871 90.8789 1.4803 91.5964 1.4803C92.3157 1.4803 92.9605 1.90871 92.9605 3.22487V20.502C92.9605 21.8182 92.3161 22.3006 91.5964 22.3006C90.8789 22.3006 90.2267 21.8186 90.2267 20.502V3.22487Z" fill="black"/>
</svg>
