<svg width="164" height="30" viewBox="0 0 164 30" fill="none" xmlns="http://www.w3.org/2000/svg">
<rect width="29.2162" height="29.2162" fill="#C1282C"/>
<path d="M11.5018 13.7149C10.352 13.6343 9.20222 13.6873 8.05241 13.6642C7.72816 13.6642 7.40392 13.5974 7.13256 13.5674V11.744H10.812C10.8832 12.2188 10.9384 12.5877 10.9913 12.9358C13.5899 13.4429 13.7095 13.3576 13.7095 10.9348C13.6957 10.7045 13.6957 10.4735 13.7095 10.2432C13.813 9.43869 13.4703 9.17589 12.67 9.18742C9.9105 9.2243 7.15096 9.20125 4.39141 9.20356H2.66669V11.6172L4.18674 11.8039V17.3503C2.39994 17.6385 2.22977 17.9682 2.75408 19.84C5.58951 19.84 8.41345 19.84 11.2374 19.84C11.5826 19.8132 11.9204 19.7258 12.2354 19.5818C12.9436 19.3198 13.5393 18.8199 13.9213 18.1672C14.3032 17.5145 14.4478 16.7493 14.3304 16.0018C14.1441 14.561 13.3024 13.8394 11.5018 13.7149ZM10.0301 17.4449C9.11024 17.5832 8.14669 17.4933 7.08657 17.4933V15.6629C8.14439 15.6629 9.19302 15.6122 10.2325 15.6975C10.4785 15.7182 10.9223 16.2853 10.8694 16.4421C10.7177 16.8317 10.3681 17.3941 10.0301 17.4449Z" fill="white"/>
<path d="M21.4477 8.97768C18.2282 8.95693 15.9562 11.2691 15.9286 14.6163C15.9056 17.8183 18.2098 20.1651 21.3994 20.1858C24.5384 20.2066 26.9185 17.8391 26.9323 14.6532C26.9576 11.3544 24.6833 8.99842 21.4477 8.97768ZM23.3518 16.4536C22.8153 17.0044 22.1236 17.3776 21.3695 17.5233C20.9453 17.6086 20.5045 17.5292 20.1365 17.301C19.7685 17.0729 19.5007 16.7132 19.3872 16.2946C19.1344 15.386 19.0687 14.4354 19.1941 13.5006C19.424 12.1174 20.3439 11.5342 21.6524 11.6379C22.8482 11.7348 23.6071 12.507 23.7795 13.8141C23.814 14.0792 23.814 14.3489 23.8485 14.9552C23.7565 15.2664 23.7427 16.041 23.3518 16.4536Z" fill="white"/>
<path d="M15.4618 18.2794C15.172 18.5652 14.6891 18.8257 14.6477 19.1438C14.6063 19.462 15.0226 19.8147 15.4273 20.4486C15.8504 19.8308 16.2782 19.4781 16.246 19.1738C16.2138 18.8695 15.7423 18.5767 15.4618 18.2794Z" fill="white"/>
<path d="M42.6241 10.0806C42.6241 10.8687 42.3591 11.4735 41.8291 11.895C41.3024 12.313 40.5409 12.522 39.5445 12.522H37.1846V5.00756H42.0253V6.63689H39.1823V7.78308H39.4691C40.4989 7.78308 41.2822 7.97497 41.819 8.35875C42.3557 8.7391 42.6241 9.31305 42.6241 10.0806ZM39.1823 10.9544H39.4489C39.8649 10.9544 40.1635 10.8841 40.3446 10.7436C40.5258 10.6031 40.6164 10.3958 40.6164 10.1217C40.6164 9.84759 40.5191 9.64542 40.3245 9.51521C40.1333 9.385 39.8381 9.3199 39.4389 9.3199H39.1823V10.9544Z" fill="black"/>
<path d="M47.4598 12.522L47.0824 11.751H47.0421C46.7771 12.0869 46.5071 12.3164 46.232 12.4398C45.9569 12.5631 45.6013 12.6248 45.1652 12.6248C44.6285 12.6248 44.2058 12.4604 43.8972 12.1314C43.5886 11.8024 43.4342 11.3399 43.4342 10.7436C43.4342 10.1234 43.6456 9.66256 44.0683 9.36102C44.4909 9.05605 45.1032 8.88472 45.9049 8.84703L46.856 8.81619V8.73396C46.856 8.25424 46.6245 8.01438 46.1616 8.01438C45.7456 8.01438 45.2172 8.15829 44.5765 8.44612L44.0079 7.12004C44.6721 6.77053 45.5108 6.59578 46.5239 6.59578C47.2552 6.59578 47.8204 6.78081 48.2196 7.15088C48.6222 7.52095 48.8234 8.03836 48.8234 8.70312V12.522H47.4598ZM46.0005 11.2062C46.2387 11.2062 46.4417 11.1291 46.6094 10.9749C46.7805 10.8207 46.866 10.6203 46.866 10.3736V9.92126L46.4131 9.94182C45.7657 9.96581 45.442 10.2091 45.442 10.6717C45.442 11.028 45.6282 11.2062 46.0005 11.2062Z" fill="black"/>
<path d="M52.1294 6.69857V8.79563H53.6893V6.69857H55.6568V12.522H53.6893V10.2913H52.1294V12.522H50.1619V6.69857H52.1294Z" fill="black"/>
<path d="M61.0058 6.69857H63.1796L61.046 9.48951L63.3456 12.522H61.0963L58.9829 9.56661V12.522H57.0154V6.69857H58.9829V9.52035L61.0058 6.69857Z" fill="black"/>
<path d="M69.4242 9.59745C69.4242 10.55 69.1726 11.2936 68.6694 11.8281C68.1696 12.3593 67.4685 12.6248 66.5661 12.6248C65.7006 12.6248 65.0112 12.3524 64.4979 11.8076C63.988 11.2628 63.7331 10.5261 63.7331 9.59745C63.7331 8.64829 63.983 7.91158 64.4828 7.38731C64.986 6.85962 65.6905 6.59578 66.5963 6.59578C67.1565 6.59578 67.6513 6.71742 68.0807 6.96071C68.5101 7.20399 68.8405 7.5535 69.072 8.00924C69.3068 8.46154 69.4242 8.99095 69.4242 9.59745ZM65.7308 9.59745C65.7308 10.0977 65.7962 10.4798 65.927 10.7436C66.0578 11.0041 66.2776 11.1343 66.5862 11.1343C66.8915 11.1343 67.1062 11.0041 67.2303 10.7436C67.3578 10.4798 67.4215 10.0977 67.4215 9.59745C67.4215 9.1006 67.3578 8.72539 67.2303 8.47182C67.1028 8.21826 66.8848 8.09147 66.5761 8.09147C66.2742 8.09147 66.0578 8.21826 65.927 8.47182C65.7962 8.72196 65.7308 9.09717 65.7308 9.59745Z" fill="black"/>
<path d="M76.1368 8.20455C76.1368 8.54378 76.0395 8.82476 75.845 9.04749C75.6504 9.27021 75.3837 9.4107 75.0449 9.46895V9.51007C75.4541 9.55805 75.7678 9.70196 75.9859 9.94182C76.2039 10.1783 76.3129 10.4832 76.3129 10.8567C76.3129 11.9669 75.4273 12.522 73.6561 12.522H70.5514V6.69857H73.6661C74.4947 6.69857 75.1137 6.82193 75.5229 7.06864C75.9322 7.31536 76.1368 7.69399 76.1368 8.20455ZM74.3153 10.6614C74.3153 10.4798 74.2549 10.3496 74.1341 10.2708C74.0133 10.192 73.8389 10.1526 73.6108 10.1526H72.5188V11.2062H73.5907C74.0737 11.2062 74.3153 11.0246 74.3153 10.6614ZM74.1794 8.47182C74.1794 8.16686 73.9982 8.01438 73.6359 8.01438H72.5188V8.88815H73.5605C73.7684 8.88815 73.9228 8.84875 74.0234 8.76993C74.1274 8.69112 74.1794 8.59175 74.1794 8.47182Z" fill="black"/>
<path d="M80.0517 12.6248C79.1191 12.6248 78.4113 12.3678 77.9282 11.8538C77.4485 11.3399 77.2086 10.6014 77.2086 9.63857C77.2086 8.67228 77.4686 7.92357 77.9886 7.39245C78.5085 6.86134 79.2482 6.59578 80.2077 6.59578C80.8685 6.59578 81.4908 6.74312 82.0745 7.0378L81.4958 8.52322C81.2577 8.417 81.0379 8.33305 80.8366 8.27137C80.6354 8.20626 80.4257 8.17371 80.2077 8.17371C79.889 8.17371 79.6424 8.30049 79.468 8.55406C79.2935 8.80763 79.2063 9.1657 79.2063 9.62829C79.2063 10.5603 79.5434 11.0263 80.2177 11.0263C80.7947 11.0263 81.3482 10.855 81.8783 10.5123V12.1108C81.3717 12.4535 80.7628 12.6248 80.0517 12.6248Z" fill="black"/>
<path d="M87.0008 6.69857H89.1746L87.041 9.48951L89.3406 12.522H87.0913L84.9779 9.56661V12.522H83.0104V6.69857H84.9779V9.52035L87.0008 6.69857Z" fill="black"/>
<path d="M95.4192 9.59745C95.4192 10.55 95.1676 11.2936 94.6644 11.8281C94.1646 12.3593 93.4635 12.6248 92.5611 12.6248C91.6956 12.6248 91.0062 12.3524 90.4929 11.8076C89.983 11.2628 89.7281 10.5261 89.7281 9.59745C89.7281 8.64829 89.978 7.91158 90.4778 7.38731C90.981 6.85962 91.6855 6.59578 92.5913 6.59578C93.1515 6.59578 93.6463 6.71742 94.0757 6.96071C94.5051 7.20399 94.8355 7.5535 95.067 8.00924C95.3018 8.46154 95.4192 8.99095 95.4192 9.59745ZM91.7258 9.59745C91.7258 10.0977 91.7912 10.4798 91.922 10.7436C92.0528 11.0041 92.2726 11.1343 92.5812 11.1343C92.8865 11.1343 93.1012 11.0041 93.2253 10.7436C93.3528 10.4798 93.4165 10.0977 93.4165 9.59745C93.4165 9.1006 93.3528 8.72539 93.2253 8.47182C93.0978 8.21826 92.8798 8.09147 92.5711 8.09147C92.2692 8.09147 92.0528 8.21826 91.922 8.47182C91.7912 8.72196 91.7258 9.09717 91.7258 9.59745Z" fill="black"/>
<path d="M99.2988 12.6248C98.3495 12.6248 97.6115 12.3678 97.0848 11.8538C96.5615 11.3364 96.2998 10.6014 96.2998 9.64885C96.2998 8.66542 96.543 7.91158 97.0294 7.38731C97.5158 6.85962 98.2103 6.59578 99.1126 6.59578C99.9714 6.59578 100.634 6.82536 101.1 7.28452C101.57 7.74025 101.805 8.39815 101.805 9.25822V10.1526H98.2874C98.3008 10.4781 98.4166 10.7334 98.6346 10.9184C98.856 11.1034 99.1563 11.1959 99.5353 11.1959C99.8809 11.1959 100.198 11.1634 100.486 11.0983C100.778 11.0298 101.094 10.915 101.432 10.7539V12.1982C101.124 12.3593 100.805 12.4706 100.476 12.5323C100.148 12.594 99.7551 12.6248 99.2988 12.6248ZM99.1831 7.96298C98.9516 7.96298 98.7571 8.03836 98.5994 8.18913C98.4451 8.33647 98.3545 8.56948 98.3277 8.88815H100.018C100.012 8.60717 99.9329 8.38273 99.7819 8.21483C99.6343 8.04693 99.4347 7.96298 99.1831 7.96298Z" fill="black"/>
<path d="M111.038 9.59745C111.038 10.55 110.787 11.2936 110.284 11.8281C109.784 12.3593 109.083 12.6248 108.18 12.6248C107.315 12.6248 106.625 12.3524 106.112 11.8076C105.602 11.2628 105.347 10.5261 105.347 9.59745C105.347 8.64829 105.597 7.91158 106.097 7.38731C106.6 6.85962 107.305 6.59578 108.21 6.59578C108.771 6.59578 109.265 6.71742 109.695 6.96071C110.124 7.20399 110.455 7.5535 110.686 8.00924C110.921 8.46154 111.038 8.99095 111.038 9.59745ZM107.345 9.59745C107.345 10.0977 107.41 10.4798 107.541 10.7436C107.672 11.0041 107.892 11.1343 108.2 11.1343C108.506 11.1343 108.72 11.0041 108.844 10.7436C108.972 10.4798 109.036 10.0977 109.036 9.59745C109.036 9.1006 108.972 8.72539 108.844 8.47182C108.717 8.21826 108.499 8.09147 108.19 8.09147C107.888 8.09147 107.672 8.21826 107.541 8.47182C107.41 8.72196 107.345 9.09717 107.345 9.59745Z" fill="black"/>
<path d="M111.929 9.03721C111.929 8.44784 111.979 7.91672 112.08 7.44385C112.184 6.96756 112.352 6.55466 112.583 6.20515C112.818 5.85221 113.122 5.55753 113.494 5.32109C113.87 5.08466 114.321 4.90476 114.848 4.78141C115.374 4.65462 116.283 4.53641 117.575 4.42676L117.761 6.09207C117.372 6.12291 116.842 6.17602 116.171 6.25141C115.5 6.32336 115.054 6.39532 114.832 6.46728C114.614 6.53924 114.437 6.63689 114.299 6.76025C114.165 6.88018 114.064 7.03266 113.997 7.2177C113.933 7.39931 113.893 7.63745 113.876 7.93214H113.962C114.079 7.69228 114.279 7.49182 114.561 7.33078C114.842 7.16973 115.158 7.0892 115.507 7.0892C116.218 7.0892 116.766 7.30508 117.152 7.73682C117.538 8.16514 117.731 8.78535 117.731 9.59745C117.731 10.5466 117.473 11.2885 116.956 11.823C116.443 12.3576 115.73 12.6248 114.817 12.6248C113.918 12.6248 113.212 12.3096 112.699 11.6791C112.186 11.0486 111.929 10.168 111.929 9.03721ZM114.918 11.1343C115.461 11.1343 115.733 10.6957 115.733 9.81846C115.733 8.95497 115.485 8.52322 114.988 8.52322C114.794 8.52322 114.586 8.60375 114.364 8.76479C114.143 8.92242 113.997 9.08347 113.927 9.24794C113.927 9.8099 114.016 10.2656 114.193 10.6151C114.371 10.9612 114.613 11.1343 114.918 11.1343Z" fill="black"/>
<path d="M124.333 9.59745C124.333 10.55 124.081 11.2936 123.578 11.8281C123.078 12.3593 122.377 12.6248 121.475 12.6248C120.609 12.6248 119.92 12.3524 119.406 11.8076C118.897 11.2628 118.642 10.5261 118.642 9.59745C118.642 8.64829 118.892 7.91158 119.391 7.38731C119.895 6.85962 120.599 6.59578 121.505 6.59578C122.065 6.59578 122.56 6.71742 122.989 6.96071C123.419 7.20399 123.749 7.5535 123.98 8.00924C124.215 8.46154 124.333 8.99095 124.333 9.59745ZM120.639 9.59745C120.639 10.0977 120.705 10.4798 120.836 10.7436C120.966 11.0041 121.186 11.1343 121.495 11.1343C121.8 11.1343 122.015 11.0041 122.139 10.7436C122.266 10.4798 122.33 10.0977 122.33 9.59745C122.33 9.1006 122.266 8.72539 122.139 8.47182C122.011 8.21826 121.793 8.09147 121.485 8.09147C121.183 8.09147 120.966 8.21826 120.836 8.47182C120.705 8.72196 120.639 9.09717 120.639 9.59745Z" fill="black"/>
<path d="M126.975 8.84703C127.367 8.84703 127.649 8.81277 127.82 8.74424C127.991 8.6757 128.076 8.56605 128.076 8.41528C128.076 8.15829 127.827 8.0298 127.327 8.0298C126.84 8.0298 126.332 8.15144 125.802 8.39473L125.244 7.0378C125.649 6.86648 126.017 6.74997 126.346 6.68829C126.678 6.62662 127.032 6.59578 127.407 6.59578C128.222 6.59578 128.846 6.73284 129.279 7.00696C129.715 7.27766 129.933 7.66658 129.933 8.17371C129.933 8.48553 129.839 8.75623 129.651 8.98581C129.467 9.21196 129.217 9.36616 128.902 9.4484V9.49979C129.304 9.55462 129.616 9.70025 129.838 9.93668C130.059 10.1731 130.17 10.4832 130.17 10.867C130.17 12.0389 129.219 12.6248 127.317 12.6248C126.897 12.6248 126.523 12.5974 126.195 12.5426C125.869 12.4878 125.519 12.3798 125.143 12.2188V10.682C125.79 10.9835 126.476 11.1343 127.201 11.1343C127.513 11.1343 127.758 11.0931 127.936 11.0109C128.113 10.9287 128.202 10.8036 128.202 10.6357C128.202 10.4507 128.122 10.3239 127.961 10.2554C127.803 10.1868 127.516 10.1526 127.1 10.1526H126.356V8.84703H126.975Z" fill="black"/>
<path d="M134.598 12.6248C134.309 12.6248 134.051 12.5769 133.823 12.4809C133.595 12.3815 133.368 12.2051 133.144 11.9515H133.053C133.113 12.3593 133.144 12.6128 133.144 12.7122V15.0508H131.176V6.69857H132.776L133.053 7.43871H133.144C133.509 6.87675 134.014 6.59578 134.658 6.59578C135.289 6.59578 135.784 6.86305 136.143 7.39759C136.502 7.93214 136.681 8.66542 136.681 9.59745C136.681 10.5363 136.493 11.2765 136.118 11.8179C135.745 12.3558 135.239 12.6248 134.598 12.6248ZM133.939 8.17371C133.65 8.17371 133.447 8.27993 133.33 8.49238C133.216 8.7014 133.154 9.01322 133.144 9.42784V9.58717C133.144 10.0875 133.209 10.449 133.34 10.6717C133.471 10.8944 133.677 11.0058 133.959 11.0058C134.21 11.0058 134.393 10.8961 134.507 10.6768C134.621 10.4541 134.678 10.0875 134.678 9.57689C134.678 9.07661 134.621 8.71854 134.507 8.50266C134.393 8.28336 134.204 8.17371 133.939 8.17371Z" fill="black"/>
<path d="M140.561 12.6248C139.611 12.6248 138.873 12.3678 138.347 11.8538C137.823 11.3364 137.562 10.6014 137.562 9.64885C137.562 8.66542 137.805 7.91158 138.291 7.38731C138.778 6.85962 139.472 6.59578 140.375 6.59578C141.233 6.59578 141.896 6.82536 142.362 7.28452C142.832 7.74025 143.067 8.39815 143.067 9.25822V10.1526H139.549C139.563 10.4781 139.678 10.7334 139.897 10.9184C140.118 11.1034 140.418 11.1959 140.797 11.1959C141.143 11.1959 141.46 11.1634 141.748 11.0983C142.04 11.0298 142.355 10.915 142.694 10.7539V12.1982C142.386 12.3593 142.067 12.4706 141.738 12.5323C141.409 12.594 141.017 12.6248 140.561 12.6248ZM140.445 7.96298C140.214 7.96298 140.019 8.03836 139.861 8.18913C139.707 8.33647 139.616 8.56948 139.59 8.88815H141.28C141.274 8.60717 141.195 8.38273 141.044 8.21483C140.896 8.04693 140.697 7.96298 140.445 7.96298Z" fill="black"/>
<path d="M146.146 6.69857V8.79563H147.706V6.69857H149.674V12.522H147.706V10.2913H146.146V12.522H144.179V6.69857H146.146Z" fill="black"/>
<path d="M152.783 6.69857V8.16343C152.783 8.24567 152.782 8.33476 152.778 8.4307C152.778 8.52665 152.756 9.13658 152.713 10.2605L154.992 6.69857H157.166V12.522H155.415V10.9441C155.415 10.3924 155.439 9.73965 155.485 8.98581L153.216 12.522H151.032V6.69857H152.783Z" fill="black"/>
<path d="M161.282 12.6248C160.333 12.6248 159.595 12.3678 159.068 11.8538C158.545 11.3364 158.283 10.6014 158.283 9.64885C158.283 8.66542 158.526 7.91158 159.013 7.38731C159.499 6.85962 160.194 6.59578 161.096 6.59578C161.955 6.59578 162.617 6.82536 163.084 7.28452C163.553 7.74025 163.788 8.39815 163.788 9.25822V10.1526H160.271C160.284 10.4781 160.4 10.7334 160.618 10.9184C160.839 11.1034 161.14 11.1959 161.519 11.1959C161.864 11.1959 162.181 11.1634 162.47 11.0983C162.762 11.0298 163.077 10.915 163.416 10.7539V12.1982C163.107 12.3593 162.788 12.4706 162.46 12.5323C162.131 12.594 161.738 12.6248 161.282 12.6248ZM161.167 7.96298C160.935 7.96298 160.74 8.03836 160.583 8.18913C160.429 8.33647 160.338 8.56948 160.311 8.88815H162.002C161.995 8.60717 161.916 8.38273 161.765 8.21483C161.618 8.04693 161.418 7.96298 161.167 7.96298Z" fill="black"/>
<path d="M39.346 18.7754H39.9409V19.3979H40.183C40.5772 19.3979 40.9184 19.4763 41.2066 19.6331C41.4971 19.7899 41.7185 20.0112 41.8706 20.2971C42.0251 20.583 42.1024 20.9092 42.1024 21.2758C42.1024 21.6585 42.0159 21.9998 41.843 22.2995C41.6724 22.5969 41.4372 22.8205 41.1375 22.9704C40.8401 23.1203 40.4885 23.1952 40.0827 23.1952H39.9409V23.9733H39.346V23.1952H39.1904C38.7846 23.1952 38.433 23.1191 38.1356 22.9669C37.8382 22.8148 37.6053 22.5888 37.437 22.2891C37.2687 21.9894 37.1846 21.6539 37.1846 21.2827C37.1846 20.9184 37.2618 20.5934 37.4163 20.3075C37.5731 20.0216 37.7967 19.7991 38.0872 19.64C38.3777 19.4786 38.7201 19.3979 39.1143 19.3979H39.346V18.7754ZM39.9409 22.7006H40.0273C40.4908 22.7006 40.8504 22.575 41.1063 22.3237C41.3646 22.0701 41.4937 21.7185 41.4937 21.2689C41.4937 20.8424 41.3749 20.508 41.1375 20.266C40.9 20.0239 40.568 19.9028 40.1415 19.9028H39.9409V22.7006ZM39.346 19.9028H39.1489C38.7293 19.9028 38.3985 20.025 38.1564 20.2694C37.9166 20.5138 37.7967 20.847 37.7967 21.2689C37.7967 21.7231 37.9247 22.0758 38.1806 22.3271C38.4365 22.5761 38.7973 22.7006 39.263 22.7006H39.346V19.9028Z" fill="#787878"/>
<path d="M43.6171 20.1138V22.5174L43.5929 23.1468L43.5825 23.3439L45.6333 20.1138H46.3492V23.9042H45.8132V21.5871L45.8236 21.1306L45.8408 20.681L43.7935 23.9042H43.0776V20.1138H43.6171Z" fill="#787878"/>
<path d="M48.1407 20.1138V21.7012H50.2641V20.1138H50.8382V23.9042H50.2641V22.1957H48.1407V23.9042H47.5666V20.1138H48.1407Z" fill="#787878"/>
<path d="M54.3864 23.9042L54.2723 23.3647H54.2447C54.0556 23.6021 53.8665 23.7635 53.6775 23.8488C53.4907 23.9318 53.2567 23.9733 52.9754 23.9733C52.5996 23.9733 52.3045 23.8765 52.0901 23.6828C51.878 23.4892 51.7719 23.2136 51.7719 22.8563C51.7719 22.0908 52.3841 21.6897 53.6083 21.6528L54.2516 21.632V21.3968C54.2516 21.0994 54.187 20.8804 54.0579 20.7398C53.9311 20.5968 53.7271 20.5253 53.4458 20.5253C53.1299 20.5253 52.7725 20.6222 52.3737 20.8158L52.1973 20.3766C52.3841 20.2752 52.5881 20.1956 52.8094 20.138C53.0331 20.0804 53.2567 20.0515 53.4804 20.0515C53.9322 20.0515 54.2666 20.1518 54.4833 20.3524C54.7023 20.553 54.8118 20.8746 54.8118 21.3173V23.9042H54.3864ZM53.0896 23.4995C53.4469 23.4995 53.7271 23.4015 53.9299 23.2056C54.1351 23.0096 54.2377 22.7352 54.2377 22.3825V22.0401L53.6637 22.0643C53.2071 22.0804 52.8774 22.1519 52.6746 22.2787C52.474 22.4032 52.3737 22.598 52.3737 22.8632C52.3737 23.0707 52.4359 23.2286 52.5604 23.337C52.6872 23.4453 52.8636 23.4995 53.0896 23.4995Z" fill="#787878"/>
<path d="M56.5721 20.1138V21.7012H58.6956V20.1138H59.2696V23.9042H58.6956V22.1957H56.5721V23.9042H55.998V20.1138H56.5721Z" fill="#787878"/>
<path d="M62.0018 23.9733C61.453 23.9733 61.0276 23.805 60.7256 23.4684C60.4259 23.1295 60.276 22.6511 60.276 22.0332C60.276 21.3992 60.4282 20.9092 60.7325 20.5634C61.0392 20.2175 61.4749 20.0446 62.0398 20.0446C62.2219 20.0446 62.4041 20.0642 62.5862 20.1034C62.7684 20.1426 62.9113 20.1887 63.0151 20.2418L62.8387 20.7294C62.7119 20.6787 62.5735 20.6372 62.4237 20.6049C62.2738 20.5703 62.1412 20.553 62.026 20.553C61.2559 20.553 60.8709 21.0441 60.8709 22.0263C60.8709 22.492 60.9642 22.8494 61.151 23.0984C61.3401 23.3474 61.619 23.4719 61.9879 23.4719C62.3038 23.4719 62.6277 23.4038 62.9597 23.2678V23.7762C62.7061 23.9076 62.3868 23.9733 62.0018 23.9733Z" fill="#787878"/>
<path d="M67.134 22.0055C67.134 22.6234 66.9783 23.1064 66.6671 23.4546C66.3558 23.8004 65.9258 23.9733 65.3771 23.9733C65.0382 23.9733 64.7373 23.8938 64.4745 23.7347C64.2116 23.5756 64.0088 23.3474 63.8658 23.0499C63.7229 22.7525 63.6514 22.4044 63.6514 22.0055C63.6514 21.3876 63.8059 20.9069 64.1148 20.5634C64.4238 20.2175 64.8526 20.0446 65.4013 20.0446C65.9316 20.0446 66.3524 20.221 66.6636 20.5738C66.9772 20.9265 67.134 21.4038 67.134 22.0055ZM64.2462 22.0055C64.2462 22.4897 64.3431 22.8586 64.5367 23.1122C64.7304 23.3658 65.0151 23.4926 65.3909 23.4926C65.7668 23.4926 66.0515 23.367 66.2452 23.1156C66.4411 22.862 66.5391 22.492 66.5391 22.0055C66.5391 21.5237 66.4411 21.1582 66.2452 20.9092C66.0515 20.6579 65.7644 20.5323 65.384 20.5323C65.0082 20.5323 64.7246 20.6556 64.5333 20.9023C64.3419 21.149 64.2462 21.5167 64.2462 22.0055Z" fill="#787878"/>
<path d="M71.2183 21.0648C71.2183 21.3115 71.1468 21.4994 71.0039 21.6286C70.8632 21.7554 70.6649 21.8407 70.409 21.8845V21.9156C70.7318 21.9594 70.967 22.0539 71.1145 22.1992C71.2644 22.3444 71.3393 22.545 71.3393 22.8009C71.3393 23.1537 71.2091 23.4257 70.9485 23.6171C70.6903 23.8085 70.3122 23.9042 69.8142 23.9042H68.1438V20.1138H69.8073C70.7479 20.1138 71.2183 20.4308 71.2183 21.0648ZM70.7652 22.7629C70.7652 22.5577 70.6868 22.409 70.5301 22.3168C70.3756 22.2222 70.1185 22.175 69.7589 22.175H68.7179V23.4234H69.7727C70.4344 23.4234 70.7652 23.2033 70.7652 22.7629ZM70.658 21.1202C70.658 20.9357 70.5866 20.8055 70.4436 20.7294C70.303 20.651 70.0886 20.6118 69.8004 20.6118H68.7179V21.6804H69.6897C70.0447 21.6804 70.2949 21.6366 70.4401 21.549C70.5854 21.4614 70.658 21.3185 70.658 21.1202Z" fill="#787878"/>
<path d="M74.5072 23.9042L74.3931 23.3647H74.3654C74.1763 23.6021 73.9873 23.7635 73.7982 23.8488C73.6115 23.9318 73.3774 23.9733 73.0962 23.9733C72.7204 23.9733 72.4252 23.8765 72.2108 23.6828C71.9987 23.4892 71.8927 23.2136 71.8927 22.8563C71.8927 22.0908 72.5048 21.6897 73.729 21.6528L74.3723 21.632V21.3968C74.3723 21.0994 74.3077 20.8804 74.1786 20.7398C74.0518 20.5968 73.8478 20.5253 73.5665 20.5253C73.2506 20.5253 72.8933 20.6222 72.4944 20.8158L72.318 20.3766C72.5048 20.2752 72.7088 20.1956 72.9302 20.138C73.1538 20.0804 73.3774 20.0515 73.6011 20.0515C74.053 20.0515 74.3873 20.1518 74.604 20.3524C74.823 20.553 74.9326 20.8746 74.9326 21.3173V23.9042H74.5072ZM73.2103 23.4995C73.5677 23.4995 73.8478 23.4015 74.0507 23.2056C74.2559 23.0096 74.3585 22.7352 74.3585 22.3825V22.0401L73.7844 22.0643C73.3279 22.0804 72.9982 22.1519 72.7953 22.2787C72.5947 22.4032 72.4944 22.598 72.4944 22.8632C72.4944 23.0707 72.5567 23.2286 72.6812 23.337C72.808 23.4453 72.9843 23.4995 73.2103 23.4995Z" fill="#787878"/>
<path d="M76.309 23.9042H75.6381L76.7274 22.3029C76.4346 22.2384 76.2098 22.1139 76.0531 21.9294C75.8986 21.7427 75.8214 21.5087 75.8214 21.2274C75.8214 20.8815 75.9378 20.6095 76.1707 20.4112C76.4035 20.2129 76.7286 20.1138 77.1459 20.1138H78.8336V23.9042H78.2595V22.3894H77.3015L76.309 23.9042ZM76.3816 21.2343C76.3816 21.6724 76.6998 21.8914 77.3361 21.8914H78.2595V20.6118H77.2185C76.6606 20.6118 76.3816 20.8193 76.3816 21.2343Z" fill="#787878"/>
<path d="M83.409 23.9733C82.8603 23.9733 82.4349 23.805 82.1329 23.4684C81.8331 23.1295 81.6833 22.6511 81.6833 22.0332C81.6833 21.3992 81.8354 20.9092 82.1398 20.5634C82.4464 20.2175 82.8822 20.0446 83.447 20.0446C83.6292 20.0446 83.8113 20.0642 83.9935 20.1034C84.1756 20.1426 84.3185 20.1887 84.4223 20.2418L84.2459 20.7294C84.1191 20.6787 83.9808 20.6372 83.8309 20.6049C83.6811 20.5703 83.5485 20.553 83.4332 20.553C82.6631 20.553 82.2781 21.0441 82.2781 22.0263C82.2781 22.492 82.3715 22.8494 82.5582 23.0984C82.7473 23.3474 83.0263 23.4719 83.3952 23.4719C83.711 23.4719 84.035 23.4038 84.367 23.2678V23.7762C84.1133 23.9076 83.794 23.9733 83.409 23.9733Z" fill="#787878"/>
<path d="M89.3297 22.0055C89.3297 22.5796 89.166 23.0373 88.8386 23.3785C88.5135 23.7174 88.0582 23.9111 87.4726 23.9595V25.6057H86.9054V23.9595C86.3336 23.9157 85.8817 23.7197 85.5497 23.3716C85.2177 23.0234 85.0517 22.5681 85.0517 22.0055C85.0517 21.4314 85.2166 20.9749 85.5463 20.636C85.8783 20.2971 86.3382 20.1046 86.9261 20.0585V18.5229H87.4726V20.0585C88.0513 20.1115 88.5055 20.3109 88.8352 20.6568C89.1649 21.0026 89.3297 21.4522 89.3297 22.0055ZM85.6535 22.0055C85.6535 22.4482 85.7549 22.7952 85.9578 23.0465C86.1607 23.2978 86.4835 23.4442 86.9261 23.4857V20.5392C86.4996 20.5784 86.1803 20.7179 85.9682 20.9576C85.7584 21.1951 85.6535 21.5444 85.6535 22.0055ZM88.7349 22.0055C88.7349 21.1225 88.3141 20.636 87.4726 20.5461V23.4857C87.9106 23.4419 88.2299 23.2943 88.4305 23.043C88.6334 22.7917 88.7349 22.4459 88.7349 22.0055Z" fill="#787878"/>
<path d="M91.9338 23.9733C91.3736 23.9733 90.9309 23.8027 90.6058 23.4615C90.2831 23.1203 90.1217 22.6465 90.1217 22.0401C90.1217 21.4291 90.2715 20.9438 90.5713 20.5841C90.8733 20.2245 91.2779 20.0446 91.7851 20.0446C92.2601 20.0446 92.6359 20.2014 92.9126 20.515C93.1892 20.8262 93.3276 21.2378 93.3276 21.7496V22.1127H90.7165C90.728 22.5577 90.8399 22.8955 91.052 23.126C91.2664 23.3566 91.5673 23.4719 91.9546 23.4719C92.3627 23.4719 92.7662 23.3866 93.165 23.2159V23.7278C92.9621 23.8154 92.7696 23.8776 92.5875 23.9145C92.4076 23.9537 92.1898 23.9733 91.9338 23.9733ZM91.7782 20.5253C91.4739 20.5253 91.2306 20.6245 91.0485 20.8228C90.8687 21.021 90.7626 21.2954 90.7303 21.6458H92.712C92.712 21.2839 92.6313 21.0072 92.4699 20.8158C92.3085 20.6222 92.0779 20.5253 91.7782 20.5253Z" fill="#787878"/>
<path d="M96.0735 23.9733C95.8268 23.9733 95.6009 23.9284 95.3957 23.8384C95.1928 23.7462 95.0222 23.6056 94.8838 23.4165H94.8423C94.87 23.6379 94.8838 23.8477 94.8838 24.0459V25.6057H94.3097V20.1138H94.7766L94.8562 20.6325H94.8838C95.0314 20.425 95.2032 20.2752 95.3991 20.183C95.5951 20.0907 95.8199 20.0446 96.0735 20.0446C96.5761 20.0446 96.9635 20.2164 97.2355 20.5599C97.5099 20.9035 97.6471 21.3853 97.6471 22.0055C97.6471 22.628 97.5076 23.1122 97.2286 23.458C96.9519 23.8016 96.5669 23.9733 96.0735 23.9733ZM95.9905 20.5323C95.6032 20.5323 95.323 20.6395 95.1501 20.8539C94.9772 21.0683 94.8884 21.4095 94.8838 21.8776V22.0055C94.8838 22.5381 94.9726 22.9197 95.1501 23.1502C95.3277 23.3785 95.6124 23.4926 96.0043 23.4926C96.3317 23.4926 96.5876 23.36 96.7721 23.0949C96.9588 22.8298 97.0522 22.4643 97.0522 21.9986C97.0522 21.526 96.9588 21.164 96.7721 20.9127C96.5876 20.6591 96.3271 20.5323 95.9905 20.5323Z" fill="#787878"/>
<path d="M100.984 23.9042L100.87 23.3647H100.843C100.654 23.6021 100.464 23.7635 100.275 23.8488C100.089 23.9318 99.8546 23.9733 99.5734 23.9733C99.1976 23.9733 98.9024 23.8765 98.688 23.6828C98.4759 23.4892 98.3699 23.2136 98.3699 22.8563C98.3699 22.0908 98.982 21.6897 100.206 21.6528L100.849 21.632V21.3968C100.849 21.0994 100.785 20.8804 100.656 20.7398C100.529 20.5968 100.325 20.5253 100.044 20.5253C99.7278 20.5253 99.3705 20.6222 98.9716 20.8158L98.7952 20.3766C98.982 20.2752 99.186 20.1956 99.4074 20.138C99.631 20.0804 99.8546 20.0515 100.078 20.0515C100.53 20.0515 100.864 20.1518 101.081 20.3524C101.3 20.553 101.41 20.8746 101.41 21.3173V23.9042H100.984ZM99.6875 23.4995C100.045 23.4995 100.325 23.4015 100.528 23.2056C100.733 23.0096 100.836 22.7352 100.836 22.3825V22.0401L100.262 22.0643C99.8051 22.0804 99.4754 22.1519 99.2725 22.2787C99.0719 22.4032 98.9716 22.598 98.9716 22.8632C98.9716 23.0707 99.0339 23.2286 99.1584 23.337C99.2852 23.4453 99.4615 23.4995 99.6875 23.4995Z" fill="#787878"/>
</svg>
