<svg width="94" height="24" viewBox="0 0 94 24" fill="none" xmlns="http://www.w3.org/2000/svg">
<path d="M57.2446 6.83737C55.8747 6.85258 54.5286 7.20396 53.3212 7.86159C53.3212 4.29066 53.3757 1.19031 53.4574 0L46.2371 1.41176V2.07612L46.9455 2.15917C47.9536 2.29758 48.3351 2.90657 48.4713 4.26298C48.6893 6.89273 48.662 20.9273 48.4713 23.1695C50.4899 23.6555 52.5547 23.9154 54.629 23.9446C60.3507 23.9446 63.811 20.346 63.811 14.6436C63.7838 10.1038 60.9774 6.83737 57.2446 6.83737ZM54.738 22.8097C54.3271 22.8048 53.9172 22.7678 53.5119 22.699C53.4029 21.1211 53.3212 14.6159 53.3484 8.94118C53.8902 8.74497 54.4627 8.65115 55.0377 8.66436C57.4081 8.66436 58.7432 11.4602 58.7432 14.9481C58.7159 19.4325 57.0812 22.8097 54.738 22.8097ZM19.0997 7.00346L17.9826 7.30796C16.9745 3.98616 15.4214 2.10381 12.5061 2.10381H8.74609C8.58261 4.23529 8.50087 7.77855 8.52812 11.4602L11.062 11.3772C12.7513 11.3218 13.4325 10.0484 13.8412 8.19377H14.7948V16H13.8412C13.4325 14.1176 12.7241 12.8443 11.0348 12.7889L8.52812 12.7059C8.55536 15.5017 8.6371 17.8824 8.74609 19.2941C8.90956 21.3702 9.48174 22.2837 10.9258 22.5052L12.2064 22.6436V23.5848H0V22.6436L1.00812 22.5052C2.45217 22.2837 3.02435 21.3702 3.18783 19.2941C3.46029 15.8616 3.51478 8.74741 3.18783 4.76125C3.02435 2.7128 2.45217 1.79931 1.00812 1.57785L0 1.43945V0.525952H18.9907L19.0997 7.00346ZM25.1757 6.6436C30.5704 6.6436 33.2406 10.3529 33.2406 15.2803C33.2406 20.2076 30.2162 23.9723 24.8214 23.9723C19.4267 23.9723 16.7293 20.263 16.7293 15.3633C16.7293 10.4637 19.7536 6.6436 25.1757 6.6436ZM24.9032 7.6955C22.5055 7.6955 21.8516 10.9619 21.8516 15.308C21.8516 19.654 22.9142 22.9204 25.1212 22.9204C27.3281 22.9204 28.1728 19.654 28.1728 15.308C28.1728 10.9619 27.0829 7.72318 24.8759 7.72318L24.9032 7.6955ZM65.1188 15.474C65.1188 10.9343 67.9252 6.67128 73.5107 6.67128C78.0336 6.67128 80.1861 10.0761 80.2133 14.5329H70.1049C69.9959 18.5744 72.0122 21.564 75.8812 21.564C77.5704 21.564 78.4968 21.1488 79.5322 20.346L79.9954 20.9273C78.8783 22.5052 76.5351 24 73.429 24C68.5519 23.9723 65.1188 20.4844 65.1188 15.474ZM70.1594 13.3979L75.2272 13.2872C75.2545 11.0173 74.9003 7.75086 73.0748 7.75086C71.2493 7.75086 70.1867 10.8235 70.1322 13.3702L70.1594 13.3979ZM93.1826 11.7647L92.3652 11.9862C91.4933 9.07958 90.1583 7.86159 88.1965 7.86159C86.8887 7.86159 85.9623 8.85813 85.9623 10.2976C85.9623 11.737 87.0249 12.4844 90.0765 13.6747C93.1281 14.8651 94 16.0554 94 18.3806C94 21.8408 91.3843 23.9723 87.0794 23.9723C85.1376 23.9643 83.2115 23.6179 81.3849 22.9481L81.2487 18.1592L82.0661 17.9377C83.2377 21.2872 84.7907 22.5052 86.8342 22.5052C88.8777 22.5052 89.5316 21.2595 89.5316 19.9308C89.5316 18.6021 88.7959 17.8547 86.0441 16.8581C83.2922 15.8616 81.6301 14.782 81.6301 11.8754C81.6301 8.96886 84.0823 6.6436 88.142 6.6436C90.022 6.6436 91.8203 6.97578 93.0191 7.52941L93.1826 11.7647ZM45.5559 11.6263C43.3762 10.1315 41.0058 10.7958 40.5426 11.5986C40.3848 14.5497 40.403 17.5079 40.5971 20.4567C40.7061 21.8131 41.1148 22.4221 42.1229 22.5606L43.4307 22.6436V23.5848H33.3768V22.6436L34.0852 22.5606C35.0933 22.4221 35.4748 21.8131 35.611 20.4567C35.8221 17.277 35.8221 14.0864 35.611 10.9066C35.502 9.55017 35.0933 8.94118 34.0852 8.80277L33.3768 8.71972V8.05536L40.5971 6.6436L40.5154 10.4637C42.2046 6.53287 45.5287 6.00692 47.327 7.11419L45.5559 11.6263Z" fill="black"/>
</svg>
