<svg width="102" height="22" viewBox="0 0 102 22" fill="none" xmlns="http://www.w3.org/2000/svg">
<path fill-rule="evenodd" clip-rule="evenodd" d="M90.7153 22H93.9914L102 0H98.7238L90.7151 22H90.7153ZM83.2156 14.3C81.1045 14.3 79.9398 12.54 79.9398 10.78C79.9398 9.02 81.1045 7.26 83.2156 7.26C85.2541 7.26 86.4186 8.8 86.4186 10.78C86.4186 12.6866 85.3267 14.3 83.2156 14.3ZM80.0123 6.30661V5.06H76.9549V22H80.0851V15.4C80.4491 15.7666 81.6867 16.7934 83.5795 16.7934C86.4913 16.7934 89.1848 14.5934 89.1848 10.78C89.2576 6.74661 86.273 4.76661 83.5795 4.76661C81.541 4.76661 80.3763 5.86661 80.0123 6.30661ZM69.6016 7.18661C71.7129 7.18661 72.0769 8.87339 72.1497 9.53339H66.835C66.9078 8.72661 67.7087 7.18661 69.6016 7.18661ZM63.7045 10.78C63.7045 14.1534 66.1071 16.7934 69.7473 16.7934C73.3874 16.7934 74.9165 14.2266 74.9165 14.2266L72.5867 12.6866C72.5867 12.6866 71.7859 14.3 69.7473 14.3C67.636 14.3 66.7623 12.4666 66.7623 11.8066H75.1349C75.1349 11.8066 75.2077 11.2934 75.2077 11.1466V10.78C75.2077 7.33339 73.1693 4.76661 69.6746 4.76661C66.1071 4.76661 63.7045 7.40661 63.7045 10.78ZM63.4861 16.5L59.3362 5.06H56.0599L51.8372 16.5H55.259L57.6617 9.24H57.7345L60.1371 16.5H63.4861ZM45.7216 14.3C43.6103 14.3 42.7366 12.6134 42.7366 11C42.7366 9.38661 43.6103 7.92 45.7217 7.92C47.833 7.92 48.561 9.75339 48.561 11.0734C48.561 12.3934 47.833 14.3 45.7216 14.3ZM43.1006 6.01339C43.1735 5.64661 43.5375 2.56661 47.6145 2.56661H50.1628L51.1092 0H47.6873C43.1735 0 39.6788 2.12661 39.6788 9.53339C39.6788 13.5666 41.4262 16.8666 45.6487 16.8666C49.6531 16.8666 51.6917 13.9334 51.6917 11C51.6917 6.74661 48.561 5.06 46.0129 5.06C44.484 5.06 43.3918 5.79339 43.1006 6.01339ZM27.1563 5.13339L27.0835 5.06H24.3897V16.5H27.5203V9.82661L30.5782 13.7134L30.651 13.86H31.4519L34.5824 9.82661V16.5H37.713V5.06H35.0192L31.0879 9.9L27.1563 5.13339ZM16.3083 14.3734C14.7066 14.3734 14.561 13.42 14.561 13.0534C14.561 12.1734 15.2891 11.66 17.1092 11.44C17.6189 11.3666 18.1285 11.3666 18.6381 11.3666H18.8564V11.7334C18.8564 13.2734 17.9829 14.3734 16.3083 14.3734ZM21.7687 10.4866V9.82661C21.6231 6.23339 20.0942 4.76661 16.8908 4.76661C14.7066 4.76661 13.2506 5.64661 12.741 6.01339L13.6145 8.36C13.6145 8.36 14.9251 7.18661 16.5996 7.18661C19.0021 7.18661 18.7109 9.16661 18.7109 9.16661C17.91 9.16661 11.4306 8.8 11.4306 13.0534C11.4306 15.4 13.396 16.72 15.5074 16.72C17.4004 16.72 18.4926 15.7666 18.7838 15.4C18.7838 15.4734 18.8566 16.5 18.8566 16.5H21.7687C21.9144 16.5 21.7687 15.5466 21.7687 13.9334V10.4866ZM4.80507 7.92H3.20349V2.71339H4.80523C6.04295 2.78661 7.86305 3.44661 7.86305 5.35339C7.86289 7.26 6.0428 7.92 4.80523 7.92H4.80507ZM0 0V16.5734H3.27617V10.7066H5.02358C8.37258 10.7066 11.1392 8.94661 11.1392 5.35339C11.1392 1.83339 8.37258 0 5.09641 0H0Z" fill="#315EFB"/>
</svg>
