<svg width="147" height="74" viewBox="0 0 147 74" fill="none" xmlns="http://www.w3.org/2000/svg">
<path d="M34.3818 15.7529C35.085 15.0497 35.771 14.3283 36.4914 13.6445C37.2449 14.3434 37.9845 15.0584 38.7402 15.754C37.9813 16.4453 37.246 17.1624 36.4935 17.8613C35.77 17.1797 35.0872 16.455 34.3818 15.7529Z" fill="#F8BD15"/>
<path fill-rule="evenodd" clip-rule="evenodd" d="M35.9346 18.5615C34.6805 18.6381 33.4231 18.7686 32.2054 19.091C29.5407 19.7306 27.0753 21.0894 25.0269 22.9098C25.2284 23.4022 25.4338 23.8936 25.6393 24.3851C26.4958 26.4339 27.3535 28.4857 27.9414 30.6315C28.409 30.6572 28.8776 30.654 29.3462 30.6509C29.5844 30.6493 29.8225 30.6476 30.0605 30.6498C29.6584 29.6316 29.2394 28.6197 28.8205 27.6076C28.2512 26.2325 27.6819 24.8573 27.1546 23.4663C27.4247 23.2937 27.6884 23.1104 27.9489 22.9249C28.5416 24.2973 29.115 25.678 29.6885 27.0588C30.0816 28.0054 30.4748 28.952 30.8741 29.896C31.0381 30.3015 31.4208 30.6584 31.8774 30.6466C33.2302 30.6552 34.5829 30.6531 35.9357 30.6455C35.9357 29.4373 35.936 28.229 35.9363 27.0207C35.9369 24.201 35.9376 21.3813 35.9346 18.5615ZM33.9695 20.8131C32.5343 21.0859 31.1215 21.4957 29.7848 22.0878C30.1995 23.091 30.6029 24.0994 31.0063 25.1078C31.4819 26.2968 31.9576 27.4858 32.4517 28.6663C32.675 29.157 33.2021 29.1246 33.6728 29.0956C33.7784 29.0891 33.8812 29.0828 33.977 29.0826C33.9675 27.4512 33.9689 25.8198 33.9703 24.1884C33.9712 23.0633 33.9722 21.9382 33.9695 20.8131Z" fill="#F8BD15"/>
<path fill-rule="evenodd" clip-rule="evenodd" d="M42.1997 19.513C40.5426 18.921 38.7911 18.6557 37.0406 18.5586C37.0406 19.8312 37.0413 21.1038 37.0419 22.3764C37.0433 25.1339 37.0447 27.8915 37.0396 30.649C37.5318 30.6483 38.0241 30.6492 38.5164 30.6501C39.3779 30.6517 40.2395 30.6534 41.101 30.6458C41.5866 30.6587 41.9714 30.263 42.1343 29.8327C42.5167 28.909 42.9031 27.9868 43.2895 27.0647C43.8649 25.6914 44.4404 24.318 45.0028 22.9392C45.2847 23.1021 45.5569 23.2811 45.8249 23.4666C45.7203 23.8115 45.5807 24.145 45.4413 24.4779C45.4151 24.5405 45.3889 24.6032 45.3629 24.6658C44.9858 25.5893 44.6076 26.5122 44.2294 27.4349C43.7905 28.5057 43.3517 29.5763 42.9147 30.648C43.5225 30.6512 44.1292 30.6512 44.7369 30.648C44.9054 30.2616 45.0749 29.8756 45.2444 29.4896C46.1997 27.314 47.1557 25.1367 47.9377 22.8918C46.2494 21.4294 44.321 20.2216 42.1997 19.513ZM43.118 22.0625C41.8081 21.4705 40.4125 21.0801 39.0019 20.8159C39.0094 23.5745 39.0136 26.3343 39.0029 29.094C39.1108 29.093 39.219 29.0957 39.3272 29.0983C39.5838 29.1046 39.8408 29.1109 40.0941 29.0692C40.4586 28.9263 40.599 28.553 40.7285 28.2088C40.7475 28.1582 40.7663 28.1083 40.7855 28.0598C40.9716 27.5963 41.1574 27.1327 41.3433 26.6692C41.8683 25.3596 42.3933 24.0501 42.9229 22.743C42.9436 22.6679 42.9785 22.5917 43.0136 22.515C43.0824 22.3651 43.152 22.2131 43.118 22.0625Z" fill="#F8BD15"/>
<path d="M48.6401 23.4904C50.1483 22.1801 52.2492 21.8372 54.1808 21.9655C55.5518 22.1089 57.0332 22.385 58.0525 23.3998C58.9154 24.2151 59.118 25.5201 58.894 26.646C58.7032 27.6273 58.0515 28.4933 57.1714 28.9549C57.9861 29.4208 58.7911 30.0355 59.103 30.9651C59.4375 32.0576 59.1941 33.2676 58.6603 34.2555C57.9625 35.527 56.6366 36.3272 55.2613 36.6561C53.8314 36.9883 52.3275 36.8233 50.9415 36.3768C49.9511 36.0468 49.0035 35.5572 48.2178 34.8605C48.5254 34.4172 48.7955 33.9503 49.0892 33.4984C49.2425 33.2547 49.4698 33.0261 49.7731 33.0066C50.2833 32.9268 50.7153 33.2558 51.1441 33.4758C52.2139 34.0624 53.4905 34.3277 54.691 34.0538C55.2624 33.9309 55.7715 33.5081 55.9237 32.9301C56.0835 32.3369 56.1317 31.6305 55.7533 31.1086C55.3374 30.5294 54.5999 30.3202 53.9278 30.2523C53.096 30.2027 52.2632 30.2512 51.4324 30.2242C51.4496 29.3809 51.426 28.5365 51.4432 27.6942C52.3564 27.677 53.2761 27.7514 54.184 27.6198C54.7093 27.5519 55.2506 27.2779 55.4907 26.7808C55.7383 26.1488 55.6718 25.2753 55.0555 24.8805C54.3384 24.4147 53.4315 24.4211 52.618 24.5549C51.8794 24.6832 51.2406 25.093 50.5588 25.3777C50.1944 25.5384 49.7356 25.4144 49.5234 25.0693C49.2018 24.5592 48.9488 24.0092 48.6401 23.4904Z" fill="#DD0B34"/>
<path d="M72.9257 32.0153C73.2687 30.128 73.1197 28.2009 73.2333 26.2952C75.8884 26.2942 78.5435 26.2942 81.1987 26.2952C81.1944 29.8099 81.204 33.3235 81.1933 36.8381C80.1707 36.8381 79.1481 36.837 78.1266 36.8392C78.1201 34.1204 78.1255 31.4017 78.1234 28.684C77.3784 28.6818 76.6323 28.6829 75.8874 28.684C75.7984 30.2575 75.7587 31.8438 75.4286 33.3903C75.212 34.3847 74.853 35.4006 74.1208 36.1317C73.3512 36.9266 72.1818 37.1606 71.1184 37.1131C70.873 37.1185 70.5889 36.9621 70.5943 36.6861C70.561 36.039 70.591 35.3887 70.5814 34.7406C71.0584 34.7006 71.5461 34.5497 71.9234 34.2466C72.4958 33.6448 72.7895 32.8252 72.9257 32.0153Z" fill="#DD0B34"/>
<path d="M92.7944 26.2957C96.0552 26.2925 99.317 26.2946 102.578 26.2946C102.579 27.0409 102.579 27.7872 102.578 28.5324C101.506 28.5335 100.435 28.5324 99.3631 28.5335C99.3609 31.2523 99.3642 33.97 99.362 36.6887C98.2901 36.6898 97.2182 36.6898 96.1463 36.6887C96.1442 33.97 96.1474 31.2523 96.1452 28.5335C95.0283 28.5313 93.9114 28.5357 92.7944 28.5313C92.7955 27.7861 92.7944 27.0409 92.7944 26.2957Z" fill="#DD0B34"/>
<path fill-rule="evenodd" clip-rule="evenodd" d="M117.643 26.2982C116.497 26.3046 115.321 26.571 114.374 27.2451C113.487 27.9827 113.044 29.3254 113.551 30.4071C113.985 31.355 115.003 31.85 115.972 32.0506C115.469 32.1649 115.022 32.4669 114.757 32.9155C114.232 33.772 113.718 34.6362 113.205 35.5003C112.969 35.8961 112.734 36.2918 112.498 36.6868C112.765 36.6861 113.033 36.6875 113.301 36.6889C113.851 36.6917 114.401 36.6945 114.951 36.6793C115.477 36.6631 116.054 36.497 116.352 36.0236C116.62 35.6011 116.809 35.1351 116.998 34.6694C117.234 34.0879 117.469 33.5068 117.859 33.0115C118.096 32.6686 118.535 32.6276 118.914 32.5985C118.927 33.4568 118.925 34.3155 118.924 35.1742C118.923 35.6792 118.922 36.1842 118.924 36.689C119.249 36.689 119.575 36.6891 119.901 36.6892C120.554 36.6895 121.206 36.6897 121.859 36.689C121.859 34.379 121.859 32.0695 121.859 29.7598C121.859 28.6049 121.859 27.45 121.859 26.2949C121.338 26.2957 120.818 26.2951 120.297 26.2944C119.412 26.2932 118.528 26.2921 117.643 26.2982ZM118.411 28.2636C118.006 28.2543 117.599 28.2451 117.217 28.3837C116.375 28.6921 116.219 29.9711 116.874 30.5449C117.27 30.9684 117.837 30.9502 118.384 30.9327C118.568 30.9267 118.75 30.9209 118.922 30.932C118.923 30.4236 118.923 29.9155 118.923 29.4074C118.923 29.0263 118.923 28.6453 118.923 28.264C118.754 28.2714 118.583 28.2675 118.411 28.2636Z" fill="#DD0B34"/>
<path fill-rule="evenodd" clip-rule="evenodd" d="M68.9083 27.038C67.6713 26.1019 66.0291 25.8765 64.5274 26.09C62.8992 26.2992 61.3535 27.3227 60.6525 28.8357C60.079 29.9994 59.9975 31.3561 60.2173 32.6211C60.4617 33.995 61.2624 35.2784 62.4522 36.0149C63.7835 36.8259 65.4353 37.0082 66.9424 36.6804C68.1783 36.4064 69.3038 35.6494 69.9866 34.5709C70.7927 33.3242 70.9889 31.7605 70.7831 30.3089C70.5998 29.032 69.9491 27.8101 68.9083 27.038ZM66.6994 28.721C66.1195 28.3511 65.3628 28.3436 64.725 28.5528C64.3187 28.7016 63.9854 29.0241 63.8085 29.4188C63.4875 30.084 63.4654 30.8323 63.4439 31.5606C63.4412 31.6494 63.4386 31.7379 63.4355 31.8259C63.4098 32.5754 63.5512 33.3799 64.0497 33.9655C64.8665 34.8541 66.5751 34.7938 67.1936 33.6991C67.6695 32.8385 67.6684 31.8118 67.6234 30.8553C67.5677 30.0788 67.3855 29.1858 66.6994 28.721Z" fill="#DD0B34"/>
<path fill-rule="evenodd" clip-rule="evenodd" d="M91.1619 27.1812C89.9164 26.1319 88.1852 25.8644 86.6149 26.0887C85.1689 26.2764 83.8043 27.1165 83.0583 28.388C82.2972 29.7134 82.1665 31.3311 82.473 32.8096C82.7335 34.0563 83.4506 35.2135 84.5064 35.9317C85.812 36.8257 87.5024 37.0155 89.0235 36.6791C90.1843 36.4181 91.2509 35.7376 91.9358 34.754C92.8244 33.5138 93.0592 31.908 92.8727 30.4176C92.7162 29.1774 92.1341 27.9771 91.1619 27.1812ZM89.1598 29.0794C88.6217 28.3741 87.598 28.2921 86.8101 28.5488C86.3996 28.6955 86.0652 29.0201 85.884 29.4169C85.5628 30.0757 85.543 30.8182 85.5238 31.5411C85.5212 31.6383 85.5186 31.7353 85.5153 31.8316C85.4853 32.5832 85.6321 33.3878 86.1338 33.9723C86.7683 34.6614 87.896 34.7498 88.6903 34.3012C89.476 33.7997 89.6614 32.7903 89.7097 31.9232C89.7257 30.9613 89.7397 29.8979 89.1598 29.0794Z" fill="#DD0B34"/>
<path d="M28.3462 31.6059C33.8129 31.6059 39.2797 31.6049 44.7464 31.6059C44.7464 32.253 44.7464 32.9012 44.7464 33.5482C39.2797 33.5482 33.8129 33.5482 28.3462 33.5482C28.3462 32.9012 28.3462 32.253 28.3462 31.6059Z" fill="#F8BD15"/>
<path fill-rule="evenodd" clip-rule="evenodd" d="M104.649 26.2995C104.329 26.3446 104.009 26.3896 103.689 26.4299C103.688 26.4484 103.687 26.467 103.687 26.4856C103.668 27.0558 103.648 27.656 103.904 28.1813C104.081 28.5404 104.472 28.7798 104.875 28.7216C105.176 28.6943 105.478 28.6436 105.781 28.5929C106.505 28.4716 107.232 28.3498 107.952 28.5437C108.554 28.7151 108.886 29.3449 108.861 29.9489C108.015 29.964 107.158 30.0028 106.341 30.2368C105.603 30.4762 104.861 30.7329 104.205 31.1546C103.308 31.7758 102.794 32.893 102.858 33.9833C102.903 34.9054 103.251 35.8889 104.039 36.426C104.997 37.0634 106.24 37.1594 107.335 36.8822C107.862 36.7618 108.298 36.4567 108.734 36.1515C108.958 35.9945 109.182 35.8375 109.419 35.7056C109.501 35.8243 109.559 35.9733 109.617 36.1236C109.743 36.4499 109.872 36.7816 110.253 36.8186C110.628 36.848 111.005 36.843 111.382 36.8381C111.613 36.835 111.845 36.832 112.076 36.8369C112.076 36.1118 112.076 35.3867 112.077 34.6616C112.077 33.2116 112.077 31.7617 112.076 30.3123C112.017 29.1681 111.528 28.0454 110.719 27.2366C109.968 26.5022 108.942 26.0546 107.894 26.0244C106.804 25.9962 105.725 26.148 104.649 26.2995ZM108.348 32.062C107.545 32.0888 106.715 32.1165 106.001 32.5141C105.292 32.8754 105.229 34.1458 106.031 34.4348C107.003 34.795 108.143 34.3906 108.817 33.6335C108.857 33.3082 108.817 32.9784 108.776 32.6486C108.752 32.4481 108.727 32.2476 108.721 32.0482C108.597 32.0537 108.473 32.0579 108.348 32.062Z" fill="#DD0B34"/>
<path d="M28.385 34.8675C30.0154 34.8664 31.6458 34.8686 33.2762 34.8675C33.2772 37.6305 33.2751 40.3945 33.2772 43.1586C33.8432 43.1737 34.4188 43.1543 34.9666 42.9925C35.1992 42.8965 35.3728 42.6981 35.525 42.504C36.7309 40.8734 37.3902 38.9106 38.5993 37.2811C39.072 36.6167 39.653 36.0042 40.3915 35.6429C41.7528 35.0368 43.2675 34.9635 44.7338 35.0034C44.7317 35.9945 44.7403 36.9856 44.7317 37.9767C44.7456 38.3347 44.5891 38.7078 44.2761 38.8944C43.8045 39.1673 43.2428 39.2039 42.7529 39.4326C42.3252 39.6116 41.9801 39.9437 41.7196 40.3223C40.9221 41.4223 40.622 42.8016 39.8084 43.8919C39.5351 44.2575 39.1524 44.5174 38.7461 44.7126C39.3796 44.869 39.981 45.1721 40.459 45.6218C40.9864 46.1513 41.3905 46.7886 41.7689 47.4303C43.261 50.0844 44.7724 52.7287 46.2602 55.386C44.7906 55.3882 43.321 55.386 41.8515 55.3882C41.3562 55.4011 40.8267 55.2555 40.4987 54.8608C40.175 54.5362 40.0506 54.0833 39.8202 53.6983C38.6647 51.6643 37.5177 49.6239 36.3611 47.591C36.1328 47.1855 35.7598 46.8598 35.301 46.7595C34.6354 46.6215 33.9504 46.6981 33.2762 46.6797C33.2762 49.5365 33.2762 52.3944 33.2762 55.2523C31.7766 55.2544 30.278 55.248 28.7784 55.2555C28.6595 55.2167 28.3443 55.3396 28.3861 55.1153C28.3818 48.3664 28.385 41.6175 28.385 34.8675Z" fill="#DD0B34"/>
<path d="M93.6318 40.2056C95.1229 40.2077 96.6139 40.2045 98.1049 40.2066C98.1017 42.0325 98.1103 43.8583 98.0996 45.683C99.6806 45.7067 101.262 45.683 102.843 45.6959C102.861 43.8658 102.845 42.0357 102.85 40.2056C104.343 40.2077 105.837 40.2034 107.33 40.2077C107.33 45.2667 107.33 50.3246 107.33 55.3836C105.837 55.3912 104.343 55.3825 102.85 55.3879C102.849 53.2806 102.851 51.1734 102.849 49.065C101.268 49.065 99.686 49.065 98.1049 49.0661C98.1071 51.1701 98.0985 53.2752 98.1092 55.3804C96.6171 55.3955 95.125 55.3804 93.6318 55.3879C93.6318 50.3268 93.6318 45.2667 93.6318 40.2056Z" fill="#DD0B34"/>
<path fill-rule="evenodd" clip-rule="evenodd" d="M56.8898 41.0834C55.2798 40.0762 53.3107 39.7979 51.4498 39.9964C49.1506 40.2002 46.8867 41.4577 45.7709 43.5369C44.8072 45.2452 44.5853 47.2834 44.8211 49.2085C45.0002 50.6902 45.6712 52.089 46.6412 53.2095C47.786 54.481 49.3918 55.2887 51.0704 55.5389C52.9623 55.8377 54.9839 55.5907 56.6572 54.6169C57.8802 53.8889 58.8653 52.7716 59.4613 51.4764C59.8375 50.7679 60.0948 49.9946 60.1677 49.1923C60.3199 47.718 60.2492 46.1931 59.7636 44.7825C59.2619 43.2684 58.2447 41.9214 56.8898 41.0834ZM54.1494 43.7072C53.3744 43.2521 52.4108 43.2144 51.5565 43.4344C50.9508 43.5972 50.4277 44.0113 50.1222 44.5614C49.567 45.5352 49.4973 46.6924 49.4823 47.7891C49.4405 48.8439 49.478 49.9654 50.0022 50.9102C50.3238 51.5227 50.8865 51.9972 51.5586 52.1676C52.5147 52.4092 53.6327 52.3413 54.4238 51.6931C55.2181 50.9824 55.4861 49.8835 55.5793 48.8579C55.6662 47.7385 55.6458 46.5942 55.3639 45.5018C55.1591 44.8018 54.7818 44.1009 54.1494 43.7072Z" fill="#DD0B34"/>
<path fill-rule="evenodd" clip-rule="evenodd" d="M89.3809 41.2833C87.6862 40.0981 85.5274 39.7746 83.509 40.001C81.809 40.1984 80.1153 40.8886 78.9277 42.159C77.5503 43.5459 76.9264 45.5335 76.8739 47.4606C76.801 49.4288 77.3187 51.4779 78.5879 53.0103C79.7005 54.4026 81.3802 55.2578 83.1178 55.5371C84.851 55.8089 86.6808 55.6655 88.2919 54.9375C89.8804 54.229 91.1571 52.855 91.7681 51.2201C92.4305 49.5172 92.5088 47.6213 92.1883 45.8333C91.8603 44.0387 90.8923 42.3262 89.3809 41.2833ZM86.4334 43.8089C85.6477 43.2578 84.6068 43.2018 83.7011 43.4326C83.2016 43.5674 82.7428 43.8639 82.4395 44.2878C81.8338 45.0966 81.688 46.1416 81.6312 47.1252C81.598 48.2942 81.6012 49.5085 82.0439 50.6096C82.3151 51.3074 82.865 51.9199 83.595 52.1345C84.5093 52.4042 85.5716 52.3653 86.3841 51.8229C87.144 51.2783 87.4913 50.34 87.6393 49.4471C87.8022 48.3848 87.8001 47.2945 87.6521 46.2311C87.5139 45.3285 87.1783 44.3816 86.4334 43.8089Z" fill="#DD0B34"/>
<path fill-rule="evenodd" clip-rule="evenodd" d="M72.0616 40.2574C70.9083 39.7991 69.608 39.8724 68.4268 40.1852C67.3045 40.4893 66.328 41.1827 65.5508 42.0379C65.513 41.898 65.4794 41.7568 65.4458 41.6155C65.3851 41.3607 65.3244 41.1058 65.2389 40.8581C65.0685 40.4203 64.5861 40.2067 64.1424 40.2121C63.5702 40.2021 62.998 40.2041 62.4261 40.206C62.0713 40.2072 61.7165 40.2084 61.3618 40.2067V60.31C62.8518 60.2701 64.3407 60.2238 65.8295 60.1677C65.8344 58.4398 65.8314 56.7128 65.8284 54.9858C65.828 54.7942 65.8277 54.6026 65.8274 54.4109C65.9138 54.4679 65.9995 54.5261 66.0853 54.5844C66.3603 54.7713 66.6359 54.9586 66.9358 55.1033C68.0538 55.6792 69.3711 55.7838 70.5931 55.5455C72.0488 55.2597 73.3404 54.3495 74.1894 53.1351C75.4264 51.373 75.9559 49.1719 75.8594 47.0311C75.7972 45.8686 75.6515 44.6801 75.1477 43.6179C74.5377 42.1965 73.5269 40.8538 72.0616 40.2574ZM68.0023 43.5082C67.1276 43.6409 66.388 44.1952 65.822 44.853C65.8352 45.9056 65.8325 46.9584 65.8299 48.0112C65.8272 49.0986 65.8244 50.186 65.8391 51.273C66.3494 51.9169 67.193 52.262 68.0055 52.2868C68.8437 52.3526 69.7452 52.042 70.2393 51.3302C71.0722 50.1579 71.1451 48.6427 71.1269 47.2526C71.0904 46.1256 70.9929 44.8573 70.1771 43.9978C69.6337 43.3982 68.7419 43.3842 68.0023 43.5082Z" fill="#DD0B34"/>
<path fill-rule="evenodd" clip-rule="evenodd" d="M116.355 39.9447C114.265 39.8789 112.182 40.1431 110.125 40.485C110.075 41.2205 110.07 41.9711 110.254 42.6904C110.383 43.1735 110.689 43.6459 111.175 43.8217C111.674 44.009 112.195 43.9033 112.705 43.7997C112.844 43.7714 112.982 43.7433 113.119 43.7214C113.177 43.7115 113.235 43.7015 113.293 43.6914C114.226 43.5301 115.187 43.3638 116.127 43.5445C117.028 43.7257 117.614 44.6532 117.531 45.5526C116.705 45.5601 115.878 45.5785 115.059 45.6842C114.22 45.7849 113.413 46.0329 112.608 46.28C112.499 46.3134 112.39 46.3468 112.282 46.3798C110.864 46.8392 109.603 47.8885 109.055 49.3013C108.604 50.659 108.722 52.1861 109.288 53.491C109.637 54.3096 110.308 54.9761 111.127 55.3158C113.473 56.3209 116.402 55.6447 118.081 53.7143C118.127 53.8428 118.169 53.9736 118.211 54.1044C118.314 54.4237 118.416 54.7436 118.584 55.0343C118.806 55.4031 119.266 55.512 119.666 55.525C120.17 55.5411 120.675 55.5385 121.18 55.536C121.451 55.5346 121.722 55.5332 121.993 55.5347C121.993 54.5173 121.993 53.5 121.993 52.4828C121.992 50.4486 121.992 48.4147 121.993 46.3808C122.044 45.0188 121.763 43.6092 120.98 42.4769C119.97 40.9358 118.168 40.0202 116.355 39.9447ZM116.702 48.6042C115.708 48.7157 114.71 48.8276 113.759 49.1502C112.854 49.464 112.449 50.6579 112.868 51.4947C113.166 52.0426 113.847 52.186 114.419 52.1936C115.1 52.1709 115.806 52.0674 116.408 51.7255C116.621 51.6087 116.796 51.4435 116.972 51.2782C117.14 51.1199 117.308 50.9616 117.509 50.8455C117.524 50.3354 117.521 49.8247 117.518 49.3142C117.517 49.0456 117.515 48.777 117.517 48.5085C117.246 48.5433 116.974 48.5737 116.702 48.6042Z" fill="#DD0B34"/>
</svg>
