<svg width="147" height="74" viewBox="0 0 147 74" fill="none" xmlns="http://www.w3.org/2000/svg">
<path d="M50.6115 46.2038C50.7369 45.8276 50.9878 45.5768 51.1132 45.2006C55.5023 36.4222 52.8688 26.0136 44.4667 20.9974C44.3413 20.9974 44.3413 20.872 44.2159 20.872C44.0905 20.872 43.9651 20.7466 43.9651 20.7466C44.4667 21.6244 44.9683 22.6277 45.2191 23.7563C45.9716 26.5152 45.5953 29.5249 44.0905 31.9076C43.9651 32.033 43.9651 32.1585 43.8397 32.2839C42.3348 34.6666 40.9553 35.6698 39.8267 36.4222C38.9489 37.0493 38.3218 37.5509 37.444 38.5541L37.3186 38.6795C36.19 40.686 35.9391 42.9433 36.6916 44.9498C37.3186 46.7055 38.4472 48.3357 40.2029 49.339C43.9651 51.5963 48.4797 49.8406 50.6115 46.2038Z" fill="#C2C2C2"/>
<path d="M17.8811 34.7917C19.8876 32.7852 22.7719 31.6566 25.5308 31.6566C26.1578 31.6566 26.7848 31.6566 27.2865 31.782C29.0421 32.0328 30.0454 32.5344 30.9232 33.036C31.9265 33.5376 32.6789 33.9138 34.56 34.0392H34.8108C37.4443 34.0392 39.827 32.6598 41.2064 30.6533C42.0843 29.3993 42.5859 27.8944 42.5859 26.1387C42.5859 21.8749 38.3221 18.1128 34.0583 18.1128C33.5567 18.1128 32.9297 18.1128 32.4281 18.2382C22.8973 18.9906 16.1254 27.142 16 36.7982C16 36.9236 16 36.9236 16 37.049C16 37.1744 16 37.2998 16 37.4252C16.5016 36.4219 17.1286 35.5441 17.8811 34.7917Z" fill="#1E429A"/>
<path d="M43.8395 53.4772C43.9649 53.4772 44.0903 53.3518 44.2157 53.3518C44.3411 53.3518 44.4665 53.2264 44.4665 53.2264C43.4633 53.2264 42.3346 53.101 41.206 52.8502C38.4471 52.0977 36.0644 50.2167 34.6849 47.834C34.3087 47.2069 34.0579 46.7053 33.9325 46.2037C33.3054 44.5734 33.18 43.5702 33.18 42.5669C33.18 41.5637 33.0546 40.5605 32.1768 38.6794L32.0514 38.554C30.9227 36.5475 28.9163 35.2934 26.7844 34.7918C25.0287 34.2902 23.1476 34.541 21.392 35.5443C19.6363 36.5475 18.2568 38.3032 17.7552 40.3097C17.2536 42.3161 17.5044 44.9496 18.5076 46.7053C18.5076 46.7053 18.5076 46.7053 18.5076 46.8307C23.6492 55.7345 34.9357 58.368 43.8395 53.4772Z" fill="#EC1C25"/>
<path d="M60.8956 38.0513C61.0211 37.0481 61.5227 36.1702 62.5259 35.5432C63.5292 34.9162 64.6578 34.54 65.7865 34.4146H65.9119H66.0373H66.1627H66.2881C67.2913 34.4146 68.1691 34.7908 69.047 35.2924C69.9248 35.794 70.5518 36.5464 70.8027 37.6751L72.8091 44.3216L74.941 37.0481C75.1918 36.2956 75.8189 35.6686 76.6967 35.167C77.6999 34.6654 78.7032 34.4146 79.7064 34.4146C79.7064 34.4146 79.7064 34.4146 79.8318 34.4146C79.8318 34.4146 79.8318 34.4146 79.9572 34.4146C80.0826 34.4146 80.0826 34.4146 80.208 34.4146C80.3335 34.4146 80.3334 34.4146 80.4589 34.4146C81.5875 34.54 82.5907 34.9162 83.4686 35.4178C84.3464 36.0448 84.9734 37.0481 85.0988 38.4275L86.7291 55.3572H79.3302L78.5778 43.3183L75.5681 54.1032C75.4426 54.6048 75.1918 54.981 74.8156 55.2318C74.4394 55.4826 73.9378 55.7334 73.4362 55.7334C73.3108 55.7334 73.1854 55.7334 73.1854 55.7334C73.0599 55.7334 73.0599 55.7334 72.9345 55.7334H72.8091H72.6837C72.3075 55.7334 71.8059 55.608 71.4297 55.3572C71.0535 55.1064 70.8027 54.7302 70.6772 54.354L67.4167 43.3183L66.5389 55.4826H59.2654L60.8956 38.0513Z" fill="#1E429A"/>
<path d="M114.067 41.6891C114.067 41.3129 114.067 40.9367 114.192 40.4351C114.318 39.9334 114.443 39.5572 114.694 39.0556C115.196 37.927 116.073 36.9237 117.327 36.0459C118.581 35.168 120.212 34.6664 122.218 34.541H122.845C125.103 34.541 127.234 35.168 129.116 36.4221C130.997 37.6761 131.874 39.4318 132 41.8145V42.4415C132 42.5669 132 42.5669 132 42.6924C132 42.8178 132 42.8178 132 42.9432C131.874 44.6988 131.122 46.2037 129.743 47.7086C128.363 49.088 126.106 49.8404 122.971 49.8404H122.845H122.72H122.594H122.469V43.9464C122.469 43.9464 122.469 43.9464 122.594 43.9464C122.594 43.9464 122.594 43.9464 122.72 43.9464H122.845C123.472 43.9464 123.974 43.821 124.35 43.4448C124.726 43.0686 124.852 42.8178 124.977 42.4415C124.977 42.4415 124.977 42.4415 124.977 42.3161C124.977 42.1907 124.977 42.3161 124.977 42.1907C124.977 42.0653 124.977 42.1907 124.977 42.0653C124.977 41.9399 124.977 42.0653 124.977 41.9399C124.977 41.5637 124.726 41.3129 124.476 41.0621C124.225 40.8113 123.849 40.6859 123.347 40.6859C122.594 40.6859 122.093 40.9367 121.842 41.3129C121.591 41.6891 121.466 42.4415 121.466 43.3194V55.8599H114.192L114.067 41.6891Z" fill="#1E429A"/>
<path d="M110.181 55.3581H102.656V46.956L98.6434 53.477C98.2671 54.1041 97.7655 54.6057 97.0131 54.9819C96.3861 55.3581 95.6336 55.6089 95.0066 55.7343C94.8812 55.7343 94.7558 55.7343 94.6304 55.7343C94.505 55.7343 94.3796 55.7343 94.2542 55.7343C93.2509 55.7343 92.3731 55.4835 91.4953 54.8565C90.6174 54.2295 90.2412 53.3516 90.2412 51.9722V34.4154H97.8909V43.57L101.653 36.7981C102.029 36.0457 102.531 35.5441 103.158 35.1679C103.785 34.7917 104.412 34.5408 105.164 34.4154C105.29 34.4154 105.541 34.29 105.666 34.29C105.791 34.29 106.042 34.29 106.168 34.29C107.296 34.29 108.174 34.5409 109.052 35.1679C109.93 35.7949 110.306 36.6727 110.306 37.676C110.181 37.8014 110.181 55.3581 110.181 55.3581Z" fill="#1E429A"/>
<path d="M62.65 24.8844C61.8976 24.8844 61.396 24.6336 60.8944 24.1319C60.5181 23.6303 60.2673 23.1287 60.2673 22.3763C60.2673 21.6238 60.5181 21.1222 60.8944 20.6206C61.2706 20.119 61.8976 19.8682 62.65 19.8682C62.9008 19.8682 63.1517 19.8682 63.4025 19.9936C63.6533 20.119 63.9041 20.2444 64.0295 20.3698C64.0295 20.3698 64.0295 20.4952 64.0295 20.6206C64.0295 20.746 64.0295 20.8714 63.9041 20.9968C63.7787 21.1222 63.6533 21.1222 63.5279 21.1222C63.4025 21.1222 63.2771 21.1222 63.1517 20.9968C63.0262 20.8714 62.7754 20.8714 62.65 20.8714C62.2738 20.8714 61.8976 20.9968 61.7722 21.373C61.5214 21.6238 61.5214 22.0001 61.5214 22.3763C61.5214 22.7525 61.6468 23.1287 61.7722 23.3795C62.023 23.6303 62.2738 23.7557 62.65 23.7557C62.7754 23.7557 63.0263 23.7557 63.2771 23.6303C63.5279 23.5049 63.6533 23.5049 63.6533 23.5049C63.7787 23.5049 63.9041 23.5049 63.9041 23.6303C64.0295 23.7557 64.0295 23.8811 64.0295 24.0065C64.0295 24.1319 64.0295 24.2573 63.9041 24.2573C63.7787 24.6336 63.2771 24.8844 62.65 24.8844Z" fill="#1E429A"/>
<path d="M66.5379 19.8687C66.9141 19.8687 67.1649 20.1195 67.2903 20.4957L68.5444 24.007C68.5444 24.1324 68.6698 24.2578 68.6698 24.3832C68.6698 24.5086 68.6698 24.634 68.5444 24.7595C68.419 24.8849 68.2936 24.8849 68.1682 24.8849C67.9173 24.8849 67.6665 24.7595 67.5411 24.3832L67.4157 23.8816H65.6601L65.4092 24.2578C65.2838 24.634 65.1584 24.7595 64.9076 24.7595C64.7822 24.7595 64.6568 24.7595 64.5314 24.634C64.406 24.5086 64.406 24.3832 64.406 24.2578C64.406 24.1324 64.406 24.007 64.406 23.8816L65.6601 20.4957C65.9109 20.1195 66.1617 19.8687 66.5379 19.8687ZM66.5379 21.1227L66.0363 22.753H67.1649L66.5379 21.1227Z" fill="#1E429A"/>
<path d="M71.6803 23.2547L72.3073 20.6212C72.3073 20.3704 72.4327 20.245 72.5581 20.1195C72.6835 19.9941 72.8089 19.9941 73.0598 19.9941C73.3106 19.9941 73.436 20.1195 73.6868 20.245C73.8122 20.3704 73.9376 20.6212 73.9376 20.7466L74.4392 24.0071C74.4392 24.1325 74.4392 24.2579 74.4392 24.3833C74.4392 24.7595 74.3138 24.8849 73.9376 24.8849C73.6868 24.8849 73.5614 24.7595 73.5614 24.6341C73.5614 24.5087 73.436 24.3833 73.436 24.1325L73.0598 21.499L72.4327 23.8817C72.3073 24.1325 72.3073 24.2579 72.1819 24.3833C72.0565 24.5087 71.9311 24.6341 71.6803 24.6341C71.4295 24.6341 71.3041 24.5087 71.1787 24.3833C71.0533 24.2579 71.0533 24.1325 70.9279 23.8817L70.3008 21.499L69.9246 24.1325C69.9246 24.3833 69.7992 24.5087 69.7992 24.6341C69.6738 24.7595 69.5484 24.8849 69.423 24.8849C69.0468 24.8849 68.9214 24.7595 68.9214 24.3833C68.9214 24.3833 68.9214 24.2579 68.9214 24.0071L69.423 20.7466C69.423 20.4958 69.5484 20.3704 69.6738 20.245C69.7992 20.1195 70.05 19.9941 70.1754 19.9941C70.4262 19.9941 70.5517 19.9941 70.6771 20.1195C70.8025 20.245 70.9279 20.3704 70.9279 20.6212L71.6803 23.2547Z" fill="#1E429A"/>
<path d="M74.9412 22.3768C74.9412 21.6243 75.192 21.1227 75.5682 20.6211C75.9444 20.1195 76.5714 19.8687 77.1985 19.8687C77.9509 19.8687 78.4525 20.1195 78.9541 20.6211C79.3303 21.1227 79.5812 21.6243 79.5812 22.3768C79.5812 23.1292 79.3303 23.6308 78.9541 24.1324C78.5779 24.634 77.9509 24.8849 77.1985 24.8849C76.446 24.8849 75.9444 24.634 75.5682 24.1324C75.0666 23.6308 74.9412 23.0038 74.9412 22.3768ZM76.0698 22.3768C76.0698 22.753 76.1952 23.1292 76.3206 23.38C76.5714 23.6308 76.8222 23.8816 77.1985 23.8816C77.5747 23.8816 77.8255 23.7562 78.0763 23.38C78.2017 23.1292 78.3271 22.753 78.3271 22.3768C78.3271 22.0005 78.2017 21.6243 78.0763 21.3735C77.8255 21.1227 77.5747 20.8719 77.1985 20.8719C76.8222 20.8719 76.5714 20.9973 76.3206 21.3735C76.1952 21.6243 76.0698 22.0005 76.0698 22.3768Z" fill="#1E429A"/>
<path d="M80.8356 24.7595C80.4594 24.7595 80.334 24.5087 80.334 24.0071V20.7466C80.334 20.4958 80.334 20.245 80.4594 20.1195C80.5848 19.9941 80.7102 19.9941 81.0864 19.9941H82.0897C82.5913 19.9941 83.0929 20.1195 83.3437 20.3704C83.7199 20.6212 83.8453 21.1228 83.8453 21.6244C83.8453 22.126 83.7199 22.5022 83.3437 22.8785C83.0929 23.1293 82.5913 23.2547 82.0897 23.2547H81.3372V24.1325C81.3372 24.5087 81.2118 24.7595 80.8356 24.7595ZM81.3372 22.2514H81.8388C82.3405 22.2514 82.5913 22.0006 82.5913 21.6244C82.5913 21.2482 82.3405 20.9974 81.8388 20.9974H81.3372V22.2514Z" fill="#1E429A"/>
<path d="M86.4767 19.9941C86.9783 19.9941 87.2291 20.1195 87.2291 20.4958C87.2291 20.872 86.9783 20.9974 86.4767 20.9974H85.5989V21.8752H86.3513C86.8529 21.8752 87.1037 22.0006 87.1037 22.3768C87.1037 22.7531 86.8529 22.8785 86.3513 22.8785H85.5989V23.7563H86.4767C86.9783 23.7563 87.2291 23.8817 87.2291 24.2579C87.2291 24.6341 86.9783 24.7595 86.4767 24.7595H85.2226C84.9718 24.7595 84.721 24.7595 84.5956 24.6341C84.4702 24.5087 84.4702 24.3833 84.4702 24.1325V20.7466C84.4702 20.4958 84.4702 20.245 84.5956 20.1195C84.721 19.9941 84.8464 19.9941 85.2226 19.9941H86.4767Z" fill="#1E429A"/>
<path d="M87.9819 24.0071V20.7466C87.9819 20.4958 87.9819 20.245 88.1073 20.1195C88.2327 19.9941 88.3582 19.9941 88.7344 19.9941H89.9884C90.49 19.9941 90.7408 20.1195 90.7408 20.4958C90.7408 20.872 90.49 20.9974 89.9884 20.9974H89.1106V24.0071C89.1106 24.5087 88.9852 24.7595 88.609 24.7595C88.2327 24.7595 87.9819 24.5087 87.9819 24.0071Z" fill="#1E429A"/>
<path d="M92.4965 25.6373C92.1203 25.6373 91.9949 25.5119 91.9949 25.1357C91.9949 25.0103 91.9949 24.8849 91.9949 24.7595L92.2457 24.007L90.8662 20.6211C90.8662 20.4957 90.8662 20.3703 90.8662 20.3703C90.8662 20.2449 90.8662 20.1195 90.9916 19.9941C91.117 19.8687 91.2424 19.8687 91.3678 19.8687C91.6186 19.8687 91.744 19.9941 91.8695 20.3703L92.7473 22.753L93.6251 20.4957C93.7505 20.3703 93.7505 20.2449 93.7505 20.1195C93.8759 19.9941 94.0013 19.9941 94.1267 19.9941C94.503 19.9941 94.6284 20.1195 94.6284 20.4957C94.6284 20.6211 94.6284 20.7465 94.503 20.8719L92.7473 25.3865C92.9981 25.3865 92.8727 25.5119 92.8727 25.5119C92.7473 25.6373 92.6219 25.6373 92.4965 25.6373Z" fill="#1E429A"/>
<path d="M98.3919 20.8723H97.2632C97.1378 20.8723 97.0124 20.9977 97.0124 21.1231V23.7566C97.0124 24.3836 96.6362 24.7599 96.0092 24.7599C95.3822 24.7599 95.1313 24.6345 95.1313 24.2582C95.1313 24.0074 95.1313 23.882 95.2568 23.882C95.3822 23.882 95.3822 23.882 95.633 23.7566C95.7584 23.7566 95.8838 23.7566 95.8838 23.6312C95.8838 23.5058 96.0092 23.5058 96.0092 23.3804V20.9977C96.0092 20.4961 96.1346 20.2453 96.26 19.9945C96.3854 19.7437 96.7616 19.7437 97.2632 19.7437H99.0189C99.3951 19.7437 99.5205 19.9945 99.5205 20.4961V23.882C99.5205 24.3836 99.3951 24.6345 99.0189 24.6345C98.7681 24.6345 98.6427 24.509 98.5173 24.3836C98.5173 24.2582 98.3919 24.1328 98.3919 23.882C98.3919 24.0074 98.3919 20.8723 98.3919 20.8723Z" fill="#1E429A"/>
<path d="M103.533 21.8752L101.527 24.5087C101.401 24.7595 101.15 24.8849 100.9 24.8849C100.523 24.8849 100.398 24.6341 100.398 24.2579V20.7466C100.398 20.245 100.523 19.9941 100.9 19.9941C101.276 19.9941 101.401 20.245 101.401 20.7466V23.0039L103.408 20.3704C103.533 20.1195 103.784 19.9941 104.035 19.9941C104.411 19.9941 104.536 20.245 104.536 20.7466V24.1325C104.536 24.6341 104.411 24.8849 104.035 24.8849C103.658 24.8849 103.533 24.6341 103.533 24.1325V21.8752Z" fill="#1E429A"/>
<path d="M106.166 24.7595C105.789 24.7595 105.664 24.5087 105.664 24.0071V20.7466C105.664 20.4958 105.664 20.245 105.789 20.1195C105.915 19.9941 106.04 19.9941 106.417 19.9941H107.42C107.921 19.9941 108.423 20.1195 108.674 20.3704C109.05 20.6212 109.175 21.1228 109.175 21.6244C109.175 22.126 109.05 22.5022 108.674 22.8785C108.423 23.1293 107.921 23.2547 107.42 23.2547H106.667V24.1325C106.667 24.5087 106.542 24.7595 106.166 24.7595ZM106.667 22.2514H107.169C107.671 22.2514 107.921 22.0006 107.921 21.6244C107.921 21.2482 107.671 20.9974 107.169 20.9974H106.667V22.2514Z" fill="#1E429A"/>
<path d="M110.933 25.6373C110.556 25.6373 110.431 25.5119 110.431 25.1357C110.431 25.0103 110.431 24.8849 110.431 24.7595L110.682 24.007L109.302 20.6211C109.302 20.4957 109.302 20.3703 109.302 20.3703C109.302 20.2449 109.302 20.1195 109.428 19.9941C109.553 19.8687 109.678 19.8687 109.804 19.8687C110.055 19.8687 110.18 19.9941 110.305 20.3703L111.309 22.753L112.187 20.4957C112.312 20.3703 112.312 20.2449 112.312 20.1195C112.437 19.9941 112.563 19.9941 112.688 19.9941C113.064 19.9941 113.19 20.1195 113.19 20.4957C113.19 20.6211 113.19 20.7465 113.064 20.8719L111.309 25.3865C111.183 25.5119 111.183 25.6373 111.058 25.7627C111.183 25.6373 111.058 25.6373 110.933 25.6373Z" fill="#1E429A"/>
<path d="M115.821 19.9941C116.323 19.9941 116.574 20.1195 116.574 20.4958C116.574 20.872 116.323 20.9974 115.821 20.9974H114.944V21.8752H115.696C116.198 21.8752 116.448 22.0006 116.448 22.3768C116.448 22.7531 116.198 22.8785 115.696 22.8785H114.944V23.7563H115.821C116.323 23.7563 116.574 23.8817 116.574 24.2579C116.574 24.6341 116.323 24.7595 115.821 24.7595H114.567C114.317 24.7595 114.066 24.7595 113.94 24.6341C113.815 24.5087 113.815 24.3833 113.815 24.1325V20.7466C113.815 20.4958 113.815 20.245 113.94 20.1195C114.066 19.9941 114.191 19.9941 114.567 19.9941H115.821Z" fill="#1E429A"/>
<path d="M119.835 23.2546L120.462 20.4957C120.462 20.2449 120.587 20.1195 120.712 19.9941C120.838 19.8687 120.963 19.8687 121.214 19.8687C121.465 19.8687 121.59 19.9941 121.716 20.1195C121.841 20.2449 121.966 20.4957 121.966 20.6211L122.468 23.8816C122.468 24.007 122.468 24.1324 122.468 24.2578C122.468 24.634 122.343 24.7595 121.966 24.7595C121.716 24.7595 121.59 24.634 121.59 24.5086C121.59 24.3832 121.465 24.2578 121.465 24.007L121.089 21.3735L120.462 23.7562C120.336 24.007 120.336 24.1324 120.211 24.2578C120.085 24.3832 119.96 24.5086 119.709 24.5086C119.458 24.5086 119.333 24.3832 119.207 24.2578C119.082 24.1324 119.082 24.007 118.957 23.7562L118.33 21.3735L117.953 24.007C117.953 24.2578 117.828 24.3832 117.828 24.5086C117.703 24.634 117.577 24.7595 117.452 24.7595C117.076 24.7595 116.95 24.634 116.95 24.2578C116.95 24.2578 116.95 24.1324 116.95 23.8816L117.452 20.6211C117.452 20.3703 117.577 20.2449 117.703 20.1195C117.828 19.9941 118.079 19.8687 118.204 19.8687C118.455 19.8687 118.58 19.8687 118.706 19.9941C118.831 20.1195 118.957 20.2449 118.957 20.4957L119.835 23.2546Z" fill="#1E429A"/>
<path d="M124.976 19.8687C125.352 19.8687 125.603 20.1195 125.729 20.4957L126.983 24.007C126.983 24.1324 127.108 24.2578 127.108 24.3832C127.108 24.5086 127.108 24.634 126.983 24.7595C126.857 24.8849 126.732 24.8849 126.606 24.8849C126.356 24.8849 126.105 24.7595 125.979 24.3832L125.854 23.8816H124.098L123.973 24.2578C123.848 24.634 123.722 24.7595 123.471 24.7595C123.346 24.7595 123.221 24.7595 123.095 24.634C122.97 24.5086 122.97 24.3832 122.97 24.2578C122.97 24.1324 122.97 24.007 122.97 23.8816L124.224 20.4957C124.349 20.1195 124.6 19.8687 124.976 19.8687ZM124.976 21.1227L124.475 22.753H125.478L124.976 21.1227Z" fill="#1E429A"/>
<path d="M131.121 20.7466V24.0071C131.121 24.5087 130.996 24.7595 130.62 24.7595C130.243 24.7595 130.118 24.5087 130.118 24.0071V22.8785L128.864 24.5087C128.613 24.7595 128.488 24.8849 128.237 24.8849C128.112 24.8849 127.986 24.8849 127.861 24.7595C127.735 24.6341 127.735 24.5087 127.735 24.3833C127.735 24.2579 127.861 24.0071 128.112 23.7563L128.989 22.7531C128.613 22.7531 128.362 22.5022 128.112 22.3768C127.861 22.2514 127.861 21.8752 127.861 21.499C127.861 20.9974 127.986 20.7466 128.362 20.3704C128.739 20.1195 129.115 19.9941 129.742 19.9941H130.62C130.87 19.9941 131.121 19.9941 131.247 20.1195C130.996 20.245 131.121 20.3704 131.121 20.7466ZM129.993 22.126V20.9974H129.491C128.989 20.9974 128.864 21.2482 128.864 21.6244C128.864 22.0006 129.115 22.2514 129.616 22.2514H129.993V22.126Z" fill="#1E429A"/>
<path d="M60.0171 29.1487C60.0171 28.3963 60.2679 27.8947 60.6441 27.3931C61.0203 26.8914 61.6474 26.6406 62.2744 26.6406C63.0268 26.6406 63.5284 26.8914 64.0301 27.3931C64.4063 27.8947 64.6571 28.3963 64.6571 29.1487C64.6571 29.9012 64.4063 30.4028 64.0301 30.9044C63.6538 31.406 63.0268 31.6568 62.2744 31.6568C61.522 31.6568 61.0203 31.406 60.6441 30.9044C60.2679 30.4028 60.0171 29.9012 60.0171 29.1487ZM61.1457 29.1487C61.1457 29.5249 61.2711 29.9012 61.3965 30.152C61.6474 30.4028 61.8982 30.6536 62.2744 30.6536C62.6506 30.6536 62.9014 30.5282 63.1522 30.152C63.2776 29.9012 63.403 29.5249 63.403 29.1487C63.403 28.7725 63.2776 28.3963 63.1522 28.1455C62.9014 27.8947 62.6506 27.6439 62.2744 27.6439C61.8982 27.6439 61.6474 27.7693 61.3965 28.1455C61.2711 28.3963 61.1457 28.7725 61.1457 29.1487Z" fill="#1E429A"/>
<path d="M68.1691 31.6564C67.7929 31.6564 67.6675 31.4056 67.6675 30.904V27.6435C67.6675 27.3927 67.6675 27.1418 67.7929 27.0164C67.7929 26.7656 68.0437 26.7656 68.2945 26.7656H69.2977C69.7994 26.7656 70.301 26.891 70.5518 27.1418C70.928 27.3926 71.0534 27.8943 71.0534 28.3959C71.0534 28.8975 70.928 29.2737 70.5518 29.6499C70.301 29.9008 69.7994 30.0262 69.2977 30.0262H68.5453V30.904C68.6707 31.4056 68.4199 31.6564 68.1691 31.6564ZM68.6707 29.0229H69.1723C69.674 29.0229 69.9248 28.7721 69.9248 28.3959C69.9248 28.0197 69.674 27.7689 69.1723 27.7689H68.6707V29.0229Z" fill="#1E429A"/>
<path d="M73.9375 30.7786V27.5181C73.9375 27.2672 73.9375 27.0164 74.0629 26.891C74.1883 26.7656 74.3137 26.7656 74.6899 26.7656H75.944C76.4456 26.7656 76.6964 26.891 76.6964 27.2672C76.6964 27.6435 76.4456 27.7689 75.944 27.7689H75.0661V30.7786C75.0661 31.2802 74.9407 31.531 74.5645 31.531C74.1883 31.6564 73.9375 31.4056 73.9375 30.7786Z" fill="#1E429A"/>
<path d="M80.7102 26.6406C81.0864 26.6406 81.3372 26.8914 81.4626 27.2677L82.7167 30.6536C82.7167 30.779 82.8421 30.9044 82.8421 31.0298C82.8421 31.1552 82.8421 31.2806 82.7167 31.406C82.5913 31.5314 82.4658 31.5314 82.3404 31.5314C82.0896 31.5314 81.8388 31.406 81.7134 31.0298L81.4626 30.5282H79.7069L79.4561 31.1552C79.3307 31.5314 79.2053 31.6568 78.9545 31.6568C78.8291 31.6568 78.7037 31.6568 78.5783 31.5314C78.4529 31.406 78.4529 31.2806 78.4529 31.1552C78.4529 31.0298 78.4529 30.9044 78.4529 30.779L79.7069 27.3931C80.0831 26.8914 80.334 26.6406 80.7102 26.6406ZM80.7102 27.8947L80.2086 29.5249H81.3372L80.7102 27.8947Z" fill="#1E429A"/>
<path d="M86.6033 29.6499V30.904C86.6033 31.4056 86.4779 31.6564 86.1017 31.6564C85.7255 31.6564 85.6001 31.4056 85.6001 30.904V27.5181C85.6001 27.0164 85.7255 26.7656 86.1017 26.7656C86.4779 26.7656 86.6033 27.0164 86.6033 27.5181V28.6467H88.6098V27.5181C88.6098 27.0164 88.7352 26.7656 89.1114 26.7656C89.4877 26.7656 89.6131 27.0164 89.6131 27.5181V30.904C89.6131 31.4056 89.4877 31.6564 89.1114 31.6564C88.7352 31.6564 88.6098 31.4056 88.6098 30.904V29.6499H86.6033Z" fill="#1E429A"/>
<path d="M96.0091 28.6467L94.0027 31.2802C93.8773 31.531 93.6265 31.6564 93.3756 31.6564C92.9994 31.6564 92.874 31.4056 92.874 31.0294V27.5181C92.874 27.0164 92.9994 26.7656 93.3756 26.7656C93.7519 26.7656 93.8773 27.0164 93.8773 27.5181V29.7753L95.8837 27.1418C96.0091 26.891 96.26 26.7656 96.5108 26.7656C96.887 26.7656 97.0124 27.0164 97.0124 27.5181V30.904C97.0124 31.4056 96.887 31.6564 96.5108 31.6564C96.1346 31.6564 96.0091 31.4056 96.0091 30.904V28.6467Z" fill="#1E429A"/>
<path d="M102.78 29.0231C103.282 29.2739 103.532 29.6501 103.532 30.1517C103.532 31.155 102.905 31.6566 101.651 31.6566C101.275 31.6566 100.899 31.6566 100.648 31.5312C100.272 31.4058 100.021 31.155 100.021 30.9042C100.021 30.6533 100.146 30.5279 100.523 30.5279C100.648 30.5279 100.773 30.5279 100.899 30.6534C101.15 30.7788 101.15 30.7788 101.275 30.7788C101.4 30.7788 101.526 30.7788 101.777 30.7788C102.278 30.7788 102.529 30.6533 102.529 30.2771C102.529 30.1517 102.529 30.0263 102.404 29.9009C102.278 29.7755 102.153 29.7755 102.027 29.7755C102.027 29.7755 101.902 29.7755 101.651 29.7755C101.15 29.7755 101.024 29.6501 101.024 29.2739C101.024 29.1485 101.15 29.0231 101.275 28.8977C101.4 28.7723 101.526 28.7723 101.651 28.7723C101.651 28.7723 101.777 28.7723 102.027 28.7723C102.153 28.7723 102.278 28.7723 102.404 28.6469C102.529 28.5215 102.655 28.3961 102.655 28.2707C102.655 27.8944 102.404 27.769 102.027 27.769C101.902 27.769 101.777 27.769 101.526 27.8944C101.275 27.8944 101.15 28.0198 101.024 28.0198C100.773 28.0198 100.523 27.8944 100.523 27.6436C100.523 27.5182 100.523 27.5182 100.648 27.3928C100.899 27.142 101.4 27.0166 102.027 27.0166C103.156 27.0166 103.783 27.5182 103.783 28.3961C103.407 28.5215 103.156 28.7723 102.78 29.0231Z" fill="#1E429A"/>
<path d="M108.172 26.6406C108.548 26.6406 108.799 26.8914 108.924 27.2677L110.178 30.6536C110.178 30.779 110.304 30.9044 110.304 31.0298C110.304 31.1552 110.304 31.2806 110.178 31.406C110.053 31.5314 109.928 31.5314 109.802 31.5314C109.551 31.5314 109.3 31.406 109.175 31.0298L108.924 30.5282H107.169L106.918 31.1552C106.792 31.5314 106.667 31.6568 106.416 31.6568C106.291 31.6568 106.165 31.6568 106.04 31.5314C105.915 31.406 105.915 31.2806 105.915 31.1552C105.915 31.0298 105.915 30.9044 105.915 30.779L107.169 27.3931C107.545 26.8914 107.796 26.6406 108.172 26.6406ZM108.172 27.8947L107.67 29.5249H108.799L108.172 27.8947Z" fill="#1E429A"/>
<path d="M114.193 30.6532H116.074V27.5181C116.074 27.0164 116.2 26.7656 116.576 26.7656C116.952 26.7656 117.077 27.0164 117.077 27.5181V30.6532C117.454 30.6532 117.579 30.7786 117.579 31.1548V32.0326C117.579 32.4089 117.454 32.5343 117.077 32.5343C116.952 32.5343 116.827 32.5343 116.701 32.4089C116.576 32.2835 116.701 32.158 116.701 32.0326V31.6564H113.817C113.315 31.6564 113.064 31.4056 113.064 30.904V27.6435C113.064 27.1418 113.19 26.891 113.566 26.891C113.942 26.891 114.068 27.1418 114.068 27.6435L114.193 30.6532Z" fill="#1E429A"/>
<path d="M123.597 28.6467L121.591 31.2802C121.465 31.531 121.214 31.6564 120.964 31.6564C120.587 31.6564 120.462 31.4056 120.462 31.0294V27.5181C120.462 27.0164 120.587 26.7656 120.964 26.7656C121.34 26.7656 121.465 27.0164 121.465 27.5181V29.7753L123.472 27.1418C123.597 26.891 123.848 26.7656 124.099 26.7656C124.475 26.7656 124.6 27.0164 124.6 27.5181V30.904C124.6 31.4056 124.475 31.6564 124.099 31.6564C123.722 31.6564 123.597 31.4056 123.597 30.904V28.6467Z" fill="#1E429A"/>
<path d="M131.372 27.5181V30.7786C131.372 31.2802 131.246 31.531 130.87 31.531C130.494 31.531 130.369 31.2802 130.369 30.7786V29.6499L129.114 31.2802C128.864 31.531 128.738 31.6564 128.487 31.6564C128.362 31.6564 128.237 31.6564 128.111 31.531C127.986 31.4056 127.986 31.2802 127.986 31.1548C127.986 31.0294 128.111 30.7786 128.362 30.5278L129.24 29.5245C128.864 29.5245 128.613 29.2737 128.362 29.1483C128.111 28.8975 128.111 28.6467 128.111 28.2705C128.111 27.7689 128.237 27.5181 128.613 27.1418C128.864 26.891 129.365 26.7656 129.992 26.7656H130.87C131.121 26.7656 131.372 26.7656 131.497 26.891C131.246 27.0164 131.372 27.2672 131.372 27.5181ZM130.243 28.8975V27.7689H129.742C129.24 27.7689 129.114 28.0197 129.114 28.3959C129.114 28.7721 129.365 29.0229 129.867 29.0229L130.243 28.8975Z" fill="#1E429A"/>
</svg>
