<svg width="147" height="74" viewBox="0 0 147 74" fill="none" xmlns="http://www.w3.org/2000/svg">
<path fill-rule="evenodd" clip-rule="evenodd" d="M107.596 30.5898V30.5953C107.591 30.5953 105.864 30.5898 105.404 32.2396C104.982 33.7523 103.793 37.9288 103.76 38.0439H103.431C103.431 38.0439 102.214 33.7743 101.787 32.2341C101.326 30.5844 99.5942 30.5898 99.5942 30.5898H95.6479V43.1412H99.5942V35.6871H99.7587H99.9231L102.225 43.1412H104.966L107.268 35.6926H107.596V43.1412H111.543V30.5898H107.596Z" fill="#4DB45E"/>
<path fill-rule="evenodd" clip-rule="evenodd" d="M122.004 30.5859C122.004 30.5859 120.847 30.6901 120.305 31.9014L117.51 38.04H117.181V30.5859H113.234V43.1373H116.961C116.961 43.1373 118.173 43.0277 118.715 41.8219L121.456 35.6832H121.785V43.1373H125.731V30.5859H122.004Z" fill="#4DB45E"/>
<path fill-rule="evenodd" clip-rule="evenodd" d="M127.485 36.2871V43.1383H131.432V39.1372H135.707C137.57 39.1372 139.149 37.9478 139.735 36.2871H127.485Z" fill="#4DB45E"/>
<path fill-rule="evenodd" clip-rule="evenodd" d="M135.7 30.5859H126.925C127.363 32.9756 129.156 34.894 131.474 35.5188C132 35.6613 132.554 35.738 133.124 35.738H139.887C139.948 35.453 139.975 35.1625 139.975 34.8611C139.975 32.4988 138.062 30.5859 135.7 30.5859Z" fill="url(#paint0_linear)"/>
<path d="M63.9913 46.3079V45.0251C64.0302 44.5974 63.7192 44.2475 63.2916 44.2087C63.2527 44.2087 63.2138 44.2087 63.1749 44.2087C62.9028 44.2087 62.5918 44.3253 62.4363 44.5585C62.2808 44.3253 62.0475 44.1698 61.7754 44.2087C61.5422 44.2087 61.3089 44.3253 61.1923 44.5197V44.2475H60.7646V46.3079H61.2312V45.1806C61.1923 44.9084 61.3867 44.6752 61.6588 44.6363C61.6977 44.6363 61.7365 44.6363 61.7365 44.6363C62.0475 44.6363 62.1642 44.8307 62.1642 45.1806V46.3079H62.6307V45.1806C62.5918 44.9084 62.7862 44.6752 63.0583 44.6363C63.0972 44.6363 63.0972 44.6363 63.1361 44.6363C63.4471 44.6363 63.6026 44.8307 63.6026 45.1806V46.3079H63.9913ZM70.6391 44.2475H69.9004V43.6255H69.4339V44.2475H69.0452V44.6363H69.4728V45.5693C69.4728 46.0358 69.6672 46.3468 70.1726 46.3468C70.3669 46.3468 70.5613 46.3079 70.7168 46.1913L70.6002 45.8026C70.4836 45.8803 70.3281 45.9192 70.2114 45.9192C69.9782 45.9192 69.9004 45.7637 69.9004 45.5693V44.6363H70.6391V44.2475ZM74.4489 44.2087C74.2156 44.2087 74.0212 44.3253 73.9046 44.5197V44.2864H73.477V46.3468H73.9046V45.1806C73.9046 44.8307 74.0601 44.6363 74.3322 44.6363C74.41 44.6363 74.5266 44.6363 74.6044 44.6752L74.7599 44.2475C74.6433 44.2087 74.5266 44.2087 74.4489 44.2087ZM68.6953 44.4419C68.462 44.2864 68.151 44.2087 67.84 44.2087C67.3346 44.2087 66.9847 44.4419 66.9847 44.8696C66.9847 45.2194 67.218 45.4138 67.6845 45.4916L67.9178 45.5304C68.151 45.5693 68.2676 45.6471 68.2676 45.7637C68.2676 45.9192 68.1121 45.9969 67.8011 45.9969C67.5679 45.9969 67.3346 45.9192 67.1014 45.7637L66.8681 46.1136C67.1403 46.3079 67.4513 46.3857 67.7623 46.3857C68.3454 46.3857 68.6953 46.1136 68.6953 45.7248C68.6953 45.3361 68.4231 45.1806 67.9955 45.1028L67.7623 45.0639C67.5679 45.0251 67.4124 44.9862 67.4124 44.8696C67.4124 44.714 67.5679 44.6363 67.8011 44.6363C68.0344 44.6363 68.2676 44.714 68.462 44.8307L68.6953 44.4419ZM80.6301 44.2087C80.3968 44.2087 80.2025 44.3253 80.0858 44.5197V44.2864H79.6582V46.3468H80.0858V45.1806C80.0858 44.8307 80.2413 44.6363 80.5135 44.6363C80.5912 44.6363 80.7078 44.6363 80.7856 44.6752L80.9411 44.2475C80.8634 44.2087 80.7467 44.2087 80.6301 44.2087ZM74.8765 45.2972C74.8376 45.8803 75.3041 46.3468 75.8873 46.3857C75.9261 46.3857 75.965 46.3857 75.965 46.3857C76.2372 46.3857 76.5093 46.3079 76.7037 46.1524L76.4704 45.8026C76.3149 45.9192 76.1205 45.9969 75.9261 45.9969C75.5763 45.9581 75.3041 45.6471 75.3041 45.2972C75.343 44.9862 75.5763 44.714 75.9261 44.6752C76.1205 44.6752 76.3149 44.7529 76.4704 44.8696L76.7037 44.5197C76.5093 44.3642 76.2372 44.2475 75.965 44.2864C75.3819 44.2475 74.9154 44.6752 74.8765 45.2583C74.8765 45.2194 74.8765 45.2583 74.8765 45.2972ZM79.0751 45.2972V44.2864H78.6474V44.5197C78.4919 44.3253 78.2587 44.2087 77.9866 44.2087C77.4034 44.2087 76.898 44.6752 76.898 45.2972C76.898 45.8803 77.3645 46.3857 77.9866 46.3857C78.2198 46.3857 78.4919 46.2691 78.6474 46.0747V46.3079H79.0751V45.2972ZM77.4034 45.2972C77.4423 44.9473 77.7144 44.714 78.0643 44.714C78.4142 44.7529 78.6474 45.0251 78.6474 45.3749C78.6474 45.6859 78.3753 45.9581 78.0254 45.9581C77.6756 45.9581 77.4034 45.6859 77.4034 45.3361V45.2972ZM72.0386 44.2087C71.4554 44.2087 70.9889 44.714 70.9889 45.2972C70.9889 45.8803 71.4943 46.3468 72.0775 46.3468C72.3885 46.3468 72.6995 46.2691 72.9327 46.0747L72.6995 45.7637C72.544 45.8803 72.3107 45.9581 72.1163 45.9969C71.8053 46.0358 71.5332 45.8026 71.4943 45.4916H73.0105C73.0105 45.4527 73.0105 45.3749 73.0105 45.3361C73.0105 44.6363 72.6217 44.2087 72.0386 44.2087ZM72.0386 44.5974C72.3107 44.5974 72.544 44.8307 72.544 45.1028H71.4554C71.4943 44.8307 71.7276 44.5974 72.0386 44.5974ZM83.1959 45.2972V43.4312H82.7683V44.5197C82.6128 44.3253 82.3795 44.2087 82.1074 44.2087C81.5242 44.2087 81.0189 44.6752 81.0189 45.2972C81.0189 45.8803 81.4854 46.3857 82.1074 46.3857C82.3406 46.3857 82.6128 46.2691 82.7683 46.0747V46.3079H83.1959V45.2972ZM83.9345 46.0358C83.9734 46.0358 83.9734 46.0358 84.0123 46.0358C84.0512 46.0358 84.0512 46.0747 84.09 46.0747C84.09 46.0747 84.1289 46.1136 84.1289 46.1524C84.1678 46.1913 84.1678 46.2691 84.1289 46.3079C84.1289 46.3468 84.09 46.3468 84.09 46.3857C84.09 46.3857 84.0512 46.4246 84.0123 46.4246C83.9734 46.4246 83.9734 46.4246 83.9345 46.4246C83.8568 46.4246 83.779 46.3857 83.7401 46.3079C83.7013 46.2691 83.7013 46.1913 83.7401 46.1524C83.7401 46.1136 83.779 46.1136 83.779 46.0747C83.779 46.0747 83.8179 46.0358 83.8568 46.0358C83.8957 46.0358 83.9345 46.0358 83.9345 46.0358ZM83.9345 46.3857C83.9734 46.3857 83.9734 46.3857 84.0123 46.3857L84.0512 46.3468C84.09 46.2691 84.09 46.1913 84.0512 46.1136L84.0123 46.0747C83.9734 46.0747 83.9734 46.0747 83.9345 46.0747C83.8957 46.0747 83.8957 46.0747 83.8568 46.0747L83.8179 46.1136C83.779 46.1913 83.779 46.2691 83.8179 46.3468L83.8568 46.3857C83.8957 46.3857 83.9345 46.3857 83.9345 46.3857ZM83.9734 46.1136C84.0123 46.1136 84.0123 46.1136 84.0123 46.1136C84.0123 46.1136 84.0512 46.1524 84.0123 46.1524V46.1913H83.9734L84.0512 46.2691H84.0123L83.9734 46.1913V46.2691H83.8568V46.0747L83.9734 46.1136ZM83.8957 46.1524V46.1913H83.9345C83.9345 46.1913 83.9345 46.1913 83.9734 46.1913C83.9734 46.1913 83.9734 46.1913 83.9345 46.1913L83.8957 46.1524ZM81.5631 45.2972C81.602 44.9473 81.8741 44.714 82.224 44.714C82.5739 44.7529 82.8071 45.0251 82.8071 45.3749C82.8071 45.6859 82.535 45.9581 82.1851 45.9581C81.8352 45.9581 81.5631 45.6859 81.5631 45.3361V45.2972ZM66.4794 45.2972V44.2864H66.0517V44.5197C65.8962 44.3253 65.663 44.2087 65.3908 44.2087C64.8077 44.2087 64.3023 44.6752 64.3023 45.2972C64.3023 45.8803 64.7688 46.3857 65.3908 46.3857C65.6241 46.3857 65.8962 46.2691 66.0517 46.0747V46.3079H66.4794V45.2972ZM64.8466 45.2972C64.8855 44.9473 65.1576 44.714 65.5075 44.714C65.8574 44.7529 66.0906 45.0251 66.0906 45.3749C66.0906 45.6859 65.8185 45.9581 65.4686 45.9581C65.1187 45.9581 64.8466 45.6859 64.8466 45.3361C64.8077 45.3361 64.8077 45.2972 64.8466 45.2972Z" fill="#231F20"/>
<path d="M75.3064 28.6191H68.542V40.7483H75.3064V28.6191Z" fill="#FF5F00"/>
<path d="M68.972 34.7225C68.972 32.3511 70.0606 30.0963 71.9266 28.6579C68.5833 26.0144 63.7238 26.5975 61.0803 29.9408C58.4367 33.2841 59.0199 38.1436 62.3632 40.7871C65.1622 43.003 69.0887 43.003 71.8877 40.7871C70.0606 39.3099 68.972 37.0939 68.972 34.7225Z" fill="#EB001B"/>
<path d="M84.3998 34.7219C84.3998 38.9982 80.9399 42.4582 76.6635 42.4582C74.9141 42.4582 73.2425 41.875 71.8818 40.8254C75.2251 38.1818 75.8083 33.3224 73.1647 29.9791C72.776 29.5126 72.3483 29.0461 71.8818 28.6962C75.264 26.0138 80.1235 26.5969 82.767 29.9402C83.8167 31.3009 84.3998 32.9725 84.3998 34.7219Z" fill="#F79E1B"/>
<path d="M83.6716 39.5039V39.2706H83.7882V39.2317H83.5161V39.2706H83.6327V39.5039H83.6716ZM84.177 39.5039V39.1929H84.0992L84.0215 39.4261L83.9437 39.1929H83.866V39.5039H83.9049V39.2706L83.9826 39.465H84.0215L84.0992 39.2706V39.5039H84.177Z" fill="#F79E1B"/>
<path d="M29.1784 34.5212C29.1784 36.2844 30.7457 37.2639 31.9211 37.8516C33.0966 38.4394 33.4884 38.8311 33.4884 39.4189C33.4884 40.2025 32.5088 40.5943 31.5293 40.5943C29.962 40.5943 28.9825 40.2025 28.1989 39.8107L27.6112 42.5534C28.3948 42.9452 29.7661 43.1411 31.1375 43.1411C34.4679 43.1411 36.6229 41.5738 36.6229 39.0271C36.6229 35.6966 32.117 35.6966 32.117 34.1294C32.117 33.7376 32.5088 33.1498 33.4884 33.1498C33.8802 33.1498 35.2515 32.9539 36.6229 33.7376L37.2106 31.1908C36.427 30.9949 35.4474 30.603 34.272 30.603C31.3334 30.4071 29.1784 31.9744 29.1784 34.5212ZM42.8919 30.603C42.3042 30.603 41.7165 30.9949 41.5206 31.5826L36.8188 42.9452H40.1492L40.737 41.182H44.851L45.2428 42.9452H48.1814L45.6346 30.603H42.8919ZM43.2837 33.9335L44.2633 38.6352H41.7165L43.2837 33.9335ZM25.0644 30.603L22.5176 42.9452H25.6521L28.1989 30.603H25.0644ZM20.3626 30.603L17.0322 39.0271L15.6608 31.9744C15.4649 31.1908 14.8772 30.799 14.2895 30.799H9V31.1908C10.1754 31.3867 11.3509 31.7785 12.1345 32.1703C12.5263 32.3662 12.7222 32.5621 12.9181 33.3458L15.4649 43.1411H18.7953L23.8889 30.799H20.3626" fill="#191F71"/>
<defs>
<linearGradient id="paint0_linear" x1="126.926" y1="33.162" x2="139.975" y2="33.162" gradientUnits="userSpaceOnUse">
<stop offset="0.3" stop-color="#00B4E6"/>
<stop offset="1" stop-color="#088CCB"/>
</linearGradient>
</defs>
</svg>
