<svg width="147" height="74" viewBox="0 0 147 74" fill="none" xmlns="http://www.w3.org/2000/svg">
<path d="M29.5083 23.3428C27.5312 23.3428 25.1586 25.2403 23.2353 28.4267C21.1863 31.7564 20 35.8378 20 39.4002C20 44.6273 22.9298 49.8724 29.5083 49.8724C36.0868 49.8724 39.0166 44.6273 39.0166 39.4002C39.0166 35.8378 37.8303 31.7385 35.7813 28.4446C33.8581 25.2403 31.4855 23.3428 29.5083 23.3428ZM80.8604 31.1477H87.5108V48.4224H94.6466V31.1477H101.297V24.757H80.8604V31.1477ZM116.539 31.1477H127V24.757H116.539C106.923 24.757 101.8 29.5187 101.8 36.6076C101.8 43.6965 106.941 48.4582 116.539 48.4582H127V42.0496H116.539C112.081 42.0496 109.188 40.4564 109.188 36.6076C109.188 32.7588 112.081 31.1477 116.539 31.1477ZM66.3553 24.7749L62.5448 38.9168L58.7343 24.7749H46.1344V48.4761H53.2701V29.1786L58.4646 48.4403H66.6429L71.8374 29.1607V48.4403H78.9731V24.7749H66.3553Z" fill="#E30613"/>
</svg>
