<svg width="147" height="74" viewBox="0 0 147 74" fill="none" xmlns="http://www.w3.org/2000/svg">
<path d="M126.426 33.5677C126.41 33.5677 126.391 33.5841 126.391 33.6026V33.9229C126.391 33.9415 126.41 33.9579 126.426 33.9579H127.021V35.9828C127.021 36.0017 127.036 36.0181 127.056 36.0181H127.389C127.407 36.0181 127.427 36.0017 127.427 35.9828V33.9579H128.018C128.037 33.9579 128.053 33.9415 128.053 33.9229V33.6026C128.053 33.5841 128.037 33.5677 128.018 33.5677" fill="#231F20"/>
<path d="M101.826 30.5287C101.826 31.1849 102.339 31.6956 102.995 31.6956C103.649 31.6956 104.165 31.1849 104.165 30.5287C104.165 29.878 103.649 29.3617 102.995 29.3617C102.339 29.3617 101.826 29.8754 101.826 30.5287Z" fill="#231F20"/>
<path d="M107.952 34.3615L107.88 34.404L107.729 33.9847C107.678 33.8422 107.544 33.748 107.395 33.748H106.642C106.449 33.748 106.29 33.9062 106.29 34.1034V43.7554C106.29 43.949 106.449 44.1106 106.642 44.1106H107.993C108.189 44.1106 108.348 43.949 108.348 43.7554V35.9423L108.385 35.9264C108.942 35.6359 109.504 35.4585 110.598 35.4585C111.913 35.4585 112.177 35.9507 112.177 36.7494V43.7555C112.177 43.9491 112.336 44.1081 112.53 44.1081H113.883C114.076 44.1081 114.234 43.9491 114.234 43.7555V36.8058C114.234 34.6782 112.978 33.5546 110.598 33.5546C109.716 33.5546 108.826 33.8258 107.952 34.3615Z" fill="#231F20"/>
<path d="M104.004 34.1034C104.004 33.9062 103.846 33.748 103.651 33.748H102.336C102.143 33.748 101.985 33.9062 101.985 34.1034V43.7554C101.985 43.949 102.143 44.1079 102.336 44.1079H103.649C103.846 44.1079 104.004 43.949 104.004 43.7554" fill="#231F20"/>
<path d="M99.513 29.2756C99.513 29.0794 99.3541 28.9204 99.1578 28.9204H97.851C97.652 28.9204 97.4931 29.0794 97.4931 29.2756V43.7554C97.4931 43.949 97.652 44.1079 97.8483 44.1079H99.1578C99.3541 44.1079 99.513 43.949 99.513 43.7554" fill="#231F20"/>
<path d="M79.2775 38.0161C79.3773 36.6872 79.7264 35.4584 81.5955 35.4584C83.2012 35.4584 83.5131 36.3217 83.5511 38.0188L83.5537 38.0938H79.2719L79.2775 38.0161ZM77.1879 38.9305C77.1879 40.2593 77.1879 44.3042 81.5955 44.3042C82.9163 44.3042 83.7877 44.2235 84.9254 43.858C85.0596 43.8174 85.1351 43.6749 85.1351 43.5377V42.4515C85.1351 42.3302 85.0759 42.2199 84.9762 42.1554C84.8769 42.0879 84.7613 42.1016 84.6429 42.1258C83.6556 42.3329 82.8679 42.3999 81.5955 42.3999C79.7617 42.3999 79.4015 41.2356 79.2858 39.9797L79.2775 39.9011H85.264C85.4608 39.9011 85.6192 39.743 85.6192 39.5494V38.9305C85.6192 36.3301 85.3102 33.5576 81.5955 33.5576C77.1879 33.5546 77.1879 37.6024 77.1879 38.9305Z" fill="#231F20"/>
<path d="M89.2958 38.0161C89.3951 36.6872 89.745 35.4584 91.6168 35.4584C93.2197 35.4584 93.5317 36.3217 93.5666 38.0188L93.5693 38.0938H89.2904L89.2958 38.0161ZM87.2063 38.9305C87.2063 40.2593 87.2063 44.3042 91.6168 44.3042C92.9373 44.3042 93.8062 44.2235 94.9463 43.858C95.0778 43.8174 95.1563 43.6749 95.1563 43.5377V42.4515C95.1563 42.3302 95.0945 42.2199 94.9947 42.1554C94.8954 42.0879 94.7771 42.1016 94.6642 42.1258C93.6742 42.3329 92.8892 42.3999 91.6168 42.3999C89.7799 42.3999 89.4198 41.2356 89.3041 39.9797L89.2958 39.9011H95.2851C95.4785 39.9011 95.6377 39.743 95.6377 39.5494V38.9305C95.6377 36.3301 95.3258 33.5576 91.6168 33.5576C87.2063 33.5546 87.2063 37.6024 87.2063 38.9305Z" fill="#231F20"/>
<path d="M118.105 38.0161C118.204 36.6872 118.554 35.4584 120.423 35.4584C122.029 35.4584 122.341 36.3217 122.376 38.0188L122.379 38.0938H118.1L118.105 38.0161ZM116.018 38.9305C116.018 40.2593 116.018 44.3042 120.423 44.3042C121.744 44.3042 122.612 44.2235 123.756 43.858C123.884 43.8174 123.962 43.6749 123.962 43.5377V42.4515C123.962 42.3302 123.903 42.2199 123.804 42.1554C123.704 42.0879 123.586 42.1016 123.47 42.1258C122.48 42.3329 121.698 42.3999 120.423 42.3999C118.587 42.3999 118.228 41.2356 118.113 39.9797L118.102 39.9011H124.091C124.285 39.9011 124.444 39.743 124.444 39.5494V38.9305C124.444 36.3301 124.134 33.5576 120.423 33.5576C116.013 33.5546 116.018 37.6024 116.018 38.9305Z" fill="#231F20"/>
<path d="M70.6582 37.236C72.7452 37.236 73.4845 37.8706 73.4845 39.6567C73.4845 40.8533 73.143 42.0775 70.6203 42.0775H67.5841V37.233H70.6581L70.6582 37.236ZM70.5019 30.9023C72.699 30.9023 73.0004 31.9462 73.0004 33.0706C73.0004 34.504 72.2343 35.2027 70.6582 35.2027H67.5842V30.9023H70.5019ZM65.8306 28.8691C65.6206 28.8691 65.4512 29.0386 65.4512 29.2486V43.7283C65.4512 43.9384 65.6206 44.1105 65.8306 44.1105H70.5447C73.9149 44.1105 75.7702 42.5264 75.7702 39.6568C75.7702 38.0937 75.0177 36.7602 73.7564 36.0903C73.7564 36.0903 73.7241 36.0744 73.6945 36.0551C73.7214 36.0392 73.751 36.018 73.751 36.018C74.7272 35.3083 75.2864 34.2349 75.2864 33.0707C75.2864 31.5021 74.6544 28.8692 70.4075 28.8692" fill="#231F20"/>
<path d="M130.218 33.5677C130.202 33.5677 130.191 33.5787 130.186 33.5889C130.186 33.5889 129.578 35.0039 129.519 35.1437C129.46 35.0039 128.855 33.5889 128.855 33.5889C128.849 33.5787 128.836 33.5677 128.822 33.5677H128.422C128.4 33.5677 128.384 33.5841 128.384 33.6026V35.9828C128.384 36.0017 128.398 36.0181 128.422 36.0181H128.747C128.752 36.0181 128.766 36.0154 128.771 36.007C128.777 36.0017 128.782 35.9939 128.782 35.9801C128.782 35.9801 128.771 34.6004 128.766 34.31C128.879 34.5682 129.363 35.6792 129.363 35.6792C129.366 35.6924 129.379 35.7007 129.395 35.7007H129.648C129.662 35.7007 129.675 35.6924 129.678 35.6792C129.678 35.6792 130.161 34.5682 130.269 34.31C130.269 34.6004 130.258 35.9801 130.258 35.9801C130.258 35.9939 130.261 36.0017 130.267 36.007C130.274 36.0154 130.283 36.0181 130.294 36.0181H130.619C130.638 36.0181 130.656 36.0017 130.656 35.9828V33.6026C130.656 33.5841 130.641 33.5677 130.619 33.5677" fill="#231F20"/>
<path d="M17.9912 36.6554C17.9912 47.3401 26.6518 56 37.3393 56C48.0219 56 56.6846 47.3401 56.6846 36.6554C56.6846 25.97 48.0219 17.3101 37.3393 17.3101C26.6518 17.3101 17.9912 25.97 17.9912 36.6554Z" fill="url(#paint0_linear)"/>
<path fill-rule="evenodd" clip-rule="evenodd" d="M17.9922 36.5249V36.7863C18.0013 38.1669 18.155 39.5131 18.439 40.8106H56.2378C56.51 39.567 56.6625 38.2787 56.6828 36.9582V36.3529C56.6627 35.0429 56.5124 33.7645 56.2443 32.5301H18.4325C18.1527 33.8185 18.0013 35.1547 17.9922 36.5249ZM22.4908 24.2516H52.1857C48.7014 20.086 43.4966 17.4091 37.6649 17.313H37.0146C31.1803 17.4091 25.975 20.086 22.4908 24.2516ZM52.1611 49.0883H22.5153C25.9766 53.2099 31.1259 55.8666 36.9001 55.9953H37.7793C43.551 55.8666 48.6998 53.2099 52.1611 49.0883Z" fill="black"/>
<defs>
<linearGradient id="paint0_linear" x1="17.9919" y1="36.6685" x2="56.6818" y2="36.6685" gradientUnits="userSpaceOnUse">
<stop stop-color="#FAA61A"/>
<stop offset="1" stop-color="#FFE100"/>
</linearGradient>
</defs>
</svg>
