<svg width="147" height="74" viewBox="0 0 147 74" fill="none" xmlns="http://www.w3.org/2000/svg">
<path d="M72.6333 40.4312H74.4172V44.3335H75.6436L77.8735 40.4312H79.7689L77.0931 45.0024L79.9919 50.0197H77.985L75.6436 45.7829H74.4172V50.0197H72.6333V40.4312ZM83.8942 42.9955C86.0126 42.9955 87.685 44.5564 87.685 46.6748C87.685 48.7932 86.0126 50.3541 83.8942 50.3541C81.7758 50.3541 80.1034 48.9047 80.1034 46.6748C80.1034 44.4449 81.7758 42.9955 83.8942 42.9955ZM89.1344 43.107H90.8069V48.5702H92.9253V43.107H94.5977V48.5702H96.7161V43.107H98.3885V50.0197H89.1344V43.107ZM103.294 42.9955C105.301 42.9955 106.416 44.4449 106.416 46.2289C106.416 46.4518 106.416 46.6748 106.305 46.8978H101.51C101.622 48.1243 102.514 48.7932 103.629 48.7932C104.298 48.7932 105.078 48.4587 105.636 48.0128L106.305 49.2392C105.636 49.9082 104.521 50.2427 103.517 50.2427C101.176 50.2427 99.8379 48.5702 99.8379 46.5633C99.7264 44.4449 101.176 42.9955 103.294 42.9955ZM107.197 48.5702C108.088 48.4587 108.646 47.6783 108.646 45.2254V43.107H113.663V50.0197H111.991V44.4449H110.318V45.3369C110.318 48.3472 109.538 50.1312 107.197 50.1312V48.5702ZM118.569 42.9955C120.576 42.9955 121.691 44.4449 121.691 46.2289C121.691 46.4518 121.691 46.6748 121.579 46.8978H116.785C116.897 48.1243 117.788 48.7932 118.903 48.7932C119.572 48.7932 120.353 48.4587 120.91 48.0128L121.579 49.2392C120.91 49.9082 119.795 50.2427 118.792 50.2427C116.451 50.2427 115.113 48.5702 115.113 46.5633C115.001 44.4449 116.562 42.9955 118.569 42.9955ZM123.029 43.107H124.701V45.7829H125.593L127.265 43.107H129.161L126.931 46.4518L129.384 50.0197H127.377L125.593 47.2323H124.701V50.0197H123.029V43.107ZM83.8942 48.6817C85.0092 48.6817 86.0126 47.7898 86.0126 46.5633C86.0126 45.3369 85.1207 44.4449 83.8942 44.4449C82.7793 44.4449 81.8873 45.3369 81.8873 46.5633C81.8873 47.7898 82.7793 48.6817 83.8942 48.6817ZM104.632 45.6714C104.632 44.7794 103.963 44.222 103.294 44.222C102.402 44.222 101.733 44.7794 101.622 45.6714C101.51 45.6714 104.632 45.6714 104.632 45.6714ZM119.907 45.6714C119.907 44.7794 119.238 44.222 118.569 44.222C117.677 44.222 117.008 44.7794 116.897 45.6714C116.785 45.6714 119.907 45.6714 119.907 45.6714Z" fill="#2D3540"/>
<path d="M96.8264 19.3586V35.7483C96.8264 35.9713 96.6035 36.1943 96.3805 36.1943H93.0356C92.8127 36.1943 92.5897 35.9713 92.5897 35.7483V19.3586C92.5897 19.1356 92.8127 18.9126 93.0356 18.9126H96.3805C96.6035 18.9126 96.8264 19.1356 96.8264 19.3586ZM122.805 18.9126C122.916 18.9126 123.139 19.0241 123.251 19.1356C123.362 19.2471 123.362 19.3586 123.362 19.4701L117.899 35.8598C117.787 36.0828 117.676 36.1943 117.453 36.1943H114.443C114.22 36.1943 114.108 36.0828 113.997 35.8598L110.875 26.3828L107.641 35.9713C107.53 36.1943 107.418 36.3057 107.195 36.3057H104.185C103.962 36.3057 103.851 36.1943 103.739 35.9713L98.2759 19.4701C98.2759 19.3586 98.2759 19.2471 98.3874 19.1356C98.4989 19.0241 98.6104 18.9126 98.7218 18.9126H102.401C102.624 18.9126 102.736 19.0241 102.847 19.2471L105.746 28.9471L108.979 19.2471C109.091 19.0241 109.202 18.9126 109.425 18.9126H112.101C112.324 18.9126 112.436 19.0241 112.547 19.2471L115.78 28.9471L118.679 19.2471C118.679 19.0241 118.902 18.9126 119.125 18.9126H122.805ZM128.491 18.9126C128.714 18.9126 128.937 19.1356 128.937 19.3586V35.7483C128.937 35.9713 128.714 36.1943 128.491 36.1943H125.146C124.923 36.1943 124.7 35.9713 124.7 35.7483V19.3586C124.7 19.1356 124.923 18.9126 125.146 18.9126H128.491ZM90.5828 35.6368C90.8058 35.8598 90.5828 36.1943 90.3598 36.1943H86.2345C86.123 36.1943 85.9 36.0828 85.7885 35.9713L85.1196 35.0793C83.6701 35.9713 81.9977 36.5287 80.2138 36.5287C75.1966 36.5287 71.1828 32.5149 71.1828 27.4977C71.1828 22.4805 75.1966 18.4667 80.2138 18.4667C85.231 18.4667 89.2448 22.4805 89.2448 27.4977C89.2448 29.2816 88.6874 30.954 87.7954 32.4035L90.5828 35.6368ZM56.577 43.5529C57.469 43.8874 57.692 45.1138 57.8035 45.6713C57.9149 46.6747 57.692 47.0092 57.3575 47.0092C57.023 47.0092 56.577 46.6747 56.131 45.8943C55.6851 45.1138 55.4621 44.2218 55.6851 43.7759C55.7966 43.5529 56.131 43.3299 56.577 43.5529ZM51.5598 47.2322C52.1172 47.2322 52.6747 47.4552 53.2322 47.9012C54.2356 48.7931 54.5701 49.6851 54.0126 50.4655C53.6782 50.8 53.2322 51.023 52.6747 51.023C52.1172 51.023 51.5598 50.8 51.1138 50.4655C50.2218 49.6851 49.9989 48.3471 50.5563 47.6782C50.7793 47.3437 51.1138 47.2322 51.5598 47.2322ZM40.2989 56.5977C28.0345 56.5977 18 46.6747 18 34.2989C18 21.923 27.923 12 40.2989 12C52.5632 12 62.5977 21.923 62.5977 34.2989C62.5977 38.4241 61.4828 42.4379 59.4759 45.7828C59.3644 45.8943 59.2529 45.8943 59.2529 45.6713C58.4724 40.208 55.1276 37.1977 50.3333 36.3057C49.8874 36.1943 49.8874 35.9713 50.4448 35.9713C51.8943 35.8598 54.0126 35.8598 55.1276 36.0828C55.2391 35.5253 55.2391 34.9678 55.2391 34.4103C55.2391 26.2713 48.6609 19.6931 40.5218 19.6931C32.3828 19.6931 25.8046 26.2713 25.8046 34.4103C25.8046 42.5494 32.1598 49.0161 40.2989 49.0161H40.9678C40.7448 47.6782 40.6333 46.3402 40.6333 45.0023C40.6333 44.1103 40.8563 43.9989 41.3023 44.6678C43.3092 48.2356 46.208 51.3575 52.0058 52.5839C56.6885 53.5874 61.3713 54.8138 66.3885 61.169C66.8345 61.7264 66.1655 62.2839 65.6081 61.8379C60.4793 57.2667 55.7966 55.8172 51.5598 55.8172C46.7655 55.9287 43.5322 56.5977 40.2989 56.5977ZM82.5552 31.9575L80.7713 29.8391C80.5483 29.6161 80.7713 29.2816 80.9943 29.2816H84.7851C85.0081 28.7241 85.1196 28.1667 85.1196 27.6092C85.1196 24.9333 83.1127 22.592 80.3253 22.592C77.5379 22.592 75.531 24.9333 75.531 27.6092C75.531 30.2851 77.5379 32.6264 80.3253 32.6264C81.1058 32.5149 81.8862 32.292 82.5552 31.9575Z" fill="#FF8C00"/>
</svg>
