<svg width="147" height="74" viewBox="0 0 147 74" fill="none" xmlns="http://www.w3.org/2000/svg">
<path d="M60.4287 27.1104C61.9367 27.1104 63.5607 27.5744 64.7207 28.7344L63.4447 30.8224C62.7487 30.2424 61.5887 29.6624 60.5447 29.6624C58.2247 29.6624 57.2967 31.2863 57.2967 32.9103C57.2967 34.6503 58.3407 36.2743 60.5447 36.2743C61.7047 36.2743 62.7487 35.6943 63.5607 34.8823L64.9527 36.9703C64.8367 37.0863 64.6047 37.3183 64.4887 37.4343C63.5607 38.2463 62.1687 38.8263 60.4287 38.8263C56.7167 38.8263 54.5127 36.2743 54.5127 32.9103C54.5127 29.6624 56.9487 27.1104 60.4287 27.1104Z" fill="#2D353F"/>
<path d="M71.2182 27.1104C74.6982 27.1104 77.1342 29.6624 77.1342 32.9103C77.1342 36.2743 74.6982 38.8263 71.2182 38.8263C67.7382 38.8263 65.3022 36.2743 65.3022 32.9103C65.3022 29.6624 67.7382 27.1104 71.2182 27.1104ZM71.2182 36.3903C72.9582 36.3903 74.2342 34.8823 74.2342 33.0263C74.2342 31.1703 72.9582 29.7784 71.2182 29.7784C69.4782 29.7784 68.2022 31.0543 68.2022 32.9103C68.2022 34.8823 69.4782 36.3903 71.2182 36.3903Z" fill="#2D353F"/>
<path d="M78.7578 27.3423H81.5418L84.6738 32.6783C85.1378 33.3743 85.6018 34.6503 85.6018 34.6503C85.6018 34.6503 85.4858 33.3743 85.4858 32.6783V27.3423H88.2698V38.7103H85.4858L82.3538 33.3743C81.8898 32.6783 81.4258 31.4023 81.4258 31.4023C81.4258 31.4023 81.5418 32.6783 81.5418 33.3743V38.7103H78.7578V27.3423Z" fill="#2D353F"/>
<path d="M93.4903 29.7783H90.0103V27.3423H99.7542V29.7783H96.2742V38.7103H93.4903V29.7783Z" fill="#2D353F"/>
<path d="M103.234 27.3423H106.134L109.962 38.7103H107.062L106.482 36.2743H103.002L102.306 38.7103H99.4062L103.234 27.3423ZM105.902 34.0703L105.206 31.8663C104.974 31.1703 104.742 29.8943 104.742 29.8943C104.742 29.8943 104.51 31.1703 104.278 31.8663L103.582 34.0703H105.902Z" fill="#2D353F"/>
<path d="M116.457 27.1104C117.965 27.1104 119.589 27.5744 120.749 28.7344L119.473 30.8224C118.777 30.2424 117.617 29.6624 116.573 29.6624C114.253 29.6624 113.325 31.2863 113.325 32.9103C113.325 34.6503 114.369 36.2743 116.573 36.2743C117.733 36.2743 118.777 35.6943 119.589 34.8823L120.981 36.9703C119.937 38.0143 118.429 38.8263 116.341 38.8263C112.629 38.8263 110.425 36.2743 110.425 32.9103C110.541 29.6624 112.977 27.1104 116.457 27.1104Z" fill="#2D353F"/>
<path d="M125.738 29.7783H122.258V27.3423H132.002V29.7783H128.522V38.7103H125.738V29.7783Z" fill="#2D353F"/>
<path d="M44.42 33.2584C44.072 32.0984 42.912 31.5184 41.868 31.7504C40.708 32.0984 40.128 33.2584 40.36 34.3024C40.592 35.1144 40.708 36.0424 40.708 36.9704C40.708 42.6544 36.068 47.1784 30.5 47.1784C29.92 47.1784 29.456 47.1784 28.876 47.0624C31.196 46.4824 33.052 44.3944 33.052 41.8424C33.052 38.9424 30.616 36.5064 27.716 36.5064C24.816 36.5064 22.38 38.9424 22.38 41.8424C22.38 42.4224 22.496 43.0024 22.612 43.4664C21.104 41.7264 20.292 39.4064 20.292 36.9704C20.292 32.3304 23.424 28.2704 27.948 27.1104C29.108 26.7624 29.688 25.7184 29.456 24.5584C29.108 23.3984 28.064 22.8184 26.904 23.0504C20.408 24.7904 16 30.4744 16 37.0864C16 45.0904 22.496 51.4704 30.384 51.4704C38.388 51.4704 44.768 44.9744 44.768 37.0864C44.884 35.8104 44.652 34.5344 44.42 33.2584Z" fill="#F58A1F"/>
<path d="M35.9512 31.0542C37.8731 31.0542 39.4312 29.4962 39.4312 27.5742C39.4312 25.6523 37.8731 24.0942 35.9512 24.0942C34.0292 24.0942 32.4712 25.6523 32.4712 27.5742C32.4712 29.4962 34.0292 31.0542 35.9512 31.0542Z" fill="#F58A1F"/>
<path d="M55.208 48.4548V43.4668H58.34V44.2788H56.136V45.4388H57.18C57.644 45.4388 57.992 45.5548 58.34 45.9028C58.572 46.1348 58.804 46.5988 58.804 47.0628C58.804 47.5268 58.688 47.8748 58.34 48.2228C58.108 48.4548 57.644 48.6868 57.18 48.6868L55.208 48.4548ZM56.136 47.7588H56.948C57.18 47.7588 57.412 47.6428 57.528 47.5268C57.76 47.4108 57.76 47.1788 57.76 46.9468C57.76 46.7148 57.644 46.4828 57.528 46.3668C57.412 46.2508 57.18 46.1348 56.948 46.1348H56.136V47.7588Z" fill="#2D353F"/>
<path d="M59.3857 48.4534V44.8574H60.3137V46.1334H61.0097C61.4737 46.1334 61.8217 46.2494 62.0537 46.4814C62.2857 46.7134 62.4017 46.9454 62.4017 47.4094C62.4017 47.7574 62.2857 48.1054 62.0537 48.2214C61.8217 48.4534 61.4737 48.5694 61.0097 48.5694H59.3857V48.4534ZM60.3137 47.8734H60.7777C61.0097 47.8734 61.1257 47.8734 61.2417 47.7574C61.3577 47.6414 61.3577 47.5254 61.3577 47.2934C61.3577 47.0614 61.3577 46.9454 61.2417 46.8294C61.1257 46.7134 61.0097 46.7134 60.7777 46.7134H60.3137V47.8734ZM62.8657 48.4534V44.8574H63.7937V48.4534H62.8657Z" fill="#2D353F"/>
<path d="M65.533 48.4534V45.6694H64.373V44.8574H67.621V45.6694H66.461V48.4534H65.533Z" fill="#2D353F"/>
<path d="M68.2012 48.4534V44.8574H69.1292V46.1334H69.8252C70.2892 46.1334 70.6372 46.2494 70.8692 46.4814C71.1012 46.7134 71.2172 46.9454 71.2172 47.4094C71.2172 47.7574 71.1012 48.1054 70.8692 48.2214C70.6372 48.4534 70.2892 48.5694 69.8252 48.5694H68.2012V48.4534ZM69.1292 47.8734H69.7092C69.9412 47.8734 70.0572 47.8734 70.1732 47.7574C70.2892 47.6414 70.2892 47.5254 70.2892 47.2934C70.2892 47.0614 70.2892 46.9454 70.1732 46.8294C70.0572 46.7134 69.9412 46.7134 69.7092 46.7134H69.2452L69.1292 47.8734Z" fill="#2D353F"/>
<path d="M73.4199 46.3664C73.4199 45.6704 73.5359 45.0904 73.7679 44.7424C73.9999 44.2784 74.4639 44.0464 75.1599 43.6984L76.4359 43.2344L76.6679 43.9304L75.2759 44.5104C74.9279 44.6264 74.6959 44.8584 74.4639 44.9744C74.2319 45.2064 74.2319 45.4384 74.1159 45.6704C74.3479 45.3224 74.8119 45.0904 75.2759 45.0904C75.7399 45.0904 76.0879 45.2064 76.4359 45.5544C76.6679 45.9024 76.8999 46.2504 76.8999 46.7144C76.8999 47.1784 76.7839 47.6424 76.4359 47.9904C76.0879 48.3384 75.7399 48.4544 75.1599 48.4544C74.5799 48.4544 74.1159 48.2224 73.7679 47.8744C73.5359 47.6424 73.4199 47.0624 73.4199 46.3664ZM74.3479 46.8304C74.3479 47.1784 74.4639 47.4104 74.5799 47.5264C74.6959 47.7584 74.9279 47.7584 75.1599 47.7584C75.3919 47.7584 75.6239 47.6424 75.8559 47.5264C75.9719 47.2944 76.0879 47.0624 76.0879 46.8304C76.0879 46.4824 75.9719 46.2504 75.8559 46.1344C75.7399 45.9024 75.5079 45.9024 75.2759 45.9024C75.0439 45.9024 74.8119 46.0184 74.5799 46.1344C74.4639 46.3664 74.3479 46.5984 74.3479 46.8304Z" fill="#2D353F"/>
<path d="M77.3647 48.5694V47.7574C77.5967 47.7574 77.8287 47.5254 77.9447 47.2934C78.0607 47.0614 78.1767 46.5974 78.1767 46.0174V44.8574H80.8447V48.4534H79.9167V45.5534H78.9887V45.9014C78.9887 46.7134 78.8727 47.2934 78.6407 47.7574C78.4087 48.3374 77.9447 48.5694 77.3647 48.5694Z" fill="#2D353F"/>
<path d="M81.7734 48.4534V44.8574H82.5854V46.8294C82.5854 47.0614 82.5854 47.1774 82.5854 47.2934C82.5854 47.2934 82.7014 47.0614 82.8174 46.8294L84.2094 44.8574H85.1374V48.4534H84.3254V46.4814C84.3254 46.3654 84.3254 46.2494 84.3254 46.0174C84.3254 46.0174 84.2094 46.2494 84.0934 46.4814L82.7014 48.4534H81.7734Z" fill="#2D353F"/>
<path d="M85.6016 48.4534L86.7616 46.5974L85.7176 44.8574H86.6456L87.4576 46.2494H87.9216V44.8574H88.7336V46.2494H89.1976L90.0096 44.8574H90.9376L89.8936 46.5974L91.0536 48.4534H90.0096L89.1976 47.0614H88.7336V48.4534H87.9216V47.0614H87.4576L86.6456 48.4534H85.6016Z" fill="#2D353F"/>
<path d="M91.1694 46.7137C91.1694 46.1337 91.2854 45.6697 91.6334 45.3217C91.9814 44.9737 92.4454 44.7417 92.9094 44.7417C93.3734 44.7417 93.8374 44.8577 94.0694 45.2057C94.3014 45.5537 94.5334 45.9017 94.5334 46.4817C94.5334 46.5977 94.5334 46.7137 94.5334 46.8297H92.0974C92.0974 47.1777 92.2134 47.4097 92.4454 47.5257C92.6774 47.6417 92.9094 47.7577 93.1414 47.7577C93.4894 47.7577 93.8374 47.6417 94.1854 47.4097L94.5334 48.1057C94.3014 48.2217 94.1854 48.3377 93.8374 48.4537C93.4894 48.5697 93.2574 48.5697 93.0254 48.5697C92.4454 48.5697 91.9814 48.3377 91.6334 47.9897C91.4014 47.6417 91.1694 47.1777 91.1694 46.7137ZM92.2134 46.2497H93.7214C93.7214 46.0177 93.6054 45.7857 93.4894 45.6697C93.3734 45.5537 93.1414 45.4377 93.0254 45.4377C92.7934 45.4377 92.5614 45.5537 92.4454 45.6697C92.3294 45.7857 92.2134 46.0177 92.2134 46.2497Z" fill="#2D353F"/>
</svg>
