<svg width="147" height="74" viewBox="0 0 147 74" fill="none" xmlns="http://www.w3.org/2000/svg">
<path fill-rule="evenodd" clip-rule="evenodd" d="M51.6472 23V23.0123C51.635 23.0123 47.7751 23 46.7458 26.6883C45.8023 30.0703 43.1433 39.4074 43.0698 39.6648H42.3345C42.3345 39.6648 39.6143 30.1193 38.6585 26.6761C37.6292 22.9877 33.7571 23 33.7571 23H24.9346V51.0605H33.7571V34.3958H34.1247H34.4923L39.6388 51.0605H45.7655L50.912 34.408H51.6472V51.0605H60.4697V23H51.6472Z" fill="#4DB45E"/>
<path fill-rule="evenodd" clip-rule="evenodd" d="M83.8747 23C83.8747 23 81.2892 23.2328 80.0761 25.9408L73.8268 39.6648H73.0916V23H64.269V51.0605H72.6014C72.6014 51.0605 75.3095 50.8155 76.5225 48.1197L82.6493 34.3958H83.3845V51.0605H92.207V23H83.8747Z" fill="#4DB45E"/>
<path fill-rule="evenodd" clip-rule="evenodd" d="M96.1289 35.7437V51.0605H104.951V42.1155H114.509C118.675 42.1155 122.204 39.4565 123.515 35.7437H96.1289Z" fill="#4DB45E"/>
<path fill-rule="evenodd" clip-rule="evenodd" d="M114.508 23H94.8896C95.8699 28.3425 99.8768 32.6313 105.06 34.0282C106.236 34.3467 107.474 34.5183 108.748 34.5183H123.869C124.004 33.8811 124.065 33.2317 124.065 32.5577C124.065 27.2765 119.789 23 114.508 23Z" fill="url(#paint0_linear)"/>
<defs>
<linearGradient id="paint0_linear" x1="94.892" y1="28.7591" x2="124.065" y2="28.7591" gradientUnits="userSpaceOnUse">
<stop offset="0.3" stop-color="#00B4E6"/>
<stop offset="1" stop-color="#088CCB"/>
</linearGradient>
</defs>
</svg>
