<svg width="147" height="74" viewBox="0 0 147 74" fill="none" xmlns="http://www.w3.org/2000/svg">
<path d="M16 37.0721C16 26.0096 25.0096 17 36.0721 17C47.1346 17 56.1442 26.0096 56.1442 37.0721C56.1442 48.1346 47.1346 57.1442 36.0721 57.1442C25.0096 57.0302 16 48.1346 16 37.0721ZM23.0709 24.0709C19.7635 27.3782 17.7107 31.94 17.7107 37.0721C17.7107 42.0901 19.7635 46.766 23.0709 50.0734C26.3782 53.3807 30.94 55.4335 36.0721 55.4335C41.0901 55.4335 45.766 53.3807 49.0734 50.0734C52.3807 46.766 54.4335 42.2042 54.4335 37.0721C54.4335 32.0541 52.3807 27.3782 49.0734 24.0709C45.766 20.7635 41.0901 18.7107 36.0721 18.7107C31.0541 18.7107 26.3782 20.7635 23.0709 24.0709Z" fill="#666666"/>
<path d="M55.4588 36.9583C55.4588 47.6786 46.7913 56.3461 36.0709 56.3461C25.3506 56.3461 16.6831 47.6786 16.6831 36.9583C16.6831 26.238 25.3506 17.5704 36.0709 17.5704C46.6772 17.4564 55.4588 26.1239 55.4588 36.9583Z" fill="white"/>
<path d="M51.8098 36.9582C51.8098 45.7398 44.7389 52.8106 35.9574 52.8106C27.1758 52.8106 20.105 45.7398 20.105 36.9582C20.105 28.1767 27.1758 21.1058 35.9574 21.1058C44.7389 20.9918 51.8098 28.1767 51.8098 36.9582Z" fill="#ED7218"/>
<path d="M40.8618 27.8342C40.8618 29.2028 39.7213 30.3432 38.3528 30.3432C36.9842 30.3432 35.8438 29.2028 35.8438 27.8342C35.8438 26.4657 36.9842 25.3252 38.3528 25.3252C39.7213 25.3252 40.8618 26.4657 40.8618 27.8342Z" fill="white"/>
<path d="M52.0368 35.3618H29.7979V38.5551H52.0368V35.3618Z" fill="white"/>
<path d="M64.5992 36.2552H70.8717C70.6436 33.6321 69.0469 31.5793 66.3098 31.5793C65.1694 31.5793 64.257 31.9214 63.4587 32.2636L63.0025 30.895C63.9149 30.4388 65.1694 30.0967 66.4239 30.0967C70.6436 30.0967 72.8105 33.1759 72.8105 37.0535C72.8105 41.5013 69.9593 44.0103 66.3098 44.0103C64.9413 44.0103 63.8008 43.7822 62.7744 43.326L63.1166 41.9575C63.9149 42.2996 65.0553 42.5277 66.0818 42.5277C69.047 42.5277 70.7576 40.3608 70.9857 37.6237H64.7132V36.2552H64.5992Z" fill="#4D4D4D"/>
<path d="M80.5674 34.0879V43.7818H78.8567V35.4564H75.5494V37.9655C75.5494 40.7026 75.3213 42.5273 74.0668 43.3256C73.6106 43.6678 73.0404 43.8959 72.128 43.8959L71.8999 42.5273C72.242 42.4133 72.5842 42.2992 72.8123 42.1852C73.7246 41.5009 73.8387 40.1323 73.8387 37.9655V34.0879H80.5674Z" fill="#4D4D4D"/>
<path d="M132.001 34.0879V35.4564H129.036V43.7818H127.326V35.4564H124.36V34.0879H132.001Z" fill="#4D4D4D"/>
<path d="M108.735 34.0879V37.9655H113.297V34.0879H115.008V43.7818H113.297V39.4481H108.735V43.7818H107.024V34.0879H108.735Z" fill="#4D4D4D"/>
<path d="M92.428 34.0879V38.3076H92.7701L96.4196 34.0879H98.5865L94.3668 38.4216C95.9634 38.6497 96.8758 39.6762 97.6741 41.3868C97.9022 42.0711 98.2443 42.9835 98.7005 43.7818H96.8758C96.6477 43.3256 96.3055 42.6413 95.9634 41.843C95.2791 40.2464 94.3668 39.5621 92.7701 39.5621H92.428V43.7818H90.7173V34.0879H92.428Z" fill="#4D4D4D"/>
<path d="M83.1902 39.2203C83.1902 41.6153 84.6728 42.5276 86.4975 42.5276C87.752 42.5276 88.5504 42.2996 89.1206 42.0715L89.4627 43.326C88.8925 43.5541 87.752 43.8962 86.2694 43.8962C83.3042 43.8962 81.4795 41.9574 81.4795 38.9922C81.4795 36.027 83.1902 33.7461 86.0413 33.7461C89.2346 33.7461 90.033 36.4832 90.033 38.3079C90.033 38.6501 90.033 38.8782 89.9189 39.1063H83.1902V39.2203ZM88.3223 37.9658C88.3223 36.8253 87.8661 35.1146 85.9273 35.1146C84.1026 35.1146 83.4183 36.7113 83.1902 37.9658H88.3223Z" fill="#4D4D4D"/>
<path d="M105.77 43.4399C105.314 43.668 104.288 44.0102 103.033 44.0102C100.068 44.0102 98.2432 42.0714 98.2432 39.1062C98.2432 36.141 100.296 33.9741 103.489 33.9741C104.516 33.9741 105.428 34.2022 105.884 34.5444L105.428 35.9129C104.972 35.6848 104.402 35.4567 103.375 35.4567C101.208 35.4567 99.9539 37.1674 99.9539 39.1062C99.9539 41.3871 101.436 42.7557 103.261 42.7557C104.288 42.7557 104.972 42.5276 105.428 42.2995L105.77 43.4399Z" fill="#4D4D4D"/>
<path d="M117.745 39.2203C117.745 41.6153 119.227 42.5276 121.052 42.5276C122.307 42.5276 123.105 42.2996 123.675 42.0715L124.017 43.326C123.447 43.5541 122.307 43.8962 120.824 43.8962C117.859 43.8962 116.034 41.9574 116.034 38.9922C116.034 36.027 117.745 33.7461 120.596 33.7461C123.789 33.7461 124.588 36.4832 124.588 38.3079C124.588 38.6501 124.588 38.8782 124.474 39.1063H117.745V39.2203ZM122.877 37.9658C122.877 36.8253 122.421 35.1146 120.482 35.1146C118.657 35.1146 117.973 36.7113 117.745 37.9658H122.877Z" fill="#4D4D4D"/>
</svg>
