<svg width="147" height="74" viewBox="0 0 147 74" fill="none" xmlns="http://www.w3.org/2000/svg">
<path fill-rule="evenodd" clip-rule="evenodd" d="M107.047 20.5631C110.407 20.0681 113.483 20.8711 115.555 22.8191C117.47 24.5811 118.443 27.0841 118.192 29.7421C117.752 34.6571 115.335 38.6141 108.554 45.1361L97.4721 45.5071C97.4721 45.5071 105.164 38.5831 108.083 35.2141C109.967 33.0201 110.783 30.6701 109.998 29.0941C109.496 28.1041 108.398 27.6101 107.048 27.6721V20.5621L107.047 20.5631ZM84.3501 24.4571V30.8561L93.9561 29.8361V23.1281L84.3501 24.4581V24.4571ZM76.5021 53.4201V25.5401L83.0941 24.6111V53.4211H76.5021V53.4201ZM50.4141 29.1551V34.5651L57.6971 33.7611V28.1661L50.4141 29.1561V29.1551ZM44.4181 53.4201V29.9901L49.4721 29.2801V53.4201H44.4181ZM29.6001 32.0301V36.8211L42.6601 35.4001V30.2371L29.6001 32.0301ZM33.7751 37.0991V53.4201H38.5471V36.6051L33.7751 37.0991ZM50.4141 44.0551V38.5521L55.1851 38.1501V43.8071L50.4141 44.0551ZM50.4141 48.0111V53.4201H57.6971V47.7931L50.4141 48.0101V48.0111ZM84.3501 42.2311V35.7091L90.6601 35.1531V41.8911L84.3501 42.2311ZM84.3501 47.0231V53.4201H93.9561V46.7121L84.3501 47.0221V47.0231ZM59.6121 53.4201V27.8881L65.3571 27.0841V53.4201H59.6121ZM66.4241 47.5471V53.4201H74.7441V47.3001L66.4241 47.5471ZM96.0911 46.6511L96.1221 53.4211H118.6V46.0011L96.0911 46.6511ZM96.4051 34.5021C96.0281 26.7751 99.2301 22.0461 105.76 20.6861L105.791 27.9191C104.411 28.4751 103.061 29.5271 103.374 33.8841L96.4041 34.5021H96.4051Z" fill="#1F2229"/>
</svg>
