<svg width="147" height="74" viewBox="0 0 147 74" fill="none" xmlns="http://www.w3.org/2000/svg">
<path d="M11 37C11 43.2946 16.0232 48 22.6586 48C25.017 48 27.0597 47.4971 28.8305 46.2602V42.1507C27.0994 43.2514 24.7939 43.9634 22.62 43.9634C18.414 43.9634 15.274 41.0616 15.274 37C15.274 32.9382 18.414 30.0369 22.62 30.0369C24.7939 30.0369 27.0994 30.7488 28.8305 31.8496V27.7398C27.0597 26.5031 25.017 26 22.6586 26C16.0232 26 11 30.7056 11 37ZM111.003 31.3732C106.253 31.3732 102.4 35.1045 102.4 39.6866C102.4 44.2687 106.253 48 111.003 48C115.752 48 119.604 44.2689 119.604 39.6866C119.604 35.1043 115.751 31.3732 111.003 31.3732ZM111.003 44.5962C108.246 44.5962 106.054 42.4034 106.054 39.6866C106.054 36.9703 108.246 34.7772 111.003 34.7772C113.759 34.7772 115.951 36.9703 115.951 39.6866C115.951 42.4034 113.759 44.5962 111.003 44.5962ZM133.294 31.7007L126.153 42.0438V31.7007H122.557V47.673H126.21L133.347 37.3625V47.673H137V31.7007H133.294ZM45.2293 39.2614C46.1261 38.7375 46.9897 37.5265 46.9897 36.1847C46.9897 33.5992 44.997 31.7007 42.2736 31.7007H33.1535V47.6725H42.6384C45.3621 47.6725 47.4213 45.7415 47.4213 43.0909C47.4216 41.2907 46.3254 39.8506 45.2293 39.2614ZM36.8069 34.8429H41.7089C42.6384 34.8429 43.336 35.4972 43.336 36.3809C43.336 37.2646 42.6384 37.9196 41.7089 37.9196H36.8069V34.8429ZM41.9412 44.531H36.8069V41.0616H41.9412C43.0041 41.0616 43.7677 41.8138 43.7677 42.7961C43.7677 43.7779 43.0041 44.531 41.9412 44.531ZM56.3123 31.7009C53.0906 31.7009 50.6658 34.09 50.6658 37.1994C50.6658 39.7227 52.2987 41.7811 54.6632 42.4404L50.2346 47.673H54.951L59.1892 42.6652H61.2157V47.673H64.8691V31.7009H56.3123ZM56.8104 34.8429H61.2157V39.5233H56.8104C55.3494 39.5233 54.3197 38.4431 54.3197 37.1997C54.3195 35.8903 55.3494 34.8429 56.8104 34.8429ZM88.6579 31.7007H85.0044V47.673H88.6579V41.1924H95.7943V47.673H99.4477V31.7007H95.7943V38.0504H88.6579V31.7007ZM68.4801 46.7421V43.2089C69.9062 43.9451 71.6498 44.5962 73.6432 44.5962C76.0661 44.5962 77.595 43.8833 77.595 42.6156C77.595 41.4842 76.2592 41.0504 74.5585 41.0504H71.7707V37.9084H74.5585C76.2905 37.9084 77.2606 37.2818 77.2606 36.4241C77.2606 35.1662 75.7298 34.7775 73.9602 34.7775C71.9149 34.7775 70.2546 35.3616 68.8988 36.012V32.5869C70.3052 31.9045 72.1683 31.3732 74.4877 31.3732C78.0246 31.3732 80.8989 33.2271 80.8989 35.7831C80.8989 37.6461 79.7912 38.7924 78.9014 39.1786C80.0428 39.7092 81.3329 41.0316 81.3329 42.9429C81.3329 45.9394 78.4134 47.9998 74.1403 47.9998C71.6886 48 69.8944 47.4774 68.4801 46.7421Z" fill="#4C1E87"/>
<path d="M129.475 30.8368C132.283 30.8368 134.425 29.1256 134.656 26.6154L131.73 26.2554C131.73 27.3406 130.731 28.1737 129.475 28.1737C128.22 28.1737 127.221 27.3406 127.221 26.2554L124.294 26.6154C124.527 29.1256 126.668 30.8368 129.475 30.8368Z" fill="#E41D94"/>
</svg>
