<svg width="147" height="74" viewBox="0 0 147 74" fill="none" xmlns="http://www.w3.org/2000/svg">
<path d="M72.394 27H67.4546V47H71.8486V33.8182H72.1213L76.788 41.4242H79.1213L83.788 33.8182H84.0607V47H88.4849V27H83.6364L78.0607 36.0606L72.394 27Z" fill="#BB0032"/>
<path d="M97.6664 27H93.2119V47H97.6664V38.4545H99.8786L106.03 47H111.818L103.606 36.3333L111.091 27H105.545L99.8483 34.3636L97.6664 34.6061V27Z" fill="#BB0032"/>
<path d="M131.03 27H115.03V47H124.121C125.273 47 126.303 46.8485 127.273 46.5758C128.242 46.2727 129.061 45.8485 129.758 45.3333C130.455 44.7576 131 44.0909 131.424 43.303C131.788 42.4545 132 41.5758 132 40.5152C132 39.4545 131.788 38.5152 131.424 37.6667C131 36.8788 130.455 36.2121 129.788 35.697C129.061 35.1515 128.242 34.7576 127.273 34.5152C126.303 34.2424 125.273 34.1212 124.121 34.1212H119.485V31.0303H127.061L131.03 27ZM119.515 43V38.0303H124.273C125.303 38.0303 126.091 38.2424 126.636 38.697C127.212 39.1212 127.485 39.697 127.485 40.5152C127.485 41.2727 127.212 41.8485 126.636 42.3333C126.091 42.7576 125.242 43 124.151 43H119.515Z" fill="#BB0032"/>
<path d="M39.8788 27.0303L29.8788 37L24.9091 32L29.9091 27H20H19.9091L15 32L30 47L42.7879 34.0909H50.4545L57.5152 27.0303H39.8788Z" fill="#BB0032"/>
<path d="M32.0605 46.7879L33.4848 45.3636L43.3635 35.4849H57.5454L50.4544 42.5455H46.2726L42.0908 46.7879H32.0605Z" fill="#BB0032"/>
</svg>
