<svg width="147" height="74" viewBox="0 0 147 74" fill="none" xmlns="http://www.w3.org/2000/svg">
<g clip-path="url(#clip0)">
<path d="M95.7764 29.61L99.5901 29.6015V25.38L74.4141 11.9766L49.238 25.38V29.6865L53.0518 29.6779V33.5851H54.7505L54.7591 54.2933H53.0518V58.277H49.238V62.2606H99.5987V58.277H95.7849V54.2933H94.0691L94.0605 33.5851H95.7848V29.61H95.7764ZM72.1377 33.5852V29.6526L76.682 29.644V33.5852H78.4063L78.4148 54.2935H76.6906V58.2771H72.1463V54.2935H70.4135L70.405 33.5852H72.1377ZM58.5728 54.2935L58.5643 33.5852H60.2801V29.6695L64.9093 29.661V33.5852H66.5741L66.5827 54.2935H64.9094V58.2771H60.2801V54.2935H58.5728ZM83.9188 58.2771V54.2935H82.237L82.2284 33.5852H83.9188V29.6271L88.5479 29.6185V33.5767H90.2383L90.2468 54.2849H88.548V58.2686H83.9189V58.2771H83.9188Z" fill="white"/>
<path d="M54.1904 26.3571L74.3382 15.6377L94.4773 26.3571H54.1904Z" fill="#7DC041"/>
<path d="M99.9829 57.4619H96.1692V53.4782H94.4619V34.4773H96.1692V30.4937H99.9829V24.8876L73.9915 11L48 24.8962V30.4172H51.8137V34.4008H53.521V53.4103H51.8137V57.394H48V63H99.9829V57.4619ZM94.5383 55.1091V57.4619H88.9323V55.1091H94.5383ZM87.3099 57.4619H84.303V53.4782H82.5958V34.4773H84.3031V30.4937H87.31V34.4773H89.0173V53.4868H87.31V57.4619H87.3099ZM75.4524 57.4619H72.4455V53.4782H70.7382V34.4773H72.4455V30.4937H75.4524V34.4773H77.1597V53.4868H75.4524V57.4619ZM63.6798 57.4619H60.6729V53.4782H58.9656V34.4773H60.6729V30.4937H63.6798V34.4773H65.3871V53.4868H63.6798V57.4619ZM65.3021 32.8549V30.5021H70.9081V32.8549H65.3021ZM69.2008 53.4868H67.0094V34.4773H69.2008V53.4868ZM70.8232 55.0242V57.5469H65.2172V55.1091L70.8232 55.0242ZM77.0747 32.8549V30.5021H82.6807V32.8549H77.0747ZM80.9734 53.4868H78.782V34.4773H80.9734V53.4868ZM82.6807 55.1091V57.4619H77.0747V55.1091H82.6807ZM90.6396 34.4773H92.8311V53.4868H90.6396V34.4773ZM88.9408 32.8549V30.5021H94.5469V32.8549H88.9408ZM49.6223 28.8713V25.9494L73.9915 12.9536L98.3606 25.9494V28.8713H49.6223ZM53.4446 32.8549V30.5021H59.0506V32.8549H53.4446ZM57.3433 53.4868H55.1519V34.4773H57.3433V53.4868ZM59.0506 55.1091V57.4619H53.4446V55.1091H59.0506ZM49.6223 61.522V59.1692H98.3605V61.522H49.6223Z" fill="#333333"/>
<path d="M69.4362 21.8042H67.814V23.4265H69.4362V21.8042Z" fill="white"/>
<path d="M74.7956 21.8042H73.1733V23.4265H74.7956V21.8042Z" fill="white"/>
<path d="M80.1555 21.8042H78.5332V23.4265H80.1555V21.8042Z" fill="white"/>
</g>
<defs>
<clipPath id="clip0">
<rect width="52" height="52" fill="white" transform="translate(48 11)"/>
</clipPath>
</defs>
</svg>
