<svg width="147" height="74" viewBox="0 0 147 74" fill="none" xmlns="http://www.w3.org/2000/svg">
<path fill-rule="evenodd" clip-rule="evenodd" d="M32.8203 28H25.2803V31.712H32.7043V28H32.8203Z" fill="#039BE5"/>
<path fill-rule="evenodd" clip-rule="evenodd" d="M20.6392 38.6724H32.7032V34.9604H20.6392V38.6724Z" fill="#1BAF5D"/>
<path fill-rule="evenodd" clip-rule="evenodd" d="M16 45.6319H32.82V41.9199H16V45.6319Z" fill="#F57C00"/>
<path fill-rule="evenodd" clip-rule="evenodd" d="M109.611 34.148C109.031 34.96 108.683 35.888 108.683 36.816V45.632H112.395V36.932C112.395 36.7 112.395 36.468 112.511 36.352C112.627 36.12 112.743 36.004 112.975 35.888C113.323 35.656 113.671 35.424 114.135 35.424H117.267L117.499 32.64H114.367C113.207 32.64 112.163 32.64 111.583 32.872C110.771 32.988 110.075 33.452 109.611 34.148ZM97.5472 45.632H101.259V32.64H97.5472V45.632ZM96.1552 32.64H91.1672L85.5992 39.368L91.1672 45.632H96.2712L90.2392 39.136L96.1552 32.64ZM131.999 32.64H128.287V42.848H124.923C124.459 42.848 124.111 42.732 123.763 42.384C123.415 42.036 123.183 41.688 123.183 41.34V32.64H119.471V41.572C119.471 42.616 119.819 43.428 120.283 44.24C120.747 44.936 121.443 45.284 122.371 45.516C122.835 45.632 131.999 45.516 131.999 45.516V32.64ZM57.0632 40.528H61.7032V42.848H57.0632C56.7152 42.848 56.4832 42.848 56.1352 42.616C55.9032 42.384 55.6712 42.036 55.6712 41.688C55.6712 41.224 55.9032 40.992 56.1352 40.644C56.3672 40.528 57.0632 40.528 57.0632 40.528ZM60.6592 35.424C60.8912 35.54 61.0072 35.656 61.2392 35.888C61.4712 36.12 61.5872 36.352 61.5872 36.468C61.7032 36.584 61.7032 36.816 61.7032 37.048V37.744H55.5552C54.5112 37.744 53.8152 37.976 53.1192 38.672C52.4232 39.368 51.9592 40.412 51.9592 41.572C51.9592 42.616 52.3072 44.008 53.1192 44.704C53.8152 45.4 54.7432 45.632 55.9032 45.632H65.2992V38.208C65.2992 37.164 65.1832 36.352 64.9512 35.656C64.7192 34.96 64.3712 34.38 63.7912 33.8C63.3272 33.336 62.8632 33.104 62.1672 32.872C61.5872 32.64 60.7752 32.524 59.6152 32.524H52.6552L52.8872 35.308H60.6592V35.424ZM43.6072 35.424C44.5352 35.424 45.3472 35.772 45.9272 36.584C46.5072 37.396 46.8552 38.208 46.8552 39.252C46.8552 40.18 46.6232 41.108 46.0432 41.804C45.4632 42.5 44.7672 42.964 43.8392 42.964H40.3592V35.424H43.6072ZM49.0592 34.612C48.0152 33.22 46.7392 32.64 45.1152 32.64H40.2432V28H36.5312V45.748H44.9992C46.6232 45.748 48.0152 45.168 49.0592 43.776C49.9872 42.5 50.4512 40.992 50.4512 39.136C50.5672 37.396 49.9872 35.888 49.0592 34.612ZM81.6552 45.632H85.3672V28H81.6552V45.632ZM79.7992 36.816C79.7992 35.888 79.4512 34.96 78.8712 34.148C78.4072 33.452 77.7112 32.988 76.7832 32.756C76.2032 32.64 75.3912 32.524 74.1152 32.524H67.1552V45.516H70.8672V35.308H74.3472C74.8112 35.308 75.1592 35.424 75.5072 35.772C75.7392 35.888 75.8552 36.12 75.9712 36.236C76.0872 36.468 76.0872 36.584 76.0872 36.816V45.516H79.7992V36.816Z" fill="#465168"/>
<path fill-rule="evenodd" clip-rule="evenodd" d="M97.5488 31.248H101.261V28H97.5488V31.248Z" fill="#039BE5"/>
<path fill-rule="evenodd" clip-rule="evenodd" d="M103.116 45.6318H106.828V42.3838H103.116V45.6318Z" fill="#F57C00"/>
</svg>
