<svg width="106" height="58" viewBox="0 0 106 58" fill="none" xmlns="http://www.w3.org/2000/svg">
<path d="M36.6471 49.7252V47.0192C36.7291 46.1172 36.0731 45.3792 35.1711 45.2972C35.0891 45.2972 35.0071 45.2972 34.9251 45.2972C34.3511 45.2972 33.6951 45.5432 33.3671 46.0352C33.0391 45.5432 32.5471 45.2152 31.9731 45.2972C31.4811 45.2972 30.9891 45.5432 30.7431 45.9532V45.3792H29.8411V49.7252H30.8251V47.3472C30.7431 46.7732 31.1531 46.2812 31.7271 46.1992C31.8091 46.1992 31.8911 46.1992 31.8911 46.1992C32.5471 46.1992 32.7931 46.6092 32.7931 47.3472V49.7252H33.7771V47.3472C33.6951 46.7732 34.1051 46.2812 34.6791 46.1992C34.7611 46.1992 34.7611 46.1992 34.8431 46.1992C35.4991 46.1992 35.8271 46.6092 35.8271 47.3472V49.7252H36.6471ZM50.6691 45.3792H49.1111V44.0672H48.1271V45.3792H47.3071V46.1992H48.2091V48.1672C48.2091 49.1512 48.6191 49.8072 49.6851 49.8072C50.0951 49.8072 50.5051 49.7252 50.8331 49.4792L50.5871 48.6592C50.3411 48.8232 50.0131 48.9052 49.7671 48.9052C49.2751 48.9052 49.1111 48.5772 49.1111 48.1672V46.1992H50.6691V45.3792ZM58.7051 45.2972C58.2131 45.2972 57.8031 45.5432 57.5571 45.9532V45.4612H56.6551V49.8072H57.5571V47.3472C57.5571 46.6092 57.8851 46.1992 58.4591 46.1992C58.6231 46.1992 58.8691 46.1992 59.0331 46.2812L59.3611 45.3792C59.1151 45.2972 58.8691 45.2972 58.7051 45.2972ZM46.5691 45.7892C46.0771 45.4612 45.4211 45.2972 44.7651 45.2972C43.6991 45.2972 42.9611 45.7892 42.9611 46.6912C42.9611 47.4292 43.4531 47.8392 44.4371 48.0032L44.9291 48.0852C45.4211 48.1672 45.6671 48.3312 45.6671 48.5772C45.6671 48.9052 45.3391 49.0692 44.6831 49.0692C44.1911 49.0692 43.6991 48.9052 43.2071 48.5772L42.7151 49.3152C43.2891 49.7252 43.9451 49.8892 44.6011 49.8892C45.8311 49.8892 46.5691 49.3152 46.5691 48.4952C46.5691 47.6752 45.9951 47.3472 45.0931 47.1832L44.6011 47.1012C44.1911 47.0192 43.8631 46.9372 43.8631 46.6912C43.8631 46.3632 44.1911 46.1992 44.6831 46.1992C45.1751 46.1992 45.6671 46.3632 46.0771 46.6092L46.5691 45.7892ZM71.7431 45.2972C71.2511 45.2972 70.8411 45.5432 70.5951 45.9532V45.4612H69.6931V49.8072H70.5951V47.3472C70.5951 46.6092 70.9231 46.1992 71.4971 46.1992C71.6611 46.1992 71.9071 46.1992 72.0711 46.2812L72.3991 45.3792C72.2351 45.2972 71.9891 45.2972 71.7431 45.2972ZM59.6071 47.5932C59.5251 48.8232 60.5091 49.8072 61.7391 49.8892C61.8211 49.8892 61.9031 49.8892 61.9031 49.8892C62.4771 49.8892 63.0511 49.7252 63.4611 49.3972L62.9691 48.6592C62.6411 48.9052 62.2311 49.0692 61.8211 49.0692C61.0831 48.9872 60.5091 48.3312 60.5091 47.5932C60.5911 46.9372 61.0831 46.3632 61.8211 46.2812C62.2311 46.2812 62.6411 46.4452 62.9691 46.6912L63.4611 45.9532C63.0511 45.6252 62.4771 45.3792 61.9031 45.4612C60.6731 45.3792 59.6891 46.2812 59.6071 47.5112C59.6071 47.4292 59.6071 47.5112 59.6071 47.5932ZM68.4631 47.5932V45.4612H67.5611V45.9532C67.2331 45.5432 66.7411 45.2972 66.1671 45.2972C64.9371 45.2972 63.8711 46.2812 63.8711 47.5932C63.8711 48.8232 64.8551 49.8892 66.1671 49.8892C66.6591 49.8892 67.2331 49.6432 67.5611 49.2332V49.7252H68.4631V47.5932ZM64.9371 47.5932C65.0191 46.8552 65.5931 46.3632 66.3311 46.3632C67.0691 46.4452 67.5611 47.0192 67.5611 47.7572C67.5611 48.4132 66.9871 48.9872 66.2491 48.9872C65.5111 48.9872 64.9371 48.4132 64.9371 47.6752V47.5932ZM53.6211 45.2972C52.3911 45.2972 51.4071 46.3632 51.4071 47.5932C51.4071 48.8232 52.4731 49.8072 53.7031 49.8072C54.3591 49.8072 55.0151 49.6432 55.5071 49.2332L55.0151 48.5772C54.6871 48.8232 54.1951 48.9872 53.7851 49.0692C53.1291 49.1512 52.5551 48.6592 52.4731 48.0032H55.6711C55.6711 47.9212 55.6711 47.7572 55.6711 47.6752C55.6711 46.1992 54.8511 45.2972 53.6211 45.2972ZM53.6211 46.1172C54.1951 46.1172 54.6871 46.6092 54.6871 47.1832H52.3911C52.4731 46.6092 52.9651 46.1172 53.6211 46.1172ZM77.1551 47.5932V43.6572H76.2531V45.9532C75.9251 45.5432 75.4331 45.2972 74.8591 45.2972C73.6291 45.2972 72.5631 46.2812 72.5631 47.5932C72.5631 48.8232 73.5471 49.8892 74.8591 49.8892C75.3511 49.8892 75.9251 49.6432 76.2531 49.2332V49.7252H77.1551V47.5932ZM78.7131 49.1512C78.7951 49.1512 78.7951 49.1512 78.8771 49.1512C78.9591 49.1512 78.9591 49.2332 79.0411 49.2332C79.0411 49.2332 79.1231 49.3152 79.1231 49.3972C79.2051 49.4792 79.2051 49.6432 79.1231 49.7252C79.1231 49.8072 79.0411 49.8072 79.0411 49.8892C79.0411 49.8892 78.9591 49.9712 78.8771 49.9712C78.7951 49.9712 78.7951 49.9712 78.7131 49.9712C78.5491 49.9712 78.3851 49.8892 78.3031 49.7252C78.2211 49.6432 78.2211 49.4792 78.3031 49.3972C78.3031 49.3152 78.3851 49.3152 78.3851 49.2332C78.3851 49.2332 78.4671 49.1512 78.5491 49.1512C78.6311 49.1512 78.7131 49.1512 78.7131 49.1512ZM78.7131 49.8892C78.7951 49.8892 78.7951 49.8892 78.8771 49.8892L78.9591 49.8072C79.0411 49.6432 79.0411 49.4792 78.9591 49.3152L78.8771 49.2332C78.7951 49.2332 78.7951 49.2332 78.7131 49.2332C78.6311 49.2332 78.6311 49.2332 78.5491 49.2332L78.4671 49.3152C78.3851 49.4792 78.3851 49.6432 78.4671 49.8072L78.5491 49.8892C78.6311 49.8892 78.7131 49.8892 78.7131 49.8892ZM78.7951 49.3152C78.8771 49.3152 78.8771 49.3152 78.8771 49.3152C78.8771 49.3152 78.9591 49.3972 78.8771 49.3972V49.4792H78.7951L78.9591 49.6432H78.8771L78.7951 49.4792V49.6432H78.5491V49.2332L78.7951 49.3152ZM78.6311 49.3972V49.4792H78.7131C78.7131 49.4792 78.7131 49.4792 78.7951 49.4792C78.7951 49.4792 78.7951 49.4792 78.7131 49.4792L78.6311 49.3972ZM73.7111 47.5932C73.7931 46.8552 74.3671 46.3632 75.1051 46.3632C75.8431 46.4452 76.3351 47.0192 76.3351 47.7572C76.3351 48.4132 75.7611 48.9872 75.0231 48.9872C74.2851 48.9872 73.7111 48.4132 73.7111 47.6752V47.5932ZM41.8951 47.5932V45.4612H40.9931V45.9532C40.6651 45.5432 40.1731 45.2972 39.5991 45.2972C38.3691 45.2972 37.3031 46.2812 37.3031 47.5932C37.3031 48.8232 38.2871 49.8892 39.5991 49.8892C40.0911 49.8892 40.6651 49.6432 40.9931 49.2332V49.7252H41.8951V47.5932ZM38.4511 47.5932C38.5331 46.8552 39.1071 46.3632 39.8451 46.3632C40.5831 46.4452 41.0751 47.0192 41.0751 47.7572C41.0751 48.4132 40.5011 48.9872 39.7631 48.9872C39.0251 48.9872 38.4511 48.4132 38.4511 47.6752C38.3691 47.6752 38.3691 47.5932 38.4511 47.5932Z" fill="#231F20"/>
<path d="M60.509 12.415H46.241V37.999H60.509V12.415Z" fill="#FF5F00"/>
<path d="M47.1431 25.289C47.1431 20.2871 49.4391 15.5311 53.3751 12.4971C46.3231 6.92105 36.0731 8.15105 30.4971 15.2031C24.9211 22.2551 26.1511 32.5051 33.2031 38.0811C39.1071 42.7551 47.3891 42.7551 53.2931 38.0811C49.4391 34.9651 47.1431 30.291 47.1431 25.289Z" fill="#EB001B"/>
<path d="M79.697 25.289C79.697 34.309 72.399 41.607 63.379 41.607C59.689 41.607 56.163 40.377 53.293 38.163C60.345 32.587 61.575 22.337 55.999 15.285C55.179 14.301 54.277 13.317 53.293 12.579C60.427 6.92097 70.677 8.15097 76.253 15.203C78.467 18.073 79.697 21.599 79.697 25.289Z" fill="#F79E1B"/>
<path d="M78.139 35.3752V34.8832H78.385V34.8012H77.811V34.8832H78.057V35.3752H78.139ZM79.205 35.3752V34.7192H79.041L78.877 35.2112L78.713 34.7192H78.549V35.3752H78.631V34.8832L78.795 35.2932H78.877L79.041 34.8832V35.3752H79.205Z" fill="#F79E1B"/>
</svg>
