<svg width="70" height="23" viewBox="0 0 70 23" fill="none" xmlns="http://www.w3.org/2000/svg">
<path d="M35.9395 7.64714C35.9395 10.7875 38.7311 12.5322 40.8246 13.579C42.9182 14.6257 43.616 15.3236 43.616 16.3703C43.616 17.766 41.8714 18.4639 40.1267 18.4639C37.3353 18.4639 35.5906 17.7661 34.1949 17.0682L33.1482 21.9532C34.5439 22.6511 36.9863 23 39.4288 23C45.3606 23 49.1989 20.2086 49.1989 15.6725C49.1989 9.74071 41.1735 9.74071 41.1735 6.94929C41.1735 6.25143 41.8714 5.20465 43.616 5.20465C44.3139 5.20465 46.7564 4.85573 49.1989 6.25145L50.2456 1.71537C48.8499 1.36644 47.1053 0.668576 45.0117 0.668576C39.7778 0.319647 35.9395 3.11107 35.9395 7.64714ZM60.3645 0.668576C59.3177 0.668576 58.271 1.36643 57.9221 2.41322L49.5478 22.6511H55.4795L56.5264 19.5107H63.8538L64.5517 22.6511H69.7856L65.2496 0.668576H60.3645ZM61.0624 6.60039L62.807 14.9746H58.271L61.0624 6.60039ZM28.6121 0.668576L24.076 22.6511H29.6589L34.1949 0.668576H28.6121ZM20.2378 0.668576L14.3061 15.6725L11.8635 3.11111C11.5146 1.7154 10.4679 1.01753 9.4211 1.01753H0V1.71537C2.09357 2.0643 4.18716 2.76215 5.58287 3.46001C6.28073 3.80894 6.62963 4.15789 6.97856 5.5536L11.5146 23H17.4464L26.5185 1.01753H20.2378" fill="#191F71"/>
</svg>
